[
    {
        "notes": [
            {
                "velocity": 100,
                "isDrum": true,
                "instrument": 9,
                "pitch": 36,
                "endTime": 0.125
            },
            {
                "endTime": 0.375,
                "isDrum": true,
                "startTime": 0.25,
                "instrument": 9,
                "pitch": 42,
                "velocity": 100
            },
            {
                "endTime": 0.625,
                "isDrum": true,
                "startTime": 0.5,
                "instrument": 9,
                "pitch": 36,
                "velocity": 100
            },
            {
                "endTime": 0.875,
                "isDrum": true,
                "startTime": 0.75,
                "instrument": 9,
                "pitch": 42,
                "velocity": 100
            },
            {
                "endTime": 1.125,
                "isDrum": true,
                "startTime": 1,
                "instrument": 9,
                "pitch": 36,
                "velocity": 100
            },
            {
                "endTime": 1.375,
                "isDrum": true,
                "startTime": 1.25,
                "instrument": 9,
                "pitch": 42,
                "velocity": 100
            },
            {
                "endTime": 1.625,
                "isDrum": true,
                "startTime": 1.5,
                "instrument": 9,
                "pitch": 36,
                "velocity": 100
            },
            {
                "endTime": 1.875,
                "isDrum": true,
                "startTime": 1.75,
                "instrument": 9,
                "pitch": 42,
                "velocity": 100
            },
            {
                "endTime": 2.125,
                "isDrum": true,
                "startTime": 2,
                "instrument": 9,
                "pitch": 36,
                "velocity": 100
            },
            {
                "endTime": 3.125,
                "isDrum": true,
                "startTime": 3,
                "instrument": 9,
                "pitch": 36,
                "velocity": 100
            },
            {
                "endTime": 3.625,
                "isDrum": true,
                "startTime": 3.5,
                "instrument": 9,
                "pitch": 36,
                "velocity": 100
            },
            {
                "endTime": 3.875,
                "isDrum": true,
                "startTime": 3.75,
                "instrument": 9,
                "pitch": 42,
                "velocity": 100
            }
        ],
        "totalTime": 3.875,
        "ticksPerQuarter": 220,
        "tempos": [
            {
                "qpm": 120
            }
        ]
    },
    {
        "notes": [
            {
                "velocity": 100,
                "isDrum": true,
                "instrument": 9,
                "pitch": 36,
                "endTime": 0.125
            },
            {
                "endTime": 0.375,
                "isDrum": true,
                "startTime": 0.25,
                "instrument": 9,
                "pitch": 42,
                "velocity": 100
            },
            {
                "endTime": 0.625,
                "isDrum": true,
                "startTime": 0.5,
                "instrument": 9,
                "pitch": 36,
                "velocity": 100
            },
            {
                "endTime": 0.875,
                "isDrum": true,
                "startTime": 0.75,
                "instrument": 9,
                "pitch": 42,
                "velocity": 100
            },
            {
                "endTime": 1.125,
                "isDrum": true,
                "startTime": 1,
                "instrument": 9,
                "pitch": 36,
                "velocity": 100
            },
            {
                "endTime": 1.375,
                "isDrum": true,
                "startTime": 1.25,
                "instrument": 9,
                "pitch": 42,
                "velocity": 100
            },
            {
                "endTime": 1.625,
                "isDrum": true,
                "startTime": 1.5,
                "instrument": 9,
                "pitch": 36,
                "velocity": 100
            },
            {
                "endTime": 1.875,
                "isDrum": true,
                "startTime": 1.75,
                "instrument": 9,
                "pitch": 42,
                "velocity": 100
            },
            {
                "endTime": 2.125,
                "isDrum": true,
                "startTime": 2,
                "instrument": 9,
                "pitch": 36,
                "velocity": 100
            },
            {
                "endTime": 3.125,
                "isDrum": true,
                "startTime": 3,
                "instrument": 9,
                "pitch": 36,
                "velocity": 100
            },
            {
                "endTime": 3.375,
                "isDrum": true,
                "startTime": 3.25,
                "instrument": 9,
                "pitch": 42,
                "velocity": 100
            },
            {
                "endTime": 3.625,
                "isDrum": true,
                "startTime": 3.5,
                "instrument": 9,
                "pitch": 36,
                "velocity": 100
            },
            {
                "endTime": 3.875,
                "isDrum": true,
                "startTime": 3.75,
                "instrument": 9,
                "pitch": 42,
                "velocity": 100
            }
        ],
        "totalTime": 3.875,
        "ticksPerQuarter": 220,
        "tempos": [
            {
                "qpm": 120
            }
        ]
    },
    {
        "notes": [
            {
                "velocity": 100,
                "isDrum": true,
                "instrument": 9,
                "pitch": 36,
                "endTime": 0.125
            },
            {
                "endTime": 0.375,
                "isDrum": true,
                "startTime": 0.25,
                "instrument": 9,
                "pitch": 42,
                "velocity": 100
            },
            {
                "endTime": 0.625,
                "isDrum": true,
                "startTime": 0.5,
                "instrument": 9,
                "pitch": 36,
                "velocity": 100
            },
            {
                "endTime": 0.875,
                "isDrum": true,
                "startTime": 0.75,
                "instrument": 9,
                "pitch": 42,
                "velocity": 100
            },
            {
                "endTime": 1.125,
                "isDrum": true,
                "startTime": 1,
                "instrument": 9,
                "pitch": 36,
                "velocity": 100
            },
            {
                "endTime": 1.375,
                "isDrum": true,
                "startTime": 1.25,
                "instrument": 9,
                "pitch": 42,
                "velocity": 100
            },
            {
                "endTime": 1.625,
                "isDrum": true,
                "startTime": 1.5,
                "instrument": 9,
                "pitch": 42,
                "velocity": 100
            },
            {
                "endTime": 1.625,
                "isDrum": true,
                "startTime": 1.5,
                "instrument": 9,
                "pitch": 36,
                "velocity": 100
            },
            {
                "endTime": 1.875,
                "isDrum": true,
                "startTime": 1.75,
                "instrument": 9,
                "pitch": 42,
                "velocity": 100
            },
            {
                "endTime": 2.125,
                "isDrum": true,
                "startTime": 2,
                "instrument": 9,
                "pitch": 36,
                "velocity": 100
            },
            {
                "endTime": 2.875,
                "isDrum": true,
                "startTime": 2.75,
                "instrument": 9,
                "pitch": 42,
                "velocity": 100
            },
            {
                "endTime": 3.125,
                "isDrum": true,
                "startTime": 3,
                "instrument": 9,
                "pitch": 36,
                "velocity": 100
            },
            {
                "endTime": 3.375,
                "isDrum": true,
                "startTime": 3.25,
                "instrument": 9,
                "pitch": 42,
                "velocity": 100
            },
            {
                "endTime": 3.625,
                "isDrum": true,
                "startTime": 3.5,
                "instrument": 9,
                "pitch": 42,
                "velocity": 100
            },
            {
                "endTime": 3.875,
                "isDrum": true,
                "startTime": 3.75,
                "instrument": 9,
                "pitch": 42,
                "velocity": 100
            }
        ],
        "totalTime": 3.875,
        "ticksPerQuarter": 220,
        "tempos": [
            {
                "qpm": 120
            }
        ]
    },
    {
        "notes": [
            {
                "velocity": 100,
                "isDrum": true,
                "instrument": 9,
                "pitch": 36,
                "endTime": 0.125
            },
            {
                "endTime": 0.375,
                "isDrum": true,
                "startTime": 0.25,
                "instrument": 9,
                "pitch": 42,
                "velocity": 100
            },
            {
                "endTime": 0.625,
                "isDrum": true,
                "startTime": 0.5,
                "instrument": 9,
                "pitch": 36,
                "velocity": 100
            },
            {
                "endTime": 0.875,
                "isDrum": true,
                "startTime": 0.75,
                "instrument": 9,
                "pitch": 42,
                "velocity": 100
            },
            {
                "endTime": 1.125,
                "isDrum": true,
                "startTime": 1,
                "instrument": 9,
                "pitch": 36,
                "velocity": 100
            },
            {
                "endTime": 1.375,
                "isDrum": true,
                "startTime": 1.25,
                "instrument": 9,
                "pitch": 42,
                "velocity": 100
            },
            {
                "endTime": 1.625,
                "isDrum": true,
                "startTime": 1.5,
                "instrument": 9,
                "pitch": 42,
                "velocity": 100
            },
            {
                "endTime": 1.625,
                "isDrum": true,
                "startTime": 1.5,
                "instrument": 9,
                "pitch": 36,
                "velocity": 100
            },
            {
                "endTime": 1.875,
                "isDrum": true,
                "startTime": 1.75,
                "instrument": 9,
                "pitch": 42,
                "velocity": 100
            },
            {
                "endTime": 1.875,
                "isDrum": true,
                "startTime": 1.75,
                "instrument": 9,
                "pitch": 36,
                "velocity": 100
            },
            {
                "endTime": 2.125,
                "isDrum": true,
                "startTime": 2,
                "instrument": 9,
                "pitch": 42,
                "velocity": 100
            },
            {
                "endTime": 2.125,
                "isDrum": true,
                "startTime": 2,
                "instrument": 9,
                "pitch": 36,
                "velocity": 100
            },
            {
                "endTime": 2.375,
                "isDrum": true,
                "startTime": 2.25,
                "instrument": 9,
                "pitch": 42,
                "velocity": 100
            },
            {
                "endTime": 2.875,
                "isDrum": true,
                "startTime": 2.75,
                "instrument": 9,
                "pitch": 42,
                "velocity": 100
            },
            {
                "endTime": 3.125,
                "isDrum": true,
                "startTime": 3,
                "instrument": 9,
                "pitch": 42,
                "velocity": 100
            },
            {
                "endTime": 3.125,
                "isDrum": true,
                "startTime": 3,
                "instrument": 9,
                "pitch": 36,
                "velocity": 100
            },
            {
                "endTime": 3.375,
                "isDrum": true,
                "startTime": 3.25,
                "instrument": 9,
                "pitch": 42,
                "velocity": 100
            },
            {
                "endTime": 3.625,
                "isDrum": true,
                "startTime": 3.5,
                "instrument": 9,
                "pitch": 42,
                "velocity": 100
            },
            {
                "endTime": 3.875,
                "isDrum": true,
                "startTime": 3.75,
                "instrument": 9,
                "pitch": 42,
                "velocity": 100
            }
        ],
        "totalTime": 3.875,
        "ticksPerQuarter": 220,
        "tempos": [
            {
                "qpm": 120
            }
        ]
    },
    {
        "notes": [
            {
                "velocity": 100,
                "isDrum": true,
                "instrument": 9,
                "pitch": 36,
                "endTime": 0.125
            },
            {
                "endTime": 0.375,
                "isDrum": true,
                "startTime": 0.25,
                "instrument": 9,
                "pitch": 42,
                "velocity": 100
            },
            {
                "endTime": 0.625,
                "isDrum": true,
                "startTime": 0.5,
                "instrument": 9,
                "pitch": 42,
                "velocity": 100
            },
            {
                "endTime": 0.875,
                "isDrum": true,
                "startTime": 0.75,
                "instrument": 9,
                "pitch": 42,
                "velocity": 100
            },
            {
                "endTime": 1.125,
                "isDrum": true,
                "startTime": 1,
                "instrument": 9,
                "pitch": 42,
                "velocity": 100
            },
            {
                "endTime": 1.125,
                "isDrum": true,
                "startTime": 1,
                "instrument": 9,
                "pitch": 36,
                "velocity": 100
            },
            {
                "endTime": 1.375,
                "isDrum": true,
                "startTime": 1.25,
                "instrument": 9,
                "pitch": 42,
                "velocity": 100
            },
            {
                "endTime": 1.625,
                "isDrum": true,
                "startTime": 1.5,
                "instrument": 9,
                "pitch": 42,
                "velocity": 100
            },
            {
                "endTime": 1.625,
                "isDrum": true,
                "startTime": 1.5,
                "instrument": 9,
                "pitch": 38,
                "velocity": 100
            },
            {
                "endTime": 1.875,
                "isDrum": true,
                "startTime": 1.75,
                "instrument": 9,
                "pitch": 42,
                "velocity": 100
            },
            {
                "endTime": 2.125,
                "isDrum": true,
                "startTime": 2,
                "instrument": 9,
                "pitch": 49,
                "velocity": 100
            },
            {
                "endTime": 2.125,
                "isDrum": true,
                "startTime": 2,
                "instrument": 9,
                "pitch": 36,
                "velocity": 100
            },
            {
                "endTime": 2.375,
                "isDrum": true,
                "startTime": 2.25,
                "instrument": 9,
                "pitch": 42,
                "velocity": 100
            },
            {
                "endTime": 2.875,
                "isDrum": true,
                "startTime": 2.75,
                "instrument": 9,
                "pitch": 42,
                "velocity": 100
            },
            {
                "endTime": 3.125,
                "isDrum": true,
                "startTime": 3,
                "instrument": 9,
                "pitch": 42,
                "velocity": 100
            },
            {
                "endTime": 3.125,
                "isDrum": true,
                "startTime": 3,
                "instrument": 9,
                "pitch": 36,
                "velocity": 100
            },
            {
                "endTime": 3.375,
                "isDrum": true,
                "startTime": 3.25,
                "instrument": 9,
                "pitch": 42,
                "velocity": 100
            },
            {
                "endTime": 3.625,
                "isDrum": true,
                "startTime": 3.5,
                "instrument": 9,
                "pitch": 42,
                "velocity": 100
            },
            {
                "endTime": 3.875,
                "isDrum": true,
                "startTime": 3.75,
                "instrument": 9,
                "pitch": 42,
                "velocity": 100
            }
        ],
        "totalTime": 3.875,
        "ticksPerQuarter": 220,
        "tempos": [
            {
                "qpm": 120
            }
        ]
    },
    {
        "notes": [
            {
                "velocity": 100,
                "isDrum": true,
                "instrument": 9,
                "pitch": 42,
                "endTime": 0.125
            },
            {
                "velocity": 100,
                "isDrum": true,
                "instrument": 9,
                "pitch": 36,
                "endTime": 0.125
            },
            {
                "velocity": 100,
                "isDrum": true,
                "instrument": 9,
                "pitch": 45,
                "endTime": 0.125
            },
            {
                "velocity": 100,
                "isDrum": true,
                "instrument": 9,
                "pitch": 46,
                "endTime": 0.125
            },
            {
                "endTime": 0.375,
                "isDrum": true,
                "startTime": 0.25,
                "instrument": 9,
                "pitch": 42,
                "velocity": 100
            },
            {
                "endTime": 0.625,
                "isDrum": true,
                "startTime": 0.5,
                "instrument": 9,
                "pitch": 42,
                "velocity": 100
            },
            {
                "endTime": 0.875,
                "isDrum": true,
                "startTime": 0.75,
                "instrument": 9,
                "pitch": 42,
                "velocity": 100
            },
            {
                "endTime": 0.875,
                "isDrum": true,
                "startTime": 0.75,
                "instrument": 9,
                "pitch": 50,
                "velocity": 100
            },
            {
                "endTime": 1.125,
                "isDrum": true,
                "startTime": 1,
                "instrument": 9,
                "pitch": 42,
                "velocity": 100
            },
            {
                "endTime": 1.125,
                "isDrum": true,
                "startTime": 1,
                "instrument": 9,
                "pitch": 36,
                "velocity": 100
            },
            {
                "endTime": 1.375,
                "isDrum": true,
                "startTime": 1.25,
                "instrument": 9,
                "pitch": 42,
                "velocity": 100
            },
            {
                "endTime": 1.625,
                "isDrum": true,
                "startTime": 1.5,
                "instrument": 9,
                "pitch": 42,
                "velocity": 100
            },
            {
                "endTime": 1.625,
                "isDrum": true,
                "startTime": 1.5,
                "instrument": 9,
                "pitch": 38,
                "velocity": 100
            },
            {
                "endTime": 1.875,
                "isDrum": true,
                "startTime": 1.75,
                "instrument": 9,
                "pitch": 42,
                "velocity": 100
            },
            {
                "endTime": 1.875,
                "isDrum": true,
                "startTime": 1.75,
                "instrument": 9,
                "pitch": 50,
                "velocity": 100
            },
            {
                "endTime": 2.125,
                "isDrum": true,
                "startTime": 2,
                "instrument": 9,
                "pitch": 49,
                "velocity": 100
            },
            {
                "endTime": 2.125,
                "isDrum": true,
                "startTime": 2,
                "instrument": 9,
                "pitch": 42,
                "velocity": 100
            },
            {
                "endTime": 2.125,
                "isDrum": true,
                "startTime": 2,
                "instrument": 9,
                "pitch": 36,
                "velocity": 100
            },
            {
                "endTime": 2.375,
                "isDrum": true,
                "startTime": 2.25,
                "instrument": 9,
                "pitch": 42,
                "velocity": 100
            },
            {
                "endTime": 2.875,
                "isDrum": true,
                "startTime": 2.75,
                "instrument": 9,
                "pitch": 42,
                "velocity": 100
            },
            {
                "endTime": 2.875,
                "isDrum": true,
                "startTime": 2.75,
                "instrument": 9,
                "pitch": 50,
                "velocity": 100
            },
            {
                "endTime": 3.125,
                "isDrum": true,
                "startTime": 3,
                "instrument": 9,
                "pitch": 42,
                "velocity": 100
            },
            {
                "endTime": 3.125,
                "isDrum": true,
                "startTime": 3,
                "instrument": 9,
                "pitch": 36,
                "velocity": 100
            },
            {
                "endTime": 3.375,
                "isDrum": true,
                "startTime": 3.25,
                "instrument": 9,
                "pitch": 42,
                "velocity": 100
            },
            {
                "endTime": 3.625,
                "isDrum": true,
                "startTime": 3.5,
                "instrument": 9,
                "pitch": 42,
                "velocity": 100
            },
            {
                "endTime": 3.875,
                "isDrum": true,
                "startTime": 3.75,
                "instrument": 9,
                "pitch": 42,
                "velocity": 100
            }
        ],
        "totalTime": 3.875,
        "ticksPerQuarter": 220,
        "tempos": [
            {
                "qpm": 120
            }
        ]
    },
    {
        "notes": [
            {
                "velocity": 100,
                "isDrum": true,
                "instrument": 9,
                "pitch": 42,
                "endTime": 0.125
            },
            {
                "velocity": 100,
                "isDrum": true,
                "instrument": 9,
                "pitch": 50,
                "endTime": 0.125
            },
            {
                "velocity": 100,
                "isDrum": true,
                "instrument": 9,
                "pitch": 38,
                "endTime": 0.125
            },
            {
                "endTime": 0.375,
                "isDrum": true,
                "startTime": 0.25,
                "instrument": 9,
                "pitch": 42,
                "velocity": 100
            },
            {
                "endTime": 0.5,
                "isDrum": true,
                "startTime": 0.375,
                "instrument": 9,
                "pitch": 42,
                "velocity": 100
            },
            {
                "endTime": 0.625,
                "isDrum": true,
                "startTime": 0.5,
                "instrument": 9,
                "pitch": 42,
                "velocity": 100
            },
            {
                "endTime": 0.625,
                "isDrum": true,
                "startTime": 0.5,
                "instrument": 9,
                "pitch": 50,
                "velocity": 100
            },
            {
                "endTime": 0.875,
                "isDrum": true,
                "startTime": 0.75,
                "instrument": 9,
                "pitch": 42,
                "velocity": 100
            },
            {
                "endTime": 0.875,
                "isDrum": true,
                "startTime": 0.75,
                "instrument": 9,
                "pitch": 50,
                "velocity": 100
            },
            {
                "endTime": 1.125,
                "isDrum": true,
                "startTime": 1,
                "instrument": 9,
                "pitch": 42,
                "velocity": 100
            },
            {
                "endTime": 1.125,
                "isDrum": true,
                "startTime": 1,
                "instrument": 9,
                "pitch": 36,
                "velocity": 100
            },
            {
                "endTime": 1.125,
                "isDrum": true,
                "startTime": 1,
                "instrument": 9,
                "pitch": 46,
                "velocity": 100
            },
            {
                "endTime": 1.375,
                "isDrum": true,
                "startTime": 1.25,
                "instrument": 9,
                "pitch": 42,
                "velocity": 100
            },
            {
                "endTime": 1.375,
                "isDrum": true,
                "startTime": 1.25,
                "instrument": 9,
                "pitch": 50,
                "velocity": 100
            },
            {
                "endTime": 1.625,
                "isDrum": true,
                "startTime": 1.5,
                "instrument": 9,
                "pitch": 42,
                "velocity": 100
            },
            {
                "endTime": 1.625,
                "isDrum": true,
                "startTime": 1.5,
                "instrument": 9,
                "pitch": 36,
                "velocity": 100
            },
            {
                "endTime": 1.625,
                "isDrum": true,
                "startTime": 1.5,
                "instrument": 9,
                "pitch": 38,
                "velocity": 100
            },
            {
                "endTime": 1.875,
                "isDrum": true,
                "startTime": 1.75,
                "instrument": 9,
                "pitch": 42,
                "velocity": 100
            },
            {
                "endTime": 1.875,
                "isDrum": true,
                "startTime": 1.75,
                "instrument": 9,
                "pitch": 50,
                "velocity": 100
            },
            {
                "endTime": 2.125,
                "isDrum": true,
                "startTime": 2,
                "instrument": 9,
                "pitch": 49,
                "velocity": 100
            },
            {
                "endTime": 2.125,
                "isDrum": true,
                "startTime": 2,
                "instrument": 9,
                "pitch": 42,
                "velocity": 100
            },
            {
                "endTime": 2.125,
                "isDrum": true,
                "startTime": 2,
                "instrument": 9,
                "pitch": 36,
                "velocity": 100
            },
            {
                "endTime": 2.125,
                "isDrum": true,
                "startTime": 2,
                "instrument": 9,
                "pitch": 46,
                "velocity": 100
            },
            {
                "endTime": 2.375,
                "isDrum": true,
                "startTime": 2.25,
                "instrument": 9,
                "pitch": 42,
                "velocity": 100
            },
            {
                "endTime": 2.875,
                "isDrum": true,
                "startTime": 2.75,
                "instrument": 9,
                "pitch": 42,
                "velocity": 100
            },
            {
                "endTime": 2.875,
                "isDrum": true,
                "startTime": 2.75,
                "instrument": 9,
                "pitch": 50,
                "velocity": 100
            },
            {
                "endTime": 3.125,
                "isDrum": true,
                "startTime": 3,
                "instrument": 9,
                "pitch": 42,
                "velocity": 100
            },
            {
                "endTime": 3.125,
                "isDrum": true,
                "startTime": 3,
                "instrument": 9,
                "pitch": 36,
                "velocity": 100
            },
            {
                "endTime": 3.125,
                "isDrum": true,
                "startTime": 3,
                "instrument": 9,
                "pitch": 45,
                "velocity": 100
            },
            {
                "endTime": 3.125,
                "isDrum": true,
                "startTime": 3,
                "instrument": 9,
                "pitch": 46,
                "velocity": 100
            },
            {
                "endTime": 3.375,
                "isDrum": true,
                "startTime": 3.25,
                "instrument": 9,
                "pitch": 48,
                "velocity": 100
            },
            {
                "endTime": 3.375,
                "isDrum": true,
                "startTime": 3.25,
                "instrument": 9,
                "pitch": 42,
                "velocity": 100
            },
            {
                "endTime": 3.625,
                "isDrum": true,
                "startTime": 3.5,
                "instrument": 9,
                "pitch": 42,
                "velocity": 100
            },
            {
                "endTime": 3.625,
                "isDrum": true,
                "startTime": 3.5,
                "instrument": 9,
                "pitch": 50,
                "velocity": 100
            },
            {
                "endTime": 3.875,
                "isDrum": true,
                "startTime": 3.75,
                "instrument": 9,
                "pitch": 42,
                "velocity": 100
            },
            {
                "endTime": 3.875,
                "isDrum": true,
                "startTime": 3.75,
                "instrument": 9,
                "pitch": 50,
                "velocity": 100
            }
        ],
        "totalTime": 3.875,
        "ticksPerQuarter": 220,
        "tempos": [
            {
                "qpm": 120
            }
        ]
    },
    {
        "notes": [
            {
                "velocity": 100,
                "isDrum": true,
                "instrument": 9,
                "pitch": 42,
                "endTime": 0.125
            },
            {
                "velocity": 100,
                "isDrum": true,
                "instrument": 9,
                "pitch": 36,
                "endTime": 0.125
            },
            {
                "velocity": 100,
                "isDrum": true,
                "instrument": 9,
                "pitch": 46,
                "endTime": 0.125
            },
            {
                "velocity": 100,
                "isDrum": true,
                "instrument": 9,
                "pitch": 38,
                "endTime": 0.125
            },
            {
                "endTime": 0.375,
                "isDrum": true,
                "startTime": 0.25,
                "instrument": 9,
                "pitch": 42,
                "velocity": 100
            },
            {
                "endTime": 0.5,
                "isDrum": true,
                "startTime": 0.375,
                "instrument": 9,
                "pitch": 42,
                "velocity": 100
            },
            {
                "endTime": 0.625,
                "isDrum": true,
                "startTime": 0.5,
                "instrument": 9,
                "pitch": 42,
                "velocity": 100
            },
            {
                "endTime": 0.625,
                "isDrum": true,
                "startTime": 0.5,
                "instrument": 9,
                "pitch": 50,
                "velocity": 100
            },
            {
                "endTime": 0.875,
                "isDrum": true,
                "startTime": 0.75,
                "instrument": 9,
                "pitch": 42,
                "velocity": 100
            },
            {
                "endTime": 0.875,
                "isDrum": true,
                "startTime": 0.75,
                "instrument": 9,
                "pitch": 50,
                "velocity": 100
            },
            {
                "endTime": 1.125,
                "isDrum": true,
                "startTime": 1,
                "instrument": 9,
                "pitch": 42,
                "velocity": 100
            },
            {
                "endTime": 1.125,
                "isDrum": true,
                "startTime": 1,
                "instrument": 9,
                "pitch": 36,
                "velocity": 100
            },
            {
                "endTime": 1.125,
                "isDrum": true,
                "startTime": 1,
                "instrument": 9,
                "pitch": 50,
                "velocity": 100
            },
            {
                "endTime": 1.125,
                "isDrum": true,
                "startTime": 1,
                "instrument": 9,
                "pitch": 46,
                "velocity": 100
            },
            {
                "endTime": 1.375,
                "isDrum": true,
                "startTime": 1.25,
                "instrument": 9,
                "pitch": 42,
                "velocity": 100
            },
            {
                "endTime": 1.375,
                "isDrum": true,
                "startTime": 1.25,
                "instrument": 9,
                "pitch": 50,
                "velocity": 100
            },
            {
                "endTime": 1.625,
                "isDrum": true,
                "startTime": 1.5,
                "instrument": 9,
                "pitch": 42,
                "velocity": 100
            },
            {
                "endTime": 1.625,
                "isDrum": true,
                "startTime": 1.5,
                "instrument": 9,
                "pitch": 36,
                "velocity": 100
            },
            {
                "endTime": 1.625,
                "isDrum": true,
                "startTime": 1.5,
                "instrument": 9,
                "pitch": 46,
                "velocity": 100
            },
            {
                "endTime": 1.625,
                "isDrum": true,
                "startTime": 1.5,
                "instrument": 9,
                "pitch": 38,
                "velocity": 100
            },
            {
                "endTime": 1.875,
                "isDrum": true,
                "startTime": 1.75,
                "instrument": 9,
                "pitch": 48,
                "velocity": 100
            },
            {
                "endTime": 1.875,
                "isDrum": true,
                "startTime": 1.75,
                "instrument": 9,
                "pitch": 42,
                "velocity": 100
            },
            {
                "endTime": 1.875,
                "isDrum": true,
                "startTime": 1.75,
                "instrument": 9,
                "pitch": 50,
                "velocity": 100
            },
            {
                "endTime": 2.125,
                "isDrum": true,
                "startTime": 2,
                "instrument": 9,
                "pitch": 49,
                "velocity": 100
            },
            {
                "endTime": 2.125,
                "isDrum": true,
                "startTime": 2,
                "instrument": 9,
                "pitch": 42,
                "velocity": 100
            },
            {
                "endTime": 2.125,
                "isDrum": true,
                "startTime": 2,
                "instrument": 9,
                "pitch": 36,
                "velocity": 100
            },
            {
                "endTime": 2.125,
                "isDrum": true,
                "startTime": 2,
                "instrument": 9,
                "pitch": 45,
                "velocity": 100
            },
            {
                "endTime": 2.125,
                "isDrum": true,
                "startTime": 2,
                "instrument": 9,
                "pitch": 46,
                "velocity": 100
            },
            {
                "endTime": 2.375,
                "isDrum": true,
                "startTime": 2.25,
                "instrument": 9,
                "pitch": 42,
                "velocity": 100
            },
            {
                "endTime": 2.625,
                "isDrum": true,
                "startTime": 2.5,
                "instrument": 9,
                "pitch": 42,
                "velocity": 100
            },
            {
                "endTime": 2.625,
                "isDrum": true,
                "startTime": 2.5,
                "instrument": 9,
                "pitch": 50,
                "velocity": 100
            },
            {
                "endTime": 2.875,
                "isDrum": true,
                "startTime": 2.75,
                "instrument": 9,
                "pitch": 42,
                "velocity": 100
            },
            {
                "endTime": 2.875,
                "isDrum": true,
                "startTime": 2.75,
                "instrument": 9,
                "pitch": 36,
                "velocity": 100
            },
            {
                "endTime": 2.875,
                "isDrum": true,
                "startTime": 2.75,
                "instrument": 9,
                "pitch": 50,
                "velocity": 100
            },
            {
                "endTime": 2.875,
                "isDrum": true,
                "startTime": 2.75,
                "instrument": 9,
                "pitch": 46,
                "velocity": 100
            },
            {
                "endTime": 3.125,
                "isDrum": true,
                "startTime": 3,
                "instrument": 9,
                "pitch": 42,
                "velocity": 100
            },
            {
                "endTime": 3.125,
                "isDrum": true,
                "startTime": 3,
                "instrument": 9,
                "pitch": 36,
                "velocity": 100
            },
            {
                "endTime": 3.125,
                "isDrum": true,
                "startTime": 3,
                "instrument": 9,
                "pitch": 50,
                "velocity": 100
            },
            {
                "endTime": 3.125,
                "isDrum": true,
                "startTime": 3,
                "instrument": 9,
                "pitch": 46,
                "velocity": 100
            },
            {
                "endTime": 3.375,
                "isDrum": true,
                "startTime": 3.25,
                "instrument": 9,
                "pitch": 48,
                "velocity": 100
            },
            {
                "endTime": 3.375,
                "isDrum": true,
                "startTime": 3.25,
                "instrument": 9,
                "pitch": 42,
                "velocity": 100
            },
            {
                "endTime": 3.625,
                "isDrum": true,
                "startTime": 3.5,
                "instrument": 9,
                "pitch": 42,
                "velocity": 100
            },
            {
                "endTime": 3.625,
                "isDrum": true,
                "startTime": 3.5,
                "instrument": 9,
                "pitch": 36,
                "velocity": 100
            },
            {
                "endTime": 3.625,
                "isDrum": true,
                "startTime": 3.5,
                "instrument": 9,
                "pitch": 38,
                "velocity": 100
            },
            {
                "endTime": 3.875,
                "isDrum": true,
                "startTime": 3.75,
                "instrument": 9,
                "pitch": 48,
                "velocity": 100
            },
            {
                "endTime": 3.875,
                "isDrum": true,
                "startTime": 3.75,
                "instrument": 9,
                "pitch": 42,
                "velocity": 100
            }
        ],
        "totalTime": 3.875,
        "ticksPerQuarter": 220,
        "tempos": [
            {
                "qpm": 120
            }
        ]
    },
    {
        "notes": [
            {
                "velocity": 100,
                "isDrum": true,
                "instrument": 9,
                "pitch": 42,
                "endTime": 0.125
            },
            {
                "velocity": 100,
                "isDrum": true,
                "instrument": 9,
                "pitch": 36,
                "endTime": 0.125
            },
            {
                "velocity": 100,
                "isDrum": true,
                "instrument": 9,
                "pitch": 46,
                "endTime": 0.125
            },
            {
                "velocity": 100,
                "isDrum": true,
                "instrument": 9,
                "pitch": 38,
                "endTime": 0.125
            },
            {
                "endTime": 0.375,
                "isDrum": true,
                "startTime": 0.25,
                "instrument": 9,
                "pitch": 42,
                "velocity": 100
            },
            {
                "endTime": 0.5,
                "isDrum": true,
                "startTime": 0.375,
                "instrument": 9,
                "pitch": 42,
                "velocity": 100
            },
            {
                "endTime": 0.625,
                "isDrum": true,
                "startTime": 0.5,
                "instrument": 9,
                "pitch": 42,
                "velocity": 100
            },
            {
                "endTime": 0.625,
                "isDrum": true,
                "startTime": 0.5,
                "instrument": 9,
                "pitch": 50,
                "velocity": 100
            },
            {
                "endTime": 0.875,
                "isDrum": true,
                "startTime": 0.75,
                "instrument": 9,
                "pitch": 42,
                "velocity": 100
            },
            {
                "endTime": 0.875,
                "isDrum": true,
                "startTime": 0.75,
                "instrument": 9,
                "pitch": 36,
                "velocity": 100
            },
            {
                "endTime": 0.875,
                "isDrum": true,
                "startTime": 0.75,
                "instrument": 9,
                "pitch": 50,
                "velocity": 100
            },
            {
                "endTime": 0.875,
                "isDrum": true,
                "startTime": 0.75,
                "instrument": 9,
                "pitch": 46,
                "velocity": 100
            },
            {
                "endTime": 1.125,
                "isDrum": true,
                "startTime": 1,
                "instrument": 9,
                "pitch": 42,
                "velocity": 100
            },
            {
                "endTime": 1.125,
                "isDrum": true,
                "startTime": 1,
                "instrument": 9,
                "pitch": 36,
                "velocity": 100
            },
            {
                "endTime": 1.125,
                "isDrum": true,
                "startTime": 1,
                "instrument": 9,
                "pitch": 46,
                "velocity": 100
            },
            {
                "endTime": 1.375,
                "isDrum": true,
                "startTime": 1.25,
                "instrument": 9,
                "pitch": 42,
                "velocity": 100
            },
            {
                "endTime": 1.375,
                "isDrum": true,
                "startTime": 1.25,
                "instrument": 9,
                "pitch": 50,
                "velocity": 100
            },
            {
                "endTime": 1.625,
                "isDrum": true,
                "startTime": 1.5,
                "instrument": 9,
                "pitch": 48,
                "velocity": 100
            },
            {
                "endTime": 1.625,
                "isDrum": true,
                "startTime": 1.5,
                "instrument": 9,
                "pitch": 42,
                "velocity": 100
            },
            {
                "endTime": 1.625,
                "isDrum": true,
                "startTime": 1.5,
                "instrument": 9,
                "pitch": 36,
                "velocity": 100
            },
            {
                "endTime": 1.625,
                "isDrum": true,
                "startTime": 1.5,
                "instrument": 9,
                "pitch": 38,
                "velocity": 100
            },
            {
                "endTime": 1.875,
                "isDrum": true,
                "startTime": 1.75,
                "instrument": 9,
                "pitch": 48,
                "velocity": 100
            },
            {
                "endTime": 1.875,
                "isDrum": true,
                "startTime": 1.75,
                "instrument": 9,
                "pitch": 42,
                "velocity": 100
            },
            {
                "endTime": 1.875,
                "isDrum": true,
                "startTime": 1.75,
                "instrument": 9,
                "pitch": 45,
                "velocity": 100
            },
            {
                "endTime": 2.125,
                "isDrum": true,
                "startTime": 2,
                "instrument": 9,
                "pitch": 49,
                "velocity": 100
            },
            {
                "endTime": 2.125,
                "isDrum": true,
                "startTime": 2,
                "instrument": 9,
                "pitch": 42,
                "velocity": 100
            },
            {
                "endTime": 2.125,
                "isDrum": true,
                "startTime": 2,
                "instrument": 9,
                "pitch": 36,
                "velocity": 100
            },
            {
                "endTime": 2.125,
                "isDrum": true,
                "startTime": 2,
                "instrument": 9,
                "pitch": 46,
                "velocity": 100
            },
            {
                "endTime": 2.125,
                "isDrum": true,
                "startTime": 2,
                "instrument": 9,
                "pitch": 38,
                "velocity": 100
            },
            {
                "endTime": 2.375,
                "isDrum": true,
                "startTime": 2.25,
                "instrument": 9,
                "pitch": 42,
                "velocity": 100
            },
            {
                "endTime": 2.5,
                "isDrum": true,
                "startTime": 2.375,
                "instrument": 9,
                "pitch": 42,
                "velocity": 100
            },
            {
                "endTime": 2.625,
                "isDrum": true,
                "startTime": 2.5,
                "instrument": 9,
                "pitch": 42,
                "velocity": 100
            },
            {
                "endTime": 2.625,
                "isDrum": true,
                "startTime": 2.5,
                "instrument": 9,
                "pitch": 50,
                "velocity": 100
            },
            {
                "endTime": 2.875,
                "isDrum": true,
                "startTime": 2.75,
                "instrument": 9,
                "pitch": 42,
                "velocity": 100
            },
            {
                "endTime": 2.875,
                "isDrum": true,
                "startTime": 2.75,
                "instrument": 9,
                "pitch": 36,
                "velocity": 100
            },
            {
                "endTime": 2.875,
                "isDrum": true,
                "startTime": 2.75,
                "instrument": 9,
                "pitch": 50,
                "velocity": 100
            },
            {
                "endTime": 2.875,
                "isDrum": true,
                "startTime": 2.75,
                "instrument": 9,
                "pitch": 46,
                "velocity": 100
            },
            {
                "endTime": 3.125,
                "isDrum": true,
                "startTime": 3,
                "instrument": 9,
                "pitch": 42,
                "velocity": 100
            },
            {
                "endTime": 3.125,
                "isDrum": true,
                "startTime": 3,
                "instrument": 9,
                "pitch": 36,
                "velocity": 100
            },
            {
                "endTime": 3.125,
                "isDrum": true,
                "startTime": 3,
                "instrument": 9,
                "pitch": 46,
                "velocity": 100
            },
            {
                "endTime": 3.375,
                "isDrum": true,
                "startTime": 3.25,
                "instrument": 9,
                "pitch": 48,
                "velocity": 100
            },
            {
                "endTime": 3.375,
                "isDrum": true,
                "startTime": 3.25,
                "instrument": 9,
                "pitch": 42,
                "velocity": 100
            },
            {
                "endTime": 3.625,
                "isDrum": true,
                "startTime": 3.5,
                "instrument": 9,
                "pitch": 42,
                "velocity": 100
            },
            {
                "endTime": 3.625,
                "isDrum": true,
                "startTime": 3.5,
                "instrument": 9,
                "pitch": 36,
                "velocity": 100
            },
            {
                "endTime": 3.625,
                "isDrum": true,
                "startTime": 3.5,
                "instrument": 9,
                "pitch": 38,
                "velocity": 100
            },
            {
                "endTime": 3.875,
                "isDrum": true,
                "startTime": 3.75,
                "instrument": 9,
                "pitch": 48,
                "velocity": 100
            },
            {
                "endTime": 3.875,
                "isDrum": true,
                "startTime": 3.75,
                "instrument": 9,
                "pitch": 42,
                "velocity": 100
            }
        ],
        "totalTime": 3.875,
        "ticksPerQuarter": 220,
        "tempos": [
            {
                "qpm": 120
            }
        ]
    },
    {
        "notes": [
            {
                "velocity": 100,
                "isDrum": true,
                "instrument": 9,
                "pitch": 42,
                "endTime": 0.125
            },
            {
                "velocity": 100,
                "isDrum": true,
                "instrument": 9,
                "pitch": 36,
                "endTime": 0.125
            },
            {
                "velocity": 100,
                "isDrum": true,
                "instrument": 9,
                "pitch": 46,
                "endTime": 0.125
            },
            {
                "velocity": 100,
                "isDrum": true,
                "instrument": 9,
                "pitch": 38,
                "endTime": 0.125
            },
            {
                "endTime": 0.375,
                "isDrum": true,
                "startTime": 0.25,
                "instrument": 9,
                "pitch": 42,
                "velocity": 100
            },
            {
                "endTime": 0.5,
                "isDrum": true,
                "startTime": 0.375,
                "instrument": 9,
                "pitch": 42,
                "velocity": 100
            },
            {
                "endTime": 0.625,
                "isDrum": true,
                "startTime": 0.5,
                "instrument": 9,
                "pitch": 42,
                "velocity": 100
            },
            {
                "endTime": 0.625,
                "isDrum": true,
                "startTime": 0.5,
                "instrument": 9,
                "pitch": 50,
                "velocity": 100
            },
            {
                "endTime": 0.875,
                "isDrum": true,
                "startTime": 0.75,
                "instrument": 9,
                "pitch": 42,
                "velocity": 100
            },
            {
                "endTime": 0.875,
                "isDrum": true,
                "startTime": 0.75,
                "instrument": 9,
                "pitch": 36,
                "velocity": 100
            },
            {
                "endTime": 0.875,
                "isDrum": true,
                "startTime": 0.75,
                "instrument": 9,
                "pitch": 50,
                "velocity": 100
            },
            {
                "endTime": 0.875,
                "isDrum": true,
                "startTime": 0.75,
                "instrument": 9,
                "pitch": 38,
                "velocity": 100
            },
            {
                "endTime": 1.125,
                "isDrum": true,
                "startTime": 1,
                "instrument": 9,
                "pitch": 42,
                "velocity": 100
            },
            {
                "endTime": 1.125,
                "isDrum": true,
                "startTime": 1,
                "instrument": 9,
                "pitch": 36,
                "velocity": 100
            },
            {
                "endTime": 1.125,
                "isDrum": true,
                "startTime": 1,
                "instrument": 9,
                "pitch": 46,
                "velocity": 100
            },
            {
                "endTime": 1.375,
                "isDrum": true,
                "startTime": 1.25,
                "instrument": 9,
                "pitch": 42,
                "velocity": 100
            },
            {
                "endTime": 1.375,
                "isDrum": true,
                "startTime": 1.25,
                "instrument": 9,
                "pitch": 50,
                "velocity": 100
            },
            {
                "endTime": 1.625,
                "isDrum": true,
                "startTime": 1.5,
                "instrument": 9,
                "pitch": 48,
                "velocity": 100
            },
            {
                "endTime": 1.625,
                "isDrum": true,
                "startTime": 1.5,
                "instrument": 9,
                "pitch": 42,
                "velocity": 100
            },
            {
                "endTime": 1.625,
                "isDrum": true,
                "startTime": 1.5,
                "instrument": 9,
                "pitch": 36,
                "velocity": 100
            },
            {
                "endTime": 1.625,
                "isDrum": true,
                "startTime": 1.5,
                "instrument": 9,
                "pitch": 38,
                "velocity": 100
            },
            {
                "endTime": 1.75,
                "isDrum": true,
                "startTime": 1.625,
                "instrument": 9,
                "pitch": 50,
                "velocity": 100
            },
            {
                "endTime": 1.875,
                "isDrum": true,
                "startTime": 1.75,
                "instrument": 9,
                "pitch": 48,
                "velocity": 100
            },
            {
                "endTime": 1.875,
                "isDrum": true,
                "startTime": 1.75,
                "instrument": 9,
                "pitch": 42,
                "velocity": 100
            },
            {
                "endTime": 1.875,
                "isDrum": true,
                "startTime": 1.75,
                "instrument": 9,
                "pitch": 45,
                "velocity": 100
            },
            {
                "endTime": 2.125,
                "isDrum": true,
                "startTime": 2,
                "instrument": 9,
                "pitch": 49,
                "velocity": 100
            },
            {
                "endTime": 2.125,
                "isDrum": true,
                "startTime": 2,
                "instrument": 9,
                "pitch": 42,
                "velocity": 100
            },
            {
                "endTime": 2.125,
                "isDrum": true,
                "startTime": 2,
                "instrument": 9,
                "pitch": 36,
                "velocity": 100
            },
            {
                "endTime": 2.125,
                "isDrum": true,
                "startTime": 2,
                "instrument": 9,
                "pitch": 46,
                "velocity": 100
            },
            {
                "endTime": 2.125,
                "isDrum": true,
                "startTime": 2,
                "instrument": 9,
                "pitch": 38,
                "velocity": 100
            },
            {
                "endTime": 2.375,
                "isDrum": true,
                "startTime": 2.25,
                "instrument": 9,
                "pitch": 42,
                "velocity": 100
            },
            {
                "endTime": 2.5,
                "isDrum": true,
                "startTime": 2.375,
                "instrument": 9,
                "pitch": 42,
                "velocity": 100
            },
            {
                "endTime": 2.625,
                "isDrum": true,
                "startTime": 2.5,
                "instrument": 9,
                "pitch": 42,
                "velocity": 100
            },
            {
                "endTime": 2.625,
                "isDrum": true,
                "startTime": 2.5,
                "instrument": 9,
                "pitch": 50,
                "velocity": 100
            },
            {
                "endTime": 2.875,
                "isDrum": true,
                "startTime": 2.75,
                "instrument": 9,
                "pitch": 42,
                "velocity": 100
            },
            {
                "endTime": 2.875,
                "isDrum": true,
                "startTime": 2.75,
                "instrument": 9,
                "pitch": 36,
                "velocity": 100
            },
            {
                "endTime": 2.875,
                "isDrum": true,
                "startTime": 2.75,
                "instrument": 9,
                "pitch": 45,
                "velocity": 100
            },
            {
                "endTime": 2.875,
                "isDrum": true,
                "startTime": 2.75,
                "instrument": 9,
                "pitch": 38,
                "velocity": 100
            },
            {
                "endTime": 3.125,
                "isDrum": true,
                "startTime": 3,
                "instrument": 9,
                "pitch": 42,
                "velocity": 100
            },
            {
                "endTime": 3.125,
                "isDrum": true,
                "startTime": 3,
                "instrument": 9,
                "pitch": 36,
                "velocity": 100
            },
            {
                "endTime": 3.125,
                "isDrum": true,
                "startTime": 3,
                "instrument": 9,
                "pitch": 46,
                "velocity": 100
            },
            {
                "endTime": 3.375,
                "isDrum": true,
                "startTime": 3.25,
                "instrument": 9,
                "pitch": 48,
                "velocity": 100
            },
            {
                "endTime": 3.375,
                "isDrum": true,
                "startTime": 3.25,
                "instrument": 9,
                "pitch": 42,
                "velocity": 100
            },
            {
                "endTime": 3.375,
                "isDrum": true,
                "startTime": 3.25,
                "instrument": 9,
                "pitch": 50,
                "velocity": 100
            },
            {
                "endTime": 3.625,
                "isDrum": true,
                "startTime": 3.5,
                "instrument": 9,
                "pitch": 42,
                "velocity": 100
            },
            {
                "endTime": 3.625,
                "isDrum": true,
                "startTime": 3.5,
                "instrument": 9,
                "pitch": 36,
                "velocity": 100
            },
            {
                "endTime": 3.625,
                "isDrum": true,
                "startTime": 3.5,
                "instrument": 9,
                "pitch": 38,
                "velocity": 100
            },
            {
                "endTime": 3.875,
                "isDrum": true,
                "startTime": 3.75,
                "instrument": 9,
                "pitch": 48,
                "velocity": 100
            },
            {
                "endTime": 3.875,
                "isDrum": true,
                "startTime": 3.75,
                "instrument": 9,
                "pitch": 42,
                "velocity": 100
            }
        ],
        "totalTime": 3.875,
        "ticksPerQuarter": 220,
        "tempos": [
            {
                "qpm": 120
            }
        ]
    },
    {
        "notes": [
            {
                "velocity": 100,
                "isDrum": true,
                "instrument": 9,
                "pitch": 42,
                "endTime": 0.125
            },
            {
                "velocity": 100,
                "isDrum": true,
                "instrument": 9,
                "pitch": 36,
                "endTime": 0.125
            },
            {
                "velocity": 100,
                "isDrum": true,
                "instrument": 9,
                "pitch": 46,
                "endTime": 0.125
            },
            {
                "velocity": 100,
                "isDrum": true,
                "instrument": 9,
                "pitch": 38,
                "endTime": 0.125
            },
            {
                "endTime": 0.375,
                "isDrum": true,
                "startTime": 0.25,
                "instrument": 9,
                "pitch": 42,
                "velocity": 100
            },
            {
                "endTime": 0.5,
                "isDrum": true,
                "startTime": 0.375,
                "instrument": 9,
                "pitch": 42,
                "velocity": 100
            },
            {
                "endTime": 0.625,
                "isDrum": true,
                "startTime": 0.5,
                "instrument": 9,
                "pitch": 42,
                "velocity": 100
            },
            {
                "endTime": 0.625,
                "isDrum": true,
                "startTime": 0.5,
                "instrument": 9,
                "pitch": 50,
                "velocity": 100
            },
            {
                "endTime": 0.875,
                "isDrum": true,
                "startTime": 0.75,
                "instrument": 9,
                "pitch": 42,
                "velocity": 100
            },
            {
                "endTime": 0.875,
                "isDrum": true,
                "startTime": 0.75,
                "instrument": 9,
                "pitch": 36,
                "velocity": 100
            },
            {
                "endTime": 0.875,
                "isDrum": true,
                "startTime": 0.75,
                "instrument": 9,
                "pitch": 45,
                "velocity": 100
            },
            {
                "endTime": 0.875,
                "isDrum": true,
                "startTime": 0.75,
                "instrument": 9,
                "pitch": 38,
                "velocity": 100
            },
            {
                "endTime": 1.125,
                "isDrum": true,
                "startTime": 1,
                "instrument": 9,
                "pitch": 42,
                "velocity": 100
            },
            {
                "endTime": 1.125,
                "isDrum": true,
                "startTime": 1,
                "instrument": 9,
                "pitch": 36,
                "velocity": 100
            },
            {
                "endTime": 1.125,
                "isDrum": true,
                "startTime": 1,
                "instrument": 9,
                "pitch": 46,
                "velocity": 100
            },
            {
                "endTime": 1.375,
                "isDrum": true,
                "startTime": 1.25,
                "instrument": 9,
                "pitch": 48,
                "velocity": 100
            },
            {
                "endTime": 1.375,
                "isDrum": true,
                "startTime": 1.25,
                "instrument": 9,
                "pitch": 42,
                "velocity": 100
            },
            {
                "endTime": 1.375,
                "isDrum": true,
                "startTime": 1.25,
                "instrument": 9,
                "pitch": 50,
                "velocity": 100
            },
            {
                "endTime": 1.625,
                "isDrum": true,
                "startTime": 1.5,
                "instrument": 9,
                "pitch": 48,
                "velocity": 100
            },
            {
                "endTime": 1.625,
                "isDrum": true,
                "startTime": 1.5,
                "instrument": 9,
                "pitch": 42,
                "velocity": 100
            },
            {
                "endTime": 1.625,
                "isDrum": true,
                "startTime": 1.5,
                "instrument": 9,
                "pitch": 36,
                "velocity": 100
            },
            {
                "endTime": 1.625,
                "isDrum": true,
                "startTime": 1.5,
                "instrument": 9,
                "pitch": 38,
                "velocity": 100
            },
            {
                "endTime": 1.75,
                "isDrum": true,
                "startTime": 1.625,
                "instrument": 9,
                "pitch": 50,
                "velocity": 100
            },
            {
                "endTime": 1.875,
                "isDrum": true,
                "startTime": 1.75,
                "instrument": 9,
                "pitch": 48,
                "velocity": 100
            },
            {
                "endTime": 1.875,
                "isDrum": true,
                "startTime": 1.75,
                "instrument": 9,
                "pitch": 42,
                "velocity": 100
            },
            {
                "endTime": 1.875,
                "isDrum": true,
                "startTime": 1.75,
                "instrument": 9,
                "pitch": 45,
                "velocity": 100
            },
            {
                "endTime": 2.125,
                "isDrum": true,
                "startTime": 2,
                "instrument": 9,
                "pitch": 49,
                "velocity": 100
            },
            {
                "endTime": 2.125,
                "isDrum": true,
                "startTime": 2,
                "instrument": 9,
                "pitch": 42,
                "velocity": 100
            },
            {
                "endTime": 2.125,
                "isDrum": true,
                "startTime": 2,
                "instrument": 9,
                "pitch": 36,
                "velocity": 100
            },
            {
                "endTime": 2.125,
                "isDrum": true,
                "startTime": 2,
                "instrument": 9,
                "pitch": 46,
                "velocity": 100
            },
            {
                "endTime": 2.125,
                "isDrum": true,
                "startTime": 2,
                "instrument": 9,
                "pitch": 38,
                "velocity": 100
            },
            {
                "endTime": 2.375,
                "isDrum": true,
                "startTime": 2.25,
                "instrument": 9,
                "pitch": 42,
                "velocity": 100
            },
            {
                "endTime": 2.5,
                "isDrum": true,
                "startTime": 2.375,
                "instrument": 9,
                "pitch": 42,
                "velocity": 100
            },
            {
                "endTime": 2.625,
                "isDrum": true,
                "startTime": 2.5,
                "instrument": 9,
                "pitch": 42,
                "velocity": 100
            },
            {
                "endTime": 2.625,
                "isDrum": true,
                "startTime": 2.5,
                "instrument": 9,
                "pitch": 50,
                "velocity": 100
            },
            {
                "endTime": 2.875,
                "isDrum": true,
                "startTime": 2.75,
                "instrument": 9,
                "pitch": 42,
                "velocity": 100
            },
            {
                "endTime": 2.875,
                "isDrum": true,
                "startTime": 2.75,
                "instrument": 9,
                "pitch": 36,
                "velocity": 100
            },
            {
                "endTime": 2.875,
                "isDrum": true,
                "startTime": 2.75,
                "instrument": 9,
                "pitch": 45,
                "velocity": 100
            },
            {
                "endTime": 2.875,
                "isDrum": true,
                "startTime": 2.75,
                "instrument": 9,
                "pitch": 38,
                "velocity": 100
            },
            {
                "endTime": 3.125,
                "isDrum": true,
                "startTime": 3,
                "instrument": 9,
                "pitch": 42,
                "velocity": 100
            },
            {
                "endTime": 3.125,
                "isDrum": true,
                "startTime": 3,
                "instrument": 9,
                "pitch": 36,
                "velocity": 100
            },
            {
                "endTime": 3.125,
                "isDrum": true,
                "startTime": 3,
                "instrument": 9,
                "pitch": 46,
                "velocity": 100
            },
            {
                "endTime": 3.375,
                "isDrum": true,
                "startTime": 3.25,
                "instrument": 9,
                "pitch": 48,
                "velocity": 100
            },
            {
                "endTime": 3.375,
                "isDrum": true,
                "startTime": 3.25,
                "instrument": 9,
                "pitch": 42,
                "velocity": 100
            },
            {
                "endTime": 3.375,
                "isDrum": true,
                "startTime": 3.25,
                "instrument": 9,
                "pitch": 50,
                "velocity": 100
            },
            {
                "endTime": 3.625,
                "isDrum": true,
                "startTime": 3.5,
                "instrument": 9,
                "pitch": 42,
                "velocity": 100
            },
            {
                "endTime": 3.625,
                "isDrum": true,
                "startTime": 3.5,
                "instrument": 9,
                "pitch": 36,
                "velocity": 100
            },
            {
                "endTime": 3.625,
                "isDrum": true,
                "startTime": 3.5,
                "instrument": 9,
                "pitch": 38,
                "velocity": 100
            },
            {
                "endTime": 3.875,
                "isDrum": true,
                "startTime": 3.75,
                "instrument": 9,
                "pitch": 48,
                "velocity": 100
            },
            {
                "endTime": 3.875,
                "isDrum": true,
                "startTime": 3.75,
                "instrument": 9,
                "pitch": 42,
                "velocity": 100
            }
        ],
        "totalTime": 3.875,
        "ticksPerQuarter": 220,
        "tempos": [
            {
                "qpm": 120
            }
        ]
    },
    {
        "notes": [
            {
                "velocity": 100,
                "isDrum": true,
                "instrument": 9,
                "pitch": 36,
                "endTime": 0.125
            },
            {
                "endTime": 0.375,
                "isDrum": true,
                "startTime": 0.25,
                "instrument": 9,
                "pitch": 42,
                "velocity": 100
            },
            {
                "endTime": 0.625,
                "isDrum": true,
                "startTime": 0.5,
                "instrument": 9,
                "pitch": 36,
                "velocity": 100
            },
            {
                "endTime": 0.875,
                "isDrum": true,
                "startTime": 0.75,
                "instrument": 9,
                "pitch": 42,
                "velocity": 100
            },
            {
                "endTime": 1.125,
                "isDrum": true,
                "startTime": 1,
                "instrument": 9,
                "pitch": 36,
                "velocity": 100
            },
            {
                "endTime": 1.375,
                "isDrum": true,
                "startTime": 1.25,
                "instrument": 9,
                "pitch": 42,
                "velocity": 100
            },
            {
                "endTime": 1.625,
                "isDrum": true,
                "startTime": 1.5,
                "instrument": 9,
                "pitch": 36,
                "velocity": 100
            },
            {
                "endTime": 1.875,
                "isDrum": true,
                "startTime": 1.75,
                "instrument": 9,
                "pitch": 42,
                "velocity": 100
            },
            {
                "endTime": 2.125,
                "isDrum": true,
                "startTime": 2,
                "instrument": 9,
                "pitch": 36,
                "velocity": 100
            },
            {
                "endTime": 3.125,
                "isDrum": true,
                "startTime": 3,
                "instrument": 9,
                "pitch": 36,
                "velocity": 100
            },
            {
                "endTime": 3.375,
                "isDrum": true,
                "startTime": 3.25,
                "instrument": 9,
                "pitch": 42,
                "velocity": 100
            },
            {
                "endTime": 3.625,
                "isDrum": true,
                "startTime": 3.5,
                "instrument": 9,
                "pitch": 36,
                "velocity": 100
            },
            {
                "endTime": 3.875,
                "isDrum": true,
                "startTime": 3.75,
                "instrument": 9,
                "pitch": 42,
                "velocity": 100
            }
        ],
        "totalTime": 3.875,
        "ticksPerQuarter": 220,
        "tempos": [
            {
                "qpm": 120
            }
        ]
    },
    {
        "notes": [
            {
                "velocity": 100,
                "isDrum": true,
                "instrument": 9,
                "pitch": 36,
                "endTime": 0.125
            },
            {
                "endTime": 0.375,
                "isDrum": true,
                "startTime": 0.25,
                "instrument": 9,
                "pitch": 42,
                "velocity": 100
            },
            {
                "endTime": 0.625,
                "isDrum": true,
                "startTime": 0.5,
                "instrument": 9,
                "pitch": 36,
                "velocity": 100
            },
            {
                "endTime": 0.875,
                "isDrum": true,
                "startTime": 0.75,
                "instrument": 9,
                "pitch": 42,
                "velocity": 100
            },
            {
                "endTime": 1.125,
                "isDrum": true,
                "startTime": 1,
                "instrument": 9,
                "pitch": 36,
                "velocity": 100
            },
            {
                "endTime": 1.375,
                "isDrum": true,
                "startTime": 1.25,
                "instrument": 9,
                "pitch": 42,
                "velocity": 100
            },
            {
                "endTime": 1.625,
                "isDrum": true,
                "startTime": 1.5,
                "instrument": 9,
                "pitch": 36,
                "velocity": 100
            },
            {
                "endTime": 1.875,
                "isDrum": true,
                "startTime": 1.75,
                "instrument": 9,
                "pitch": 42,
                "velocity": 100
            },
            {
                "endTime": 2.125,
                "isDrum": true,
                "startTime": 2,
                "instrument": 9,
                "pitch": 36,
                "velocity": 100
            },
            {
                "endTime": 2.875,
                "isDrum": true,
                "startTime": 2.75,
                "instrument": 9,
                "pitch": 42,
                "velocity": 100
            },
            {
                "endTime": 3.125,
                "isDrum": true,
                "startTime": 3,
                "instrument": 9,
                "pitch": 36,
                "velocity": 100
            },
            {
                "endTime": 3.375,
                "isDrum": true,
                "startTime": 3.25,
                "instrument": 9,
                "pitch": 42,
                "velocity": 100
            },
            {
                "endTime": 3.625,
                "isDrum": true,
                "startTime": 3.5,
                "instrument": 9,
                "pitch": 36,
                "velocity": 100
            },
            {
                "endTime": 3.875,
                "isDrum": true,
                "startTime": 3.75,
                "instrument": 9,
                "pitch": 42,
                "velocity": 100
            }
        ],
        "totalTime": 3.875,
        "ticksPerQuarter": 220,
        "tempos": [
            {
                "qpm": 120
            }
        ]
    },
    {
        "notes": [
            {
                "velocity": 100,
                "isDrum": true,
                "instrument": 9,
                "pitch": 36,
                "endTime": 0.125
            },
            {
                "endTime": 0.375,
                "isDrum": true,
                "startTime": 0.25,
                "instrument": 9,
                "pitch": 42,
                "velocity": 100
            },
            {
                "endTime": 0.625,
                "isDrum": true,
                "startTime": 0.5,
                "instrument": 9,
                "pitch": 36,
                "velocity": 100
            },
            {
                "endTime": 0.875,
                "isDrum": true,
                "startTime": 0.75,
                "instrument": 9,
                "pitch": 42,
                "velocity": 100
            },
            {
                "endTime": 1.125,
                "isDrum": true,
                "startTime": 1,
                "instrument": 9,
                "pitch": 36,
                "velocity": 100
            },
            {
                "endTime": 1.375,
                "isDrum": true,
                "startTime": 1.25,
                "instrument": 9,
                "pitch": 42,
                "velocity": 100
            },
            {
                "endTime": 1.625,
                "isDrum": true,
                "startTime": 1.5,
                "instrument": 9,
                "pitch": 42,
                "velocity": 100
            },
            {
                "endTime": 1.625,
                "isDrum": true,
                "startTime": 1.5,
                "instrument": 9,
                "pitch": 36,
                "velocity": 100
            },
            {
                "endTime": 1.875,
                "isDrum": true,
                "startTime": 1.75,
                "instrument": 9,
                "pitch": 42,
                "velocity": 100
            },
            {
                "endTime": 2.125,
                "isDrum": true,
                "startTime": 2,
                "instrument": 9,
                "pitch": 42,
                "velocity": 100
            },
            {
                "endTime": 2.125,
                "isDrum": true,
                "startTime": 2,
                "instrument": 9,
                "pitch": 36,
                "velocity": 100
            },
            {
                "endTime": 2.875,
                "isDrum": true,
                "startTime": 2.75,
                "instrument": 9,
                "pitch": 42,
                "velocity": 100
            },
            {
                "endTime": 3.125,
                "isDrum": true,
                "startTime": 3,
                "instrument": 9,
                "pitch": 36,
                "velocity": 100
            },
            {
                "endTime": 3.375,
                "isDrum": true,
                "startTime": 3.25,
                "instrument": 9,
                "pitch": 42,
                "velocity": 100
            },
            {
                "endTime": 3.625,
                "isDrum": true,
                "startTime": 3.5,
                "instrument": 9,
                "pitch": 36,
                "velocity": 100
            },
            {
                "endTime": 3.875,
                "isDrum": true,
                "startTime": 3.75,
                "instrument": 9,
                "pitch": 42,
                "velocity": 100
            }
        ],
        "totalTime": 3.875,
        "ticksPerQuarter": 220,
        "tempos": [
            {
                "qpm": 120
            }
        ]
    },
    {
        "notes": [
            {
                "velocity": 100,
                "isDrum": true,
                "instrument": 9,
                "pitch": 36,
                "endTime": 0.125
            },
            {
                "endTime": 0.375,
                "isDrum": true,
                "startTime": 0.25,
                "instrument": 9,
                "pitch": 42,
                "velocity": 100
            },
            {
                "endTime": 0.625,
                "isDrum": true,
                "startTime": 0.5,
                "instrument": 9,
                "pitch": 42,
                "velocity": 100
            },
            {
                "endTime": 0.875,
                "isDrum": true,
                "startTime": 0.75,
                "instrument": 9,
                "pitch": 42,
                "velocity": 100
            },
            {
                "endTime": 1.125,
                "isDrum": true,
                "startTime": 1,
                "instrument": 9,
                "pitch": 42,
                "velocity": 100
            },
            {
                "endTime": 1.125,
                "isDrum": true,
                "startTime": 1,
                "instrument": 9,
                "pitch": 36,
                "velocity": 100
            },
            {
                "endTime": 1.375,
                "isDrum": true,
                "startTime": 1.25,
                "instrument": 9,
                "pitch": 42,
                "velocity": 100
            },
            {
                "endTime": 1.625,
                "isDrum": true,
                "startTime": 1.5,
                "instrument": 9,
                "pitch": 42,
                "velocity": 100
            },
            {
                "endTime": 1.625,
                "isDrum": true,
                "startTime": 1.5,
                "instrument": 9,
                "pitch": 36,
                "velocity": 100
            },
            {
                "endTime": 1.875,
                "isDrum": true,
                "startTime": 1.75,
                "instrument": 9,
                "pitch": 42,
                "velocity": 100
            },
            {
                "endTime": 1.875,
                "isDrum": true,
                "startTime": 1.75,
                "instrument": 9,
                "pitch": 36,
                "velocity": 100
            },
            {
                "endTime": 2.125,
                "isDrum": true,
                "startTime": 2,
                "instrument": 9,
                "pitch": 42,
                "velocity": 100
            },
            {
                "endTime": 2.125,
                "isDrum": true,
                "startTime": 2,
                "instrument": 9,
                "pitch": 36,
                "velocity": 100
            },
            {
                "endTime": 2.875,
                "isDrum": true,
                "startTime": 2.75,
                "instrument": 9,
                "pitch": 42,
                "velocity": 100
            },
            {
                "endTime": 3.125,
                "isDrum": true,
                "startTime": 3,
                "instrument": 9,
                "pitch": 42,
                "velocity": 100
            },
            {
                "endTime": 3.125,
                "isDrum": true,
                "startTime": 3,
                "instrument": 9,
                "pitch": 36,
                "velocity": 100
            },
            {
                "endTime": 3.375,
                "isDrum": true,
                "startTime": 3.25,
                "instrument": 9,
                "pitch": 42,
                "velocity": 100
            },
            {
                "endTime": 3.625,
                "isDrum": true,
                "startTime": 3.5,
                "instrument": 9,
                "pitch": 42,
                "velocity": 100
            },
            {
                "endTime": 3.875,
                "isDrum": true,
                "startTime": 3.75,
                "instrument": 9,
                "pitch": 42,
                "velocity": 100
            }
        ],
        "totalTime": 3.875,
        "ticksPerQuarter": 220,
        "tempos": [
            {
                "qpm": 120
            }
        ]
    },
    {
        "notes": [
            {
                "velocity": 100,
                "isDrum": true,
                "instrument": 9,
                "pitch": 42,
                "endTime": 0.125
            },
            {
                "velocity": 100,
                "isDrum": true,
                "instrument": 9,
                "pitch": 36,
                "endTime": 0.125
            },
            {
                "velocity": 100,
                "isDrum": true,
                "instrument": 9,
                "pitch": 45,
                "endTime": 0.125
            },
            {
                "velocity": 100,
                "isDrum": true,
                "instrument": 9,
                "pitch": 46,
                "endTime": 0.125
            },
            {
                "endTime": 0.375,
                "isDrum": true,
                "startTime": 0.25,
                "instrument": 9,
                "pitch": 42,
                "velocity": 100
            },
            {
                "endTime": 0.625,
                "isDrum": true,
                "startTime": 0.5,
                "instrument": 9,
                "pitch": 42,
                "velocity": 100
            },
            {
                "endTime": 0.875,
                "isDrum": true,
                "startTime": 0.75,
                "instrument": 9,
                "pitch": 42,
                "velocity": 100
            },
            {
                "endTime": 0.875,
                "isDrum": true,
                "startTime": 0.75,
                "instrument": 9,
                "pitch": 36,
                "velocity": 100
            },
            {
                "endTime": 1.125,
                "isDrum": true,
                "startTime": 1,
                "instrument": 9,
                "pitch": 42,
                "velocity": 100
            },
            {
                "endTime": 1.125,
                "isDrum": true,
                "startTime": 1,
                "instrument": 9,
                "pitch": 36,
                "velocity": 100
            },
            {
                "endTime": 1.375,
                "isDrum": true,
                "startTime": 1.25,
                "instrument": 9,
                "pitch": 42,
                "velocity": 100
            },
            {
                "endTime": 1.625,
                "isDrum": true,
                "startTime": 1.5,
                "instrument": 9,
                "pitch": 42,
                "velocity": 100
            },
            {
                "endTime": 1.625,
                "isDrum": true,
                "startTime": 1.5,
                "instrument": 9,
                "pitch": 38,
                "velocity": 100
            },
            {
                "endTime": 1.875,
                "isDrum": true,
                "startTime": 1.75,
                "instrument": 9,
                "pitch": 42,
                "velocity": 100
            },
            {
                "endTime": 2.125,
                "isDrum": true,
                "startTime": 2,
                "instrument": 9,
                "pitch": 49,
                "velocity": 100
            },
            {
                "endTime": 2.125,
                "isDrum": true,
                "startTime": 2,
                "instrument": 9,
                "pitch": 42,
                "velocity": 100
            },
            {
                "endTime": 2.125,
                "isDrum": true,
                "startTime": 2,
                "instrument": 9,
                "pitch": 36,
                "velocity": 100
            },
            {
                "endTime": 2.375,
                "isDrum": true,
                "startTime": 2.25,
                "instrument": 9,
                "pitch": 42,
                "velocity": 100
            },
            {
                "endTime": 2.875,
                "isDrum": true,
                "startTime": 2.75,
                "instrument": 9,
                "pitch": 42,
                "velocity": 100
            },
            {
                "endTime": 2.875,
                "isDrum": true,
                "startTime": 2.75,
                "instrument": 9,
                "pitch": 50,
                "velocity": 100
            },
            {
                "endTime": 3.125,
                "isDrum": true,
                "startTime": 3,
                "instrument": 9,
                "pitch": 42,
                "velocity": 100
            },
            {
                "endTime": 3.125,
                "isDrum": true,
                "startTime": 3,
                "instrument": 9,
                "pitch": 36,
                "velocity": 100
            },
            {
                "endTime": 3.375,
                "isDrum": true,
                "startTime": 3.25,
                "instrument": 9,
                "pitch": 42,
                "velocity": 100
            },
            {
                "endTime": 3.625,
                "isDrum": true,
                "startTime": 3.5,
                "instrument": 9,
                "pitch": 42,
                "velocity": 100
            },
            {
                "endTime": 3.875,
                "isDrum": true,
                "startTime": 3.75,
                "instrument": 9,
                "pitch": 42,
                "velocity": 100
            }
        ],
        "totalTime": 3.875,
        "ticksPerQuarter": 220,
        "tempos": [
            {
                "qpm": 120
            }
        ]
    },
    {
        "notes": [
            {
                "velocity": 100,
                "isDrum": true,
                "instrument": 9,
                "pitch": 42,
                "endTime": 0.125
            },
            {
                "velocity": 100,
                "isDrum": true,
                "instrument": 9,
                "pitch": 50,
                "endTime": 0.125
            },
            {
                "velocity": 100,
                "isDrum": true,
                "instrument": 9,
                "pitch": 38,
                "endTime": 0.125
            },
            {
                "endTime": 0.375,
                "isDrum": true,
                "startTime": 0.25,
                "instrument": 9,
                "pitch": 42,
                "velocity": 100
            },
            {
                "endTime": 0.625,
                "isDrum": true,
                "startTime": 0.5,
                "instrument": 9,
                "pitch": 42,
                "velocity": 100
            },
            {
                "endTime": 0.875,
                "isDrum": true,
                "startTime": 0.75,
                "instrument": 9,
                "pitch": 42,
                "velocity": 100
            },
            {
                "endTime": 0.875,
                "isDrum": true,
                "startTime": 0.75,
                "instrument": 9,
                "pitch": 50,
                "velocity": 100
            },
            {
                "endTime": 1.125,
                "isDrum": true,
                "startTime": 1,
                "instrument": 9,
                "pitch": 42,
                "velocity": 100
            },
            {
                "endTime": 1.125,
                "isDrum": true,
                "startTime": 1,
                "instrument": 9,
                "pitch": 36,
                "velocity": 100
            },
            {
                "endTime": 1.375,
                "isDrum": true,
                "startTime": 1.25,
                "instrument": 9,
                "pitch": 42,
                "velocity": 100
            },
            {
                "endTime": 1.625,
                "isDrum": true,
                "startTime": 1.5,
                "instrument": 9,
                "pitch": 42,
                "velocity": 100
            },
            {
                "endTime": 1.625,
                "isDrum": true,
                "startTime": 1.5,
                "instrument": 9,
                "pitch": 36,
                "velocity": 100
            },
            {
                "endTime": 1.625,
                "isDrum": true,
                "startTime": 1.5,
                "instrument": 9,
                "pitch": 38,
                "velocity": 100
            },
            {
                "endTime": 1.875,
                "isDrum": true,
                "startTime": 1.75,
                "instrument": 9,
                "pitch": 42,
                "velocity": 100
            },
            {
                "endTime": 1.875,
                "isDrum": true,
                "startTime": 1.75,
                "instrument": 9,
                "pitch": 50,
                "velocity": 100
            },
            {
                "endTime": 2.125,
                "isDrum": true,
                "startTime": 2,
                "instrument": 9,
                "pitch": 49,
                "velocity": 100
            },
            {
                "endTime": 2.125,
                "isDrum": true,
                "startTime": 2,
                "instrument": 9,
                "pitch": 42,
                "velocity": 100
            },
            {
                "endTime": 2.125,
                "isDrum": true,
                "startTime": 2,
                "instrument": 9,
                "pitch": 36,
                "velocity": 100
            },
            {
                "endTime": 2.375,
                "isDrum": true,
                "startTime": 2.25,
                "instrument": 9,
                "pitch": 42,
                "velocity": 100
            },
            {
                "endTime": 2.625,
                "isDrum": true,
                "startTime": 2.5,
                "instrument": 9,
                "pitch": 50,
                "velocity": 100
            },
            {
                "endTime": 2.875,
                "isDrum": true,
                "startTime": 2.75,
                "instrument": 9,
                "pitch": 42,
                "velocity": 100
            },
            {
                "endTime": 2.875,
                "isDrum": true,
                "startTime": 2.75,
                "instrument": 9,
                "pitch": 50,
                "velocity": 100
            },
            {
                "endTime": 3.125,
                "isDrum": true,
                "startTime": 3,
                "instrument": 9,
                "pitch": 42,
                "velocity": 100
            },
            {
                "endTime": 3.125,
                "isDrum": true,
                "startTime": 3,
                "instrument": 9,
                "pitch": 36,
                "velocity": 100
            },
            {
                "endTime": 3.375,
                "isDrum": true,
                "startTime": 3.25,
                "instrument": 9,
                "pitch": 42,
                "velocity": 100
            },
            {
                "endTime": 3.375,
                "isDrum": true,
                "startTime": 3.25,
                "instrument": 9,
                "pitch": 50,
                "velocity": 100
            },
            {
                "endTime": 3.625,
                "isDrum": true,
                "startTime": 3.5,
                "instrument": 9,
                "pitch": 42,
                "velocity": 100
            },
            {
                "endTime": 3.625,
                "isDrum": true,
                "startTime": 3.5,
                "instrument": 9,
                "pitch": 50,
                "velocity": 100
            },
            {
                "endTime": 3.875,
                "isDrum": true,
                "startTime": 3.75,
                "instrument": 9,
                "pitch": 42,
                "velocity": 100
            }
        ],
        "totalTime": 3.875,
        "ticksPerQuarter": 220,
        "tempos": [
            {
                "qpm": 120
            }
        ]
    },
    {
        "notes": [
            {
                "velocity": 100,
                "isDrum": true,
                "instrument": 9,
                "pitch": 42,
                "endTime": 0.125
            },
            {
                "velocity": 100,
                "isDrum": true,
                "instrument": 9,
                "pitch": 50,
                "endTime": 0.125
            },
            {
                "velocity": 100,
                "isDrum": true,
                "instrument": 9,
                "pitch": 38,
                "endTime": 0.125
            },
            {
                "endTime": 0.375,
                "isDrum": true,
                "startTime": 0.25,
                "instrument": 9,
                "pitch": 42,
                "velocity": 100
            },
            {
                "endTime": 0.5,
                "isDrum": true,
                "startTime": 0.375,
                "instrument": 9,
                "pitch": 42,
                "velocity": 100
            },
            {
                "endTime": 0.625,
                "isDrum": true,
                "startTime": 0.5,
                "instrument": 9,
                "pitch": 42,
                "velocity": 100
            },
            {
                "endTime": 0.625,
                "isDrum": true,
                "startTime": 0.5,
                "instrument": 9,
                "pitch": 50,
                "velocity": 100
            },
            {
                "endTime": 0.875,
                "isDrum": true,
                "startTime": 0.75,
                "instrument": 9,
                "pitch": 42,
                "velocity": 100
            },
            {
                "endTime": 0.875,
                "isDrum": true,
                "startTime": 0.75,
                "instrument": 9,
                "pitch": 50,
                "velocity": 100
            },
            {
                "endTime": 1.125,
                "isDrum": true,
                "startTime": 1,
                "instrument": 9,
                "pitch": 42,
                "velocity": 100
            },
            {
                "endTime": 1.125,
                "isDrum": true,
                "startTime": 1,
                "instrument": 9,
                "pitch": 36,
                "velocity": 100
            },
            {
                "endTime": 1.375,
                "isDrum": true,
                "startTime": 1.25,
                "instrument": 9,
                "pitch": 42,
                "velocity": 100
            },
            {
                "endTime": 1.375,
                "isDrum": true,
                "startTime": 1.25,
                "instrument": 9,
                "pitch": 50,
                "velocity": 100
            },
            {
                "endTime": 1.625,
                "isDrum": true,
                "startTime": 1.5,
                "instrument": 9,
                "pitch": 49,
                "velocity": 100
            },
            {
                "endTime": 1.625,
                "isDrum": true,
                "startTime": 1.5,
                "instrument": 9,
                "pitch": 42,
                "velocity": 100
            },
            {
                "endTime": 1.625,
                "isDrum": true,
                "startTime": 1.5,
                "instrument": 9,
                "pitch": 50,
                "velocity": 100
            },
            {
                "endTime": 1.625,
                "isDrum": true,
                "startTime": 1.5,
                "instrument": 9,
                "pitch": 38,
                "velocity": 100
            },
            {
                "endTime": 1.875,
                "isDrum": true,
                "startTime": 1.75,
                "instrument": 9,
                "pitch": 42,
                "velocity": 100
            },
            {
                "endTime": 1.875,
                "isDrum": true,
                "startTime": 1.75,
                "instrument": 9,
                "pitch": 50,
                "velocity": 100
            },
            {
                "endTime": 2.125,
                "isDrum": true,
                "startTime": 2,
                "instrument": 9,
                "pitch": 49,
                "velocity": 100
            },
            {
                "endTime": 2.125,
                "isDrum": true,
                "startTime": 2,
                "instrument": 9,
                "pitch": 42,
                "velocity": 100
            },
            {
                "endTime": 2.125,
                "isDrum": true,
                "startTime": 2,
                "instrument": 9,
                "pitch": 36,
                "velocity": 100
            },
            {
                "endTime": 2.125,
                "isDrum": true,
                "startTime": 2,
                "instrument": 9,
                "pitch": 46,
                "velocity": 100
            },
            {
                "endTime": 2.375,
                "isDrum": true,
                "startTime": 2.25,
                "instrument": 9,
                "pitch": 42,
                "velocity": 100
            },
            {
                "endTime": 2.625,
                "isDrum": true,
                "startTime": 2.5,
                "instrument": 9,
                "pitch": 50,
                "velocity": 100
            },
            {
                "endTime": 2.875,
                "isDrum": true,
                "startTime": 2.75,
                "instrument": 9,
                "pitch": 42,
                "velocity": 100
            },
            {
                "endTime": 2.875,
                "isDrum": true,
                "startTime": 2.75,
                "instrument": 9,
                "pitch": 50,
                "velocity": 100
            },
            {
                "endTime": 3.125,
                "isDrum": true,
                "startTime": 3,
                "instrument": 9,
                "pitch": 42,
                "velocity": 100
            },
            {
                "endTime": 3.125,
                "isDrum": true,
                "startTime": 3,
                "instrument": 9,
                "pitch": 36,
                "velocity": 100
            },
            {
                "endTime": 3.125,
                "isDrum": true,
                "startTime": 3,
                "instrument": 9,
                "pitch": 50,
                "velocity": 100
            },
            {
                "endTime": 3.125,
                "isDrum": true,
                "startTime": 3,
                "instrument": 9,
                "pitch": 38,
                "velocity": 100
            },
            {
                "endTime": 3.375,
                "isDrum": true,
                "startTime": 3.25,
                "instrument": 9,
                "pitch": 42,
                "velocity": 100
            },
            {
                "endTime": 3.375,
                "isDrum": true,
                "startTime": 3.25,
                "instrument": 9,
                "pitch": 50,
                "velocity": 100
            },
            {
                "endTime": 3.625,
                "isDrum": true,
                "startTime": 3.5,
                "instrument": 9,
                "pitch": 42,
                "velocity": 100
            },
            {
                "endTime": 3.625,
                "isDrum": true,
                "startTime": 3.5,
                "instrument": 9,
                "pitch": 50,
                "velocity": 100
            },
            {
                "endTime": 3.875,
                "isDrum": true,
                "startTime": 3.75,
                "instrument": 9,
                "pitch": 42,
                "velocity": 100
            },
            {
                "endTime": 3.875,
                "isDrum": true,
                "startTime": 3.75,
                "instrument": 9,
                "pitch": 50,
                "velocity": 100
            }
        ],
        "totalTime": 3.875,
        "ticksPerQuarter": 220,
        "tempos": [
            {
                "qpm": 120
            }
        ]
    },
    {
        "notes": [
            {
                "velocity": 100,
                "isDrum": true,
                "instrument": 9,
                "pitch": 42,
                "endTime": 0.125
            },
            {
                "velocity": 100,
                "isDrum": true,
                "instrument": 9,
                "pitch": 50,
                "endTime": 0.125
            },
            {
                "velocity": 100,
                "isDrum": true,
                "instrument": 9,
                "pitch": 36,
                "endTime": 0.125
            },
            {
                "velocity": 100,
                "isDrum": true,
                "instrument": 9,
                "pitch": 46,
                "endTime": 0.125
            },
            {
                "velocity": 100,
                "isDrum": true,
                "instrument": 9,
                "pitch": 38,
                "endTime": 0.125
            },
            {
                "endTime": 0.375,
                "isDrum": true,
                "startTime": 0.25,
                "instrument": 9,
                "pitch": 42,
                "velocity": 100
            },
            {
                "endTime": 0.5,
                "isDrum": true,
                "startTime": 0.375,
                "instrument": 9,
                "pitch": 42,
                "velocity": 100
            },
            {
                "endTime": 0.625,
                "isDrum": true,
                "startTime": 0.5,
                "instrument": 9,
                "pitch": 42,
                "velocity": 100
            },
            {
                "endTime": 0.625,
                "isDrum": true,
                "startTime": 0.5,
                "instrument": 9,
                "pitch": 50,
                "velocity": 100
            },
            {
                "endTime": 0.875,
                "isDrum": true,
                "startTime": 0.75,
                "instrument": 9,
                "pitch": 42,
                "velocity": 100
            },
            {
                "endTime": 0.875,
                "isDrum": true,
                "startTime": 0.75,
                "instrument": 9,
                "pitch": 36,
                "velocity": 100
            },
            {
                "endTime": 0.875,
                "isDrum": true,
                "startTime": 0.75,
                "instrument": 9,
                "pitch": 50,
                "velocity": 100
            },
            {
                "endTime": 1.125,
                "isDrum": true,
                "startTime": 1,
                "instrument": 9,
                "pitch": 42,
                "velocity": 100
            },
            {
                "endTime": 1.125,
                "isDrum": true,
                "startTime": 1,
                "instrument": 9,
                "pitch": 36,
                "velocity": 100
            },
            {
                "endTime": 1.125,
                "isDrum": true,
                "startTime": 1,
                "instrument": 9,
                "pitch": 46,
                "velocity": 100
            },
            {
                "endTime": 1.375,
                "isDrum": true,
                "startTime": 1.25,
                "instrument": 9,
                "pitch": 42,
                "velocity": 100
            },
            {
                "endTime": 1.375,
                "isDrum": true,
                "startTime": 1.25,
                "instrument": 9,
                "pitch": 50,
                "velocity": 100
            },
            {
                "endTime": 1.625,
                "isDrum": true,
                "startTime": 1.5,
                "instrument": 9,
                "pitch": 49,
                "velocity": 100
            },
            {
                "endTime": 1.625,
                "isDrum": true,
                "startTime": 1.5,
                "instrument": 9,
                "pitch": 42,
                "velocity": 100
            },
            {
                "endTime": 1.625,
                "isDrum": true,
                "startTime": 1.5,
                "instrument": 9,
                "pitch": 50,
                "velocity": 100
            },
            {
                "endTime": 1.625,
                "isDrum": true,
                "startTime": 1.5,
                "instrument": 9,
                "pitch": 38,
                "velocity": 100
            },
            {
                "endTime": 1.875,
                "isDrum": true,
                "startTime": 1.75,
                "instrument": 9,
                "pitch": 42,
                "velocity": 100
            },
            {
                "endTime": 1.875,
                "isDrum": true,
                "startTime": 1.75,
                "instrument": 9,
                "pitch": 50,
                "velocity": 100
            },
            {
                "endTime": 2.125,
                "isDrum": true,
                "startTime": 2,
                "instrument": 9,
                "pitch": 49,
                "velocity": 100
            },
            {
                "endTime": 2.125,
                "isDrum": true,
                "startTime": 2,
                "instrument": 9,
                "pitch": 42,
                "velocity": 100
            },
            {
                "endTime": 2.125,
                "isDrum": true,
                "startTime": 2,
                "instrument": 9,
                "pitch": 36,
                "velocity": 100
            },
            {
                "endTime": 2.125,
                "isDrum": true,
                "startTime": 2,
                "instrument": 9,
                "pitch": 46,
                "velocity": 100
            },
            {
                "endTime": 2.375,
                "isDrum": true,
                "startTime": 2.25,
                "instrument": 9,
                "pitch": 42,
                "velocity": 100
            },
            {
                "endTime": 2.625,
                "isDrum": true,
                "startTime": 2.5,
                "instrument": 9,
                "pitch": 42,
                "velocity": 100
            },
            {
                "endTime": 2.625,
                "isDrum": true,
                "startTime": 2.5,
                "instrument": 9,
                "pitch": 50,
                "velocity": 100
            },
            {
                "endTime": 2.875,
                "isDrum": true,
                "startTime": 2.75,
                "instrument": 9,
                "pitch": 42,
                "velocity": 100
            },
            {
                "endTime": 2.875,
                "isDrum": true,
                "startTime": 2.75,
                "instrument": 9,
                "pitch": 36,
                "velocity": 100
            },
            {
                "endTime": 2.875,
                "isDrum": true,
                "startTime": 2.75,
                "instrument": 9,
                "pitch": 50,
                "velocity": 100
            },
            {
                "endTime": 2.875,
                "isDrum": true,
                "startTime": 2.75,
                "instrument": 9,
                "pitch": 38,
                "velocity": 100
            },
            {
                "endTime": 3.125,
                "isDrum": true,
                "startTime": 3,
                "instrument": 9,
                "pitch": 42,
                "velocity": 100
            },
            {
                "endTime": 3.125,
                "isDrum": true,
                "startTime": 3,
                "instrument": 9,
                "pitch": 36,
                "velocity": 100
            },
            {
                "endTime": 3.125,
                "isDrum": true,
                "startTime": 3,
                "instrument": 9,
                "pitch": 50,
                "velocity": 100
            },
            {
                "endTime": 3.125,
                "isDrum": true,
                "startTime": 3,
                "instrument": 9,
                "pitch": 46,
                "velocity": 100
            },
            {
                "endTime": 3.375,
                "isDrum": true,
                "startTime": 3.25,
                "instrument": 9,
                "pitch": 48,
                "velocity": 100
            },
            {
                "endTime": 3.375,
                "isDrum": true,
                "startTime": 3.25,
                "instrument": 9,
                "pitch": 42,
                "velocity": 100
            },
            {
                "endTime": 3.625,
                "isDrum": true,
                "startTime": 3.5,
                "instrument": 9,
                "pitch": 42,
                "velocity": 100
            },
            {
                "endTime": 3.625,
                "isDrum": true,
                "startTime": 3.5,
                "instrument": 9,
                "pitch": 50,
                "velocity": 100
            },
            {
                "endTime": 3.875,
                "isDrum": true,
                "startTime": 3.75,
                "instrument": 9,
                "pitch": 42,
                "velocity": 100
            },
            {
                "endTime": 3.875,
                "isDrum": true,
                "startTime": 3.75,
                "instrument": 9,
                "pitch": 50,
                "velocity": 100
            }
        ],
        "totalTime": 3.875,
        "ticksPerQuarter": 220,
        "tempos": [
            {
                "qpm": 120
            }
        ]
    },
    {
        "notes": [
            {
                "velocity": 100,
                "isDrum": true,
                "instrument": 9,
                "pitch": 42,
                "endTime": 0.125
            },
            {
                "velocity": 100,
                "isDrum": true,
                "instrument": 9,
                "pitch": 36,
                "endTime": 0.125
            },
            {
                "velocity": 100,
                "isDrum": true,
                "instrument": 9,
                "pitch": 46,
                "endTime": 0.125
            },
            {
                "velocity": 100,
                "isDrum": true,
                "instrument": 9,
                "pitch": 38,
                "endTime": 0.125
            },
            {
                "endTime": 0.375,
                "isDrum": true,
                "startTime": 0.25,
                "instrument": 9,
                "pitch": 42,
                "velocity": 100
            },
            {
                "endTime": 0.5,
                "isDrum": true,
                "startTime": 0.375,
                "instrument": 9,
                "pitch": 42,
                "velocity": 100
            },
            {
                "endTime": 0.625,
                "isDrum": true,
                "startTime": 0.5,
                "instrument": 9,
                "pitch": 42,
                "velocity": 100
            },
            {
                "endTime": 0.625,
                "isDrum": true,
                "startTime": 0.5,
                "instrument": 9,
                "pitch": 50,
                "velocity": 100
            },
            {
                "endTime": 0.875,
                "isDrum": true,
                "startTime": 0.75,
                "instrument": 9,
                "pitch": 42,
                "velocity": 100
            },
            {
                "endTime": 0.875,
                "isDrum": true,
                "startTime": 0.75,
                "instrument": 9,
                "pitch": 36,
                "velocity": 100
            },
            {
                "endTime": 0.875,
                "isDrum": true,
                "startTime": 0.75,
                "instrument": 9,
                "pitch": 50,
                "velocity": 100
            },
            {
                "endTime": 0.875,
                "isDrum": true,
                "startTime": 0.75,
                "instrument": 9,
                "pitch": 38,
                "velocity": 100
            },
            {
                "endTime": 1.125,
                "isDrum": true,
                "startTime": 1,
                "instrument": 9,
                "pitch": 42,
                "velocity": 100
            },
            {
                "endTime": 1.125,
                "isDrum": true,
                "startTime": 1,
                "instrument": 9,
                "pitch": 36,
                "velocity": 100
            },
            {
                "endTime": 1.125,
                "isDrum": true,
                "startTime": 1,
                "instrument": 9,
                "pitch": 46,
                "velocity": 100
            },
            {
                "endTime": 1.375,
                "isDrum": true,
                "startTime": 1.25,
                "instrument": 9,
                "pitch": 42,
                "velocity": 100
            },
            {
                "endTime": 1.375,
                "isDrum": true,
                "startTime": 1.25,
                "instrument": 9,
                "pitch": 50,
                "velocity": 100
            },
            {
                "endTime": 1.625,
                "isDrum": true,
                "startTime": 1.5,
                "instrument": 9,
                "pitch": 48,
                "velocity": 100
            },
            {
                "endTime": 1.625,
                "isDrum": true,
                "startTime": 1.5,
                "instrument": 9,
                "pitch": 42,
                "velocity": 100
            },
            {
                "endTime": 1.625,
                "isDrum": true,
                "startTime": 1.5,
                "instrument": 9,
                "pitch": 36,
                "velocity": 100
            },
            {
                "endTime": 1.625,
                "isDrum": true,
                "startTime": 1.5,
                "instrument": 9,
                "pitch": 50,
                "velocity": 100
            },
            {
                "endTime": 1.625,
                "isDrum": true,
                "startTime": 1.5,
                "instrument": 9,
                "pitch": 38,
                "velocity": 100
            },
            {
                "endTime": 1.875,
                "isDrum": true,
                "startTime": 1.75,
                "instrument": 9,
                "pitch": 48,
                "velocity": 100
            },
            {
                "endTime": 1.875,
                "isDrum": true,
                "startTime": 1.75,
                "instrument": 9,
                "pitch": 42,
                "velocity": 100
            },
            {
                "endTime": 1.875,
                "isDrum": true,
                "startTime": 1.75,
                "instrument": 9,
                "pitch": 50,
                "velocity": 100
            },
            {
                "endTime": 2.125,
                "isDrum": true,
                "startTime": 2,
                "instrument": 9,
                "pitch": 49,
                "velocity": 100
            },
            {
                "endTime": 2.125,
                "isDrum": true,
                "startTime": 2,
                "instrument": 9,
                "pitch": 42,
                "velocity": 100
            },
            {
                "endTime": 2.125,
                "isDrum": true,
                "startTime": 2,
                "instrument": 9,
                "pitch": 36,
                "velocity": 100
            },
            {
                "endTime": 2.125,
                "isDrum": true,
                "startTime": 2,
                "instrument": 9,
                "pitch": 46,
                "velocity": 100
            },
            {
                "endTime": 2.375,
                "isDrum": true,
                "startTime": 2.25,
                "instrument": 9,
                "pitch": 42,
                "velocity": 100
            },
            {
                "endTime": 2.5,
                "isDrum": true,
                "startTime": 2.375,
                "instrument": 9,
                "pitch": 42,
                "velocity": 100
            },
            {
                "endTime": 2.625,
                "isDrum": true,
                "startTime": 2.5,
                "instrument": 9,
                "pitch": 42,
                "velocity": 100
            },
            {
                "endTime": 2.625,
                "isDrum": true,
                "startTime": 2.5,
                "instrument": 9,
                "pitch": 50,
                "velocity": 100
            },
            {
                "endTime": 2.875,
                "isDrum": true,
                "startTime": 2.75,
                "instrument": 9,
                "pitch": 42,
                "velocity": 100
            },
            {
                "endTime": 2.875,
                "isDrum": true,
                "startTime": 2.75,
                "instrument": 9,
                "pitch": 36,
                "velocity": 100
            },
            {
                "endTime": 2.875,
                "isDrum": true,
                "startTime": 2.75,
                "instrument": 9,
                "pitch": 50,
                "velocity": 100
            },
            {
                "endTime": 2.875,
                "isDrum": true,
                "startTime": 2.75,
                "instrument": 9,
                "pitch": 46,
                "velocity": 100
            },
            {
                "endTime": 3.125,
                "isDrum": true,
                "startTime": 3,
                "instrument": 9,
                "pitch": 42,
                "velocity": 100
            },
            {
                "endTime": 3.125,
                "isDrum": true,
                "startTime": 3,
                "instrument": 9,
                "pitch": 36,
                "velocity": 100
            },
            {
                "endTime": 3.125,
                "isDrum": true,
                "startTime": 3,
                "instrument": 9,
                "pitch": 50,
                "velocity": 100
            },
            {
                "endTime": 3.125,
                "isDrum": true,
                "startTime": 3,
                "instrument": 9,
                "pitch": 46,
                "velocity": 100
            },
            {
                "endTime": 3.375,
                "isDrum": true,
                "startTime": 3.25,
                "instrument": 9,
                "pitch": 42,
                "velocity": 100
            },
            {
                "endTime": 3.375,
                "isDrum": true,
                "startTime": 3.25,
                "instrument": 9,
                "pitch": 50,
                "velocity": 100
            },
            {
                "endTime": 3.625,
                "isDrum": true,
                "startTime": 3.5,
                "instrument": 9,
                "pitch": 42,
                "velocity": 100
            },
            {
                "endTime": 3.625,
                "isDrum": true,
                "startTime": 3.5,
                "instrument": 9,
                "pitch": 36,
                "velocity": 100
            },
            {
                "endTime": 3.625,
                "isDrum": true,
                "startTime": 3.5,
                "instrument": 9,
                "pitch": 38,
                "velocity": 100
            },
            {
                "endTime": 3.875,
                "isDrum": true,
                "startTime": 3.75,
                "instrument": 9,
                "pitch": 48,
                "velocity": 100
            },
            {
                "endTime": 3.875,
                "isDrum": true,
                "startTime": 3.75,
                "instrument": 9,
                "pitch": 42,
                "velocity": 100
            }
        ],
        "totalTime": 3.875,
        "ticksPerQuarter": 220,
        "tempos": [
            {
                "qpm": 120
            }
        ]
    },
    {
        "notes": [
            {
                "velocity": 100,
                "isDrum": true,
                "instrument": 9,
                "pitch": 42,
                "endTime": 0.125
            },
            {
                "velocity": 100,
                "isDrum": true,
                "instrument": 9,
                "pitch": 36,
                "endTime": 0.125
            },
            {
                "velocity": 100,
                "isDrum": true,
                "instrument": 9,
                "pitch": 46,
                "endTime": 0.125
            },
            {
                "velocity": 100,
                "isDrum": true,
                "instrument": 9,
                "pitch": 38,
                "endTime": 0.125
            },
            {
                "endTime": 0.375,
                "isDrum": true,
                "startTime": 0.25,
                "instrument": 9,
                "pitch": 42,
                "velocity": 100
            },
            {
                "endTime": 0.5,
                "isDrum": true,
                "startTime": 0.375,
                "instrument": 9,
                "pitch": 42,
                "velocity": 100
            },
            {
                "endTime": 0.625,
                "isDrum": true,
                "startTime": 0.5,
                "instrument": 9,
                "pitch": 42,
                "velocity": 100
            },
            {
                "endTime": 0.625,
                "isDrum": true,
                "startTime": 0.5,
                "instrument": 9,
                "pitch": 50,
                "velocity": 100
            },
            {
                "endTime": 0.875,
                "isDrum": true,
                "startTime": 0.75,
                "instrument": 9,
                "pitch": 42,
                "velocity": 100
            },
            {
                "endTime": 0.875,
                "isDrum": true,
                "startTime": 0.75,
                "instrument": 9,
                "pitch": 36,
                "velocity": 100
            },
            {
                "endTime": 0.875,
                "isDrum": true,
                "startTime": 0.75,
                "instrument": 9,
                "pitch": 50,
                "velocity": 100
            },
            {
                "endTime": 0.875,
                "isDrum": true,
                "startTime": 0.75,
                "instrument": 9,
                "pitch": 38,
                "velocity": 100
            },
            {
                "endTime": 1.125,
                "isDrum": true,
                "startTime": 1,
                "instrument": 9,
                "pitch": 42,
                "velocity": 100
            },
            {
                "endTime": 1.125,
                "isDrum": true,
                "startTime": 1,
                "instrument": 9,
                "pitch": 36,
                "velocity": 100
            },
            {
                "endTime": 1.125,
                "isDrum": true,
                "startTime": 1,
                "instrument": 9,
                "pitch": 50,
                "velocity": 100
            },
            {
                "endTime": 1.125,
                "isDrum": true,
                "startTime": 1,
                "instrument": 9,
                "pitch": 46,
                "velocity": 100
            },
            {
                "endTime": 1.375,
                "isDrum": true,
                "startTime": 1.25,
                "instrument": 9,
                "pitch": 42,
                "velocity": 100
            },
            {
                "endTime": 1.375,
                "isDrum": true,
                "startTime": 1.25,
                "instrument": 9,
                "pitch": 50,
                "velocity": 100
            },
            {
                "endTime": 1.625,
                "isDrum": true,
                "startTime": 1.5,
                "instrument": 9,
                "pitch": 48,
                "velocity": 100
            },
            {
                "endTime": 1.625,
                "isDrum": true,
                "startTime": 1.5,
                "instrument": 9,
                "pitch": 42,
                "velocity": 100
            },
            {
                "endTime": 1.625,
                "isDrum": true,
                "startTime": 1.5,
                "instrument": 9,
                "pitch": 36,
                "velocity": 100
            },
            {
                "endTime": 1.625,
                "isDrum": true,
                "startTime": 1.5,
                "instrument": 9,
                "pitch": 38,
                "velocity": 100
            },
            {
                "endTime": 1.875,
                "isDrum": true,
                "startTime": 1.75,
                "instrument": 9,
                "pitch": 48,
                "velocity": 100
            },
            {
                "endTime": 1.875,
                "isDrum": true,
                "startTime": 1.75,
                "instrument": 9,
                "pitch": 42,
                "velocity": 100
            },
            {
                "endTime": 1.875,
                "isDrum": true,
                "startTime": 1.75,
                "instrument": 9,
                "pitch": 45,
                "velocity": 100
            },
            {
                "endTime": 2.125,
                "isDrum": true,
                "startTime": 2,
                "instrument": 9,
                "pitch": 49,
                "velocity": 100
            },
            {
                "endTime": 2.125,
                "isDrum": true,
                "startTime": 2,
                "instrument": 9,
                "pitch": 42,
                "velocity": 100
            },
            {
                "endTime": 2.125,
                "isDrum": true,
                "startTime": 2,
                "instrument": 9,
                "pitch": 36,
                "velocity": 100
            },
            {
                "endTime": 2.125,
                "isDrum": true,
                "startTime": 2,
                "instrument": 9,
                "pitch": 46,
                "velocity": 100
            },
            {
                "endTime": 2.125,
                "isDrum": true,
                "startTime": 2,
                "instrument": 9,
                "pitch": 38,
                "velocity": 100
            },
            {
                "endTime": 2.375,
                "isDrum": true,
                "startTime": 2.25,
                "instrument": 9,
                "pitch": 42,
                "velocity": 100
            },
            {
                "endTime": 2.5,
                "isDrum": true,
                "startTime": 2.375,
                "instrument": 9,
                "pitch": 42,
                "velocity": 100
            },
            {
                "endTime": 2.625,
                "isDrum": true,
                "startTime": 2.5,
                "instrument": 9,
                "pitch": 42,
                "velocity": 100
            },
            {
                "endTime": 2.625,
                "isDrum": true,
                "startTime": 2.5,
                "instrument": 9,
                "pitch": 50,
                "velocity": 100
            },
            {
                "endTime": 2.875,
                "isDrum": true,
                "startTime": 2.75,
                "instrument": 9,
                "pitch": 42,
                "velocity": 100
            },
            {
                "endTime": 2.875,
                "isDrum": true,
                "startTime": 2.75,
                "instrument": 9,
                "pitch": 36,
                "velocity": 100
            },
            {
                "endTime": 2.875,
                "isDrum": true,
                "startTime": 2.75,
                "instrument": 9,
                "pitch": 45,
                "velocity": 100
            },
            {
                "endTime": 2.875,
                "isDrum": true,
                "startTime": 2.75,
                "instrument": 9,
                "pitch": 38,
                "velocity": 100
            },
            {
                "endTime": 3.125,
                "isDrum": true,
                "startTime": 3,
                "instrument": 9,
                "pitch": 42,
                "velocity": 100
            },
            {
                "endTime": 3.125,
                "isDrum": true,
                "startTime": 3,
                "instrument": 9,
                "pitch": 36,
                "velocity": 100
            },
            {
                "endTime": 3.125,
                "isDrum": true,
                "startTime": 3,
                "instrument": 9,
                "pitch": 46,
                "velocity": 100
            },
            {
                "endTime": 3.375,
                "isDrum": true,
                "startTime": 3.25,
                "instrument": 9,
                "pitch": 48,
                "velocity": 100
            },
            {
                "endTime": 3.375,
                "isDrum": true,
                "startTime": 3.25,
                "instrument": 9,
                "pitch": 42,
                "velocity": 100
            },
            {
                "endTime": 3.625,
                "isDrum": true,
                "startTime": 3.5,
                "instrument": 9,
                "pitch": 42,
                "velocity": 100
            },
            {
                "endTime": 3.625,
                "isDrum": true,
                "startTime": 3.5,
                "instrument": 9,
                "pitch": 36,
                "velocity": 100
            },
            {
                "endTime": 3.625,
                "isDrum": true,
                "startTime": 3.5,
                "instrument": 9,
                "pitch": 38,
                "velocity": 100
            },
            {
                "endTime": 3.875,
                "isDrum": true,
                "startTime": 3.75,
                "instrument": 9,
                "pitch": 48,
                "velocity": 100
            },
            {
                "endTime": 3.875,
                "isDrum": true,
                "startTime": 3.75,
                "instrument": 9,
                "pitch": 42,
                "velocity": 100
            }
        ],
        "totalTime": 3.875,
        "ticksPerQuarter": 220,
        "tempos": [
            {
                "qpm": 120
            }
        ]
    },
    {
        "notes": [
            {
                "velocity": 100,
                "isDrum": true,
                "instrument": 9,
                "pitch": 42,
                "endTime": 0.125
            },
            {
                "velocity": 100,
                "isDrum": true,
                "instrument": 9,
                "pitch": 36,
                "endTime": 0.125
            },
            {
                "velocity": 100,
                "isDrum": true,
                "instrument": 9,
                "pitch": 46,
                "endTime": 0.125
            },
            {
                "velocity": 100,
                "isDrum": true,
                "instrument": 9,
                "pitch": 38,
                "endTime": 0.125
            },
            {
                "endTime": 0.375,
                "isDrum": true,
                "startTime": 0.25,
                "instrument": 9,
                "pitch": 42,
                "velocity": 100
            },
            {
                "endTime": 0.5,
                "isDrum": true,
                "startTime": 0.375,
                "instrument": 9,
                "pitch": 42,
                "velocity": 100
            },
            {
                "endTime": 0.625,
                "isDrum": true,
                "startTime": 0.5,
                "instrument": 9,
                "pitch": 42,
                "velocity": 100
            },
            {
                "endTime": 0.625,
                "isDrum": true,
                "startTime": 0.5,
                "instrument": 9,
                "pitch": 50,
                "velocity": 100
            },
            {
                "endTime": 0.875,
                "isDrum": true,
                "startTime": 0.75,
                "instrument": 9,
                "pitch": 42,
                "velocity": 100
            },
            {
                "endTime": 0.875,
                "isDrum": true,
                "startTime": 0.75,
                "instrument": 9,
                "pitch": 36,
                "velocity": 100
            },
            {
                "endTime": 0.875,
                "isDrum": true,
                "startTime": 0.75,
                "instrument": 9,
                "pitch": 50,
                "velocity": 100
            },
            {
                "endTime": 0.875,
                "isDrum": true,
                "startTime": 0.75,
                "instrument": 9,
                "pitch": 38,
                "velocity": 100
            },
            {
                "endTime": 1.125,
                "isDrum": true,
                "startTime": 1,
                "instrument": 9,
                "pitch": 42,
                "velocity": 100
            },
            {
                "endTime": 1.125,
                "isDrum": true,
                "startTime": 1,
                "instrument": 9,
                "pitch": 36,
                "velocity": 100
            },
            {
                "endTime": 1.125,
                "isDrum": true,
                "startTime": 1,
                "instrument": 9,
                "pitch": 50,
                "velocity": 100
            },
            {
                "endTime": 1.125,
                "isDrum": true,
                "startTime": 1,
                "instrument": 9,
                "pitch": 46,
                "velocity": 100
            },
            {
                "endTime": 1.375,
                "isDrum": true,
                "startTime": 1.25,
                "instrument": 9,
                "pitch": 48,
                "velocity": 100
            },
            {
                "endTime": 1.375,
                "isDrum": true,
                "startTime": 1.25,
                "instrument": 9,
                "pitch": 42,
                "velocity": 100
            },
            {
                "endTime": 1.375,
                "isDrum": true,
                "startTime": 1.25,
                "instrument": 9,
                "pitch": 50,
                "velocity": 100
            },
            {
                "endTime": 1.625,
                "isDrum": true,
                "startTime": 1.5,
                "instrument": 9,
                "pitch": 48,
                "velocity": 100
            },
            {
                "endTime": 1.625,
                "isDrum": true,
                "startTime": 1.5,
                "instrument": 9,
                "pitch": 42,
                "velocity": 100
            },
            {
                "endTime": 1.625,
                "isDrum": true,
                "startTime": 1.5,
                "instrument": 9,
                "pitch": 36,
                "velocity": 100
            },
            {
                "endTime": 1.625,
                "isDrum": true,
                "startTime": 1.5,
                "instrument": 9,
                "pitch": 46,
                "velocity": 100
            },
            {
                "endTime": 1.625,
                "isDrum": true,
                "startTime": 1.5,
                "instrument": 9,
                "pitch": 38,
                "velocity": 100
            },
            {
                "endTime": 1.75,
                "isDrum": true,
                "startTime": 1.625,
                "instrument": 9,
                "pitch": 50,
                "velocity": 100
            },
            {
                "endTime": 1.875,
                "isDrum": true,
                "startTime": 1.75,
                "instrument": 9,
                "pitch": 48,
                "velocity": 100
            },
            {
                "endTime": 1.875,
                "isDrum": true,
                "startTime": 1.75,
                "instrument": 9,
                "pitch": 42,
                "velocity": 100
            },
            {
                "endTime": 1.875,
                "isDrum": true,
                "startTime": 1.75,
                "instrument": 9,
                "pitch": 45,
                "velocity": 100
            },
            {
                "endTime": 2.125,
                "isDrum": true,
                "startTime": 2,
                "instrument": 9,
                "pitch": 49,
                "velocity": 100
            },
            {
                "endTime": 2.125,
                "isDrum": true,
                "startTime": 2,
                "instrument": 9,
                "pitch": 42,
                "velocity": 100
            },
            {
                "endTime": 2.125,
                "isDrum": true,
                "startTime": 2,
                "instrument": 9,
                "pitch": 36,
                "velocity": 100
            },
            {
                "endTime": 2.125,
                "isDrum": true,
                "startTime": 2,
                "instrument": 9,
                "pitch": 46,
                "velocity": 100
            },
            {
                "endTime": 2.125,
                "isDrum": true,
                "startTime": 2,
                "instrument": 9,
                "pitch": 38,
                "velocity": 100
            },
            {
                "endTime": 2.375,
                "isDrum": true,
                "startTime": 2.25,
                "instrument": 9,
                "pitch": 42,
                "velocity": 100
            },
            {
                "endTime": 2.5,
                "isDrum": true,
                "startTime": 2.375,
                "instrument": 9,
                "pitch": 42,
                "velocity": 100
            },
            {
                "endTime": 2.625,
                "isDrum": true,
                "startTime": 2.5,
                "instrument": 9,
                "pitch": 42,
                "velocity": 100
            },
            {
                "endTime": 2.625,
                "isDrum": true,
                "startTime": 2.5,
                "instrument": 9,
                "pitch": 50,
                "velocity": 100
            },
            {
                "endTime": 2.875,
                "isDrum": true,
                "startTime": 2.75,
                "instrument": 9,
                "pitch": 42,
                "velocity": 100
            },
            {
                "endTime": 2.875,
                "isDrum": true,
                "startTime": 2.75,
                "instrument": 9,
                "pitch": 36,
                "velocity": 100
            },
            {
                "endTime": 2.875,
                "isDrum": true,
                "startTime": 2.75,
                "instrument": 9,
                "pitch": 45,
                "velocity": 100
            },
            {
                "endTime": 2.875,
                "isDrum": true,
                "startTime": 2.75,
                "instrument": 9,
                "pitch": 38,
                "velocity": 100
            },
            {
                "endTime": 3.125,
                "isDrum": true,
                "startTime": 3,
                "instrument": 9,
                "pitch": 42,
                "velocity": 100
            },
            {
                "endTime": 3.125,
                "isDrum": true,
                "startTime": 3,
                "instrument": 9,
                "pitch": 36,
                "velocity": 100
            },
            {
                "endTime": 3.125,
                "isDrum": true,
                "startTime": 3,
                "instrument": 9,
                "pitch": 46,
                "velocity": 100
            },
            {
                "endTime": 3.375,
                "isDrum": true,
                "startTime": 3.25,
                "instrument": 9,
                "pitch": 48,
                "velocity": 100
            },
            {
                "endTime": 3.375,
                "isDrum": true,
                "startTime": 3.25,
                "instrument": 9,
                "pitch": 42,
                "velocity": 100
            },
            {
                "endTime": 3.625,
                "isDrum": true,
                "startTime": 3.5,
                "instrument": 9,
                "pitch": 42,
                "velocity": 100
            },
            {
                "endTime": 3.625,
                "isDrum": true,
                "startTime": 3.5,
                "instrument": 9,
                "pitch": 36,
                "velocity": 100
            },
            {
                "endTime": 3.625,
                "isDrum": true,
                "startTime": 3.5,
                "instrument": 9,
                "pitch": 38,
                "velocity": 100
            },
            {
                "endTime": 3.875,
                "isDrum": true,
                "startTime": 3.75,
                "instrument": 9,
                "pitch": 48,
                "velocity": 100
            },
            {
                "endTime": 3.875,
                "isDrum": true,
                "startTime": 3.75,
                "instrument": 9,
                "pitch": 42,
                "velocity": 100
            }
        ],
        "totalTime": 3.875,
        "ticksPerQuarter": 220,
        "tempos": [
            {
                "qpm": 120
            }
        ]
    },
    {
        "notes": [
            {
                "velocity": 100,
                "isDrum": true,
                "instrument": 9,
                "pitch": 36,
                "endTime": 0.125
            },
            {
                "endTime": 0.375,
                "isDrum": true,
                "startTime": 0.25,
                "instrument": 9,
                "pitch": 42,
                "velocity": 100
            },
            {
                "endTime": 0.625,
                "isDrum": true,
                "startTime": 0.5,
                "instrument": 9,
                "pitch": 36,
                "velocity": 100
            },
            {
                "endTime": 0.875,
                "isDrum": true,
                "startTime": 0.75,
                "instrument": 9,
                "pitch": 42,
                "velocity": 100
            },
            {
                "endTime": 1.125,
                "isDrum": true,
                "startTime": 1,
                "instrument": 9,
                "pitch": 36,
                "velocity": 100
            },
            {
                "endTime": 1.375,
                "isDrum": true,
                "startTime": 1.25,
                "instrument": 9,
                "pitch": 42,
                "velocity": 100
            },
            {
                "endTime": 1.625,
                "isDrum": true,
                "startTime": 1.5,
                "instrument": 9,
                "pitch": 36,
                "velocity": 100
            },
            {
                "endTime": 1.875,
                "isDrum": true,
                "startTime": 1.75,
                "instrument": 9,
                "pitch": 42,
                "velocity": 100
            },
            {
                "endTime": 2.125,
                "isDrum": true,
                "startTime": 2,
                "instrument": 9,
                "pitch": 36,
                "velocity": 100
            },
            {
                "endTime": 2.875,
                "isDrum": true,
                "startTime": 2.75,
                "instrument": 9,
                "pitch": 42,
                "velocity": 100
            },
            {
                "endTime": 3.125,
                "isDrum": true,
                "startTime": 3,
                "instrument": 9,
                "pitch": 36,
                "velocity": 100
            },
            {
                "endTime": 3.375,
                "isDrum": true,
                "startTime": 3.25,
                "instrument": 9,
                "pitch": 42,
                "velocity": 100
            },
            {
                "endTime": 3.625,
                "isDrum": true,
                "startTime": 3.5,
                "instrument": 9,
                "pitch": 36,
                "velocity": 100
            },
            {
                "endTime": 3.875,
                "isDrum": true,
                "startTime": 3.75,
                "instrument": 9,
                "pitch": 42,
                "velocity": 100
            }
        ],
        "totalTime": 3.875,
        "ticksPerQuarter": 220,
        "tempos": [
            {
                "qpm": 120
            }
        ]
    },
    {
        "notes": [
            {
                "velocity": 100,
                "isDrum": true,
                "instrument": 9,
                "pitch": 36,
                "endTime": 0.125
            },
            {
                "endTime": 0.375,
                "isDrum": true,
                "startTime": 0.25,
                "instrument": 9,
                "pitch": 42,
                "velocity": 100
            },
            {
                "endTime": 0.625,
                "isDrum": true,
                "startTime": 0.5,
                "instrument": 9,
                "pitch": 36,
                "velocity": 100
            },
            {
                "endTime": 0.875,
                "isDrum": true,
                "startTime": 0.75,
                "instrument": 9,
                "pitch": 42,
                "velocity": 100
            },
            {
                "endTime": 1.125,
                "isDrum": true,
                "startTime": 1,
                "instrument": 9,
                "pitch": 36,
                "velocity": 100
            },
            {
                "endTime": 1.375,
                "isDrum": true,
                "startTime": 1.25,
                "instrument": 9,
                "pitch": 42,
                "velocity": 100
            },
            {
                "endTime": 1.625,
                "isDrum": true,
                "startTime": 1.5,
                "instrument": 9,
                "pitch": 42,
                "velocity": 100
            },
            {
                "endTime": 1.625,
                "isDrum": true,
                "startTime": 1.5,
                "instrument": 9,
                "pitch": 36,
                "velocity": 100
            },
            {
                "endTime": 1.875,
                "isDrum": true,
                "startTime": 1.75,
                "instrument": 9,
                "pitch": 42,
                "velocity": 100
            },
            {
                "endTime": 2.125,
                "isDrum": true,
                "startTime": 2,
                "instrument": 9,
                "pitch": 36,
                "velocity": 100
            },
            {
                "endTime": 2.875,
                "isDrum": true,
                "startTime": 2.75,
                "instrument": 9,
                "pitch": 42,
                "velocity": 100
            },
            {
                "endTime": 3.125,
                "isDrum": true,
                "startTime": 3,
                "instrument": 9,
                "pitch": 36,
                "velocity": 100
            },
            {
                "endTime": 3.375,
                "isDrum": true,
                "startTime": 3.25,
                "instrument": 9,
                "pitch": 42,
                "velocity": 100
            },
            {
                "endTime": 3.625,
                "isDrum": true,
                "startTime": 3.5,
                "instrument": 9,
                "pitch": 36,
                "velocity": 100
            },
            {
                "endTime": 3.875,
                "isDrum": true,
                "startTime": 3.75,
                "instrument": 9,
                "pitch": 42,
                "velocity": 100
            }
        ],
        "totalTime": 3.875,
        "ticksPerQuarter": 220,
        "tempos": [
            {
                "qpm": 120
            }
        ]
    },
    {
        "notes": [
            {
                "velocity": 100,
                "isDrum": true,
                "instrument": 9,
                "pitch": 36,
                "endTime": 0.125
            },
            {
                "endTime": 0.375,
                "isDrum": true,
                "startTime": 0.25,
                "instrument": 9,
                "pitch": 42,
                "velocity": 100
            },
            {
                "endTime": 0.625,
                "isDrum": true,
                "startTime": 0.5,
                "instrument": 9,
                "pitch": 42,
                "velocity": 100
            },
            {
                "endTime": 0.875,
                "isDrum": true,
                "startTime": 0.75,
                "instrument": 9,
                "pitch": 42,
                "velocity": 100
            },
            {
                "endTime": 1.125,
                "isDrum": true,
                "startTime": 1,
                "instrument": 9,
                "pitch": 42,
                "velocity": 100
            },
            {
                "endTime": 1.125,
                "isDrum": true,
                "startTime": 1,
                "instrument": 9,
                "pitch": 36,
                "velocity": 100
            },
            {
                "endTime": 1.375,
                "isDrum": true,
                "startTime": 1.25,
                "instrument": 9,
                "pitch": 42,
                "velocity": 100
            },
            {
                "endTime": 1.625,
                "isDrum": true,
                "startTime": 1.5,
                "instrument": 9,
                "pitch": 42,
                "velocity": 100
            },
            {
                "endTime": 1.625,
                "isDrum": true,
                "startTime": 1.5,
                "instrument": 9,
                "pitch": 36,
                "velocity": 100
            },
            {
                "endTime": 1.875,
                "isDrum": true,
                "startTime": 1.75,
                "instrument": 9,
                "pitch": 42,
                "velocity": 100
            },
            {
                "endTime": 1.875,
                "isDrum": true,
                "startTime": 1.75,
                "instrument": 9,
                "pitch": 36,
                "velocity": 100
            },
            {
                "endTime": 2.125,
                "isDrum": true,
                "startTime": 2,
                "instrument": 9,
                "pitch": 42,
                "velocity": 100
            },
            {
                "endTime": 2.125,
                "isDrum": true,
                "startTime": 2,
                "instrument": 9,
                "pitch": 36,
                "velocity": 100
            },
            {
                "endTime": 2.875,
                "isDrum": true,
                "startTime": 2.75,
                "instrument": 9,
                "pitch": 42,
                "velocity": 100
            },
            {
                "endTime": 3.125,
                "isDrum": true,
                "startTime": 3,
                "instrument": 9,
                "pitch": 42,
                "velocity": 100
            },
            {
                "endTime": 3.125,
                "isDrum": true,
                "startTime": 3,
                "instrument": 9,
                "pitch": 36,
                "velocity": 100
            },
            {
                "endTime": 3.375,
                "isDrum": true,
                "startTime": 3.25,
                "instrument": 9,
                "pitch": 42,
                "velocity": 100
            },
            {
                "endTime": 3.625,
                "isDrum": true,
                "startTime": 3.5,
                "instrument": 9,
                "pitch": 36,
                "velocity": 100
            },
            {
                "endTime": 3.875,
                "isDrum": true,
                "startTime": 3.75,
                "instrument": 9,
                "pitch": 42,
                "velocity": 100
            }
        ],
        "totalTime": 3.875,
        "ticksPerQuarter": 220,
        "tempos": [
            {
                "qpm": 120
            }
        ]
    },
    {
        "notes": [
            {
                "velocity": 100,
                "isDrum": true,
                "instrument": 9,
                "pitch": 36,
                "endTime": 0.125
            },
            {
                "endTime": 0.375,
                "isDrum": true,
                "startTime": 0.25,
                "instrument": 9,
                "pitch": 42,
                "velocity": 100
            },
            {
                "endTime": 0.625,
                "isDrum": true,
                "startTime": 0.5,
                "instrument": 9,
                "pitch": 42,
                "velocity": 100
            },
            {
                "endTime": 0.875,
                "isDrum": true,
                "startTime": 0.75,
                "instrument": 9,
                "pitch": 42,
                "velocity": 100
            },
            {
                "endTime": 0.875,
                "isDrum": true,
                "startTime": 0.75,
                "instrument": 9,
                "pitch": 36,
                "velocity": 100
            },
            {
                "endTime": 1.125,
                "isDrum": true,
                "startTime": 1,
                "instrument": 9,
                "pitch": 42,
                "velocity": 100
            },
            {
                "endTime": 1.125,
                "isDrum": true,
                "startTime": 1,
                "instrument": 9,
                "pitch": 36,
                "velocity": 100
            },
            {
                "endTime": 1.375,
                "isDrum": true,
                "startTime": 1.25,
                "instrument": 9,
                "pitch": 42,
                "velocity": 100
            },
            {
                "endTime": 1.625,
                "isDrum": true,
                "startTime": 1.5,
                "instrument": 9,
                "pitch": 42,
                "velocity": 100
            },
            {
                "endTime": 1.625,
                "isDrum": true,
                "startTime": 1.5,
                "instrument": 9,
                "pitch": 38,
                "velocity": 100
            },
            {
                "endTime": 1.875,
                "isDrum": true,
                "startTime": 1.75,
                "instrument": 9,
                "pitch": 42,
                "velocity": 100
            },
            {
                "endTime": 1.875,
                "isDrum": true,
                "startTime": 1.75,
                "instrument": 9,
                "pitch": 36,
                "velocity": 100
            },
            {
                "endTime": 2.125,
                "isDrum": true,
                "startTime": 2,
                "instrument": 9,
                "pitch": 42,
                "velocity": 100
            },
            {
                "endTime": 2.125,
                "isDrum": true,
                "startTime": 2,
                "instrument": 9,
                "pitch": 36,
                "velocity": 100
            },
            {
                "endTime": 2.375,
                "isDrum": true,
                "startTime": 2.25,
                "instrument": 9,
                "pitch": 42,
                "velocity": 100
            },
            {
                "endTime": 2.875,
                "isDrum": true,
                "startTime": 2.75,
                "instrument": 9,
                "pitch": 42,
                "velocity": 100
            },
            {
                "endTime": 3.125,
                "isDrum": true,
                "startTime": 3,
                "instrument": 9,
                "pitch": 49,
                "velocity": 100
            },
            {
                "endTime": 3.125,
                "isDrum": true,
                "startTime": 3,
                "instrument": 9,
                "pitch": 42,
                "velocity": 100
            },
            {
                "endTime": 3.125,
                "isDrum": true,
                "startTime": 3,
                "instrument": 9,
                "pitch": 36,
                "velocity": 100
            },
            {
                "endTime": 3.375,
                "isDrum": true,
                "startTime": 3.25,
                "instrument": 9,
                "pitch": 42,
                "velocity": 100
            },
            {
                "endTime": 3.625,
                "isDrum": true,
                "startTime": 3.5,
                "instrument": 9,
                "pitch": 49,
                "velocity": 100
            },
            {
                "endTime": 3.625,
                "isDrum": true,
                "startTime": 3.5,
                "instrument": 9,
                "pitch": 42,
                "velocity": 100
            },
            {
                "endTime": 3.625,
                "isDrum": true,
                "startTime": 3.5,
                "instrument": 9,
                "pitch": 36,
                "velocity": 100
            },
            {
                "endTime": 3.875,
                "isDrum": true,
                "startTime": 3.75,
                "instrument": 9,
                "pitch": 42,
                "velocity": 100
            }
        ],
        "totalTime": 3.875,
        "ticksPerQuarter": 220,
        "tempos": [
            {
                "qpm": 120
            }
        ]
    },
    {
        "notes": [
            {
                "endTime": 0.375,
                "isDrum": true,
                "startTime": 0.25,
                "instrument": 9,
                "pitch": 42,
                "velocity": 100
            },
            {
                "endTime": 0.625,
                "isDrum": true,
                "startTime": 0.5,
                "instrument": 9,
                "pitch": 42,
                "velocity": 100
            },
            {
                "endTime": 0.875,
                "isDrum": true,
                "startTime": 0.75,
                "instrument": 9,
                "pitch": 42,
                "velocity": 100
            },
            {
                "endTime": 0.875,
                "isDrum": true,
                "startTime": 0.75,
                "instrument": 9,
                "pitch": 36,
                "velocity": 100
            },
            {
                "endTime": 1.125,
                "isDrum": true,
                "startTime": 1,
                "instrument": 9,
                "pitch": 42,
                "velocity": 100
            },
            {
                "endTime": 1.125,
                "isDrum": true,
                "startTime": 1,
                "instrument": 9,
                "pitch": 36,
                "velocity": 100
            },
            {
                "endTime": 1.375,
                "isDrum": true,
                "startTime": 1.25,
                "instrument": 9,
                "pitch": 42,
                "velocity": 100
            },
            {
                "endTime": 1.625,
                "isDrum": true,
                "startTime": 1.5,
                "instrument": 9,
                "pitch": 50,
                "velocity": 100
            },
            {
                "endTime": 1.625,
                "isDrum": true,
                "startTime": 1.5,
                "instrument": 9,
                "pitch": 46,
                "velocity": 100
            },
            {
                "endTime": 1.875,
                "isDrum": true,
                "startTime": 1.75,
                "instrument": 9,
                "pitch": 42,
                "velocity": 100
            },
            {
                "endTime": 1.875,
                "isDrum": true,
                "startTime": 1.75,
                "instrument": 9,
                "pitch": 36,
                "velocity": 100
            },
            {
                "endTime": 2.125,
                "isDrum": true,
                "startTime": 2,
                "instrument": 9,
                "pitch": 49,
                "velocity": 100
            },
            {
                "endTime": 2.125,
                "isDrum": true,
                "startTime": 2,
                "instrument": 9,
                "pitch": 42,
                "velocity": 100
            },
            {
                "endTime": 2.125,
                "isDrum": true,
                "startTime": 2,
                "instrument": 9,
                "pitch": 36,
                "velocity": 100
            },
            {
                "endTime": 2.375,
                "isDrum": true,
                "startTime": 2.25,
                "instrument": 9,
                "pitch": 42,
                "velocity": 100
            },
            {
                "endTime": 2.625,
                "isDrum": true,
                "startTime": 2.5,
                "instrument": 9,
                "pitch": 50,
                "velocity": 100
            },
            {
                "endTime": 2.875,
                "isDrum": true,
                "startTime": 2.75,
                "instrument": 9,
                "pitch": 42,
                "velocity": 100
            },
            {
                "endTime": 2.875,
                "isDrum": true,
                "startTime": 2.75,
                "instrument": 9,
                "pitch": 50,
                "velocity": 100
            },
            {
                "endTime": 3.125,
                "isDrum": true,
                "startTime": 3,
                "instrument": 9,
                "pitch": 49,
                "velocity": 100
            },
            {
                "endTime": 3.125,
                "isDrum": true,
                "startTime": 3,
                "instrument": 9,
                "pitch": 42,
                "velocity": 100
            },
            {
                "endTime": 3.125,
                "isDrum": true,
                "startTime": 3,
                "instrument": 9,
                "pitch": 36,
                "velocity": 100
            },
            {
                "endTime": 3.375,
                "isDrum": true,
                "startTime": 3.25,
                "instrument": 9,
                "pitch": 42,
                "velocity": 100
            },
            {
                "endTime": 3.375,
                "isDrum": true,
                "startTime": 3.25,
                "instrument": 9,
                "pitch": 50,
                "velocity": 100
            },
            {
                "endTime": 3.625,
                "isDrum": true,
                "startTime": 3.5,
                "instrument": 9,
                "pitch": 42,
                "velocity": 100
            },
            {
                "endTime": 3.875,
                "isDrum": true,
                "startTime": 3.75,
                "instrument": 9,
                "pitch": 42,
                "velocity": 100
            }
        ],
        "totalTime": 3.875,
        "ticksPerQuarter": 220,
        "tempos": [
            {
                "qpm": 120
            }
        ]
    },
    {
        "notes": [
            {
                "velocity": 100,
                "isDrum": true,
                "instrument": 9,
                "pitch": 42,
                "endTime": 0.125
            },
            {
                "velocity": 100,
                "isDrum": true,
                "instrument": 9,
                "pitch": 50,
                "endTime": 0.125
            },
            {
                "velocity": 100,
                "isDrum": true,
                "instrument": 9,
                "pitch": 38,
                "endTime": 0.125
            },
            {
                "endTime": 0.375,
                "isDrum": true,
                "startTime": 0.25,
                "instrument": 9,
                "pitch": 42,
                "velocity": 100
            },
            {
                "endTime": 0.625,
                "isDrum": true,
                "startTime": 0.5,
                "instrument": 9,
                "pitch": 42,
                "velocity": 100
            },
            {
                "endTime": 0.875,
                "isDrum": true,
                "startTime": 0.75,
                "instrument": 9,
                "pitch": 42,
                "velocity": 100
            },
            {
                "endTime": 0.875,
                "isDrum": true,
                "startTime": 0.75,
                "instrument": 9,
                "pitch": 36,
                "velocity": 100
            },
            {
                "endTime": 1.125,
                "isDrum": true,
                "startTime": 1,
                "instrument": 9,
                "pitch": 42,
                "velocity": 100
            },
            {
                "endTime": 1.125,
                "isDrum": true,
                "startTime": 1,
                "instrument": 9,
                "pitch": 36,
                "velocity": 100
            },
            {
                "endTime": 1.375,
                "isDrum": true,
                "startTime": 1.25,
                "instrument": 9,
                "pitch": 42,
                "velocity": 100
            },
            {
                "endTime": 1.625,
                "isDrum": true,
                "startTime": 1.5,
                "instrument": 9,
                "pitch": 50,
                "velocity": 100
            },
            {
                "endTime": 1.625,
                "isDrum": true,
                "startTime": 1.5,
                "instrument": 9,
                "pitch": 46,
                "velocity": 100
            },
            {
                "endTime": 1.875,
                "isDrum": true,
                "startTime": 1.75,
                "instrument": 9,
                "pitch": 42,
                "velocity": 100
            },
            {
                "endTime": 1.875,
                "isDrum": true,
                "startTime": 1.75,
                "instrument": 9,
                "pitch": 50,
                "velocity": 100
            },
            {
                "endTime": 2.125,
                "isDrum": true,
                "startTime": 2,
                "instrument": 9,
                "pitch": 49,
                "velocity": 100
            },
            {
                "endTime": 2.125,
                "isDrum": true,
                "startTime": 2,
                "instrument": 9,
                "pitch": 42,
                "velocity": 100
            },
            {
                "endTime": 2.125,
                "isDrum": true,
                "startTime": 2,
                "instrument": 9,
                "pitch": 36,
                "velocity": 100
            },
            {
                "endTime": 2.375,
                "isDrum": true,
                "startTime": 2.25,
                "instrument": 9,
                "pitch": 42,
                "velocity": 100
            },
            {
                "endTime": 2.625,
                "isDrum": true,
                "startTime": 2.5,
                "instrument": 9,
                "pitch": 50,
                "velocity": 100
            },
            {
                "endTime": 2.875,
                "isDrum": true,
                "startTime": 2.75,
                "instrument": 9,
                "pitch": 42,
                "velocity": 100
            },
            {
                "endTime": 2.875,
                "isDrum": true,
                "startTime": 2.75,
                "instrument": 9,
                "pitch": 50,
                "velocity": 100
            },
            {
                "endTime": 3.125,
                "isDrum": true,
                "startTime": 3,
                "instrument": 9,
                "pitch": 42,
                "velocity": 100
            },
            {
                "endTime": 3.125,
                "isDrum": true,
                "startTime": 3,
                "instrument": 9,
                "pitch": 36,
                "velocity": 100
            },
            {
                "endTime": 3.375,
                "isDrum": true,
                "startTime": 3.25,
                "instrument": 9,
                "pitch": 42,
                "velocity": 100
            },
            {
                "endTime": 3.375,
                "isDrum": true,
                "startTime": 3.25,
                "instrument": 9,
                "pitch": 50,
                "velocity": 100
            },
            {
                "endTime": 3.625,
                "isDrum": true,
                "startTime": 3.5,
                "instrument": 9,
                "pitch": 42,
                "velocity": 100
            },
            {
                "endTime": 3.625,
                "isDrum": true,
                "startTime": 3.5,
                "instrument": 9,
                "pitch": 50,
                "velocity": 100
            },
            {
                "endTime": 3.875,
                "isDrum": true,
                "startTime": 3.75,
                "instrument": 9,
                "pitch": 42,
                "velocity": 100
            }
        ],
        "totalTime": 3.875,
        "ticksPerQuarter": 220,
        "tempos": [
            {
                "qpm": 120
            }
        ]
    },
    {
        "notes": [
            {
                "velocity": 100,
                "isDrum": true,
                "instrument": 9,
                "pitch": 42,
                "endTime": 0.125
            },
            {
                "velocity": 100,
                "isDrum": true,
                "instrument": 9,
                "pitch": 50,
                "endTime": 0.125
            },
            {
                "velocity": 100,
                "isDrum": true,
                "instrument": 9,
                "pitch": 38,
                "endTime": 0.125
            },
            {
                "endTime": 0.375,
                "isDrum": true,
                "startTime": 0.25,
                "instrument": 9,
                "pitch": 42,
                "velocity": 100
            },
            {
                "endTime": 0.625,
                "isDrum": true,
                "startTime": 0.5,
                "instrument": 9,
                "pitch": 42,
                "velocity": 100
            },
            {
                "endTime": 0.875,
                "isDrum": true,
                "startTime": 0.75,
                "instrument": 9,
                "pitch": 42,
                "velocity": 100
            },
            {
                "endTime": 0.875,
                "isDrum": true,
                "startTime": 0.75,
                "instrument": 9,
                "pitch": 36,
                "velocity": 100
            },
            {
                "endTime": 0.875,
                "isDrum": true,
                "startTime": 0.75,
                "instrument": 9,
                "pitch": 50,
                "velocity": 100
            },
            {
                "endTime": 1.125,
                "isDrum": true,
                "startTime": 1,
                "instrument": 9,
                "pitch": 42,
                "velocity": 100
            },
            {
                "endTime": 1.125,
                "isDrum": true,
                "startTime": 1,
                "instrument": 9,
                "pitch": 36,
                "velocity": 100
            },
            {
                "endTime": 1.375,
                "isDrum": true,
                "startTime": 1.25,
                "instrument": 9,
                "pitch": 42,
                "velocity": 100
            },
            {
                "endTime": 1.375,
                "isDrum": true,
                "startTime": 1.25,
                "instrument": 9,
                "pitch": 50,
                "velocity": 100
            },
            {
                "endTime": 1.625,
                "isDrum": true,
                "startTime": 1.5,
                "instrument": 9,
                "pitch": 49,
                "velocity": 100
            },
            {
                "endTime": 1.625,
                "isDrum": true,
                "startTime": 1.5,
                "instrument": 9,
                "pitch": 42,
                "velocity": 100
            },
            {
                "endTime": 1.625,
                "isDrum": true,
                "startTime": 1.5,
                "instrument": 9,
                "pitch": 50,
                "velocity": 100
            },
            {
                "endTime": 1.625,
                "isDrum": true,
                "startTime": 1.5,
                "instrument": 9,
                "pitch": 38,
                "velocity": 100
            },
            {
                "endTime": 1.875,
                "isDrum": true,
                "startTime": 1.75,
                "instrument": 9,
                "pitch": 42,
                "velocity": 100
            },
            {
                "endTime": 1.875,
                "isDrum": true,
                "startTime": 1.75,
                "instrument": 9,
                "pitch": 50,
                "velocity": 100
            },
            {
                "endTime": 2.125,
                "isDrum": true,
                "startTime": 2,
                "instrument": 9,
                "pitch": 49,
                "velocity": 100
            },
            {
                "endTime": 2.125,
                "isDrum": true,
                "startTime": 2,
                "instrument": 9,
                "pitch": 42,
                "velocity": 100
            },
            {
                "endTime": 2.125,
                "isDrum": true,
                "startTime": 2,
                "instrument": 9,
                "pitch": 36,
                "velocity": 100
            },
            {
                "endTime": 2.125,
                "isDrum": true,
                "startTime": 2,
                "instrument": 9,
                "pitch": 46,
                "velocity": 100
            },
            {
                "endTime": 2.375,
                "isDrum": true,
                "startTime": 2.25,
                "instrument": 9,
                "pitch": 42,
                "velocity": 100
            },
            {
                "endTime": 2.625,
                "isDrum": true,
                "startTime": 2.5,
                "instrument": 9,
                "pitch": 42,
                "velocity": 100
            },
            {
                "endTime": 2.625,
                "isDrum": true,
                "startTime": 2.5,
                "instrument": 9,
                "pitch": 50,
                "velocity": 100
            },
            {
                "endTime": 2.875,
                "isDrum": true,
                "startTime": 2.75,
                "instrument": 9,
                "pitch": 42,
                "velocity": 100
            },
            {
                "endTime": 2.875,
                "isDrum": true,
                "startTime": 2.75,
                "instrument": 9,
                "pitch": 50,
                "velocity": 100
            },
            {
                "endTime": 3.125,
                "isDrum": true,
                "startTime": 3,
                "instrument": 9,
                "pitch": 42,
                "velocity": 100
            },
            {
                "endTime": 3.125,
                "isDrum": true,
                "startTime": 3,
                "instrument": 9,
                "pitch": 36,
                "velocity": 100
            },
            {
                "endTime": 3.375,
                "isDrum": true,
                "startTime": 3.25,
                "instrument": 9,
                "pitch": 42,
                "velocity": 100
            },
            {
                "endTime": 3.375,
                "isDrum": true,
                "startTime": 3.25,
                "instrument": 9,
                "pitch": 50,
                "velocity": 100
            },
            {
                "endTime": 3.625,
                "isDrum": true,
                "startTime": 3.5,
                "instrument": 9,
                "pitch": 42,
                "velocity": 100
            },
            {
                "endTime": 3.625,
                "isDrum": true,
                "startTime": 3.5,
                "instrument": 9,
                "pitch": 50,
                "velocity": 100
            },
            {
                "endTime": 3.875,
                "isDrum": true,
                "startTime": 3.75,
                "instrument": 9,
                "pitch": 42,
                "velocity": 100
            }
        ],
        "totalTime": 3.875,
        "ticksPerQuarter": 220,
        "tempos": [
            {
                "qpm": 120
            }
        ]
    },
    {
        "notes": [
            {
                "velocity": 100,
                "isDrum": true,
                "instrument": 9,
                "pitch": 42,
                "endTime": 0.125
            },
            {
                "velocity": 100,
                "isDrum": true,
                "instrument": 9,
                "pitch": 50,
                "endTime": 0.125
            },
            {
                "velocity": 100,
                "isDrum": true,
                "instrument": 9,
                "pitch": 38,
                "endTime": 0.125
            },
            {
                "endTime": 0.375,
                "isDrum": true,
                "startTime": 0.25,
                "instrument": 9,
                "pitch": 42,
                "velocity": 100
            },
            {
                "endTime": 0.5,
                "isDrum": true,
                "startTime": 0.375,
                "instrument": 9,
                "pitch": 42,
                "velocity": 100
            },
            {
                "endTime": 0.625,
                "isDrum": true,
                "startTime": 0.5,
                "instrument": 9,
                "pitch": 42,
                "velocity": 100
            },
            {
                "endTime": 0.625,
                "isDrum": true,
                "startTime": 0.5,
                "instrument": 9,
                "pitch": 50,
                "velocity": 100
            },
            {
                "endTime": 0.875,
                "isDrum": true,
                "startTime": 0.75,
                "instrument": 9,
                "pitch": 42,
                "velocity": 100
            },
            {
                "endTime": 0.875,
                "isDrum": true,
                "startTime": 0.75,
                "instrument": 9,
                "pitch": 36,
                "velocity": 100
            },
            {
                "endTime": 0.875,
                "isDrum": true,
                "startTime": 0.75,
                "instrument": 9,
                "pitch": 38,
                "velocity": 100
            },
            {
                "endTime": 1.125,
                "isDrum": true,
                "startTime": 1,
                "instrument": 9,
                "pitch": 42,
                "velocity": 100
            },
            {
                "endTime": 1.125,
                "isDrum": true,
                "startTime": 1,
                "instrument": 9,
                "pitch": 36,
                "velocity": 100
            },
            {
                "endTime": 1.375,
                "isDrum": true,
                "startTime": 1.25,
                "instrument": 9,
                "pitch": 42,
                "velocity": 100
            },
            {
                "endTime": 1.375,
                "isDrum": true,
                "startTime": 1.25,
                "instrument": 9,
                "pitch": 50,
                "velocity": 100
            },
            {
                "endTime": 1.625,
                "isDrum": true,
                "startTime": 1.5,
                "instrument": 9,
                "pitch": 49,
                "velocity": 100
            },
            {
                "endTime": 1.625,
                "isDrum": true,
                "startTime": 1.5,
                "instrument": 9,
                "pitch": 42,
                "velocity": 100
            },
            {
                "endTime": 1.625,
                "isDrum": true,
                "startTime": 1.5,
                "instrument": 9,
                "pitch": 50,
                "velocity": 100
            },
            {
                "endTime": 1.625,
                "isDrum": true,
                "startTime": 1.5,
                "instrument": 9,
                "pitch": 38,
                "velocity": 100
            },
            {
                "endTime": 1.875,
                "isDrum": true,
                "startTime": 1.75,
                "instrument": 9,
                "pitch": 42,
                "velocity": 100
            },
            {
                "endTime": 1.875,
                "isDrum": true,
                "startTime": 1.75,
                "instrument": 9,
                "pitch": 50,
                "velocity": 100
            },
            {
                "endTime": 2.125,
                "isDrum": true,
                "startTime": 2,
                "instrument": 9,
                "pitch": 49,
                "velocity": 100
            },
            {
                "endTime": 2.125,
                "isDrum": true,
                "startTime": 2,
                "instrument": 9,
                "pitch": 42,
                "velocity": 100
            },
            {
                "endTime": 2.125,
                "isDrum": true,
                "startTime": 2,
                "instrument": 9,
                "pitch": 36,
                "velocity": 100
            },
            {
                "endTime": 2.125,
                "isDrum": true,
                "startTime": 2,
                "instrument": 9,
                "pitch": 46,
                "velocity": 100
            },
            {
                "endTime": 2.375,
                "isDrum": true,
                "startTime": 2.25,
                "instrument": 9,
                "pitch": 42,
                "velocity": 100
            },
            {
                "endTime": 2.625,
                "isDrum": true,
                "startTime": 2.5,
                "instrument": 9,
                "pitch": 42,
                "velocity": 100
            },
            {
                "endTime": 2.625,
                "isDrum": true,
                "startTime": 2.5,
                "instrument": 9,
                "pitch": 50,
                "velocity": 100
            },
            {
                "endTime": 2.875,
                "isDrum": true,
                "startTime": 2.75,
                "instrument": 9,
                "pitch": 42,
                "velocity": 100
            },
            {
                "endTime": 2.875,
                "isDrum": true,
                "startTime": 2.75,
                "instrument": 9,
                "pitch": 36,
                "velocity": 100
            },
            {
                "endTime": 2.875,
                "isDrum": true,
                "startTime": 2.75,
                "instrument": 9,
                "pitch": 50,
                "velocity": 100
            },
            {
                "endTime": 2.875,
                "isDrum": true,
                "startTime": 2.75,
                "instrument": 9,
                "pitch": 38,
                "velocity": 100
            },
            {
                "endTime": 3.125,
                "isDrum": true,
                "startTime": 3,
                "instrument": 9,
                "pitch": 42,
                "velocity": 100
            },
            {
                "endTime": 3.125,
                "isDrum": true,
                "startTime": 3,
                "instrument": 9,
                "pitch": 36,
                "velocity": 100
            },
            {
                "endTime": 3.125,
                "isDrum": true,
                "startTime": 3,
                "instrument": 9,
                "pitch": 50,
                "velocity": 100
            },
            {
                "endTime": 3.125,
                "isDrum": true,
                "startTime": 3,
                "instrument": 9,
                "pitch": 46,
                "velocity": 100
            },
            {
                "endTime": 3.375,
                "isDrum": true,
                "startTime": 3.25,
                "instrument": 9,
                "pitch": 42,
                "velocity": 100
            },
            {
                "endTime": 3.375,
                "isDrum": true,
                "startTime": 3.25,
                "instrument": 9,
                "pitch": 50,
                "velocity": 100
            },
            {
                "endTime": 3.625,
                "isDrum": true,
                "startTime": 3.5,
                "instrument": 9,
                "pitch": 42,
                "velocity": 100
            },
            {
                "endTime": 3.625,
                "isDrum": true,
                "startTime": 3.5,
                "instrument": 9,
                "pitch": 50,
                "velocity": 100
            },
            {
                "endTime": 3.875,
                "isDrum": true,
                "startTime": 3.75,
                "instrument": 9,
                "pitch": 42,
                "velocity": 100
            }
        ],
        "totalTime": 3.875,
        "ticksPerQuarter": 220,
        "tempos": [
            {
                "qpm": 120
            }
        ]
    },
    {
        "notes": [
            {
                "velocity": 100,
                "isDrum": true,
                "instrument": 9,
                "pitch": 42,
                "endTime": 0.125
            },
            {
                "velocity": 100,
                "isDrum": true,
                "instrument": 9,
                "pitch": 36,
                "endTime": 0.125
            },
            {
                "velocity": 100,
                "isDrum": true,
                "instrument": 9,
                "pitch": 46,
                "endTime": 0.125
            },
            {
                "velocity": 100,
                "isDrum": true,
                "instrument": 9,
                "pitch": 38,
                "endTime": 0.125
            },
            {
                "endTime": 0.375,
                "isDrum": true,
                "startTime": 0.25,
                "instrument": 9,
                "pitch": 42,
                "velocity": 100
            },
            {
                "endTime": 0.5,
                "isDrum": true,
                "startTime": 0.375,
                "instrument": 9,
                "pitch": 42,
                "velocity": 100
            },
            {
                "endTime": 0.625,
                "isDrum": true,
                "startTime": 0.5,
                "instrument": 9,
                "pitch": 42,
                "velocity": 100
            },
            {
                "endTime": 0.625,
                "isDrum": true,
                "startTime": 0.5,
                "instrument": 9,
                "pitch": 50,
                "velocity": 100
            },
            {
                "endTime": 0.875,
                "isDrum": true,
                "startTime": 0.75,
                "instrument": 9,
                "pitch": 42,
                "velocity": 100
            },
            {
                "endTime": 0.875,
                "isDrum": true,
                "startTime": 0.75,
                "instrument": 9,
                "pitch": 36,
                "velocity": 100
            },
            {
                "endTime": 0.875,
                "isDrum": true,
                "startTime": 0.75,
                "instrument": 9,
                "pitch": 50,
                "velocity": 100
            },
            {
                "endTime": 0.875,
                "isDrum": true,
                "startTime": 0.75,
                "instrument": 9,
                "pitch": 38,
                "velocity": 100
            },
            {
                "endTime": 1.125,
                "isDrum": true,
                "startTime": 1,
                "instrument": 9,
                "pitch": 42,
                "velocity": 100
            },
            {
                "endTime": 1.125,
                "isDrum": true,
                "startTime": 1,
                "instrument": 9,
                "pitch": 36,
                "velocity": 100
            },
            {
                "endTime": 1.125,
                "isDrum": true,
                "startTime": 1,
                "instrument": 9,
                "pitch": 46,
                "velocity": 100
            },
            {
                "endTime": 1.375,
                "isDrum": true,
                "startTime": 1.25,
                "instrument": 9,
                "pitch": 42,
                "velocity": 100
            },
            {
                "endTime": 1.375,
                "isDrum": true,
                "startTime": 1.25,
                "instrument": 9,
                "pitch": 50,
                "velocity": 100
            },
            {
                "endTime": 1.625,
                "isDrum": true,
                "startTime": 1.5,
                "instrument": 9,
                "pitch": 42,
                "velocity": 100
            },
            {
                "endTime": 1.625,
                "isDrum": true,
                "startTime": 1.5,
                "instrument": 9,
                "pitch": 36,
                "velocity": 100
            },
            {
                "endTime": 1.625,
                "isDrum": true,
                "startTime": 1.5,
                "instrument": 9,
                "pitch": 50,
                "velocity": 100
            },
            {
                "endTime": 1.625,
                "isDrum": true,
                "startTime": 1.5,
                "instrument": 9,
                "pitch": 38,
                "velocity": 100
            },
            {
                "endTime": 1.875,
                "isDrum": true,
                "startTime": 1.75,
                "instrument": 9,
                "pitch": 48,
                "velocity": 100
            },
            {
                "endTime": 1.875,
                "isDrum": true,
                "startTime": 1.75,
                "instrument": 9,
                "pitch": 42,
                "velocity": 100
            },
            {
                "endTime": 1.875,
                "isDrum": true,
                "startTime": 1.75,
                "instrument": 9,
                "pitch": 50,
                "velocity": 100
            },
            {
                "endTime": 2.125,
                "isDrum": true,
                "startTime": 2,
                "instrument": 9,
                "pitch": 49,
                "velocity": 100
            },
            {
                "endTime": 2.125,
                "isDrum": true,
                "startTime": 2,
                "instrument": 9,
                "pitch": 42,
                "velocity": 100
            },
            {
                "endTime": 2.125,
                "isDrum": true,
                "startTime": 2,
                "instrument": 9,
                "pitch": 36,
                "velocity": 100
            },
            {
                "endTime": 2.125,
                "isDrum": true,
                "startTime": 2,
                "instrument": 9,
                "pitch": 46,
                "velocity": 100
            },
            {
                "endTime": 2.375,
                "isDrum": true,
                "startTime": 2.25,
                "instrument": 9,
                "pitch": 42,
                "velocity": 100
            },
            {
                "endTime": 2.625,
                "isDrum": true,
                "startTime": 2.5,
                "instrument": 9,
                "pitch": 42,
                "velocity": 100
            },
            {
                "endTime": 2.625,
                "isDrum": true,
                "startTime": 2.5,
                "instrument": 9,
                "pitch": 50,
                "velocity": 100
            },
            {
                "endTime": 2.875,
                "isDrum": true,
                "startTime": 2.75,
                "instrument": 9,
                "pitch": 42,
                "velocity": 100
            },
            {
                "endTime": 2.875,
                "isDrum": true,
                "startTime": 2.75,
                "instrument": 9,
                "pitch": 36,
                "velocity": 100
            },
            {
                "endTime": 2.875,
                "isDrum": true,
                "startTime": 2.75,
                "instrument": 9,
                "pitch": 50,
                "velocity": 100
            },
            {
                "endTime": 2.875,
                "isDrum": true,
                "startTime": 2.75,
                "instrument": 9,
                "pitch": 38,
                "velocity": 100
            },
            {
                "endTime": 3.125,
                "isDrum": true,
                "startTime": 3,
                "instrument": 9,
                "pitch": 42,
                "velocity": 100
            },
            {
                "endTime": 3.125,
                "isDrum": true,
                "startTime": 3,
                "instrument": 9,
                "pitch": 36,
                "velocity": 100
            },
            {
                "endTime": 3.125,
                "isDrum": true,
                "startTime": 3,
                "instrument": 9,
                "pitch": 50,
                "velocity": 100
            },
            {
                "endTime": 3.125,
                "isDrum": true,
                "startTime": 3,
                "instrument": 9,
                "pitch": 46,
                "velocity": 100
            },
            {
                "endTime": 3.375,
                "isDrum": true,
                "startTime": 3.25,
                "instrument": 9,
                "pitch": 48,
                "velocity": 100
            },
            {
                "endTime": 3.375,
                "isDrum": true,
                "startTime": 3.25,
                "instrument": 9,
                "pitch": 42,
                "velocity": 100
            },
            {
                "endTime": 3.625,
                "isDrum": true,
                "startTime": 3.5,
                "instrument": 9,
                "pitch": 42,
                "velocity": 100
            },
            {
                "endTime": 3.625,
                "isDrum": true,
                "startTime": 3.5,
                "instrument": 9,
                "pitch": 50,
                "velocity": 100
            },
            {
                "endTime": 3.875,
                "isDrum": true,
                "startTime": 3.75,
                "instrument": 9,
                "pitch": 42,
                "velocity": 100
            },
            {
                "endTime": 3.875,
                "isDrum": true,
                "startTime": 3.75,
                "instrument": 9,
                "pitch": 50,
                "velocity": 100
            }
        ],
        "totalTime": 3.875,
        "ticksPerQuarter": 220,
        "tempos": [
            {
                "qpm": 120
            }
        ]
    },
    {
        "notes": [
            {
                "velocity": 100,
                "isDrum": true,
                "instrument": 9,
                "pitch": 42,
                "endTime": 0.125
            },
            {
                "velocity": 100,
                "isDrum": true,
                "instrument": 9,
                "pitch": 36,
                "endTime": 0.125
            },
            {
                "velocity": 100,
                "isDrum": true,
                "instrument": 9,
                "pitch": 46,
                "endTime": 0.125
            },
            {
                "velocity": 100,
                "isDrum": true,
                "instrument": 9,
                "pitch": 38,
                "endTime": 0.125
            },
            {
                "endTime": 0.375,
                "isDrum": true,
                "startTime": 0.25,
                "instrument": 9,
                "pitch": 42,
                "velocity": 100
            },
            {
                "endTime": 0.5,
                "isDrum": true,
                "startTime": 0.375,
                "instrument": 9,
                "pitch": 42,
                "velocity": 100
            },
            {
                "endTime": 0.625,
                "isDrum": true,
                "startTime": 0.5,
                "instrument": 9,
                "pitch": 42,
                "velocity": 100
            },
            {
                "endTime": 0.625,
                "isDrum": true,
                "startTime": 0.5,
                "instrument": 9,
                "pitch": 50,
                "velocity": 100
            },
            {
                "endTime": 0.875,
                "isDrum": true,
                "startTime": 0.75,
                "instrument": 9,
                "pitch": 42,
                "velocity": 100
            },
            {
                "endTime": 0.875,
                "isDrum": true,
                "startTime": 0.75,
                "instrument": 9,
                "pitch": 36,
                "velocity": 100
            },
            {
                "endTime": 0.875,
                "isDrum": true,
                "startTime": 0.75,
                "instrument": 9,
                "pitch": 50,
                "velocity": 100
            },
            {
                "endTime": 0.875,
                "isDrum": true,
                "startTime": 0.75,
                "instrument": 9,
                "pitch": 38,
                "velocity": 100
            },
            {
                "endTime": 1.125,
                "isDrum": true,
                "startTime": 1,
                "instrument": 9,
                "pitch": 42,
                "velocity": 100
            },
            {
                "endTime": 1.125,
                "isDrum": true,
                "startTime": 1,
                "instrument": 9,
                "pitch": 36,
                "velocity": 100
            },
            {
                "endTime": 1.125,
                "isDrum": true,
                "startTime": 1,
                "instrument": 9,
                "pitch": 50,
                "velocity": 100
            },
            {
                "endTime": 1.125,
                "isDrum": true,
                "startTime": 1,
                "instrument": 9,
                "pitch": 46,
                "velocity": 100
            },
            {
                "endTime": 1.375,
                "isDrum": true,
                "startTime": 1.25,
                "instrument": 9,
                "pitch": 42,
                "velocity": 100
            },
            {
                "endTime": 1.375,
                "isDrum": true,
                "startTime": 1.25,
                "instrument": 9,
                "pitch": 50,
                "velocity": 100
            },
            {
                "endTime": 1.625,
                "isDrum": true,
                "startTime": 1.5,
                "instrument": 9,
                "pitch": 42,
                "velocity": 100
            },
            {
                "endTime": 1.625,
                "isDrum": true,
                "startTime": 1.5,
                "instrument": 9,
                "pitch": 36,
                "velocity": 100
            },
            {
                "endTime": 1.625,
                "isDrum": true,
                "startTime": 1.5,
                "instrument": 9,
                "pitch": 50,
                "velocity": 100
            },
            {
                "endTime": 1.625,
                "isDrum": true,
                "startTime": 1.5,
                "instrument": 9,
                "pitch": 38,
                "velocity": 100
            },
            {
                "endTime": 1.875,
                "isDrum": true,
                "startTime": 1.75,
                "instrument": 9,
                "pitch": 50,
                "velocity": 100
            },
            {
                "endTime": 1.875,
                "isDrum": true,
                "startTime": 1.75,
                "instrument": 9,
                "pitch": 46,
                "velocity": 100
            },
            {
                "endTime": 2.125,
                "isDrum": true,
                "startTime": 2,
                "instrument": 9,
                "pitch": 49,
                "velocity": 100
            },
            {
                "endTime": 2.125,
                "isDrum": true,
                "startTime": 2,
                "instrument": 9,
                "pitch": 42,
                "velocity": 100
            },
            {
                "endTime": 2.125,
                "isDrum": true,
                "startTime": 2,
                "instrument": 9,
                "pitch": 36,
                "velocity": 100
            },
            {
                "endTime": 2.125,
                "isDrum": true,
                "startTime": 2,
                "instrument": 9,
                "pitch": 46,
                "velocity": 100
            },
            {
                "endTime": 2.125,
                "isDrum": true,
                "startTime": 2,
                "instrument": 9,
                "pitch": 38,
                "velocity": 100
            },
            {
                "endTime": 2.375,
                "isDrum": true,
                "startTime": 2.25,
                "instrument": 9,
                "pitch": 42,
                "velocity": 100
            },
            {
                "endTime": 2.625,
                "isDrum": true,
                "startTime": 2.5,
                "instrument": 9,
                "pitch": 42,
                "velocity": 100
            },
            {
                "endTime": 2.625,
                "isDrum": true,
                "startTime": 2.5,
                "instrument": 9,
                "pitch": 50,
                "velocity": 100
            },
            {
                "endTime": 2.875,
                "isDrum": true,
                "startTime": 2.75,
                "instrument": 9,
                "pitch": 42,
                "velocity": 100
            },
            {
                "endTime": 2.875,
                "isDrum": true,
                "startTime": 2.75,
                "instrument": 9,
                "pitch": 36,
                "velocity": 100
            },
            {
                "endTime": 2.875,
                "isDrum": true,
                "startTime": 2.75,
                "instrument": 9,
                "pitch": 50,
                "velocity": 100
            },
            {
                "endTime": 2.875,
                "isDrum": true,
                "startTime": 2.75,
                "instrument": 9,
                "pitch": 38,
                "velocity": 100
            },
            {
                "endTime": 3.125,
                "isDrum": true,
                "startTime": 3,
                "instrument": 9,
                "pitch": 42,
                "velocity": 100
            },
            {
                "endTime": 3.125,
                "isDrum": true,
                "startTime": 3,
                "instrument": 9,
                "pitch": 36,
                "velocity": 100
            },
            {
                "endTime": 3.125,
                "isDrum": true,
                "startTime": 3,
                "instrument": 9,
                "pitch": 50,
                "velocity": 100
            },
            {
                "endTime": 3.125,
                "isDrum": true,
                "startTime": 3,
                "instrument": 9,
                "pitch": 46,
                "velocity": 100
            },
            {
                "endTime": 3.375,
                "isDrum": true,
                "startTime": 3.25,
                "instrument": 9,
                "pitch": 42,
                "velocity": 100
            },
            {
                "endTime": 3.375,
                "isDrum": true,
                "startTime": 3.25,
                "instrument": 9,
                "pitch": 50,
                "velocity": 100
            },
            {
                "endTime": 3.625,
                "isDrum": true,
                "startTime": 3.5,
                "instrument": 9,
                "pitch": 42,
                "velocity": 100
            },
            {
                "endTime": 3.625,
                "isDrum": true,
                "startTime": 3.5,
                "instrument": 9,
                "pitch": 50,
                "velocity": 100
            },
            {
                "endTime": 3.875,
                "isDrum": true,
                "startTime": 3.75,
                "instrument": 9,
                "pitch": 42,
                "velocity": 100
            },
            {
                "endTime": 3.875,
                "isDrum": true,
                "startTime": 3.75,
                "instrument": 9,
                "pitch": 50,
                "velocity": 100
            }
        ],
        "totalTime": 3.875,
        "ticksPerQuarter": 220,
        "tempos": [
            {
                "qpm": 120
            }
        ]
    },
    {
        "notes": [
            {
                "velocity": 100,
                "isDrum": true,
                "instrument": 9,
                "pitch": 42,
                "endTime": 0.125
            },
            {
                "velocity": 100,
                "isDrum": true,
                "instrument": 9,
                "pitch": 36,
                "endTime": 0.125
            },
            {
                "velocity": 100,
                "isDrum": true,
                "instrument": 9,
                "pitch": 46,
                "endTime": 0.125
            },
            {
                "velocity": 100,
                "isDrum": true,
                "instrument": 9,
                "pitch": 38,
                "endTime": 0.125
            },
            {
                "endTime": 0.375,
                "isDrum": true,
                "startTime": 0.25,
                "instrument": 9,
                "pitch": 42,
                "velocity": 100
            },
            {
                "endTime": 0.5,
                "isDrum": true,
                "startTime": 0.375,
                "instrument": 9,
                "pitch": 42,
                "velocity": 100
            },
            {
                "endTime": 0.625,
                "isDrum": true,
                "startTime": 0.5,
                "instrument": 9,
                "pitch": 42,
                "velocity": 100
            },
            {
                "endTime": 0.625,
                "isDrum": true,
                "startTime": 0.5,
                "instrument": 9,
                "pitch": 50,
                "velocity": 100
            },
            {
                "endTime": 0.875,
                "isDrum": true,
                "startTime": 0.75,
                "instrument": 9,
                "pitch": 42,
                "velocity": 100
            },
            {
                "endTime": 0.875,
                "isDrum": true,
                "startTime": 0.75,
                "instrument": 9,
                "pitch": 36,
                "velocity": 100
            },
            {
                "endTime": 0.875,
                "isDrum": true,
                "startTime": 0.75,
                "instrument": 9,
                "pitch": 50,
                "velocity": 100
            },
            {
                "endTime": 0.875,
                "isDrum": true,
                "startTime": 0.75,
                "instrument": 9,
                "pitch": 38,
                "velocity": 100
            },
            {
                "endTime": 1.125,
                "isDrum": true,
                "startTime": 1,
                "instrument": 9,
                "pitch": 42,
                "velocity": 100
            },
            {
                "endTime": 1.125,
                "isDrum": true,
                "startTime": 1,
                "instrument": 9,
                "pitch": 36,
                "velocity": 100
            },
            {
                "endTime": 1.125,
                "isDrum": true,
                "startTime": 1,
                "instrument": 9,
                "pitch": 50,
                "velocity": 100
            },
            {
                "endTime": 1.125,
                "isDrum": true,
                "startTime": 1,
                "instrument": 9,
                "pitch": 46,
                "velocity": 100
            },
            {
                "endTime": 1.375,
                "isDrum": true,
                "startTime": 1.25,
                "instrument": 9,
                "pitch": 42,
                "velocity": 100
            },
            {
                "endTime": 1.375,
                "isDrum": true,
                "startTime": 1.25,
                "instrument": 9,
                "pitch": 50,
                "velocity": 100
            },
            {
                "endTime": 1.625,
                "isDrum": true,
                "startTime": 1.5,
                "instrument": 9,
                "pitch": 48,
                "velocity": 100
            },
            {
                "endTime": 1.625,
                "isDrum": true,
                "startTime": 1.5,
                "instrument": 9,
                "pitch": 42,
                "velocity": 100
            },
            {
                "endTime": 1.625,
                "isDrum": true,
                "startTime": 1.5,
                "instrument": 9,
                "pitch": 36,
                "velocity": 100
            },
            {
                "endTime": 1.625,
                "isDrum": true,
                "startTime": 1.5,
                "instrument": 9,
                "pitch": 50,
                "velocity": 100
            },
            {
                "endTime": 1.625,
                "isDrum": true,
                "startTime": 1.5,
                "instrument": 9,
                "pitch": 38,
                "velocity": 100
            },
            {
                "endTime": 1.875,
                "isDrum": true,
                "startTime": 1.75,
                "instrument": 9,
                "pitch": 50,
                "velocity": 100
            },
            {
                "endTime": 2.125,
                "isDrum": true,
                "startTime": 2,
                "instrument": 9,
                "pitch": 49,
                "velocity": 100
            },
            {
                "endTime": 2.125,
                "isDrum": true,
                "startTime": 2,
                "instrument": 9,
                "pitch": 36,
                "velocity": 100
            },
            {
                "endTime": 2.125,
                "isDrum": true,
                "startTime": 2,
                "instrument": 9,
                "pitch": 46,
                "velocity": 100
            },
            {
                "endTime": 2.375,
                "isDrum": true,
                "startTime": 2.25,
                "instrument": 9,
                "pitch": 42,
                "velocity": 100
            },
            {
                "endTime": 2.5,
                "isDrum": true,
                "startTime": 2.375,
                "instrument": 9,
                "pitch": 42,
                "velocity": 100
            },
            {
                "endTime": 2.625,
                "isDrum": true,
                "startTime": 2.5,
                "instrument": 9,
                "pitch": 42,
                "velocity": 100
            },
            {
                "endTime": 2.625,
                "isDrum": true,
                "startTime": 2.5,
                "instrument": 9,
                "pitch": 50,
                "velocity": 100
            },
            {
                "endTime": 2.875,
                "isDrum": true,
                "startTime": 2.75,
                "instrument": 9,
                "pitch": 42,
                "velocity": 100
            },
            {
                "endTime": 2.875,
                "isDrum": true,
                "startTime": 2.75,
                "instrument": 9,
                "pitch": 36,
                "velocity": 100
            },
            {
                "endTime": 2.875,
                "isDrum": true,
                "startTime": 2.75,
                "instrument": 9,
                "pitch": 50,
                "velocity": 100
            },
            {
                "endTime": 2.875,
                "isDrum": true,
                "startTime": 2.75,
                "instrument": 9,
                "pitch": 38,
                "velocity": 100
            },
            {
                "endTime": 3.125,
                "isDrum": true,
                "startTime": 3,
                "instrument": 9,
                "pitch": 42,
                "velocity": 100
            },
            {
                "endTime": 3.125,
                "isDrum": true,
                "startTime": 3,
                "instrument": 9,
                "pitch": 36,
                "velocity": 100
            },
            {
                "endTime": 3.125,
                "isDrum": true,
                "startTime": 3,
                "instrument": 9,
                "pitch": 50,
                "velocity": 100
            },
            {
                "endTime": 3.125,
                "isDrum": true,
                "startTime": 3,
                "instrument": 9,
                "pitch": 46,
                "velocity": 100
            },
            {
                "endTime": 3.375,
                "isDrum": true,
                "startTime": 3.25,
                "instrument": 9,
                "pitch": 42,
                "velocity": 100
            },
            {
                "endTime": 3.375,
                "isDrum": true,
                "startTime": 3.25,
                "instrument": 9,
                "pitch": 50,
                "velocity": 100
            },
            {
                "endTime": 3.625,
                "isDrum": true,
                "startTime": 3.5,
                "instrument": 9,
                "pitch": 42,
                "velocity": 100
            },
            {
                "endTime": 3.625,
                "isDrum": true,
                "startTime": 3.5,
                "instrument": 9,
                "pitch": 36,
                "velocity": 100
            },
            {
                "endTime": 3.625,
                "isDrum": true,
                "startTime": 3.5,
                "instrument": 9,
                "pitch": 38,
                "velocity": 100
            },
            {
                "endTime": 3.875,
                "isDrum": true,
                "startTime": 3.75,
                "instrument": 9,
                "pitch": 42,
                "velocity": 100
            },
            {
                "endTime": 3.875,
                "isDrum": true,
                "startTime": 3.75,
                "instrument": 9,
                "pitch": 50,
                "velocity": 100
            }
        ],
        "totalTime": 3.875,
        "ticksPerQuarter": 220,
        "tempos": [
            {
                "qpm": 120
            }
        ]
    },
    {
        "notes": [
            {
                "velocity": 100,
                "isDrum": true,
                "instrument": 9,
                "pitch": 36,
                "endTime": 0.125
            },
            {
                "endTime": 0.375,
                "isDrum": true,
                "startTime": 0.25,
                "instrument": 9,
                "pitch": 42,
                "velocity": 100
            },
            {
                "endTime": 0.625,
                "isDrum": true,
                "startTime": 0.5,
                "instrument": 9,
                "pitch": 36,
                "velocity": 100
            },
            {
                "endTime": 0.875,
                "isDrum": true,
                "startTime": 0.75,
                "instrument": 9,
                "pitch": 42,
                "velocity": 100
            },
            {
                "endTime": 1.125,
                "isDrum": true,
                "startTime": 1,
                "instrument": 9,
                "pitch": 36,
                "velocity": 100
            },
            {
                "endTime": 1.375,
                "isDrum": true,
                "startTime": 1.25,
                "instrument": 9,
                "pitch": 42,
                "velocity": 100
            },
            {
                "endTime": 1.625,
                "isDrum": true,
                "startTime": 1.5,
                "instrument": 9,
                "pitch": 42,
                "velocity": 100
            },
            {
                "endTime": 1.625,
                "isDrum": true,
                "startTime": 1.5,
                "instrument": 9,
                "pitch": 36,
                "velocity": 100
            },
            {
                "endTime": 1.875,
                "isDrum": true,
                "startTime": 1.75,
                "instrument": 9,
                "pitch": 42,
                "velocity": 100
            },
            {
                "endTime": 1.875,
                "isDrum": true,
                "startTime": 1.75,
                "instrument": 9,
                "pitch": 36,
                "velocity": 100
            },
            {
                "endTime": 2.125,
                "isDrum": true,
                "startTime": 2,
                "instrument": 9,
                "pitch": 42,
                "velocity": 100
            },
            {
                "endTime": 2.125,
                "isDrum": true,
                "startTime": 2,
                "instrument": 9,
                "pitch": 36,
                "velocity": 100
            },
            {
                "endTime": 2.375,
                "isDrum": true,
                "startTime": 2.25,
                "instrument": 9,
                "pitch": 42,
                "velocity": 100
            },
            {
                "endTime": 2.875,
                "isDrum": true,
                "startTime": 2.75,
                "instrument": 9,
                "pitch": 42,
                "velocity": 100
            },
            {
                "endTime": 3.125,
                "isDrum": true,
                "startTime": 3,
                "instrument": 9,
                "pitch": 36,
                "velocity": 100
            },
            {
                "endTime": 3.375,
                "isDrum": true,
                "startTime": 3.25,
                "instrument": 9,
                "pitch": 42,
                "velocity": 100
            },
            {
                "endTime": 3.375,
                "isDrum": true,
                "startTime": 3.25,
                "instrument": 9,
                "pitch": 36,
                "velocity": 100
            },
            {
                "endTime": 3.625,
                "isDrum": true,
                "startTime": 3.5,
                "instrument": 9,
                "pitch": 42,
                "velocity": 100
            },
            {
                "endTime": 3.625,
                "isDrum": true,
                "startTime": 3.5,
                "instrument": 9,
                "pitch": 36,
                "velocity": 100
            },
            {
                "endTime": 3.875,
                "isDrum": true,
                "startTime": 3.75,
                "instrument": 9,
                "pitch": 42,
                "velocity": 100
            }
        ],
        "totalTime": 3.875,
        "ticksPerQuarter": 220,
        "tempos": [
            {
                "qpm": 120
            }
        ]
    },
    {
        "notes": [
            {
                "velocity": 100,
                "isDrum": true,
                "instrument": 9,
                "pitch": 36,
                "endTime": 0.125
            },
            {
                "endTime": 0.375,
                "isDrum": true,
                "startTime": 0.25,
                "instrument": 9,
                "pitch": 42,
                "velocity": 100
            },
            {
                "endTime": 0.625,
                "isDrum": true,
                "startTime": 0.5,
                "instrument": 9,
                "pitch": 36,
                "velocity": 100
            },
            {
                "endTime": 0.875,
                "isDrum": true,
                "startTime": 0.75,
                "instrument": 9,
                "pitch": 42,
                "velocity": 100
            },
            {
                "endTime": 1.125,
                "isDrum": true,
                "startTime": 1,
                "instrument": 9,
                "pitch": 42,
                "velocity": 100
            },
            {
                "endTime": 1.125,
                "isDrum": true,
                "startTime": 1,
                "instrument": 9,
                "pitch": 36,
                "velocity": 100
            },
            {
                "endTime": 1.375,
                "isDrum": true,
                "startTime": 1.25,
                "instrument": 9,
                "pitch": 42,
                "velocity": 100
            },
            {
                "endTime": 1.625,
                "isDrum": true,
                "startTime": 1.5,
                "instrument": 9,
                "pitch": 42,
                "velocity": 100
            },
            {
                "endTime": 1.625,
                "isDrum": true,
                "startTime": 1.5,
                "instrument": 9,
                "pitch": 36,
                "velocity": 100
            },
            {
                "endTime": 1.875,
                "isDrum": true,
                "startTime": 1.75,
                "instrument": 9,
                "pitch": 42,
                "velocity": 100
            },
            {
                "endTime": 1.875,
                "isDrum": true,
                "startTime": 1.75,
                "instrument": 9,
                "pitch": 36,
                "velocity": 100
            },
            {
                "endTime": 2.125,
                "isDrum": true,
                "startTime": 2,
                "instrument": 9,
                "pitch": 42,
                "velocity": 100
            },
            {
                "endTime": 2.125,
                "isDrum": true,
                "startTime": 2,
                "instrument": 9,
                "pitch": 36,
                "velocity": 100
            },
            {
                "endTime": 2.375,
                "isDrum": true,
                "startTime": 2.25,
                "instrument": 9,
                "pitch": 42,
                "velocity": 100
            },
            {
                "endTime": 2.875,
                "isDrum": true,
                "startTime": 2.75,
                "instrument": 9,
                "pitch": 42,
                "velocity": 100
            },
            {
                "endTime": 3.125,
                "isDrum": true,
                "startTime": 3,
                "instrument": 9,
                "pitch": 36,
                "velocity": 100
            },
            {
                "endTime": 3.375,
                "isDrum": true,
                "startTime": 3.25,
                "instrument": 9,
                "pitch": 42,
                "velocity": 100
            },
            {
                "endTime": 3.375,
                "isDrum": true,
                "startTime": 3.25,
                "instrument": 9,
                "pitch": 36,
                "velocity": 100
            },
            {
                "endTime": 3.625,
                "isDrum": true,
                "startTime": 3.5,
                "instrument": 9,
                "pitch": 42,
                "velocity": 100
            },
            {
                "endTime": 3.625,
                "isDrum": true,
                "startTime": 3.5,
                "instrument": 9,
                "pitch": 36,
                "velocity": 100
            },
            {
                "endTime": 3.875,
                "isDrum": true,
                "startTime": 3.75,
                "instrument": 9,
                "pitch": 42,
                "velocity": 100
            }
        ],
        "totalTime": 3.875,
        "ticksPerQuarter": 220,
        "tempos": [
            {
                "qpm": 120
            }
        ]
    },
    {
        "notes": [
            {
                "velocity": 100,
                "isDrum": true,
                "instrument": 9,
                "pitch": 36,
                "endTime": 0.125
            },
            {
                "endTime": 0.375,
                "isDrum": true,
                "startTime": 0.25,
                "instrument": 9,
                "pitch": 42,
                "velocity": 100
            },
            {
                "endTime": 0.625,
                "isDrum": true,
                "startTime": 0.5,
                "instrument": 9,
                "pitch": 42,
                "velocity": 100
            },
            {
                "endTime": 0.875,
                "isDrum": true,
                "startTime": 0.75,
                "instrument": 9,
                "pitch": 42,
                "velocity": 100
            },
            {
                "endTime": 1.125,
                "isDrum": true,
                "startTime": 1,
                "instrument": 9,
                "pitch": 42,
                "velocity": 100
            },
            {
                "endTime": 1.125,
                "isDrum": true,
                "startTime": 1,
                "instrument": 9,
                "pitch": 36,
                "velocity": 100
            },
            {
                "endTime": 1.375,
                "isDrum": true,
                "startTime": 1.25,
                "instrument": 9,
                "pitch": 42,
                "velocity": 100
            },
            {
                "endTime": 1.625,
                "isDrum": true,
                "startTime": 1.5,
                "instrument": 9,
                "pitch": 42,
                "velocity": 100
            },
            {
                "endTime": 1.625,
                "isDrum": true,
                "startTime": 1.5,
                "instrument": 9,
                "pitch": 38,
                "velocity": 100
            },
            {
                "endTime": 1.875,
                "isDrum": true,
                "startTime": 1.75,
                "instrument": 9,
                "pitch": 42,
                "velocity": 100
            },
            {
                "endTime": 1.875,
                "isDrum": true,
                "startTime": 1.75,
                "instrument": 9,
                "pitch": 36,
                "velocity": 100
            },
            {
                "endTime": 2.125,
                "isDrum": true,
                "startTime": 2,
                "instrument": 9,
                "pitch": 42,
                "velocity": 100
            },
            {
                "endTime": 2.125,
                "isDrum": true,
                "startTime": 2,
                "instrument": 9,
                "pitch": 36,
                "velocity": 100
            },
            {
                "endTime": 2.375,
                "isDrum": true,
                "startTime": 2.25,
                "instrument": 9,
                "pitch": 42,
                "velocity": 100
            },
            {
                "endTime": 2.625,
                "isDrum": true,
                "startTime": 2.5,
                "instrument": 9,
                "pitch": 50,
                "velocity": 100
            },
            {
                "endTime": 2.875,
                "isDrum": true,
                "startTime": 2.75,
                "instrument": 9,
                "pitch": 42,
                "velocity": 100
            },
            {
                "endTime": 3.125,
                "isDrum": true,
                "startTime": 3,
                "instrument": 9,
                "pitch": 49,
                "velocity": 100
            },
            {
                "endTime": 3.125,
                "isDrum": true,
                "startTime": 3,
                "instrument": 9,
                "pitch": 42,
                "velocity": 100
            },
            {
                "endTime": 3.125,
                "isDrum": true,
                "startTime": 3,
                "instrument": 9,
                "pitch": 36,
                "velocity": 100
            },
            {
                "endTime": 3.375,
                "isDrum": true,
                "startTime": 3.25,
                "instrument": 9,
                "pitch": 42,
                "velocity": 100
            },
            {
                "endTime": 3.375,
                "isDrum": true,
                "startTime": 3.25,
                "instrument": 9,
                "pitch": 36,
                "velocity": 100
            },
            {
                "endTime": 3.625,
                "isDrum": true,
                "startTime": 3.5,
                "instrument": 9,
                "pitch": 49,
                "velocity": 100
            },
            {
                "endTime": 3.625,
                "isDrum": true,
                "startTime": 3.5,
                "instrument": 9,
                "pitch": 42,
                "velocity": 100
            },
            {
                "endTime": 3.625,
                "isDrum": true,
                "startTime": 3.5,
                "instrument": 9,
                "pitch": 36,
                "velocity": 100
            },
            {
                "endTime": 3.875,
                "isDrum": true,
                "startTime": 3.75,
                "instrument": 9,
                "pitch": 42,
                "velocity": 100
            }
        ],
        "totalTime": 3.875,
        "ticksPerQuarter": 220,
        "tempos": [
            {
                "qpm": 120
            }
        ]
    },
    {
        "notes": [
            {
                "endTime": 0.375,
                "isDrum": true,
                "startTime": 0.25,
                "instrument": 9,
                "pitch": 42,
                "velocity": 100
            },
            {
                "endTime": 0.625,
                "isDrum": true,
                "startTime": 0.5,
                "instrument": 9,
                "pitch": 42,
                "velocity": 100
            },
            {
                "endTime": 0.875,
                "isDrum": true,
                "startTime": 0.75,
                "instrument": 9,
                "pitch": 42,
                "velocity": 100
            },
            {
                "endTime": 0.875,
                "isDrum": true,
                "startTime": 0.75,
                "instrument": 9,
                "pitch": 36,
                "velocity": 100
            },
            {
                "endTime": 1.125,
                "isDrum": true,
                "startTime": 1,
                "instrument": 9,
                "pitch": 42,
                "velocity": 100
            },
            {
                "endTime": 1.125,
                "isDrum": true,
                "startTime": 1,
                "instrument": 9,
                "pitch": 36,
                "velocity": 100
            },
            {
                "endTime": 1.375,
                "isDrum": true,
                "startTime": 1.25,
                "instrument": 9,
                "pitch": 42,
                "velocity": 100
            },
            {
                "endTime": 1.625,
                "isDrum": true,
                "startTime": 1.5,
                "instrument": 9,
                "pitch": 42,
                "velocity": 100
            },
            {
                "endTime": 1.625,
                "isDrum": true,
                "startTime": 1.5,
                "instrument": 9,
                "pitch": 38,
                "velocity": 100
            },
            {
                "endTime": 1.875,
                "isDrum": true,
                "startTime": 1.75,
                "instrument": 9,
                "pitch": 42,
                "velocity": 100
            },
            {
                "endTime": 1.875,
                "isDrum": true,
                "startTime": 1.75,
                "instrument": 9,
                "pitch": 36,
                "velocity": 100
            },
            {
                "endTime": 2.125,
                "isDrum": true,
                "startTime": 2,
                "instrument": 9,
                "pitch": 42,
                "velocity": 100
            },
            {
                "endTime": 2.125,
                "isDrum": true,
                "startTime": 2,
                "instrument": 9,
                "pitch": 36,
                "velocity": 100
            },
            {
                "endTime": 2.375,
                "isDrum": true,
                "startTime": 2.25,
                "instrument": 9,
                "pitch": 42,
                "velocity": 100
            },
            {
                "endTime": 2.625,
                "isDrum": true,
                "startTime": 2.5,
                "instrument": 9,
                "pitch": 50,
                "velocity": 100
            },
            {
                "endTime": 2.875,
                "isDrum": true,
                "startTime": 2.75,
                "instrument": 9,
                "pitch": 42,
                "velocity": 100
            },
            {
                "endTime": 3.125,
                "isDrum": true,
                "startTime": 3,
                "instrument": 9,
                "pitch": 49,
                "velocity": 100
            },
            {
                "endTime": 3.125,
                "isDrum": true,
                "startTime": 3,
                "instrument": 9,
                "pitch": 42,
                "velocity": 100
            },
            {
                "endTime": 3.125,
                "isDrum": true,
                "startTime": 3,
                "instrument": 9,
                "pitch": 36,
                "velocity": 100
            },
            {
                "endTime": 3.375,
                "isDrum": true,
                "startTime": 3.25,
                "instrument": 9,
                "pitch": 42,
                "velocity": 100
            },
            {
                "endTime": 3.375,
                "isDrum": true,
                "startTime": 3.25,
                "instrument": 9,
                "pitch": 36,
                "velocity": 100
            },
            {
                "endTime": 3.625,
                "isDrum": true,
                "startTime": 3.5,
                "instrument": 9,
                "pitch": 49,
                "velocity": 100
            },
            {
                "endTime": 3.625,
                "isDrum": true,
                "startTime": 3.5,
                "instrument": 9,
                "pitch": 42,
                "velocity": 100
            },
            {
                "endTime": 3.625,
                "isDrum": true,
                "startTime": 3.5,
                "instrument": 9,
                "pitch": 36,
                "velocity": 100
            },
            {
                "endTime": 3.875,
                "isDrum": true,
                "startTime": 3.75,
                "instrument": 9,
                "pitch": 42,
                "velocity": 100
            }
        ],
        "totalTime": 3.875,
        "ticksPerQuarter": 220,
        "tempos": [
            {
                "qpm": 120
            }
        ]
    },
    {
        "notes": [
            {
                "endTime": 0.375,
                "isDrum": true,
                "startTime": 0.25,
                "instrument": 9,
                "pitch": 42,
                "velocity": 100
            },
            {
                "endTime": 0.625,
                "isDrum": true,
                "startTime": 0.5,
                "instrument": 9,
                "pitch": 42,
                "velocity": 100
            },
            {
                "endTime": 0.875,
                "isDrum": true,
                "startTime": 0.75,
                "instrument": 9,
                "pitch": 42,
                "velocity": 100
            },
            {
                "endTime": 0.875,
                "isDrum": true,
                "startTime": 0.75,
                "instrument": 9,
                "pitch": 36,
                "velocity": 100
            },
            {
                "endTime": 1.125,
                "isDrum": true,
                "startTime": 1,
                "instrument": 9,
                "pitch": 42,
                "velocity": 100
            },
            {
                "endTime": 1.125,
                "isDrum": true,
                "startTime": 1,
                "instrument": 9,
                "pitch": 36,
                "velocity": 100
            },
            {
                "endTime": 1.375,
                "isDrum": true,
                "startTime": 1.25,
                "instrument": 9,
                "pitch": 42,
                "velocity": 100
            },
            {
                "endTime": 1.625,
                "isDrum": true,
                "startTime": 1.5,
                "instrument": 9,
                "pitch": 42,
                "velocity": 100
            },
            {
                "endTime": 1.625,
                "isDrum": true,
                "startTime": 1.5,
                "instrument": 9,
                "pitch": 50,
                "velocity": 100
            },
            {
                "endTime": 1.875,
                "isDrum": true,
                "startTime": 1.75,
                "instrument": 9,
                "pitch": 42,
                "velocity": 100
            },
            {
                "endTime": 1.875,
                "isDrum": true,
                "startTime": 1.75,
                "instrument": 9,
                "pitch": 36,
                "velocity": 100
            },
            {
                "endTime": 2.125,
                "isDrum": true,
                "startTime": 2,
                "instrument": 9,
                "pitch": 49,
                "velocity": 100
            },
            {
                "endTime": 2.125,
                "isDrum": true,
                "startTime": 2,
                "instrument": 9,
                "pitch": 42,
                "velocity": 100
            },
            {
                "endTime": 2.125,
                "isDrum": true,
                "startTime": 2,
                "instrument": 9,
                "pitch": 36,
                "velocity": 100
            },
            {
                "endTime": 2.375,
                "isDrum": true,
                "startTime": 2.25,
                "instrument": 9,
                "pitch": 42,
                "velocity": 100
            },
            {
                "endTime": 2.625,
                "isDrum": true,
                "startTime": 2.5,
                "instrument": 9,
                "pitch": 50,
                "velocity": 100
            },
            {
                "endTime": 2.875,
                "isDrum": true,
                "startTime": 2.75,
                "instrument": 9,
                "pitch": 42,
                "velocity": 100
            },
            {
                "endTime": 2.875,
                "isDrum": true,
                "startTime": 2.75,
                "instrument": 9,
                "pitch": 50,
                "velocity": 100
            },
            {
                "endTime": 3.125,
                "isDrum": true,
                "startTime": 3,
                "instrument": 9,
                "pitch": 49,
                "velocity": 100
            },
            {
                "endTime": 3.125,
                "isDrum": true,
                "startTime": 3,
                "instrument": 9,
                "pitch": 42,
                "velocity": 100
            },
            {
                "endTime": 3.125,
                "isDrum": true,
                "startTime": 3,
                "instrument": 9,
                "pitch": 36,
                "velocity": 100
            },
            {
                "endTime": 3.375,
                "isDrum": true,
                "startTime": 3.25,
                "instrument": 9,
                "pitch": 42,
                "velocity": 100
            },
            {
                "endTime": 3.375,
                "isDrum": true,
                "startTime": 3.25,
                "instrument": 9,
                "pitch": 50,
                "velocity": 100
            },
            {
                "endTime": 3.625,
                "isDrum": true,
                "startTime": 3.5,
                "instrument": 9,
                "pitch": 42,
                "velocity": 100
            },
            {
                "endTime": 3.625,
                "isDrum": true,
                "startTime": 3.5,
                "instrument": 9,
                "pitch": 50,
                "velocity": 100
            },
            {
                "endTime": 3.875,
                "isDrum": true,
                "startTime": 3.75,
                "instrument": 9,
                "pitch": 42,
                "velocity": 100
            }
        ],
        "totalTime": 3.875,
        "ticksPerQuarter": 220,
        "tempos": [
            {
                "qpm": 120
            }
        ]
    },
    {
        "notes": [
            {
                "endTime": 0.375,
                "isDrum": true,
                "startTime": 0.25,
                "instrument": 9,
                "pitch": 42,
                "velocity": 100
            },
            {
                "endTime": 0.625,
                "isDrum": true,
                "startTime": 0.5,
                "instrument": 9,
                "pitch": 42,
                "velocity": 100
            },
            {
                "endTime": 0.875,
                "isDrum": true,
                "startTime": 0.75,
                "instrument": 9,
                "pitch": 42,
                "velocity": 100
            },
            {
                "endTime": 0.875,
                "isDrum": true,
                "startTime": 0.75,
                "instrument": 9,
                "pitch": 36,
                "velocity": 100
            },
            {
                "endTime": 1.125,
                "isDrum": true,
                "startTime": 1,
                "instrument": 9,
                "pitch": 42,
                "velocity": 100
            },
            {
                "endTime": 1.125,
                "isDrum": true,
                "startTime": 1,
                "instrument": 9,
                "pitch": 36,
                "velocity": 100
            },
            {
                "endTime": 1.375,
                "isDrum": true,
                "startTime": 1.25,
                "instrument": 9,
                "pitch": 42,
                "velocity": 100
            },
            {
                "endTime": 1.625,
                "isDrum": true,
                "startTime": 1.5,
                "instrument": 9,
                "pitch": 50,
                "velocity": 100
            },
            {
                "endTime": 1.625,
                "isDrum": true,
                "startTime": 1.5,
                "instrument": 9,
                "pitch": 46,
                "velocity": 100
            },
            {
                "endTime": 1.875,
                "isDrum": true,
                "startTime": 1.75,
                "instrument": 9,
                "pitch": 42,
                "velocity": 100
            },
            {
                "endTime": 1.875,
                "isDrum": true,
                "startTime": 1.75,
                "instrument": 9,
                "pitch": 36,
                "velocity": 100
            },
            {
                "endTime": 2.125,
                "isDrum": true,
                "startTime": 2,
                "instrument": 9,
                "pitch": 49,
                "velocity": 100
            },
            {
                "endTime": 2.125,
                "isDrum": true,
                "startTime": 2,
                "instrument": 9,
                "pitch": 42,
                "velocity": 100
            },
            {
                "endTime": 2.125,
                "isDrum": true,
                "startTime": 2,
                "instrument": 9,
                "pitch": 36,
                "velocity": 100
            },
            {
                "endTime": 2.375,
                "isDrum": true,
                "startTime": 2.25,
                "instrument": 9,
                "pitch": 42,
                "velocity": 100
            },
            {
                "endTime": 2.625,
                "isDrum": true,
                "startTime": 2.5,
                "instrument": 9,
                "pitch": 42,
                "velocity": 100
            },
            {
                "endTime": 2.625,
                "isDrum": true,
                "startTime": 2.5,
                "instrument": 9,
                "pitch": 50,
                "velocity": 100
            },
            {
                "endTime": 2.875,
                "isDrum": true,
                "startTime": 2.75,
                "instrument": 9,
                "pitch": 42,
                "velocity": 100
            },
            {
                "endTime": 2.875,
                "isDrum": true,
                "startTime": 2.75,
                "instrument": 9,
                "pitch": 50,
                "velocity": 100
            },
            {
                "endTime": 3.125,
                "isDrum": true,
                "startTime": 3,
                "instrument": 9,
                "pitch": 42,
                "velocity": 100
            },
            {
                "endTime": 3.125,
                "isDrum": true,
                "startTime": 3,
                "instrument": 9,
                "pitch": 36,
                "velocity": 100
            },
            {
                "endTime": 3.375,
                "isDrum": true,
                "startTime": 3.25,
                "instrument": 9,
                "pitch": 42,
                "velocity": 100
            },
            {
                "endTime": 3.375,
                "isDrum": true,
                "startTime": 3.25,
                "instrument": 9,
                "pitch": 50,
                "velocity": 100
            },
            {
                "endTime": 3.625,
                "isDrum": true,
                "startTime": 3.5,
                "instrument": 9,
                "pitch": 42,
                "velocity": 100
            },
            {
                "endTime": 3.625,
                "isDrum": true,
                "startTime": 3.5,
                "instrument": 9,
                "pitch": 50,
                "velocity": 100
            },
            {
                "endTime": 3.875,
                "isDrum": true,
                "startTime": 3.75,
                "instrument": 9,
                "pitch": 42,
                "velocity": 100
            }
        ],
        "totalTime": 3.875,
        "ticksPerQuarter": 220,
        "tempos": [
            {
                "qpm": 120
            }
        ]
    },
    {
        "notes": [
            {
                "velocity": 100,
                "isDrum": true,
                "instrument": 9,
                "pitch": 42,
                "endTime": 0.125
            },
            {
                "velocity": 100,
                "isDrum": true,
                "instrument": 9,
                "pitch": 50,
                "endTime": 0.125
            },
            {
                "velocity": 100,
                "isDrum": true,
                "instrument": 9,
                "pitch": 38,
                "endTime": 0.125
            },
            {
                "endTime": 0.375,
                "isDrum": true,
                "startTime": 0.25,
                "instrument": 9,
                "pitch": 42,
                "velocity": 100
            },
            {
                "endTime": 0.625,
                "isDrum": true,
                "startTime": 0.5,
                "instrument": 9,
                "pitch": 42,
                "velocity": 100
            },
            {
                "endTime": 0.875,
                "isDrum": true,
                "startTime": 0.75,
                "instrument": 9,
                "pitch": 42,
                "velocity": 100
            },
            {
                "endTime": 0.875,
                "isDrum": true,
                "startTime": 0.75,
                "instrument": 9,
                "pitch": 36,
                "velocity": 100
            },
            {
                "endTime": 0.875,
                "isDrum": true,
                "startTime": 0.75,
                "instrument": 9,
                "pitch": 50,
                "velocity": 100
            },
            {
                "endTime": 1.125,
                "isDrum": true,
                "startTime": 1,
                "instrument": 9,
                "pitch": 42,
                "velocity": 100
            },
            {
                "endTime": 1.125,
                "isDrum": true,
                "startTime": 1,
                "instrument": 9,
                "pitch": 36,
                "velocity": 100
            },
            {
                "endTime": 1.375,
                "isDrum": true,
                "startTime": 1.25,
                "instrument": 9,
                "pitch": 42,
                "velocity": 100
            },
            {
                "endTime": 1.375,
                "isDrum": true,
                "startTime": 1.25,
                "instrument": 9,
                "pitch": 50,
                "velocity": 100
            },
            {
                "endTime": 1.625,
                "isDrum": true,
                "startTime": 1.5,
                "instrument": 9,
                "pitch": 50,
                "velocity": 100
            },
            {
                "endTime": 1.625,
                "isDrum": true,
                "startTime": 1.5,
                "instrument": 9,
                "pitch": 46,
                "velocity": 100
            },
            {
                "endTime": 1.875,
                "isDrum": true,
                "startTime": 1.75,
                "instrument": 9,
                "pitch": 42,
                "velocity": 100
            },
            {
                "endTime": 1.875,
                "isDrum": true,
                "startTime": 1.75,
                "instrument": 9,
                "pitch": 50,
                "velocity": 100
            },
            {
                "endTime": 2.125,
                "isDrum": true,
                "startTime": 2,
                "instrument": 9,
                "pitch": 49,
                "velocity": 100
            },
            {
                "endTime": 2.125,
                "isDrum": true,
                "startTime": 2,
                "instrument": 9,
                "pitch": 42,
                "velocity": 100
            },
            {
                "endTime": 2.125,
                "isDrum": true,
                "startTime": 2,
                "instrument": 9,
                "pitch": 36,
                "velocity": 100
            },
            {
                "endTime": 2.125,
                "isDrum": true,
                "startTime": 2,
                "instrument": 9,
                "pitch": 46,
                "velocity": 100
            },
            {
                "endTime": 2.375,
                "isDrum": true,
                "startTime": 2.25,
                "instrument": 9,
                "pitch": 42,
                "velocity": 100
            },
            {
                "endTime": 2.625,
                "isDrum": true,
                "startTime": 2.5,
                "instrument": 9,
                "pitch": 50,
                "velocity": 100
            },
            {
                "endTime": 2.875,
                "isDrum": true,
                "startTime": 2.75,
                "instrument": 9,
                "pitch": 42,
                "velocity": 100
            },
            {
                "endTime": 2.875,
                "isDrum": true,
                "startTime": 2.75,
                "instrument": 9,
                "pitch": 50,
                "velocity": 100
            },
            {
                "endTime": 3.125,
                "isDrum": true,
                "startTime": 3,
                "instrument": 9,
                "pitch": 42,
                "velocity": 100
            },
            {
                "endTime": 3.125,
                "isDrum": true,
                "startTime": 3,
                "instrument": 9,
                "pitch": 36,
                "velocity": 100
            },
            {
                "endTime": 3.375,
                "isDrum": true,
                "startTime": 3.25,
                "instrument": 9,
                "pitch": 42,
                "velocity": 100
            },
            {
                "endTime": 3.375,
                "isDrum": true,
                "startTime": 3.25,
                "instrument": 9,
                "pitch": 50,
                "velocity": 100
            },
            {
                "endTime": 3.625,
                "isDrum": true,
                "startTime": 3.5,
                "instrument": 9,
                "pitch": 42,
                "velocity": 100
            },
            {
                "endTime": 3.625,
                "isDrum": true,
                "startTime": 3.5,
                "instrument": 9,
                "pitch": 50,
                "velocity": 100
            },
            {
                "endTime": 3.875,
                "isDrum": true,
                "startTime": 3.75,
                "instrument": 9,
                "pitch": 42,
                "velocity": 100
            }
        ],
        "totalTime": 3.875,
        "ticksPerQuarter": 220,
        "tempos": [
            {
                "qpm": 120
            }
        ]
    },
    {
        "notes": [
            {
                "velocity": 100,
                "isDrum": true,
                "instrument": 9,
                "pitch": 42,
                "endTime": 0.125
            },
            {
                "velocity": 100,
                "isDrum": true,
                "instrument": 9,
                "pitch": 50,
                "endTime": 0.125
            },
            {
                "velocity": 100,
                "isDrum": true,
                "instrument": 9,
                "pitch": 38,
                "endTime": 0.125
            },
            {
                "endTime": 0.375,
                "isDrum": true,
                "startTime": 0.25,
                "instrument": 9,
                "pitch": 42,
                "velocity": 100
            },
            {
                "endTime": 0.625,
                "isDrum": true,
                "startTime": 0.5,
                "instrument": 9,
                "pitch": 42,
                "velocity": 100
            },
            {
                "endTime": 0.875,
                "isDrum": true,
                "startTime": 0.75,
                "instrument": 9,
                "pitch": 42,
                "velocity": 100
            },
            {
                "endTime": 0.875,
                "isDrum": true,
                "startTime": 0.75,
                "instrument": 9,
                "pitch": 36,
                "velocity": 100
            },
            {
                "endTime": 0.875,
                "isDrum": true,
                "startTime": 0.75,
                "instrument": 9,
                "pitch": 38,
                "velocity": 100
            },
            {
                "endTime": 1.125,
                "isDrum": true,
                "startTime": 1,
                "instrument": 9,
                "pitch": 42,
                "velocity": 100
            },
            {
                "endTime": 1.125,
                "isDrum": true,
                "startTime": 1,
                "instrument": 9,
                "pitch": 36,
                "velocity": 100
            },
            {
                "endTime": 1.375,
                "isDrum": true,
                "startTime": 1.25,
                "instrument": 9,
                "pitch": 42,
                "velocity": 100
            },
            {
                "endTime": 1.375,
                "isDrum": true,
                "startTime": 1.25,
                "instrument": 9,
                "pitch": 50,
                "velocity": 100
            },
            {
                "endTime": 1.625,
                "isDrum": true,
                "startTime": 1.5,
                "instrument": 9,
                "pitch": 50,
                "velocity": 100
            },
            {
                "endTime": 1.625,
                "isDrum": true,
                "startTime": 1.5,
                "instrument": 9,
                "pitch": 46,
                "velocity": 100
            },
            {
                "endTime": 1.875,
                "isDrum": true,
                "startTime": 1.75,
                "instrument": 9,
                "pitch": 42,
                "velocity": 100
            },
            {
                "endTime": 1.875,
                "isDrum": true,
                "startTime": 1.75,
                "instrument": 9,
                "pitch": 50,
                "velocity": 100
            },
            {
                "endTime": 2.125,
                "isDrum": true,
                "startTime": 2,
                "instrument": 9,
                "pitch": 49,
                "velocity": 100
            },
            {
                "endTime": 2.125,
                "isDrum": true,
                "startTime": 2,
                "instrument": 9,
                "pitch": 42,
                "velocity": 100
            },
            {
                "endTime": 2.125,
                "isDrum": true,
                "startTime": 2,
                "instrument": 9,
                "pitch": 36,
                "velocity": 100
            },
            {
                "endTime": 2.125,
                "isDrum": true,
                "startTime": 2,
                "instrument": 9,
                "pitch": 46,
                "velocity": 100
            },
            {
                "endTime": 2.375,
                "isDrum": true,
                "startTime": 2.25,
                "instrument": 9,
                "pitch": 42,
                "velocity": 100
            },
            {
                "endTime": 2.625,
                "isDrum": true,
                "startTime": 2.5,
                "instrument": 9,
                "pitch": 42,
                "velocity": 100
            },
            {
                "endTime": 2.625,
                "isDrum": true,
                "startTime": 2.5,
                "instrument": 9,
                "pitch": 50,
                "velocity": 100
            },
            {
                "endTime": 2.875,
                "isDrum": true,
                "startTime": 2.75,
                "instrument": 9,
                "pitch": 42,
                "velocity": 100
            },
            {
                "endTime": 2.875,
                "isDrum": true,
                "startTime": 2.75,
                "instrument": 9,
                "pitch": 36,
                "velocity": 100
            },
            {
                "endTime": 2.875,
                "isDrum": true,
                "startTime": 2.75,
                "instrument": 9,
                "pitch": 50,
                "velocity": 100
            },
            {
                "endTime": 2.875,
                "isDrum": true,
                "startTime": 2.75,
                "instrument": 9,
                "pitch": 38,
                "velocity": 100
            },
            {
                "endTime": 3.125,
                "isDrum": true,
                "startTime": 3,
                "instrument": 9,
                "pitch": 42,
                "velocity": 100
            },
            {
                "endTime": 3.125,
                "isDrum": true,
                "startTime": 3,
                "instrument": 9,
                "pitch": 36,
                "velocity": 100
            },
            {
                "endTime": 3.125,
                "isDrum": true,
                "startTime": 3,
                "instrument": 9,
                "pitch": 50,
                "velocity": 100
            },
            {
                "endTime": 3.125,
                "isDrum": true,
                "startTime": 3,
                "instrument": 9,
                "pitch": 46,
                "velocity": 100
            },
            {
                "endTime": 3.375,
                "isDrum": true,
                "startTime": 3.25,
                "instrument": 9,
                "pitch": 42,
                "velocity": 100
            },
            {
                "endTime": 3.375,
                "isDrum": true,
                "startTime": 3.25,
                "instrument": 9,
                "pitch": 50,
                "velocity": 100
            },
            {
                "endTime": 3.625,
                "isDrum": true,
                "startTime": 3.5,
                "instrument": 9,
                "pitch": 42,
                "velocity": 100
            },
            {
                "endTime": 3.625,
                "isDrum": true,
                "startTime": 3.5,
                "instrument": 9,
                "pitch": 50,
                "velocity": 100
            },
            {
                "endTime": 3.875,
                "isDrum": true,
                "startTime": 3.75,
                "instrument": 9,
                "pitch": 42,
                "velocity": 100
            }
        ],
        "totalTime": 3.875,
        "ticksPerQuarter": 220,
        "tempos": [
            {
                "qpm": 120
            }
        ]
    },
    {
        "notes": [
            {
                "velocity": 100,
                "isDrum": true,
                "instrument": 9,
                "pitch": 42,
                "endTime": 0.125
            },
            {
                "velocity": 100,
                "isDrum": true,
                "instrument": 9,
                "pitch": 50,
                "endTime": 0.125
            },
            {
                "velocity": 100,
                "isDrum": true,
                "instrument": 9,
                "pitch": 38,
                "endTime": 0.125
            },
            {
                "endTime": 0.375,
                "isDrum": true,
                "startTime": 0.25,
                "instrument": 9,
                "pitch": 42,
                "velocity": 100
            },
            {
                "endTime": 0.5,
                "isDrum": true,
                "startTime": 0.375,
                "instrument": 9,
                "pitch": 42,
                "velocity": 100
            },
            {
                "endTime": 0.625,
                "isDrum": true,
                "startTime": 0.5,
                "instrument": 9,
                "pitch": 42,
                "velocity": 100
            },
            {
                "endTime": 0.625,
                "isDrum": true,
                "startTime": 0.5,
                "instrument": 9,
                "pitch": 50,
                "velocity": 100
            },
            {
                "endTime": 0.875,
                "isDrum": true,
                "startTime": 0.75,
                "instrument": 9,
                "pitch": 42,
                "velocity": 100
            },
            {
                "endTime": 0.875,
                "isDrum": true,
                "startTime": 0.75,
                "instrument": 9,
                "pitch": 36,
                "velocity": 100
            },
            {
                "endTime": 0.875,
                "isDrum": true,
                "startTime": 0.75,
                "instrument": 9,
                "pitch": 50,
                "velocity": 100
            },
            {
                "endTime": 0.875,
                "isDrum": true,
                "startTime": 0.75,
                "instrument": 9,
                "pitch": 38,
                "velocity": 100
            },
            {
                "endTime": 1.125,
                "isDrum": true,
                "startTime": 1,
                "instrument": 9,
                "pitch": 42,
                "velocity": 100
            },
            {
                "endTime": 1.125,
                "isDrum": true,
                "startTime": 1,
                "instrument": 9,
                "pitch": 36,
                "velocity": 100
            },
            {
                "endTime": 1.125,
                "isDrum": true,
                "startTime": 1,
                "instrument": 9,
                "pitch": 50,
                "velocity": 100
            },
            {
                "endTime": 1.375,
                "isDrum": true,
                "startTime": 1.25,
                "instrument": 9,
                "pitch": 42,
                "velocity": 100
            },
            {
                "endTime": 1.375,
                "isDrum": true,
                "startTime": 1.25,
                "instrument": 9,
                "pitch": 50,
                "velocity": 100
            },
            {
                "endTime": 1.625,
                "isDrum": true,
                "startTime": 1.5,
                "instrument": 9,
                "pitch": 42,
                "velocity": 100
            },
            {
                "endTime": 1.625,
                "isDrum": true,
                "startTime": 1.5,
                "instrument": 9,
                "pitch": 36,
                "velocity": 100
            },
            {
                "endTime": 1.625,
                "isDrum": true,
                "startTime": 1.5,
                "instrument": 9,
                "pitch": 50,
                "velocity": 100
            },
            {
                "endTime": 1.625,
                "isDrum": true,
                "startTime": 1.5,
                "instrument": 9,
                "pitch": 46,
                "velocity": 100
            },
            {
                "endTime": 1.875,
                "isDrum": true,
                "startTime": 1.75,
                "instrument": 9,
                "pitch": 50,
                "velocity": 100
            },
            {
                "endTime": 2.125,
                "isDrum": true,
                "startTime": 2,
                "instrument": 9,
                "pitch": 49,
                "velocity": 100
            },
            {
                "endTime": 2.125,
                "isDrum": true,
                "startTime": 2,
                "instrument": 9,
                "pitch": 36,
                "velocity": 100
            },
            {
                "endTime": 2.125,
                "isDrum": true,
                "startTime": 2,
                "instrument": 9,
                "pitch": 46,
                "velocity": 100
            },
            {
                "endTime": 2.375,
                "isDrum": true,
                "startTime": 2.25,
                "instrument": 9,
                "pitch": 42,
                "velocity": 100
            },
            {
                "endTime": 2.625,
                "isDrum": true,
                "startTime": 2.5,
                "instrument": 9,
                "pitch": 42,
                "velocity": 100
            },
            {
                "endTime": 2.625,
                "isDrum": true,
                "startTime": 2.5,
                "instrument": 9,
                "pitch": 50,
                "velocity": 100
            },
            {
                "endTime": 2.875,
                "isDrum": true,
                "startTime": 2.75,
                "instrument": 9,
                "pitch": 42,
                "velocity": 100
            },
            {
                "endTime": 2.875,
                "isDrum": true,
                "startTime": 2.75,
                "instrument": 9,
                "pitch": 36,
                "velocity": 100
            },
            {
                "endTime": 2.875,
                "isDrum": true,
                "startTime": 2.75,
                "instrument": 9,
                "pitch": 50,
                "velocity": 100
            },
            {
                "endTime": 2.875,
                "isDrum": true,
                "startTime": 2.75,
                "instrument": 9,
                "pitch": 38,
                "velocity": 100
            },
            {
                "endTime": 3.125,
                "isDrum": true,
                "startTime": 3,
                "instrument": 9,
                "pitch": 42,
                "velocity": 100
            },
            {
                "endTime": 3.125,
                "isDrum": true,
                "startTime": 3,
                "instrument": 9,
                "pitch": 36,
                "velocity": 100
            },
            {
                "endTime": 3.125,
                "isDrum": true,
                "startTime": 3,
                "instrument": 9,
                "pitch": 50,
                "velocity": 100
            },
            {
                "endTime": 3.125,
                "isDrum": true,
                "startTime": 3,
                "instrument": 9,
                "pitch": 46,
                "velocity": 100
            },
            {
                "endTime": 3.375,
                "isDrum": true,
                "startTime": 3.25,
                "instrument": 9,
                "pitch": 42,
                "velocity": 100
            },
            {
                "endTime": 3.375,
                "isDrum": true,
                "startTime": 3.25,
                "instrument": 9,
                "pitch": 50,
                "velocity": 100
            },
            {
                "endTime": 3.625,
                "isDrum": true,
                "startTime": 3.5,
                "instrument": 9,
                "pitch": 42,
                "velocity": 100
            },
            {
                "endTime": 3.625,
                "isDrum": true,
                "startTime": 3.5,
                "instrument": 9,
                "pitch": 50,
                "velocity": 100
            },
            {
                "endTime": 3.875,
                "isDrum": true,
                "startTime": 3.75,
                "instrument": 9,
                "pitch": 42,
                "velocity": 100
            }
        ],
        "totalTime": 3.875,
        "ticksPerQuarter": 220,
        "tempos": [
            {
                "qpm": 120
            }
        ]
    },
    {
        "notes": [
            {
                "velocity": 100,
                "isDrum": true,
                "instrument": 9,
                "pitch": 42,
                "endTime": 0.125
            },
            {
                "velocity": 100,
                "isDrum": true,
                "instrument": 9,
                "pitch": 50,
                "endTime": 0.125
            },
            {
                "velocity": 100,
                "isDrum": true,
                "instrument": 9,
                "pitch": 38,
                "endTime": 0.125
            },
            {
                "endTime": 0.375,
                "isDrum": true,
                "startTime": 0.25,
                "instrument": 9,
                "pitch": 42,
                "velocity": 100
            },
            {
                "endTime": 0.5,
                "isDrum": true,
                "startTime": 0.375,
                "instrument": 9,
                "pitch": 42,
                "velocity": 100
            },
            {
                "endTime": 0.625,
                "isDrum": true,
                "startTime": 0.5,
                "instrument": 9,
                "pitch": 42,
                "velocity": 100
            },
            {
                "endTime": 0.625,
                "isDrum": true,
                "startTime": 0.5,
                "instrument": 9,
                "pitch": 50,
                "velocity": 100
            },
            {
                "endTime": 0.875,
                "isDrum": true,
                "startTime": 0.75,
                "instrument": 9,
                "pitch": 42,
                "velocity": 100
            },
            {
                "endTime": 0.875,
                "isDrum": true,
                "startTime": 0.75,
                "instrument": 9,
                "pitch": 36,
                "velocity": 100
            },
            {
                "endTime": 0.875,
                "isDrum": true,
                "startTime": 0.75,
                "instrument": 9,
                "pitch": 50,
                "velocity": 100
            },
            {
                "endTime": 0.875,
                "isDrum": true,
                "startTime": 0.75,
                "instrument": 9,
                "pitch": 38,
                "velocity": 100
            },
            {
                "endTime": 1.125,
                "isDrum": true,
                "startTime": 1,
                "instrument": 9,
                "pitch": 42,
                "velocity": 100
            },
            {
                "endTime": 1.125,
                "isDrum": true,
                "startTime": 1,
                "instrument": 9,
                "pitch": 36,
                "velocity": 100
            },
            {
                "endTime": 1.125,
                "isDrum": true,
                "startTime": 1,
                "instrument": 9,
                "pitch": 50,
                "velocity": 100
            },
            {
                "endTime": 1.375,
                "isDrum": true,
                "startTime": 1.25,
                "instrument": 9,
                "pitch": 42,
                "velocity": 100
            },
            {
                "endTime": 1.375,
                "isDrum": true,
                "startTime": 1.25,
                "instrument": 9,
                "pitch": 50,
                "velocity": 100
            },
            {
                "endTime": 1.625,
                "isDrum": true,
                "startTime": 1.5,
                "instrument": 9,
                "pitch": 48,
                "velocity": 100
            },
            {
                "endTime": 1.625,
                "isDrum": true,
                "startTime": 1.5,
                "instrument": 9,
                "pitch": 42,
                "velocity": 100
            },
            {
                "endTime": 1.625,
                "isDrum": true,
                "startTime": 1.5,
                "instrument": 9,
                "pitch": 36,
                "velocity": 100
            },
            {
                "endTime": 1.625,
                "isDrum": true,
                "startTime": 1.5,
                "instrument": 9,
                "pitch": 50,
                "velocity": 100
            },
            {
                "endTime": 1.625,
                "isDrum": true,
                "startTime": 1.5,
                "instrument": 9,
                "pitch": 38,
                "velocity": 100
            },
            {
                "endTime": 1.875,
                "isDrum": true,
                "startTime": 1.75,
                "instrument": 9,
                "pitch": 50,
                "velocity": 100
            },
            {
                "endTime": 2.125,
                "isDrum": true,
                "startTime": 2,
                "instrument": 9,
                "pitch": 49,
                "velocity": 100
            },
            {
                "endTime": 2.125,
                "isDrum": true,
                "startTime": 2,
                "instrument": 9,
                "pitch": 42,
                "velocity": 100
            },
            {
                "endTime": 2.125,
                "isDrum": true,
                "startTime": 2,
                "instrument": 9,
                "pitch": 36,
                "velocity": 100
            },
            {
                "endTime": 2.125,
                "isDrum": true,
                "startTime": 2,
                "instrument": 9,
                "pitch": 46,
                "velocity": 100
            },
            {
                "endTime": 2.375,
                "isDrum": true,
                "startTime": 2.25,
                "instrument": 9,
                "pitch": 42,
                "velocity": 100
            },
            {
                "endTime": 2.625,
                "isDrum": true,
                "startTime": 2.5,
                "instrument": 9,
                "pitch": 42,
                "velocity": 100
            },
            {
                "endTime": 2.625,
                "isDrum": true,
                "startTime": 2.5,
                "instrument": 9,
                "pitch": 50,
                "velocity": 100
            },
            {
                "endTime": 2.875,
                "isDrum": true,
                "startTime": 2.75,
                "instrument": 9,
                "pitch": 42,
                "velocity": 100
            },
            {
                "endTime": 2.875,
                "isDrum": true,
                "startTime": 2.75,
                "instrument": 9,
                "pitch": 36,
                "velocity": 100
            },
            {
                "endTime": 2.875,
                "isDrum": true,
                "startTime": 2.75,
                "instrument": 9,
                "pitch": 50,
                "velocity": 100
            },
            {
                "endTime": 2.875,
                "isDrum": true,
                "startTime": 2.75,
                "instrument": 9,
                "pitch": 38,
                "velocity": 100
            },
            {
                "endTime": 3.125,
                "isDrum": true,
                "startTime": 3,
                "instrument": 9,
                "pitch": 42,
                "velocity": 100
            },
            {
                "endTime": 3.125,
                "isDrum": true,
                "startTime": 3,
                "instrument": 9,
                "pitch": 36,
                "velocity": 100
            },
            {
                "endTime": 3.125,
                "isDrum": true,
                "startTime": 3,
                "instrument": 9,
                "pitch": 50,
                "velocity": 100
            },
            {
                "endTime": 3.125,
                "isDrum": true,
                "startTime": 3,
                "instrument": 9,
                "pitch": 46,
                "velocity": 100
            },
            {
                "endTime": 3.375,
                "isDrum": true,
                "startTime": 3.25,
                "instrument": 9,
                "pitch": 42,
                "velocity": 100
            },
            {
                "endTime": 3.375,
                "isDrum": true,
                "startTime": 3.25,
                "instrument": 9,
                "pitch": 50,
                "velocity": 100
            },
            {
                "endTime": 3.625,
                "isDrum": true,
                "startTime": 3.5,
                "instrument": 9,
                "pitch": 42,
                "velocity": 100
            },
            {
                "endTime": 3.625,
                "isDrum": true,
                "startTime": 3.5,
                "instrument": 9,
                "pitch": 50,
                "velocity": 100
            },
            {
                "endTime": 3.875,
                "isDrum": true,
                "startTime": 3.75,
                "instrument": 9,
                "pitch": 42,
                "velocity": 100
            },
            {
                "endTime": 3.875,
                "isDrum": true,
                "startTime": 3.75,
                "instrument": 9,
                "pitch": 50,
                "velocity": 100
            }
        ],
        "totalTime": 3.875,
        "ticksPerQuarter": 220,
        "tempos": [
            {
                "qpm": 120
            }
        ]
    },
    {
        "notes": [
            {
                "velocity": 100,
                "isDrum": true,
                "instrument": 9,
                "pitch": 42,
                "endTime": 0.125
            },
            {
                "velocity": 100,
                "isDrum": true,
                "instrument": 9,
                "pitch": 36,
                "endTime": 0.125
            },
            {
                "velocity": 100,
                "isDrum": true,
                "instrument": 9,
                "pitch": 50,
                "endTime": 0.125
            },
            {
                "velocity": 100,
                "isDrum": true,
                "instrument": 9,
                "pitch": 38,
                "endTime": 0.125
            },
            {
                "endTime": 0.375,
                "isDrum": true,
                "startTime": 0.25,
                "instrument": 9,
                "pitch": 42,
                "velocity": 100
            },
            {
                "endTime": 0.5,
                "isDrum": true,
                "startTime": 0.375,
                "instrument": 9,
                "pitch": 42,
                "velocity": 100
            },
            {
                "endTime": 0.625,
                "isDrum": true,
                "startTime": 0.5,
                "instrument": 9,
                "pitch": 42,
                "velocity": 100
            },
            {
                "endTime": 0.625,
                "isDrum": true,
                "startTime": 0.5,
                "instrument": 9,
                "pitch": 50,
                "velocity": 100
            },
            {
                "endTime": 0.875,
                "isDrum": true,
                "startTime": 0.75,
                "instrument": 9,
                "pitch": 42,
                "velocity": 100
            },
            {
                "endTime": 0.875,
                "isDrum": true,
                "startTime": 0.75,
                "instrument": 9,
                "pitch": 36,
                "velocity": 100
            },
            {
                "endTime": 0.875,
                "isDrum": true,
                "startTime": 0.75,
                "instrument": 9,
                "pitch": 50,
                "velocity": 100
            },
            {
                "endTime": 0.875,
                "isDrum": true,
                "startTime": 0.75,
                "instrument": 9,
                "pitch": 38,
                "velocity": 100
            },
            {
                "endTime": 1.125,
                "isDrum": true,
                "startTime": 1,
                "instrument": 9,
                "pitch": 42,
                "velocity": 100
            },
            {
                "endTime": 1.125,
                "isDrum": true,
                "startTime": 1,
                "instrument": 9,
                "pitch": 36,
                "velocity": 100
            },
            {
                "endTime": 1.125,
                "isDrum": true,
                "startTime": 1,
                "instrument": 9,
                "pitch": 50,
                "velocity": 100
            },
            {
                "endTime": 1.375,
                "isDrum": true,
                "startTime": 1.25,
                "instrument": 9,
                "pitch": 48,
                "velocity": 100
            },
            {
                "endTime": 1.375,
                "isDrum": true,
                "startTime": 1.25,
                "instrument": 9,
                "pitch": 50,
                "velocity": 100
            },
            {
                "endTime": 1.625,
                "isDrum": true,
                "startTime": 1.5,
                "instrument": 9,
                "pitch": 42,
                "velocity": 100
            },
            {
                "endTime": 1.625,
                "isDrum": true,
                "startTime": 1.5,
                "instrument": 9,
                "pitch": 36,
                "velocity": 100
            },
            {
                "endTime": 1.625,
                "isDrum": true,
                "startTime": 1.5,
                "instrument": 9,
                "pitch": 50,
                "velocity": 100
            },
            {
                "endTime": 1.625,
                "isDrum": true,
                "startTime": 1.5,
                "instrument": 9,
                "pitch": 38,
                "velocity": 100
            },
            {
                "endTime": 1.875,
                "isDrum": true,
                "startTime": 1.75,
                "instrument": 9,
                "pitch": 50,
                "velocity": 100
            },
            {
                "endTime": 2.125,
                "isDrum": true,
                "startTime": 2,
                "instrument": 9,
                "pitch": 49,
                "velocity": 100
            },
            {
                "endTime": 2.125,
                "isDrum": true,
                "startTime": 2,
                "instrument": 9,
                "pitch": 42,
                "velocity": 100
            },
            {
                "endTime": 2.125,
                "isDrum": true,
                "startTime": 2,
                "instrument": 9,
                "pitch": 36,
                "velocity": 100
            },
            {
                "endTime": 2.125,
                "isDrum": true,
                "startTime": 2,
                "instrument": 9,
                "pitch": 46,
                "velocity": 100
            },
            {
                "endTime": 2.375,
                "isDrum": true,
                "startTime": 2.25,
                "instrument": 9,
                "pitch": 42,
                "velocity": 100
            },
            {
                "endTime": 2.625,
                "isDrum": true,
                "startTime": 2.5,
                "instrument": 9,
                "pitch": 42,
                "velocity": 100
            },
            {
                "endTime": 2.625,
                "isDrum": true,
                "startTime": 2.5,
                "instrument": 9,
                "pitch": 50,
                "velocity": 100
            },
            {
                "endTime": 2.875,
                "isDrum": true,
                "startTime": 2.75,
                "instrument": 9,
                "pitch": 42,
                "velocity": 100
            },
            {
                "endTime": 2.875,
                "isDrum": true,
                "startTime": 2.75,
                "instrument": 9,
                "pitch": 36,
                "velocity": 100
            },
            {
                "endTime": 2.875,
                "isDrum": true,
                "startTime": 2.75,
                "instrument": 9,
                "pitch": 50,
                "velocity": 100
            },
            {
                "endTime": 2.875,
                "isDrum": true,
                "startTime": 2.75,
                "instrument": 9,
                "pitch": 38,
                "velocity": 100
            },
            {
                "endTime": 3.125,
                "isDrum": true,
                "startTime": 3,
                "instrument": 9,
                "pitch": 42,
                "velocity": 100
            },
            {
                "endTime": 3.125,
                "isDrum": true,
                "startTime": 3,
                "instrument": 9,
                "pitch": 36,
                "velocity": 100
            },
            {
                "endTime": 3.125,
                "isDrum": true,
                "startTime": 3,
                "instrument": 9,
                "pitch": 50,
                "velocity": 100
            },
            {
                "endTime": 3.125,
                "isDrum": true,
                "startTime": 3,
                "instrument": 9,
                "pitch": 46,
                "velocity": 100
            },
            {
                "endTime": 3.375,
                "isDrum": true,
                "startTime": 3.25,
                "instrument": 9,
                "pitch": 42,
                "velocity": 100
            },
            {
                "endTime": 3.375,
                "isDrum": true,
                "startTime": 3.25,
                "instrument": 9,
                "pitch": 50,
                "velocity": 100
            },
            {
                "endTime": 3.625,
                "isDrum": true,
                "startTime": 3.5,
                "instrument": 9,
                "pitch": 42,
                "velocity": 100
            },
            {
                "endTime": 3.625,
                "isDrum": true,
                "startTime": 3.5,
                "instrument": 9,
                "pitch": 36,
                "velocity": 100
            },
            {
                "endTime": 3.625,
                "isDrum": true,
                "startTime": 3.5,
                "instrument": 9,
                "pitch": 38,
                "velocity": 100
            },
            {
                "endTime": 3.875,
                "isDrum": true,
                "startTime": 3.75,
                "instrument": 9,
                "pitch": 42,
                "velocity": 100
            },
            {
                "endTime": 3.875,
                "isDrum": true,
                "startTime": 3.75,
                "instrument": 9,
                "pitch": 50,
                "velocity": 100
            }
        ],
        "totalTime": 3.875,
        "ticksPerQuarter": 220,
        "tempos": [
            {
                "qpm": 120
            }
        ]
    },
    {
        "notes": [
            {
                "velocity": 100,
                "isDrum": true,
                "instrument": 9,
                "pitch": 36,
                "endTime": 0.125
            },
            {
                "endTime": 0.375,
                "isDrum": true,
                "startTime": 0.25,
                "instrument": 9,
                "pitch": 42,
                "velocity": 100
            },
            {
                "endTime": 0.625,
                "isDrum": true,
                "startTime": 0.5,
                "instrument": 9,
                "pitch": 42,
                "velocity": 100
            },
            {
                "endTime": 0.875,
                "isDrum": true,
                "startTime": 0.75,
                "instrument": 9,
                "pitch": 42,
                "velocity": 100
            },
            {
                "endTime": 1.125,
                "isDrum": true,
                "startTime": 1,
                "instrument": 9,
                "pitch": 42,
                "velocity": 100
            },
            {
                "endTime": 1.125,
                "isDrum": true,
                "startTime": 1,
                "instrument": 9,
                "pitch": 36,
                "velocity": 100
            },
            {
                "endTime": 1.375,
                "isDrum": true,
                "startTime": 1.25,
                "instrument": 9,
                "pitch": 42,
                "velocity": 100
            },
            {
                "endTime": 1.625,
                "isDrum": true,
                "startTime": 1.5,
                "instrument": 9,
                "pitch": 42,
                "velocity": 100
            },
            {
                "endTime": 1.625,
                "isDrum": true,
                "startTime": 1.5,
                "instrument": 9,
                "pitch": 38,
                "velocity": 100
            },
            {
                "endTime": 1.875,
                "isDrum": true,
                "startTime": 1.75,
                "instrument": 9,
                "pitch": 42,
                "velocity": 100
            },
            {
                "endTime": 1.875,
                "isDrum": true,
                "startTime": 1.75,
                "instrument": 9,
                "pitch": 36,
                "velocity": 100
            },
            {
                "endTime": 2.125,
                "isDrum": true,
                "startTime": 2,
                "instrument": 9,
                "pitch": 42,
                "velocity": 100
            },
            {
                "endTime": 2.125,
                "isDrum": true,
                "startTime": 2,
                "instrument": 9,
                "pitch": 36,
                "velocity": 100
            },
            {
                "endTime": 2.375,
                "isDrum": true,
                "startTime": 2.25,
                "instrument": 9,
                "pitch": 42,
                "velocity": 100
            },
            {
                "endTime": 2.625,
                "isDrum": true,
                "startTime": 2.5,
                "instrument": 9,
                "pitch": 36,
                "velocity": 100
            },
            {
                "endTime": 2.625,
                "isDrum": true,
                "startTime": 2.5,
                "instrument": 9,
                "pitch": 46,
                "velocity": 100
            },
            {
                "endTime": 2.875,
                "isDrum": true,
                "startTime": 2.75,
                "instrument": 9,
                "pitch": 42,
                "velocity": 100
            },
            {
                "endTime": 3.125,
                "isDrum": true,
                "startTime": 3,
                "instrument": 9,
                "pitch": 36,
                "velocity": 100
            },
            {
                "endTime": 3.375,
                "isDrum": true,
                "startTime": 3.25,
                "instrument": 9,
                "pitch": 42,
                "velocity": 100
            },
            {
                "endTime": 3.375,
                "isDrum": true,
                "startTime": 3.25,
                "instrument": 9,
                "pitch": 36,
                "velocity": 100
            },
            {
                "endTime": 3.625,
                "isDrum": true,
                "startTime": 3.5,
                "instrument": 9,
                "pitch": 42,
                "velocity": 100
            },
            {
                "endTime": 3.625,
                "isDrum": true,
                "startTime": 3.5,
                "instrument": 9,
                "pitch": 36,
                "velocity": 100
            },
            {
                "endTime": 3.875,
                "isDrum": true,
                "startTime": 3.75,
                "instrument": 9,
                "pitch": 42,
                "velocity": 100
            }
        ],
        "totalTime": 3.875,
        "ticksPerQuarter": 220,
        "tempos": [
            {
                "qpm": 120
            }
        ]
    },
    {
        "notes": [
            {
                "velocity": 100,
                "isDrum": true,
                "instrument": 9,
                "pitch": 36,
                "endTime": 0.125
            },
            {
                "endTime": 0.375,
                "isDrum": true,
                "startTime": 0.25,
                "instrument": 9,
                "pitch": 42,
                "velocity": 100
            },
            {
                "endTime": 0.625,
                "isDrum": true,
                "startTime": 0.5,
                "instrument": 9,
                "pitch": 42,
                "velocity": 100
            },
            {
                "endTime": 0.875,
                "isDrum": true,
                "startTime": 0.75,
                "instrument": 9,
                "pitch": 42,
                "velocity": 100
            },
            {
                "endTime": 0.875,
                "isDrum": true,
                "startTime": 0.75,
                "instrument": 9,
                "pitch": 36,
                "velocity": 100
            },
            {
                "endTime": 1.125,
                "isDrum": true,
                "startTime": 1,
                "instrument": 9,
                "pitch": 42,
                "velocity": 100
            },
            {
                "endTime": 1.125,
                "isDrum": true,
                "startTime": 1,
                "instrument": 9,
                "pitch": 36,
                "velocity": 100
            },
            {
                "endTime": 1.375,
                "isDrum": true,
                "startTime": 1.25,
                "instrument": 9,
                "pitch": 42,
                "velocity": 100
            },
            {
                "endTime": 1.625,
                "isDrum": true,
                "startTime": 1.5,
                "instrument": 9,
                "pitch": 42,
                "velocity": 100
            },
            {
                "endTime": 1.625,
                "isDrum": true,
                "startTime": 1.5,
                "instrument": 9,
                "pitch": 38,
                "velocity": 100
            },
            {
                "endTime": 1.875,
                "isDrum": true,
                "startTime": 1.75,
                "instrument": 9,
                "pitch": 42,
                "velocity": 100
            },
            {
                "endTime": 1.875,
                "isDrum": true,
                "startTime": 1.75,
                "instrument": 9,
                "pitch": 36,
                "velocity": 100
            },
            {
                "endTime": 2.125,
                "isDrum": true,
                "startTime": 2,
                "instrument": 9,
                "pitch": 42,
                "velocity": 100
            },
            {
                "endTime": 2.125,
                "isDrum": true,
                "startTime": 2,
                "instrument": 9,
                "pitch": 36,
                "velocity": 100
            },
            {
                "endTime": 2.375,
                "isDrum": true,
                "startTime": 2.25,
                "instrument": 9,
                "pitch": 42,
                "velocity": 100
            },
            {
                "endTime": 2.625,
                "isDrum": true,
                "startTime": 2.5,
                "instrument": 9,
                "pitch": 49,
                "velocity": 100
            },
            {
                "endTime": 2.625,
                "isDrum": true,
                "startTime": 2.5,
                "instrument": 9,
                "pitch": 42,
                "velocity": 100
            },
            {
                "endTime": 2.625,
                "isDrum": true,
                "startTime": 2.5,
                "instrument": 9,
                "pitch": 38,
                "velocity": 100
            },
            {
                "endTime": 2.875,
                "isDrum": true,
                "startTime": 2.75,
                "instrument": 9,
                "pitch": 42,
                "velocity": 100
            },
            {
                "endTime": 3.125,
                "isDrum": true,
                "startTime": 3,
                "instrument": 9,
                "pitch": 49,
                "velocity": 100
            },
            {
                "endTime": 3.125,
                "isDrum": true,
                "startTime": 3,
                "instrument": 9,
                "pitch": 42,
                "velocity": 100
            },
            {
                "endTime": 3.125,
                "isDrum": true,
                "startTime": 3,
                "instrument": 9,
                "pitch": 36,
                "velocity": 100
            },
            {
                "endTime": 3.375,
                "isDrum": true,
                "startTime": 3.25,
                "instrument": 9,
                "pitch": 42,
                "velocity": 100
            },
            {
                "endTime": 3.375,
                "isDrum": true,
                "startTime": 3.25,
                "instrument": 9,
                "pitch": 36,
                "velocity": 100
            },
            {
                "endTime": 3.625,
                "isDrum": true,
                "startTime": 3.5,
                "instrument": 9,
                "pitch": 42,
                "velocity": 100
            },
            {
                "endTime": 3.625,
                "isDrum": true,
                "startTime": 3.5,
                "instrument": 9,
                "pitch": 36,
                "velocity": 100
            },
            {
                "endTime": 3.875,
                "isDrum": true,
                "startTime": 3.75,
                "instrument": 9,
                "pitch": 42,
                "velocity": 100
            },
            {
                "endTime": 3.875,
                "isDrum": true,
                "startTime": 3.75,
                "instrument": 9,
                "pitch": 36,
                "velocity": 100
            }
        ],
        "totalTime": 3.875,
        "ticksPerQuarter": 220,
        "tempos": [
            {
                "qpm": 120
            }
        ]
    },
    {
        "notes": [
            {
                "velocity": 100,
                "isDrum": true,
                "instrument": 9,
                "pitch": 36,
                "endTime": 0.125
            },
            {
                "endTime": 0.375,
                "isDrum": true,
                "startTime": 0.25,
                "instrument": 9,
                "pitch": 42,
                "velocity": 100
            },
            {
                "endTime": 0.625,
                "isDrum": true,
                "startTime": 0.5,
                "instrument": 9,
                "pitch": 42,
                "velocity": 100
            },
            {
                "endTime": 0.875,
                "isDrum": true,
                "startTime": 0.75,
                "instrument": 9,
                "pitch": 42,
                "velocity": 100
            },
            {
                "endTime": 0.875,
                "isDrum": true,
                "startTime": 0.75,
                "instrument": 9,
                "pitch": 36,
                "velocity": 100
            },
            {
                "endTime": 1.125,
                "isDrum": true,
                "startTime": 1,
                "instrument": 9,
                "pitch": 42,
                "velocity": 100
            },
            {
                "endTime": 1.125,
                "isDrum": true,
                "startTime": 1,
                "instrument": 9,
                "pitch": 36,
                "velocity": 100
            },
            {
                "endTime": 1.375,
                "isDrum": true,
                "startTime": 1.25,
                "instrument": 9,
                "pitch": 42,
                "velocity": 100
            },
            {
                "endTime": 1.625,
                "isDrum": true,
                "startTime": 1.5,
                "instrument": 9,
                "pitch": 42,
                "velocity": 100
            },
            {
                "endTime": 1.625,
                "isDrum": true,
                "startTime": 1.5,
                "instrument": 9,
                "pitch": 38,
                "velocity": 100
            },
            {
                "endTime": 1.875,
                "isDrum": true,
                "startTime": 1.75,
                "instrument": 9,
                "pitch": 42,
                "velocity": 100
            },
            {
                "endTime": 1.875,
                "isDrum": true,
                "startTime": 1.75,
                "instrument": 9,
                "pitch": 36,
                "velocity": 100
            },
            {
                "endTime": 2.125,
                "isDrum": true,
                "startTime": 2,
                "instrument": 9,
                "pitch": 42,
                "velocity": 100
            },
            {
                "endTime": 2.125,
                "isDrum": true,
                "startTime": 2,
                "instrument": 9,
                "pitch": 36,
                "velocity": 100
            },
            {
                "endTime": 2.375,
                "isDrum": true,
                "startTime": 2.25,
                "instrument": 9,
                "pitch": 42,
                "velocity": 100
            },
            {
                "endTime": 2.625,
                "isDrum": true,
                "startTime": 2.5,
                "instrument": 9,
                "pitch": 50,
                "velocity": 100
            },
            {
                "endTime": 2.875,
                "isDrum": true,
                "startTime": 2.75,
                "instrument": 9,
                "pitch": 42,
                "velocity": 100
            },
            {
                "endTime": 3.125,
                "isDrum": true,
                "startTime": 3,
                "instrument": 9,
                "pitch": 49,
                "velocity": 100
            },
            {
                "endTime": 3.125,
                "isDrum": true,
                "startTime": 3,
                "instrument": 9,
                "pitch": 42,
                "velocity": 100
            },
            {
                "endTime": 3.125,
                "isDrum": true,
                "startTime": 3,
                "instrument": 9,
                "pitch": 36,
                "velocity": 100
            },
            {
                "endTime": 3.375,
                "isDrum": true,
                "startTime": 3.25,
                "instrument": 9,
                "pitch": 42,
                "velocity": 100
            },
            {
                "endTime": 3.375,
                "isDrum": true,
                "startTime": 3.25,
                "instrument": 9,
                "pitch": 36,
                "velocity": 100
            },
            {
                "endTime": 3.625,
                "isDrum": true,
                "startTime": 3.5,
                "instrument": 9,
                "pitch": 42,
                "velocity": 100
            },
            {
                "endTime": 3.625,
                "isDrum": true,
                "startTime": 3.5,
                "instrument": 9,
                "pitch": 50,
                "velocity": 100
            },
            {
                "endTime": 3.875,
                "isDrum": true,
                "startTime": 3.75,
                "instrument": 9,
                "pitch": 42,
                "velocity": 100
            }
        ],
        "totalTime": 3.875,
        "ticksPerQuarter": 220,
        "tempos": [
            {
                "qpm": 120
            }
        ]
    },
    {
        "notes": [
            {
                "endTime": 0.375,
                "isDrum": true,
                "startTime": 0.25,
                "instrument": 9,
                "pitch": 42,
                "velocity": 100
            },
            {
                "endTime": 0.625,
                "isDrum": true,
                "startTime": 0.5,
                "instrument": 9,
                "pitch": 42,
                "velocity": 100
            },
            {
                "endTime": 0.875,
                "isDrum": true,
                "startTime": 0.75,
                "instrument": 9,
                "pitch": 42,
                "velocity": 100
            },
            {
                "endTime": 0.875,
                "isDrum": true,
                "startTime": 0.75,
                "instrument": 9,
                "pitch": 36,
                "velocity": 100
            },
            {
                "endTime": 1.125,
                "isDrum": true,
                "startTime": 1,
                "instrument": 9,
                "pitch": 42,
                "velocity": 100
            },
            {
                "endTime": 1.125,
                "isDrum": true,
                "startTime": 1,
                "instrument": 9,
                "pitch": 36,
                "velocity": 100
            },
            {
                "endTime": 1.375,
                "isDrum": true,
                "startTime": 1.25,
                "instrument": 9,
                "pitch": 42,
                "velocity": 100
            },
            {
                "endTime": 1.625,
                "isDrum": true,
                "startTime": 1.5,
                "instrument": 9,
                "pitch": 42,
                "velocity": 100
            },
            {
                "endTime": 1.625,
                "isDrum": true,
                "startTime": 1.5,
                "instrument": 9,
                "pitch": 38,
                "velocity": 100
            },
            {
                "endTime": 1.875,
                "isDrum": true,
                "startTime": 1.75,
                "instrument": 9,
                "pitch": 42,
                "velocity": 100
            },
            {
                "endTime": 1.875,
                "isDrum": true,
                "startTime": 1.75,
                "instrument": 9,
                "pitch": 36,
                "velocity": 100
            },
            {
                "endTime": 2.125,
                "isDrum": true,
                "startTime": 2,
                "instrument": 9,
                "pitch": 42,
                "velocity": 100
            },
            {
                "endTime": 2.125,
                "isDrum": true,
                "startTime": 2,
                "instrument": 9,
                "pitch": 36,
                "velocity": 100
            },
            {
                "endTime": 2.375,
                "isDrum": true,
                "startTime": 2.25,
                "instrument": 9,
                "pitch": 42,
                "velocity": 100
            },
            {
                "endTime": 2.625,
                "isDrum": true,
                "startTime": 2.5,
                "instrument": 9,
                "pitch": 50,
                "velocity": 100
            },
            {
                "endTime": 2.875,
                "isDrum": true,
                "startTime": 2.75,
                "instrument": 9,
                "pitch": 42,
                "velocity": 100
            },
            {
                "endTime": 2.875,
                "isDrum": true,
                "startTime": 2.75,
                "instrument": 9,
                "pitch": 50,
                "velocity": 100
            },
            {
                "endTime": 3.125,
                "isDrum": true,
                "startTime": 3,
                "instrument": 9,
                "pitch": 49,
                "velocity": 100
            },
            {
                "endTime": 3.125,
                "isDrum": true,
                "startTime": 3,
                "instrument": 9,
                "pitch": 42,
                "velocity": 100
            },
            {
                "endTime": 3.125,
                "isDrum": true,
                "startTime": 3,
                "instrument": 9,
                "pitch": 36,
                "velocity": 100
            },
            {
                "endTime": 3.375,
                "isDrum": true,
                "startTime": 3.25,
                "instrument": 9,
                "pitch": 42,
                "velocity": 100
            },
            {
                "endTime": 3.375,
                "isDrum": true,
                "startTime": 3.25,
                "instrument": 9,
                "pitch": 36,
                "velocity": 100
            },
            {
                "endTime": 3.625,
                "isDrum": true,
                "startTime": 3.5,
                "instrument": 9,
                "pitch": 42,
                "velocity": 100
            },
            {
                "endTime": 3.625,
                "isDrum": true,
                "startTime": 3.5,
                "instrument": 9,
                "pitch": 50,
                "velocity": 100
            },
            {
                "endTime": 3.875,
                "isDrum": true,
                "startTime": 3.75,
                "instrument": 9,
                "pitch": 42,
                "velocity": 100
            },
            {
                "endTime": 3.875,
                "isDrum": true,
                "startTime": 3.75,
                "instrument": 9,
                "pitch": 36,
                "velocity": 100
            }
        ],
        "totalTime": 3.875,
        "ticksPerQuarter": 220,
        "tempos": [
            {
                "qpm": 120
            }
        ]
    },
    {
        "notes": [
            {
                "endTime": 0.375,
                "isDrum": true,
                "startTime": 0.25,
                "instrument": 9,
                "pitch": 42,
                "velocity": 100
            },
            {
                "endTime": 0.625,
                "isDrum": true,
                "startTime": 0.5,
                "instrument": 9,
                "pitch": 42,
                "velocity": 100
            },
            {
                "endTime": 0.875,
                "isDrum": true,
                "startTime": 0.75,
                "instrument": 9,
                "pitch": 42,
                "velocity": 100
            },
            {
                "endTime": 0.875,
                "isDrum": true,
                "startTime": 0.75,
                "instrument": 9,
                "pitch": 36,
                "velocity": 100
            },
            {
                "endTime": 1.125,
                "isDrum": true,
                "startTime": 1,
                "instrument": 9,
                "pitch": 42,
                "velocity": 100
            },
            {
                "endTime": 1.125,
                "isDrum": true,
                "startTime": 1,
                "instrument": 9,
                "pitch": 36,
                "velocity": 100
            },
            {
                "endTime": 1.375,
                "isDrum": true,
                "startTime": 1.25,
                "instrument": 9,
                "pitch": 42,
                "velocity": 100
            },
            {
                "endTime": 1.625,
                "isDrum": true,
                "startTime": 1.5,
                "instrument": 9,
                "pitch": 50,
                "velocity": 100
            },
            {
                "endTime": 1.625,
                "isDrum": true,
                "startTime": 1.5,
                "instrument": 9,
                "pitch": 46,
                "velocity": 100
            },
            {
                "endTime": 1.875,
                "isDrum": true,
                "startTime": 1.75,
                "instrument": 9,
                "pitch": 42,
                "velocity": 100
            },
            {
                "endTime": 1.875,
                "isDrum": true,
                "startTime": 1.75,
                "instrument": 9,
                "pitch": 36,
                "velocity": 100
            },
            {
                "endTime": 2.125,
                "isDrum": true,
                "startTime": 2,
                "instrument": 9,
                "pitch": 49,
                "velocity": 100
            },
            {
                "endTime": 2.125,
                "isDrum": true,
                "startTime": 2,
                "instrument": 9,
                "pitch": 42,
                "velocity": 100
            },
            {
                "endTime": 2.125,
                "isDrum": true,
                "startTime": 2,
                "instrument": 9,
                "pitch": 36,
                "velocity": 100
            },
            {
                "endTime": 2.375,
                "isDrum": true,
                "startTime": 2.25,
                "instrument": 9,
                "pitch": 42,
                "velocity": 100
            },
            {
                "endTime": 2.625,
                "isDrum": true,
                "startTime": 2.5,
                "instrument": 9,
                "pitch": 42,
                "velocity": 100
            },
            {
                "endTime": 2.625,
                "isDrum": true,
                "startTime": 2.5,
                "instrument": 9,
                "pitch": 50,
                "velocity": 100
            },
            {
                "endTime": 2.875,
                "isDrum": true,
                "startTime": 2.75,
                "instrument": 9,
                "pitch": 42,
                "velocity": 100
            },
            {
                "endTime": 2.875,
                "isDrum": true,
                "startTime": 2.75,
                "instrument": 9,
                "pitch": 50,
                "velocity": 100
            },
            {
                "endTime": 3.125,
                "isDrum": true,
                "startTime": 3,
                "instrument": 9,
                "pitch": 42,
                "velocity": 100
            },
            {
                "endTime": 3.125,
                "isDrum": true,
                "startTime": 3,
                "instrument": 9,
                "pitch": 50,
                "velocity": 100
            },
            {
                "endTime": 3.375,
                "isDrum": true,
                "startTime": 3.25,
                "instrument": 9,
                "pitch": 42,
                "velocity": 100
            },
            {
                "endTime": 3.375,
                "isDrum": true,
                "startTime": 3.25,
                "instrument": 9,
                "pitch": 50,
                "velocity": 100
            },
            {
                "endTime": 3.625,
                "isDrum": true,
                "startTime": 3.5,
                "instrument": 9,
                "pitch": 42,
                "velocity": 100
            },
            {
                "endTime": 3.625,
                "isDrum": true,
                "startTime": 3.5,
                "instrument": 9,
                "pitch": 50,
                "velocity": 100
            },
            {
                "endTime": 3.875,
                "isDrum": true,
                "startTime": 3.75,
                "instrument": 9,
                "pitch": 42,
                "velocity": 100
            }
        ],
        "totalTime": 3.875,
        "ticksPerQuarter": 220,
        "tempos": [
            {
                "qpm": 120
            }
        ]
    },
    {
        "notes": [
            {
                "endTime": 0.375,
                "isDrum": true,
                "startTime": 0.25,
                "instrument": 9,
                "pitch": 42,
                "velocity": 100
            },
            {
                "endTime": 0.625,
                "isDrum": true,
                "startTime": 0.5,
                "instrument": 9,
                "pitch": 42,
                "velocity": 100
            },
            {
                "endTime": 0.875,
                "isDrum": true,
                "startTime": 0.75,
                "instrument": 9,
                "pitch": 42,
                "velocity": 100
            },
            {
                "endTime": 0.875,
                "isDrum": true,
                "startTime": 0.75,
                "instrument": 9,
                "pitch": 36,
                "velocity": 100
            },
            {
                "endTime": 0.875,
                "isDrum": true,
                "startTime": 0.75,
                "instrument": 9,
                "pitch": 50,
                "velocity": 100
            },
            {
                "endTime": 1.125,
                "isDrum": true,
                "startTime": 1,
                "instrument": 9,
                "pitch": 42,
                "velocity": 100
            },
            {
                "endTime": 1.125,
                "isDrum": true,
                "startTime": 1,
                "instrument": 9,
                "pitch": 36,
                "velocity": 100
            },
            {
                "endTime": 1.375,
                "isDrum": true,
                "startTime": 1.25,
                "instrument": 9,
                "pitch": 42,
                "velocity": 100
            },
            {
                "endTime": 1.625,
                "isDrum": true,
                "startTime": 1.5,
                "instrument": 9,
                "pitch": 50,
                "velocity": 100
            },
            {
                "endTime": 1.625,
                "isDrum": true,
                "startTime": 1.5,
                "instrument": 9,
                "pitch": 46,
                "velocity": 100
            },
            {
                "endTime": 1.875,
                "isDrum": true,
                "startTime": 1.75,
                "instrument": 9,
                "pitch": 42,
                "velocity": 100
            },
            {
                "endTime": 1.875,
                "isDrum": true,
                "startTime": 1.75,
                "instrument": 9,
                "pitch": 36,
                "velocity": 100
            },
            {
                "endTime": 2.125,
                "isDrum": true,
                "startTime": 2,
                "instrument": 9,
                "pitch": 49,
                "velocity": 100
            },
            {
                "endTime": 2.125,
                "isDrum": true,
                "startTime": 2,
                "instrument": 9,
                "pitch": 42,
                "velocity": 100
            },
            {
                "endTime": 2.125,
                "isDrum": true,
                "startTime": 2,
                "instrument": 9,
                "pitch": 36,
                "velocity": 100
            },
            {
                "endTime": 2.375,
                "isDrum": true,
                "startTime": 2.25,
                "instrument": 9,
                "pitch": 42,
                "velocity": 100
            },
            {
                "endTime": 2.625,
                "isDrum": true,
                "startTime": 2.5,
                "instrument": 9,
                "pitch": 50,
                "velocity": 100
            },
            {
                "endTime": 2.875,
                "isDrum": true,
                "startTime": 2.75,
                "instrument": 9,
                "pitch": 42,
                "velocity": 100
            },
            {
                "endTime": 2.875,
                "isDrum": true,
                "startTime": 2.75,
                "instrument": 9,
                "pitch": 50,
                "velocity": 100
            },
            {
                "endTime": 3.125,
                "isDrum": true,
                "startTime": 3,
                "instrument": 9,
                "pitch": 42,
                "velocity": 100
            },
            {
                "endTime": 3.125,
                "isDrum": true,
                "startTime": 3,
                "instrument": 9,
                "pitch": 36,
                "velocity": 100
            },
            {
                "endTime": 3.375,
                "isDrum": true,
                "startTime": 3.25,
                "instrument": 9,
                "pitch": 42,
                "velocity": 100
            },
            {
                "endTime": 3.375,
                "isDrum": true,
                "startTime": 3.25,
                "instrument": 9,
                "pitch": 50,
                "velocity": 100
            },
            {
                "endTime": 3.625,
                "isDrum": true,
                "startTime": 3.5,
                "instrument": 9,
                "pitch": 42,
                "velocity": 100
            },
            {
                "endTime": 3.625,
                "isDrum": true,
                "startTime": 3.5,
                "instrument": 9,
                "pitch": 50,
                "velocity": 100
            },
            {
                "endTime": 3.875,
                "isDrum": true,
                "startTime": 3.75,
                "instrument": 9,
                "pitch": 42,
                "velocity": 100
            }
        ],
        "totalTime": 3.875,
        "ticksPerQuarter": 220,
        "tempos": [
            {
                "qpm": 120
            }
        ]
    },
    {
        "notes": [
            {
                "velocity": 100,
                "isDrum": true,
                "instrument": 9,
                "pitch": 42,
                "endTime": 0.125
            },
            {
                "velocity": 100,
                "isDrum": true,
                "instrument": 9,
                "pitch": 50,
                "endTime": 0.125
            },
            {
                "velocity": 100,
                "isDrum": true,
                "instrument": 9,
                "pitch": 38,
                "endTime": 0.125
            },
            {
                "endTime": 0.375,
                "isDrum": true,
                "startTime": 0.25,
                "instrument": 9,
                "pitch": 42,
                "velocity": 100
            },
            {
                "endTime": 0.625,
                "isDrum": true,
                "startTime": 0.5,
                "instrument": 9,
                "pitch": 42,
                "velocity": 100
            },
            {
                "endTime": 0.875,
                "isDrum": true,
                "startTime": 0.75,
                "instrument": 9,
                "pitch": 42,
                "velocity": 100
            },
            {
                "endTime": 0.875,
                "isDrum": true,
                "startTime": 0.75,
                "instrument": 9,
                "pitch": 36,
                "velocity": 100
            },
            {
                "endTime": 0.875,
                "isDrum": true,
                "startTime": 0.75,
                "instrument": 9,
                "pitch": 50,
                "velocity": 100
            },
            {
                "endTime": 1.125,
                "isDrum": true,
                "startTime": 1,
                "instrument": 9,
                "pitch": 42,
                "velocity": 100
            },
            {
                "endTime": 1.125,
                "isDrum": true,
                "startTime": 1,
                "instrument": 9,
                "pitch": 36,
                "velocity": 100
            },
            {
                "endTime": 1.375,
                "isDrum": true,
                "startTime": 1.25,
                "instrument": 9,
                "pitch": 42,
                "velocity": 100
            },
            {
                "endTime": 1.375,
                "isDrum": true,
                "startTime": 1.25,
                "instrument": 9,
                "pitch": 50,
                "velocity": 100
            },
            {
                "endTime": 1.625,
                "isDrum": true,
                "startTime": 1.5,
                "instrument": 9,
                "pitch": 50,
                "velocity": 100
            },
            {
                "endTime": 1.625,
                "isDrum": true,
                "startTime": 1.5,
                "instrument": 9,
                "pitch": 46,
                "velocity": 100
            },
            {
                "endTime": 1.875,
                "isDrum": true,
                "startTime": 1.75,
                "instrument": 9,
                "pitch": 42,
                "velocity": 100
            },
            {
                "endTime": 1.875,
                "isDrum": true,
                "startTime": 1.75,
                "instrument": 9,
                "pitch": 50,
                "velocity": 100
            },
            {
                "endTime": 2.125,
                "isDrum": true,
                "startTime": 2,
                "instrument": 9,
                "pitch": 49,
                "velocity": 100
            },
            {
                "endTime": 2.125,
                "isDrum": true,
                "startTime": 2,
                "instrument": 9,
                "pitch": 42,
                "velocity": 100
            },
            {
                "endTime": 2.125,
                "isDrum": true,
                "startTime": 2,
                "instrument": 9,
                "pitch": 36,
                "velocity": 100
            },
            {
                "endTime": 2.375,
                "isDrum": true,
                "startTime": 2.25,
                "instrument": 9,
                "pitch": 42,
                "velocity": 100
            },
            {
                "endTime": 2.625,
                "isDrum": true,
                "startTime": 2.5,
                "instrument": 9,
                "pitch": 42,
                "velocity": 100
            },
            {
                "endTime": 2.625,
                "isDrum": true,
                "startTime": 2.5,
                "instrument": 9,
                "pitch": 50,
                "velocity": 100
            },
            {
                "endTime": 2.875,
                "isDrum": true,
                "startTime": 2.75,
                "instrument": 9,
                "pitch": 42,
                "velocity": 100
            },
            {
                "endTime": 2.875,
                "isDrum": true,
                "startTime": 2.75,
                "instrument": 9,
                "pitch": 50,
                "velocity": 100
            },
            {
                "endTime": 3.125,
                "isDrum": true,
                "startTime": 3,
                "instrument": 9,
                "pitch": 42,
                "velocity": 100
            },
            {
                "endTime": 3.125,
                "isDrum": true,
                "startTime": 3,
                "instrument": 9,
                "pitch": 50,
                "velocity": 100
            },
            {
                "endTime": 3.375,
                "isDrum": true,
                "startTime": 3.25,
                "instrument": 9,
                "pitch": 42,
                "velocity": 100
            },
            {
                "endTime": 3.375,
                "isDrum": true,
                "startTime": 3.25,
                "instrument": 9,
                "pitch": 50,
                "velocity": 100
            },
            {
                "endTime": 3.625,
                "isDrum": true,
                "startTime": 3.5,
                "instrument": 9,
                "pitch": 42,
                "velocity": 100
            },
            {
                "endTime": 3.625,
                "isDrum": true,
                "startTime": 3.5,
                "instrument": 9,
                "pitch": 50,
                "velocity": 100
            },
            {
                "endTime": 3.875,
                "isDrum": true,
                "startTime": 3.75,
                "instrument": 9,
                "pitch": 42,
                "velocity": 100
            }
        ],
        "totalTime": 3.875,
        "ticksPerQuarter": 220,
        "tempos": [
            {
                "qpm": 120
            }
        ]
    },
    {
        "notes": [
            {
                "velocity": 100,
                "isDrum": true,
                "instrument": 9,
                "pitch": 42,
                "endTime": 0.125
            },
            {
                "velocity": 100,
                "isDrum": true,
                "instrument": 9,
                "pitch": 50,
                "endTime": 0.125
            },
            {
                "velocity": 100,
                "isDrum": true,
                "instrument": 9,
                "pitch": 38,
                "endTime": 0.125
            },
            {
                "endTime": 0.375,
                "isDrum": true,
                "startTime": 0.25,
                "instrument": 9,
                "pitch": 42,
                "velocity": 100
            },
            {
                "endTime": 0.625,
                "isDrum": true,
                "startTime": 0.5,
                "instrument": 9,
                "pitch": 42,
                "velocity": 100
            },
            {
                "endTime": 0.625,
                "isDrum": true,
                "startTime": 0.5,
                "instrument": 9,
                "pitch": 50,
                "velocity": 100
            },
            {
                "endTime": 0.875,
                "isDrum": true,
                "startTime": 0.75,
                "instrument": 9,
                "pitch": 42,
                "velocity": 100
            },
            {
                "endTime": 0.875,
                "isDrum": true,
                "startTime": 0.75,
                "instrument": 9,
                "pitch": 36,
                "velocity": 100
            },
            {
                "endTime": 0.875,
                "isDrum": true,
                "startTime": 0.75,
                "instrument": 9,
                "pitch": 50,
                "velocity": 100
            },
            {
                "endTime": 1.125,
                "isDrum": true,
                "startTime": 1,
                "instrument": 9,
                "pitch": 42,
                "velocity": 100
            },
            {
                "endTime": 1.125,
                "isDrum": true,
                "startTime": 1,
                "instrument": 9,
                "pitch": 36,
                "velocity": 100
            },
            {
                "endTime": 1.125,
                "isDrum": true,
                "startTime": 1,
                "instrument": 9,
                "pitch": 50,
                "velocity": 100
            },
            {
                "endTime": 1.375,
                "isDrum": true,
                "startTime": 1.25,
                "instrument": 9,
                "pitch": 42,
                "velocity": 100
            },
            {
                "endTime": 1.375,
                "isDrum": true,
                "startTime": 1.25,
                "instrument": 9,
                "pitch": 50,
                "velocity": 100
            },
            {
                "endTime": 1.625,
                "isDrum": true,
                "startTime": 1.5,
                "instrument": 9,
                "pitch": 50,
                "velocity": 100
            },
            {
                "endTime": 1.625,
                "isDrum": true,
                "startTime": 1.5,
                "instrument": 9,
                "pitch": 46,
                "velocity": 100
            },
            {
                "endTime": 2.125,
                "isDrum": true,
                "startTime": 2,
                "instrument": 9,
                "pitch": 49,
                "velocity": 100
            },
            {
                "endTime": 2.125,
                "isDrum": true,
                "startTime": 2,
                "instrument": 9,
                "pitch": 42,
                "velocity": 100
            },
            {
                "endTime": 2.125,
                "isDrum": true,
                "startTime": 2,
                "instrument": 9,
                "pitch": 36,
                "velocity": 100
            },
            {
                "endTime": 2.375,
                "isDrum": true,
                "startTime": 2.25,
                "instrument": 9,
                "pitch": 42,
                "velocity": 100
            },
            {
                "endTime": 2.625,
                "isDrum": true,
                "startTime": 2.5,
                "instrument": 9,
                "pitch": 42,
                "velocity": 100
            },
            {
                "endTime": 2.625,
                "isDrum": true,
                "startTime": 2.5,
                "instrument": 9,
                "pitch": 50,
                "velocity": 100
            },
            {
                "endTime": 2.875,
                "isDrum": true,
                "startTime": 2.75,
                "instrument": 9,
                "pitch": 50,
                "velocity": 100
            },
            {
                "endTime": 3.125,
                "isDrum": true,
                "startTime": 3,
                "instrument": 9,
                "pitch": 42,
                "velocity": 100
            },
            {
                "endTime": 3.125,
                "isDrum": true,
                "startTime": 3,
                "instrument": 9,
                "pitch": 50,
                "velocity": 100
            },
            {
                "endTime": 3.375,
                "isDrum": true,
                "startTime": 3.25,
                "instrument": 9,
                "pitch": 42,
                "velocity": 100
            },
            {
                "endTime": 3.375,
                "isDrum": true,
                "startTime": 3.25,
                "instrument": 9,
                "pitch": 50,
                "velocity": 100
            },
            {
                "endTime": 3.625,
                "isDrum": true,
                "startTime": 3.5,
                "instrument": 9,
                "pitch": 42,
                "velocity": 100
            },
            {
                "endTime": 3.625,
                "isDrum": true,
                "startTime": 3.5,
                "instrument": 9,
                "pitch": 50,
                "velocity": 100
            },
            {
                "endTime": 3.875,
                "isDrum": true,
                "startTime": 3.75,
                "instrument": 9,
                "pitch": 42,
                "velocity": 100
            }
        ],
        "totalTime": 3.875,
        "ticksPerQuarter": 220,
        "tempos": [
            {
                "qpm": 120
            }
        ]
    },
    {
        "notes": [
            {
                "velocity": 100,
                "isDrum": true,
                "instrument": 9,
                "pitch": 42,
                "endTime": 0.125
            },
            {
                "velocity": 100,
                "isDrum": true,
                "instrument": 9,
                "pitch": 50,
                "endTime": 0.125
            },
            {
                "velocity": 100,
                "isDrum": true,
                "instrument": 9,
                "pitch": 38,
                "endTime": 0.125
            },
            {
                "endTime": 0.375,
                "isDrum": true,
                "startTime": 0.25,
                "instrument": 9,
                "pitch": 42,
                "velocity": 100
            },
            {
                "endTime": 0.625,
                "isDrum": true,
                "startTime": 0.5,
                "instrument": 9,
                "pitch": 42,
                "velocity": 100
            },
            {
                "endTime": 0.625,
                "isDrum": true,
                "startTime": 0.5,
                "instrument": 9,
                "pitch": 50,
                "velocity": 100
            },
            {
                "endTime": 0.875,
                "isDrum": true,
                "startTime": 0.75,
                "instrument": 9,
                "pitch": 42,
                "velocity": 100
            },
            {
                "endTime": 0.875,
                "isDrum": true,
                "startTime": 0.75,
                "instrument": 9,
                "pitch": 36,
                "velocity": 100
            },
            {
                "endTime": 0.875,
                "isDrum": true,
                "startTime": 0.75,
                "instrument": 9,
                "pitch": 50,
                "velocity": 100
            },
            {
                "endTime": 1.125,
                "isDrum": true,
                "startTime": 1,
                "instrument": 9,
                "pitch": 42,
                "velocity": 100
            },
            {
                "endTime": 1.125,
                "isDrum": true,
                "startTime": 1,
                "instrument": 9,
                "pitch": 36,
                "velocity": 100
            },
            {
                "endTime": 1.125,
                "isDrum": true,
                "startTime": 1,
                "instrument": 9,
                "pitch": 50,
                "velocity": 100
            },
            {
                "endTime": 1.375,
                "isDrum": true,
                "startTime": 1.25,
                "instrument": 9,
                "pitch": 42,
                "velocity": 100
            },
            {
                "endTime": 1.375,
                "isDrum": true,
                "startTime": 1.25,
                "instrument": 9,
                "pitch": 50,
                "velocity": 100
            },
            {
                "endTime": 1.625,
                "isDrum": true,
                "startTime": 1.5,
                "instrument": 9,
                "pitch": 50,
                "velocity": 100
            },
            {
                "endTime": 1.875,
                "isDrum": true,
                "startTime": 1.75,
                "instrument": 9,
                "pitch": 50,
                "velocity": 100
            },
            {
                "endTime": 2.125,
                "isDrum": true,
                "startTime": 2,
                "instrument": 9,
                "pitch": 49,
                "velocity": 100
            },
            {
                "endTime": 2.125,
                "isDrum": true,
                "startTime": 2,
                "instrument": 9,
                "pitch": 42,
                "velocity": 100
            },
            {
                "endTime": 2.125,
                "isDrum": true,
                "startTime": 2,
                "instrument": 9,
                "pitch": 36,
                "velocity": 100
            },
            {
                "endTime": 2.375,
                "isDrum": true,
                "startTime": 2.25,
                "instrument": 9,
                "pitch": 42,
                "velocity": 100
            },
            {
                "endTime": 2.625,
                "isDrum": true,
                "startTime": 2.5,
                "instrument": 9,
                "pitch": 42,
                "velocity": 100
            },
            {
                "endTime": 2.625,
                "isDrum": true,
                "startTime": 2.5,
                "instrument": 9,
                "pitch": 50,
                "velocity": 100
            },
            {
                "endTime": 2.875,
                "isDrum": true,
                "startTime": 2.75,
                "instrument": 9,
                "pitch": 50,
                "velocity": 100
            },
            {
                "endTime": 3.125,
                "isDrum": true,
                "startTime": 3,
                "instrument": 9,
                "pitch": 48,
                "velocity": 100
            },
            {
                "endTime": 3.125,
                "isDrum": true,
                "startTime": 3,
                "instrument": 9,
                "pitch": 42,
                "velocity": 100
            },
            {
                "endTime": 3.125,
                "isDrum": true,
                "startTime": 3,
                "instrument": 9,
                "pitch": 36,
                "velocity": 100
            },
            {
                "endTime": 3.125,
                "isDrum": true,
                "startTime": 3,
                "instrument": 9,
                "pitch": 50,
                "velocity": 100
            },
            {
                "endTime": 3.375,
                "isDrum": true,
                "startTime": 3.25,
                "instrument": 9,
                "pitch": 42,
                "velocity": 100
            },
            {
                "endTime": 3.375,
                "isDrum": true,
                "startTime": 3.25,
                "instrument": 9,
                "pitch": 50,
                "velocity": 100
            },
            {
                "endTime": 3.625,
                "isDrum": true,
                "startTime": 3.5,
                "instrument": 9,
                "pitch": 50,
                "velocity": 100
            },
            {
                "endTime": 3.875,
                "isDrum": true,
                "startTime": 3.75,
                "instrument": 9,
                "pitch": 42,
                "velocity": 100
            }
        ],
        "totalTime": 3.875,
        "ticksPerQuarter": 220,
        "tempos": [
            {
                "qpm": 120
            }
        ]
    },
    {
        "notes": [
            {
                "velocity": 100,
                "isDrum": true,
                "instrument": 9,
                "pitch": 42,
                "endTime": 0.125
            },
            {
                "velocity": 100,
                "isDrum": true,
                "instrument": 9,
                "pitch": 50,
                "endTime": 0.125
            },
            {
                "velocity": 100,
                "isDrum": true,
                "instrument": 9,
                "pitch": 38,
                "endTime": 0.125
            },
            {
                "endTime": 0.375,
                "isDrum": true,
                "startTime": 0.25,
                "instrument": 9,
                "pitch": 42,
                "velocity": 100
            },
            {
                "endTime": 0.5,
                "isDrum": true,
                "startTime": 0.375,
                "instrument": 9,
                "pitch": 42,
                "velocity": 100
            },
            {
                "endTime": 0.625,
                "isDrum": true,
                "startTime": 0.5,
                "instrument": 9,
                "pitch": 42,
                "velocity": 100
            },
            {
                "endTime": 0.625,
                "isDrum": true,
                "startTime": 0.5,
                "instrument": 9,
                "pitch": 50,
                "velocity": 100
            },
            {
                "endTime": 0.875,
                "isDrum": true,
                "startTime": 0.75,
                "instrument": 9,
                "pitch": 42,
                "velocity": 100
            },
            {
                "endTime": 0.875,
                "isDrum": true,
                "startTime": 0.75,
                "instrument": 9,
                "pitch": 36,
                "velocity": 100
            },
            {
                "endTime": 0.875,
                "isDrum": true,
                "startTime": 0.75,
                "instrument": 9,
                "pitch": 38,
                "velocity": 100
            },
            {
                "endTime": 1.125,
                "isDrum": true,
                "startTime": 1,
                "instrument": 9,
                "pitch": 42,
                "velocity": 100
            },
            {
                "endTime": 1.125,
                "isDrum": true,
                "startTime": 1,
                "instrument": 9,
                "pitch": 36,
                "velocity": 100
            },
            {
                "endTime": 1.125,
                "isDrum": true,
                "startTime": 1,
                "instrument": 9,
                "pitch": 50,
                "velocity": 100
            },
            {
                "endTime": 1.375,
                "isDrum": true,
                "startTime": 1.25,
                "instrument": 9,
                "pitch": 42,
                "velocity": 100
            },
            {
                "endTime": 1.375,
                "isDrum": true,
                "startTime": 1.25,
                "instrument": 9,
                "pitch": 50,
                "velocity": 100
            },
            {
                "endTime": 1.625,
                "isDrum": true,
                "startTime": 1.5,
                "instrument": 9,
                "pitch": 50,
                "velocity": 100
            },
            {
                "endTime": 1.875,
                "isDrum": true,
                "startTime": 1.75,
                "instrument": 9,
                "pitch": 50,
                "velocity": 100
            },
            {
                "endTime": 2.125,
                "isDrum": true,
                "startTime": 2,
                "instrument": 9,
                "pitch": 49,
                "velocity": 100
            },
            {
                "endTime": 2.125,
                "isDrum": true,
                "startTime": 2,
                "instrument": 9,
                "pitch": 42,
                "velocity": 100
            },
            {
                "endTime": 2.125,
                "isDrum": true,
                "startTime": 2,
                "instrument": 9,
                "pitch": 36,
                "velocity": 100
            },
            {
                "endTime": 2.125,
                "isDrum": true,
                "startTime": 2,
                "instrument": 9,
                "pitch": 46,
                "velocity": 100
            },
            {
                "endTime": 2.375,
                "isDrum": true,
                "startTime": 2.25,
                "instrument": 9,
                "pitch": 42,
                "velocity": 100
            },
            {
                "endTime": 2.625,
                "isDrum": true,
                "startTime": 2.5,
                "instrument": 9,
                "pitch": 42,
                "velocity": 100
            },
            {
                "endTime": 2.625,
                "isDrum": true,
                "startTime": 2.5,
                "instrument": 9,
                "pitch": 50,
                "velocity": 100
            },
            {
                "endTime": 2.875,
                "isDrum": true,
                "startTime": 2.75,
                "instrument": 9,
                "pitch": 48,
                "velocity": 100
            },
            {
                "endTime": 3.125,
                "isDrum": true,
                "startTime": 3,
                "instrument": 9,
                "pitch": 42,
                "velocity": 100
            },
            {
                "endTime": 3.125,
                "isDrum": true,
                "startTime": 3,
                "instrument": 9,
                "pitch": 50,
                "velocity": 100
            },
            {
                "endTime": 3.375,
                "isDrum": true,
                "startTime": 3.25,
                "instrument": 9,
                "pitch": 42,
                "velocity": 100
            },
            {
                "endTime": 3.375,
                "isDrum": true,
                "startTime": 3.25,
                "instrument": 9,
                "pitch": 50,
                "velocity": 100
            },
            {
                "endTime": 3.625,
                "isDrum": true,
                "startTime": 3.5,
                "instrument": 9,
                "pitch": 42,
                "velocity": 100
            },
            {
                "endTime": 3.875,
                "isDrum": true,
                "startTime": 3.75,
                "instrument": 9,
                "pitch": 42,
                "velocity": 100
            },
            {
                "endTime": 3.875,
                "isDrum": true,
                "startTime": 3.75,
                "instrument": 9,
                "pitch": 50,
                "velocity": 100
            }
        ],
        "totalTime": 3.875,
        "ticksPerQuarter": 220,
        "tempos": [
            {
                "qpm": 120
            }
        ]
    },
    {
        "notes": [
            {
                "velocity": 100,
                "isDrum": true,
                "instrument": 9,
                "pitch": 42,
                "endTime": 0.125
            },
            {
                "velocity": 100,
                "isDrum": true,
                "instrument": 9,
                "pitch": 36,
                "endTime": 0.125
            },
            {
                "velocity": 100,
                "isDrum": true,
                "instrument": 9,
                "pitch": 46,
                "endTime": 0.125
            },
            {
                "endTime": 0.5,
                "isDrum": true,
                "startTime": 0.375,
                "instrument": 9,
                "pitch": 42,
                "velocity": 100
            },
            {
                "endTime": 0.625,
                "isDrum": true,
                "startTime": 0.5,
                "instrument": 9,
                "pitch": 42,
                "velocity": 100
            },
            {
                "endTime": 0.625,
                "isDrum": true,
                "startTime": 0.5,
                "instrument": 9,
                "pitch": 50,
                "velocity": 100
            },
            {
                "endTime": 0.875,
                "isDrum": true,
                "startTime": 0.75,
                "instrument": 9,
                "pitch": 42,
                "velocity": 100
            },
            {
                "endTime": 0.875,
                "isDrum": true,
                "startTime": 0.75,
                "instrument": 9,
                "pitch": 36,
                "velocity": 100
            },
            {
                "endTime": 0.875,
                "isDrum": true,
                "startTime": 0.75,
                "instrument": 9,
                "pitch": 50,
                "velocity": 100
            },
            {
                "endTime": 0.875,
                "isDrum": true,
                "startTime": 0.75,
                "instrument": 9,
                "pitch": 38,
                "velocity": 100
            },
            {
                "endTime": 1.125,
                "isDrum": true,
                "startTime": 1,
                "instrument": 9,
                "pitch": 42,
                "velocity": 100
            },
            {
                "endTime": 1.125,
                "isDrum": true,
                "startTime": 1,
                "instrument": 9,
                "pitch": 36,
                "velocity": 100
            },
            {
                "endTime": 1.125,
                "isDrum": true,
                "startTime": 1,
                "instrument": 9,
                "pitch": 50,
                "velocity": 100
            },
            {
                "endTime": 1.375,
                "isDrum": true,
                "startTime": 1.25,
                "instrument": 9,
                "pitch": 50,
                "velocity": 100
            },
            {
                "endTime": 1.625,
                "isDrum": true,
                "startTime": 1.5,
                "instrument": 9,
                "pitch": 42,
                "velocity": 100
            },
            {
                "endTime": 1.625,
                "isDrum": true,
                "startTime": 1.5,
                "instrument": 9,
                "pitch": 36,
                "velocity": 100
            },
            {
                "endTime": 1.625,
                "isDrum": true,
                "startTime": 1.5,
                "instrument": 9,
                "pitch": 50,
                "velocity": 100
            },
            {
                "endTime": 1.625,
                "isDrum": true,
                "startTime": 1.5,
                "instrument": 9,
                "pitch": 38,
                "velocity": 100
            },
            {
                "endTime": 1.875,
                "isDrum": true,
                "startTime": 1.75,
                "instrument": 9,
                "pitch": 50,
                "velocity": 100
            },
            {
                "endTime": 2.125,
                "isDrum": true,
                "startTime": 2,
                "instrument": 9,
                "pitch": 49,
                "velocity": 100
            },
            {
                "endTime": 2.125,
                "isDrum": true,
                "startTime": 2,
                "instrument": 9,
                "pitch": 42,
                "velocity": 100
            },
            {
                "endTime": 2.125,
                "isDrum": true,
                "startTime": 2,
                "instrument": 9,
                "pitch": 36,
                "velocity": 100
            },
            {
                "endTime": 2.125,
                "isDrum": true,
                "startTime": 2,
                "instrument": 9,
                "pitch": 50,
                "velocity": 100
            },
            {
                "endTime": 2.125,
                "isDrum": true,
                "startTime": 2,
                "instrument": 9,
                "pitch": 38,
                "velocity": 100
            },
            {
                "endTime": 2.375,
                "isDrum": true,
                "startTime": 2.25,
                "instrument": 9,
                "pitch": 42,
                "velocity": 100
            },
            {
                "endTime": 2.625,
                "isDrum": true,
                "startTime": 2.5,
                "instrument": 9,
                "pitch": 42,
                "velocity": 100
            },
            {
                "endTime": 2.625,
                "isDrum": true,
                "startTime": 2.5,
                "instrument": 9,
                "pitch": 50,
                "velocity": 100
            },
            {
                "endTime": 2.875,
                "isDrum": true,
                "startTime": 2.75,
                "instrument": 9,
                "pitch": 48,
                "velocity": 100
            },
            {
                "endTime": 3.125,
                "isDrum": true,
                "startTime": 3,
                "instrument": 9,
                "pitch": 42,
                "velocity": 100
            },
            {
                "endTime": 3.125,
                "isDrum": true,
                "startTime": 3,
                "instrument": 9,
                "pitch": 36,
                "velocity": 100
            },
            {
                "endTime": 3.125,
                "isDrum": true,
                "startTime": 3,
                "instrument": 9,
                "pitch": 50,
                "velocity": 100
            },
            {
                "endTime": 3.125,
                "isDrum": true,
                "startTime": 3,
                "instrument": 9,
                "pitch": 38,
                "velocity": 100
            },
            {
                "endTime": 3.375,
                "isDrum": true,
                "startTime": 3.25,
                "instrument": 9,
                "pitch": 42,
                "velocity": 100
            },
            {
                "endTime": 3.375,
                "isDrum": true,
                "startTime": 3.25,
                "instrument": 9,
                "pitch": 50,
                "velocity": 100
            },
            {
                "endTime": 3.625,
                "isDrum": true,
                "startTime": 3.5,
                "instrument": 9,
                "pitch": 50,
                "velocity": 100
            },
            {
                "endTime": 3.875,
                "isDrum": true,
                "startTime": 3.75,
                "instrument": 9,
                "pitch": 42,
                "velocity": 100
            },
            {
                "endTime": 3.875,
                "isDrum": true,
                "startTime": 3.75,
                "instrument": 9,
                "pitch": 50,
                "velocity": 100
            }
        ],
        "totalTime": 3.875,
        "ticksPerQuarter": 220,
        "tempos": [
            {
                "qpm": 120
            }
        ]
    },
    {
        "notes": [
            {
                "velocity": 100,
                "isDrum": true,
                "instrument": 9,
                "pitch": 36,
                "endTime": 0.125
            },
            {
                "endTime": 0.375,
                "isDrum": true,
                "startTime": 0.25,
                "instrument": 9,
                "pitch": 42,
                "velocity": 100
            },
            {
                "endTime": 0.625,
                "isDrum": true,
                "startTime": 0.5,
                "instrument": 9,
                "pitch": 42,
                "velocity": 100
            },
            {
                "endTime": 0.875,
                "isDrum": true,
                "startTime": 0.75,
                "instrument": 9,
                "pitch": 42,
                "velocity": 100
            },
            {
                "endTime": 0.875,
                "isDrum": true,
                "startTime": 0.75,
                "instrument": 9,
                "pitch": 36,
                "velocity": 100
            },
            {
                "endTime": 1.125,
                "isDrum": true,
                "startTime": 1,
                "instrument": 9,
                "pitch": 42,
                "velocity": 100
            },
            {
                "endTime": 1.125,
                "isDrum": true,
                "startTime": 1,
                "instrument": 9,
                "pitch": 36,
                "velocity": 100
            },
            {
                "endTime": 1.375,
                "isDrum": true,
                "startTime": 1.25,
                "instrument": 9,
                "pitch": 42,
                "velocity": 100
            },
            {
                "endTime": 1.625,
                "isDrum": true,
                "startTime": 1.5,
                "instrument": 9,
                "pitch": 42,
                "velocity": 100
            },
            {
                "endTime": 1.625,
                "isDrum": true,
                "startTime": 1.5,
                "instrument": 9,
                "pitch": 38,
                "velocity": 100
            },
            {
                "endTime": 1.875,
                "isDrum": true,
                "startTime": 1.75,
                "instrument": 9,
                "pitch": 42,
                "velocity": 100
            },
            {
                "endTime": 1.875,
                "isDrum": true,
                "startTime": 1.75,
                "instrument": 9,
                "pitch": 36,
                "velocity": 100
            },
            {
                "endTime": 2.125,
                "isDrum": true,
                "startTime": 2,
                "instrument": 9,
                "pitch": 42,
                "velocity": 100
            },
            {
                "endTime": 2.125,
                "isDrum": true,
                "startTime": 2,
                "instrument": 9,
                "pitch": 36,
                "velocity": 100
            },
            {
                "endTime": 2.375,
                "isDrum": true,
                "startTime": 2.25,
                "instrument": 9,
                "pitch": 42,
                "velocity": 100
            },
            {
                "endTime": 2.625,
                "isDrum": true,
                "startTime": 2.5,
                "instrument": 9,
                "pitch": 42,
                "velocity": 100
            },
            {
                "endTime": 2.625,
                "isDrum": true,
                "startTime": 2.5,
                "instrument": 9,
                "pitch": 38,
                "velocity": 100
            },
            {
                "endTime": 2.875,
                "isDrum": true,
                "startTime": 2.75,
                "instrument": 9,
                "pitch": 42,
                "velocity": 100
            },
            {
                "endTime": 3.125,
                "isDrum": true,
                "startTime": 3,
                "instrument": 9,
                "pitch": 36,
                "velocity": 100
            },
            {
                "endTime": 3.375,
                "isDrum": true,
                "startTime": 3.25,
                "instrument": 9,
                "pitch": 42,
                "velocity": 100
            },
            {
                "endTime": 3.375,
                "isDrum": true,
                "startTime": 3.25,
                "instrument": 9,
                "pitch": 36,
                "velocity": 100
            },
            {
                "endTime": 3.625,
                "isDrum": true,
                "startTime": 3.5,
                "instrument": 9,
                "pitch": 42,
                "velocity": 100
            },
            {
                "endTime": 3.625,
                "isDrum": true,
                "startTime": 3.5,
                "instrument": 9,
                "pitch": 36,
                "velocity": 100
            },
            {
                "endTime": 3.875,
                "isDrum": true,
                "startTime": 3.75,
                "instrument": 9,
                "pitch": 42,
                "velocity": 100
            },
            {
                "endTime": 3.875,
                "isDrum": true,
                "startTime": 3.75,
                "instrument": 9,
                "pitch": 36,
                "velocity": 100
            }
        ],
        "totalTime": 3.875,
        "ticksPerQuarter": 220,
        "tempos": [
            {
                "qpm": 120
            }
        ]
    },
    {
        "notes": [
            {
                "velocity": 100,
                "isDrum": true,
                "instrument": 9,
                "pitch": 36,
                "endTime": 0.125
            },
            {
                "endTime": 0.375,
                "isDrum": true,
                "startTime": 0.25,
                "instrument": 9,
                "pitch": 42,
                "velocity": 100
            },
            {
                "endTime": 0.625,
                "isDrum": true,
                "startTime": 0.5,
                "instrument": 9,
                "pitch": 42,
                "velocity": 100
            },
            {
                "endTime": 0.875,
                "isDrum": true,
                "startTime": 0.75,
                "instrument": 9,
                "pitch": 42,
                "velocity": 100
            },
            {
                "endTime": 0.875,
                "isDrum": true,
                "startTime": 0.75,
                "instrument": 9,
                "pitch": 36,
                "velocity": 100
            },
            {
                "endTime": 1.125,
                "isDrum": true,
                "startTime": 1,
                "instrument": 9,
                "pitch": 42,
                "velocity": 100
            },
            {
                "endTime": 1.125,
                "isDrum": true,
                "startTime": 1,
                "instrument": 9,
                "pitch": 36,
                "velocity": 100
            },
            {
                "endTime": 1.375,
                "isDrum": true,
                "startTime": 1.25,
                "instrument": 9,
                "pitch": 42,
                "velocity": 100
            },
            {
                "endTime": 1.625,
                "isDrum": true,
                "startTime": 1.5,
                "instrument": 9,
                "pitch": 42,
                "velocity": 100
            },
            {
                "endTime": 1.625,
                "isDrum": true,
                "startTime": 1.5,
                "instrument": 9,
                "pitch": 38,
                "velocity": 100
            },
            {
                "endTime": 1.875,
                "isDrum": true,
                "startTime": 1.75,
                "instrument": 9,
                "pitch": 42,
                "velocity": 100
            },
            {
                "endTime": 1.875,
                "isDrum": true,
                "startTime": 1.75,
                "instrument": 9,
                "pitch": 36,
                "velocity": 100
            },
            {
                "endTime": 2.125,
                "isDrum": true,
                "startTime": 2,
                "instrument": 9,
                "pitch": 42,
                "velocity": 100
            },
            {
                "endTime": 2.125,
                "isDrum": true,
                "startTime": 2,
                "instrument": 9,
                "pitch": 36,
                "velocity": 100
            },
            {
                "endTime": 2.375,
                "isDrum": true,
                "startTime": 2.25,
                "instrument": 9,
                "pitch": 42,
                "velocity": 100
            },
            {
                "endTime": 2.625,
                "isDrum": true,
                "startTime": 2.5,
                "instrument": 9,
                "pitch": 49,
                "velocity": 100
            },
            {
                "endTime": 2.625,
                "isDrum": true,
                "startTime": 2.5,
                "instrument": 9,
                "pitch": 42,
                "velocity": 100
            },
            {
                "endTime": 2.625,
                "isDrum": true,
                "startTime": 2.5,
                "instrument": 9,
                "pitch": 38,
                "velocity": 100
            },
            {
                "endTime": 2.875,
                "isDrum": true,
                "startTime": 2.75,
                "instrument": 9,
                "pitch": 42,
                "velocity": 100
            },
            {
                "endTime": 2.875,
                "isDrum": true,
                "startTime": 2.75,
                "instrument": 9,
                "pitch": 36,
                "velocity": 100
            },
            {
                "endTime": 3.125,
                "isDrum": true,
                "startTime": 3,
                "instrument": 9,
                "pitch": 45,
                "velocity": 100
            },
            {
                "endTime": 3.375,
                "isDrum": true,
                "startTime": 3.25,
                "instrument": 9,
                "pitch": 42,
                "velocity": 100
            },
            {
                "endTime": 3.375,
                "isDrum": true,
                "startTime": 3.25,
                "instrument": 9,
                "pitch": 36,
                "velocity": 100
            },
            {
                "endTime": 3.625,
                "isDrum": true,
                "startTime": 3.5,
                "instrument": 9,
                "pitch": 49,
                "velocity": 100
            },
            {
                "endTime": 3.625,
                "isDrum": true,
                "startTime": 3.5,
                "instrument": 9,
                "pitch": 42,
                "velocity": 100
            },
            {
                "endTime": 3.625,
                "isDrum": true,
                "startTime": 3.5,
                "instrument": 9,
                "pitch": 38,
                "velocity": 100
            },
            {
                "endTime": 3.875,
                "isDrum": true,
                "startTime": 3.75,
                "instrument": 9,
                "pitch": 42,
                "velocity": 100
            },
            {
                "endTime": 3.875,
                "isDrum": true,
                "startTime": 3.75,
                "instrument": 9,
                "pitch": 36,
                "velocity": 100
            }
        ],
        "totalTime": 3.875,
        "ticksPerQuarter": 220,
        "tempos": [
            {
                "qpm": 120
            }
        ]
    },
    {
        "notes": [
            {
                "endTime": 0.375,
                "isDrum": true,
                "startTime": 0.25,
                "instrument": 9,
                "pitch": 42,
                "velocity": 100
            },
            {
                "endTime": 0.625,
                "isDrum": true,
                "startTime": 0.5,
                "instrument": 9,
                "pitch": 42,
                "velocity": 100
            },
            {
                "endTime": 0.875,
                "isDrum": true,
                "startTime": 0.75,
                "instrument": 9,
                "pitch": 42,
                "velocity": 100
            },
            {
                "endTime": 0.875,
                "isDrum": true,
                "startTime": 0.75,
                "instrument": 9,
                "pitch": 36,
                "velocity": 100
            },
            {
                "endTime": 1.125,
                "isDrum": true,
                "startTime": 1,
                "instrument": 9,
                "pitch": 42,
                "velocity": 100
            },
            {
                "endTime": 1.125,
                "isDrum": true,
                "startTime": 1,
                "instrument": 9,
                "pitch": 36,
                "velocity": 100
            },
            {
                "endTime": 1.375,
                "isDrum": true,
                "startTime": 1.25,
                "instrument": 9,
                "pitch": 42,
                "velocity": 100
            },
            {
                "endTime": 1.625,
                "isDrum": true,
                "startTime": 1.5,
                "instrument": 9,
                "pitch": 42,
                "velocity": 100
            },
            {
                "endTime": 1.625,
                "isDrum": true,
                "startTime": 1.5,
                "instrument": 9,
                "pitch": 38,
                "velocity": 100
            },
            {
                "endTime": 1.875,
                "isDrum": true,
                "startTime": 1.75,
                "instrument": 9,
                "pitch": 42,
                "velocity": 100
            },
            {
                "endTime": 1.875,
                "isDrum": true,
                "startTime": 1.75,
                "instrument": 9,
                "pitch": 36,
                "velocity": 100
            },
            {
                "endTime": 2.125,
                "isDrum": true,
                "startTime": 2,
                "instrument": 9,
                "pitch": 42,
                "velocity": 100
            },
            {
                "endTime": 2.125,
                "isDrum": true,
                "startTime": 2,
                "instrument": 9,
                "pitch": 36,
                "velocity": 100
            },
            {
                "endTime": 2.375,
                "isDrum": true,
                "startTime": 2.25,
                "instrument": 9,
                "pitch": 42,
                "velocity": 100
            },
            {
                "endTime": 2.625,
                "isDrum": true,
                "startTime": 2.5,
                "instrument": 9,
                "pitch": 42,
                "velocity": 100
            },
            {
                "endTime": 2.625,
                "isDrum": true,
                "startTime": 2.5,
                "instrument": 9,
                "pitch": 50,
                "velocity": 100
            },
            {
                "endTime": 2.875,
                "isDrum": true,
                "startTime": 2.75,
                "instrument": 9,
                "pitch": 42,
                "velocity": 100
            },
            {
                "endTime": 2.875,
                "isDrum": true,
                "startTime": 2.75,
                "instrument": 9,
                "pitch": 50,
                "velocity": 100
            },
            {
                "endTime": 3.125,
                "isDrum": true,
                "startTime": 3,
                "instrument": 9,
                "pitch": 42,
                "velocity": 100
            },
            {
                "endTime": 3.125,
                "isDrum": true,
                "startTime": 3,
                "instrument": 9,
                "pitch": 50,
                "velocity": 100
            },
            {
                "endTime": 3.375,
                "isDrum": true,
                "startTime": 3.25,
                "instrument": 9,
                "pitch": 42,
                "velocity": 100
            },
            {
                "endTime": 3.375,
                "isDrum": true,
                "startTime": 3.25,
                "instrument": 9,
                "pitch": 36,
                "velocity": 100
            },
            {
                "endTime": 3.625,
                "isDrum": true,
                "startTime": 3.5,
                "instrument": 9,
                "pitch": 42,
                "velocity": 100
            },
            {
                "endTime": 3.625,
                "isDrum": true,
                "startTime": 3.5,
                "instrument": 9,
                "pitch": 36,
                "velocity": 100
            },
            {
                "endTime": 3.875,
                "isDrum": true,
                "startTime": 3.75,
                "instrument": 9,
                "pitch": 42,
                "velocity": 100
            },
            {
                "endTime": 3.875,
                "isDrum": true,
                "startTime": 3.75,
                "instrument": 9,
                "pitch": 36,
                "velocity": 100
            }
        ],
        "totalTime": 3.875,
        "ticksPerQuarter": 220,
        "tempos": [
            {
                "qpm": 120
            }
        ]
    },
    {
        "notes": [
            {
                "endTime": 0.375,
                "isDrum": true,
                "startTime": 0.25,
                "instrument": 9,
                "pitch": 42,
                "velocity": 100
            },
            {
                "endTime": 0.625,
                "isDrum": true,
                "startTime": 0.5,
                "instrument": 9,
                "pitch": 42,
                "velocity": 100
            },
            {
                "endTime": 0.875,
                "isDrum": true,
                "startTime": 0.75,
                "instrument": 9,
                "pitch": 42,
                "velocity": 100
            },
            {
                "endTime": 0.875,
                "isDrum": true,
                "startTime": 0.75,
                "instrument": 9,
                "pitch": 36,
                "velocity": 100
            },
            {
                "endTime": 1.375,
                "isDrum": true,
                "startTime": 1.25,
                "instrument": 9,
                "pitch": 42,
                "velocity": 100
            },
            {
                "endTime": 1.625,
                "isDrum": true,
                "startTime": 1.5,
                "instrument": 9,
                "pitch": 42,
                "velocity": 100
            },
            {
                "endTime": 1.625,
                "isDrum": true,
                "startTime": 1.5,
                "instrument": 9,
                "pitch": 38,
                "velocity": 100
            },
            {
                "endTime": 1.875,
                "isDrum": true,
                "startTime": 1.75,
                "instrument": 9,
                "pitch": 42,
                "velocity": 100
            },
            {
                "endTime": 1.875,
                "isDrum": true,
                "startTime": 1.75,
                "instrument": 9,
                "pitch": 36,
                "velocity": 100
            },
            {
                "endTime": 2.125,
                "isDrum": true,
                "startTime": 2,
                "instrument": 9,
                "pitch": 42,
                "velocity": 100
            },
            {
                "endTime": 2.125,
                "isDrum": true,
                "startTime": 2,
                "instrument": 9,
                "pitch": 36,
                "velocity": 100
            },
            {
                "endTime": 2.375,
                "isDrum": true,
                "startTime": 2.25,
                "instrument": 9,
                "pitch": 42,
                "velocity": 100
            },
            {
                "endTime": 2.625,
                "isDrum": true,
                "startTime": 2.5,
                "instrument": 9,
                "pitch": 42,
                "velocity": 100
            },
            {
                "endTime": 2.625,
                "isDrum": true,
                "startTime": 2.5,
                "instrument": 9,
                "pitch": 50,
                "velocity": 100
            },
            {
                "endTime": 2.875,
                "isDrum": true,
                "startTime": 2.75,
                "instrument": 9,
                "pitch": 42,
                "velocity": 100
            },
            {
                "endTime": 2.875,
                "isDrum": true,
                "startTime": 2.75,
                "instrument": 9,
                "pitch": 36,
                "velocity": 100
            },
            {
                "endTime": 3.125,
                "isDrum": true,
                "startTime": 3,
                "instrument": 9,
                "pitch": 42,
                "velocity": 100
            },
            {
                "endTime": 3.125,
                "isDrum": true,
                "startTime": 3,
                "instrument": 9,
                "pitch": 50,
                "velocity": 100
            },
            {
                "endTime": 3.375,
                "isDrum": true,
                "startTime": 3.25,
                "instrument": 9,
                "pitch": 42,
                "velocity": 100
            },
            {
                "endTime": 3.375,
                "isDrum": true,
                "startTime": 3.25,
                "instrument": 9,
                "pitch": 36,
                "velocity": 100
            },
            {
                "endTime": 3.625,
                "isDrum": true,
                "startTime": 3.5,
                "instrument": 9,
                "pitch": 49,
                "velocity": 100
            },
            {
                "endTime": 3.625,
                "isDrum": true,
                "startTime": 3.5,
                "instrument": 9,
                "pitch": 42,
                "velocity": 100
            },
            {
                "endTime": 3.625,
                "isDrum": true,
                "startTime": 3.5,
                "instrument": 9,
                "pitch": 36,
                "velocity": 100
            },
            {
                "endTime": 3.875,
                "isDrum": true,
                "startTime": 3.75,
                "instrument": 9,
                "pitch": 49,
                "velocity": 100
            },
            {
                "endTime": 3.875,
                "isDrum": true,
                "startTime": 3.75,
                "instrument": 9,
                "pitch": 42,
                "velocity": 100
            },
            {
                "endTime": 3.875,
                "isDrum": true,
                "startTime": 3.75,
                "instrument": 9,
                "pitch": 36,
                "velocity": 100
            }
        ],
        "totalTime": 3.875,
        "ticksPerQuarter": 220,
        "tempos": [
            {
                "qpm": 120
            }
        ]
    },
    {
        "notes": [
            {
                "endTime": 0.375,
                "isDrum": true,
                "startTime": 0.25,
                "instrument": 9,
                "pitch": 42,
                "velocity": 100
            },
            {
                "endTime": 0.625,
                "isDrum": true,
                "startTime": 0.5,
                "instrument": 9,
                "pitch": 42,
                "velocity": 100
            },
            {
                "endTime": 1.125,
                "isDrum": true,
                "startTime": 1,
                "instrument": 9,
                "pitch": 42,
                "velocity": 100
            },
            {
                "endTime": 1.125,
                "isDrum": true,
                "startTime": 1,
                "instrument": 9,
                "pitch": 36,
                "velocity": 100
            },
            {
                "endTime": 1.375,
                "isDrum": true,
                "startTime": 1.25,
                "instrument": 9,
                "pitch": 42,
                "velocity": 100
            },
            {
                "endTime": 1.625,
                "isDrum": true,
                "startTime": 1.5,
                "instrument": 9,
                "pitch": 42,
                "velocity": 100
            },
            {
                "endTime": 1.625,
                "isDrum": true,
                "startTime": 1.5,
                "instrument": 9,
                "pitch": 38,
                "velocity": 100
            },
            {
                "endTime": 1.875,
                "isDrum": true,
                "startTime": 1.75,
                "instrument": 9,
                "pitch": 42,
                "velocity": 100
            },
            {
                "endTime": 1.875,
                "isDrum": true,
                "startTime": 1.75,
                "instrument": 9,
                "pitch": 36,
                "velocity": 100
            },
            {
                "endTime": 2.125,
                "isDrum": true,
                "startTime": 2,
                "instrument": 9,
                "pitch": 49,
                "velocity": 100
            },
            {
                "endTime": 2.125,
                "isDrum": true,
                "startTime": 2,
                "instrument": 9,
                "pitch": 42,
                "velocity": 100
            },
            {
                "endTime": 2.125,
                "isDrum": true,
                "startTime": 2,
                "instrument": 9,
                "pitch": 36,
                "velocity": 100
            },
            {
                "endTime": 2.375,
                "isDrum": true,
                "startTime": 2.25,
                "instrument": 9,
                "pitch": 42,
                "velocity": 100
            },
            {
                "endTime": 2.625,
                "isDrum": true,
                "startTime": 2.5,
                "instrument": 9,
                "pitch": 42,
                "velocity": 100
            },
            {
                "endTime": 2.625,
                "isDrum": true,
                "startTime": 2.5,
                "instrument": 9,
                "pitch": 50,
                "velocity": 100
            },
            {
                "endTime": 2.875,
                "isDrum": true,
                "startTime": 2.75,
                "instrument": 9,
                "pitch": 42,
                "velocity": 100
            },
            {
                "endTime": 2.875,
                "isDrum": true,
                "startTime": 2.75,
                "instrument": 9,
                "pitch": 36,
                "velocity": 100
            },
            {
                "endTime": 3.125,
                "isDrum": true,
                "startTime": 3,
                "instrument": 9,
                "pitch": 42,
                "velocity": 100
            },
            {
                "endTime": 3.125,
                "isDrum": true,
                "startTime": 3,
                "instrument": 9,
                "pitch": 50,
                "velocity": 100
            },
            {
                "endTime": 3.375,
                "isDrum": true,
                "startTime": 3.25,
                "instrument": 9,
                "pitch": 42,
                "velocity": 100
            },
            {
                "endTime": 3.375,
                "isDrum": true,
                "startTime": 3.25,
                "instrument": 9,
                "pitch": 36,
                "velocity": 100
            },
            {
                "endTime": 3.625,
                "isDrum": true,
                "startTime": 3.5,
                "instrument": 9,
                "pitch": 42,
                "velocity": 100
            },
            {
                "endTime": 3.625,
                "isDrum": true,
                "startTime": 3.5,
                "instrument": 9,
                "pitch": 50,
                "velocity": 100
            },
            {
                "endTime": 3.875,
                "isDrum": true,
                "startTime": 3.75,
                "instrument": 9,
                "pitch": 42,
                "velocity": 100
            }
        ],
        "totalTime": 3.875,
        "ticksPerQuarter": 220,
        "tempos": [
            {
                "qpm": 120
            }
        ]
    },
    {
        "notes": [
            {
                "endTime": 0.375,
                "isDrum": true,
                "startTime": 0.25,
                "instrument": 9,
                "pitch": 42,
                "velocity": 100
            },
            {
                "endTime": 0.625,
                "isDrum": true,
                "startTime": 0.5,
                "instrument": 9,
                "pitch": 42,
                "velocity": 100
            },
            {
                "endTime": 1.125,
                "isDrum": true,
                "startTime": 1,
                "instrument": 9,
                "pitch": 42,
                "velocity": 100
            },
            {
                "endTime": 1.125,
                "isDrum": true,
                "startTime": 1,
                "instrument": 9,
                "pitch": 36,
                "velocity": 100
            },
            {
                "endTime": 1.375,
                "isDrum": true,
                "startTime": 1.25,
                "instrument": 9,
                "pitch": 42,
                "velocity": 100
            },
            {
                "endTime": 1.625,
                "isDrum": true,
                "startTime": 1.5,
                "instrument": 9,
                "pitch": 42,
                "velocity": 100
            },
            {
                "endTime": 1.625,
                "isDrum": true,
                "startTime": 1.5,
                "instrument": 9,
                "pitch": 50,
                "velocity": 100
            },
            {
                "endTime": 1.875,
                "isDrum": true,
                "startTime": 1.75,
                "instrument": 9,
                "pitch": 42,
                "velocity": 100
            },
            {
                "endTime": 1.875,
                "isDrum": true,
                "startTime": 1.75,
                "instrument": 9,
                "pitch": 36,
                "velocity": 100
            },
            {
                "endTime": 2.125,
                "isDrum": true,
                "startTime": 2,
                "instrument": 9,
                "pitch": 49,
                "velocity": 100
            },
            {
                "endTime": 2.125,
                "isDrum": true,
                "startTime": 2,
                "instrument": 9,
                "pitch": 42,
                "velocity": 100
            },
            {
                "endTime": 2.125,
                "isDrum": true,
                "startTime": 2,
                "instrument": 9,
                "pitch": 36,
                "velocity": 100
            },
            {
                "endTime": 2.375,
                "isDrum": true,
                "startTime": 2.25,
                "instrument": 9,
                "pitch": 42,
                "velocity": 100
            },
            {
                "endTime": 2.625,
                "isDrum": true,
                "startTime": 2.5,
                "instrument": 9,
                "pitch": 42,
                "velocity": 100
            },
            {
                "endTime": 2.625,
                "isDrum": true,
                "startTime": 2.5,
                "instrument": 9,
                "pitch": 50,
                "velocity": 100
            },
            {
                "endTime": 2.875,
                "isDrum": true,
                "startTime": 2.75,
                "instrument": 9,
                "pitch": 42,
                "velocity": 100
            },
            {
                "endTime": 2.875,
                "isDrum": true,
                "startTime": 2.75,
                "instrument": 9,
                "pitch": 36,
                "velocity": 100
            },
            {
                "endTime": 3.125,
                "isDrum": true,
                "startTime": 3,
                "instrument": 9,
                "pitch": 42,
                "velocity": 100
            },
            {
                "endTime": 3.125,
                "isDrum": true,
                "startTime": 3,
                "instrument": 9,
                "pitch": 36,
                "velocity": 100
            },
            {
                "endTime": 3.375,
                "isDrum": true,
                "startTime": 3.25,
                "instrument": 9,
                "pitch": 42,
                "velocity": 100
            },
            {
                "endTime": 3.375,
                "isDrum": true,
                "startTime": 3.25,
                "instrument": 9,
                "pitch": 50,
                "velocity": 100
            },
            {
                "endTime": 3.625,
                "isDrum": true,
                "startTime": 3.5,
                "instrument": 9,
                "pitch": 42,
                "velocity": 100
            },
            {
                "endTime": 3.625,
                "isDrum": true,
                "startTime": 3.5,
                "instrument": 9,
                "pitch": 50,
                "velocity": 100
            },
            {
                "endTime": 3.875,
                "isDrum": true,
                "startTime": 3.75,
                "instrument": 9,
                "pitch": 42,
                "velocity": 100
            }
        ],
        "totalTime": 3.875,
        "ticksPerQuarter": 220,
        "tempos": [
            {
                "qpm": 120
            }
        ]
    },
    {
        "notes": [
            {
                "endTime": 0.375,
                "isDrum": true,
                "startTime": 0.25,
                "instrument": 9,
                "pitch": 42,
                "velocity": 100
            },
            {
                "endTime": 0.625,
                "isDrum": true,
                "startTime": 0.5,
                "instrument": 9,
                "pitch": 42,
                "velocity": 100
            },
            {
                "endTime": 1.125,
                "isDrum": true,
                "startTime": 1,
                "instrument": 9,
                "pitch": 42,
                "velocity": 100
            },
            {
                "endTime": 1.125,
                "isDrum": true,
                "startTime": 1,
                "instrument": 9,
                "pitch": 36,
                "velocity": 100
            },
            {
                "endTime": 1.125,
                "isDrum": true,
                "startTime": 1,
                "instrument": 9,
                "pitch": 50,
                "velocity": 100
            },
            {
                "endTime": 1.375,
                "isDrum": true,
                "startTime": 1.25,
                "instrument": 9,
                "pitch": 42,
                "velocity": 100
            },
            {
                "endTime": 1.375,
                "isDrum": true,
                "startTime": 1.25,
                "instrument": 9,
                "pitch": 50,
                "velocity": 100
            },
            {
                "endTime": 1.625,
                "isDrum": true,
                "startTime": 1.5,
                "instrument": 9,
                "pitch": 50,
                "velocity": 100
            },
            {
                "endTime": 1.625,
                "isDrum": true,
                "startTime": 1.5,
                "instrument": 9,
                "pitch": 46,
                "velocity": 100
            },
            {
                "endTime": 2.125,
                "isDrum": true,
                "startTime": 2,
                "instrument": 9,
                "pitch": 49,
                "velocity": 100
            },
            {
                "endTime": 2.125,
                "isDrum": true,
                "startTime": 2,
                "instrument": 9,
                "pitch": 42,
                "velocity": 100
            },
            {
                "endTime": 2.125,
                "isDrum": true,
                "startTime": 2,
                "instrument": 9,
                "pitch": 36,
                "velocity": 100
            },
            {
                "endTime": 2.375,
                "isDrum": true,
                "startTime": 2.25,
                "instrument": 9,
                "pitch": 42,
                "velocity": 100
            },
            {
                "endTime": 2.625,
                "isDrum": true,
                "startTime": 2.5,
                "instrument": 9,
                "pitch": 42,
                "velocity": 100
            },
            {
                "endTime": 2.625,
                "isDrum": true,
                "startTime": 2.5,
                "instrument": 9,
                "pitch": 50,
                "velocity": 100
            },
            {
                "endTime": 2.875,
                "isDrum": true,
                "startTime": 2.75,
                "instrument": 9,
                "pitch": 50,
                "velocity": 100
            },
            {
                "endTime": 3.125,
                "isDrum": true,
                "startTime": 3,
                "instrument": 9,
                "pitch": 42,
                "velocity": 100
            },
            {
                "endTime": 3.125,
                "isDrum": true,
                "startTime": 3,
                "instrument": 9,
                "pitch": 50,
                "velocity": 100
            },
            {
                "endTime": 3.375,
                "isDrum": true,
                "startTime": 3.25,
                "instrument": 9,
                "pitch": 42,
                "velocity": 100
            },
            {
                "endTime": 3.375,
                "isDrum": true,
                "startTime": 3.25,
                "instrument": 9,
                "pitch": 50,
                "velocity": 100
            },
            {
                "endTime": 3.625,
                "isDrum": true,
                "startTime": 3.5,
                "instrument": 9,
                "pitch": 42,
                "velocity": 100
            },
            {
                "endTime": 3.625,
                "isDrum": true,
                "startTime": 3.5,
                "instrument": 9,
                "pitch": 50,
                "velocity": 100
            },
            {
                "endTime": 3.875,
                "isDrum": true,
                "startTime": 3.75,
                "instrument": 9,
                "pitch": 42,
                "velocity": 100
            }
        ],
        "totalTime": 3.875,
        "ticksPerQuarter": 220,
        "tempos": [
            {
                "qpm": 120
            }
        ]
    },
    {
        "notes": [
            {
                "endTime": 0.375,
                "isDrum": true,
                "startTime": 0.25,
                "instrument": 9,
                "pitch": 42,
                "velocity": 100
            },
            {
                "endTime": 0.625,
                "isDrum": true,
                "startTime": 0.5,
                "instrument": 9,
                "pitch": 42,
                "velocity": 100
            },
            {
                "endTime": 0.625,
                "isDrum": true,
                "startTime": 0.5,
                "instrument": 9,
                "pitch": 50,
                "velocity": 100
            },
            {
                "endTime": 1.125,
                "isDrum": true,
                "startTime": 1,
                "instrument": 9,
                "pitch": 42,
                "velocity": 100
            },
            {
                "endTime": 1.125,
                "isDrum": true,
                "startTime": 1,
                "instrument": 9,
                "pitch": 36,
                "velocity": 100
            },
            {
                "endTime": 1.125,
                "isDrum": true,
                "startTime": 1,
                "instrument": 9,
                "pitch": 50,
                "velocity": 100
            },
            {
                "endTime": 1.375,
                "isDrum": true,
                "startTime": 1.25,
                "instrument": 9,
                "pitch": 42,
                "velocity": 100
            },
            {
                "endTime": 1.375,
                "isDrum": true,
                "startTime": 1.25,
                "instrument": 9,
                "pitch": 50,
                "velocity": 100
            },
            {
                "endTime": 1.625,
                "isDrum": true,
                "startTime": 1.5,
                "instrument": 9,
                "pitch": 50,
                "velocity": 100
            },
            {
                "endTime": 2.125,
                "isDrum": true,
                "startTime": 2,
                "instrument": 9,
                "pitch": 49,
                "velocity": 100
            },
            {
                "endTime": 2.125,
                "isDrum": true,
                "startTime": 2,
                "instrument": 9,
                "pitch": 42,
                "velocity": 100
            },
            {
                "endTime": 2.125,
                "isDrum": true,
                "startTime": 2,
                "instrument": 9,
                "pitch": 36,
                "velocity": 100
            },
            {
                "endTime": 2.375,
                "isDrum": true,
                "startTime": 2.25,
                "instrument": 9,
                "pitch": 42,
                "velocity": 100
            },
            {
                "endTime": 2.625,
                "isDrum": true,
                "startTime": 2.5,
                "instrument": 9,
                "pitch": 42,
                "velocity": 100
            },
            {
                "endTime": 2.625,
                "isDrum": true,
                "startTime": 2.5,
                "instrument": 9,
                "pitch": 50,
                "velocity": 100
            },
            {
                "endTime": 2.875,
                "isDrum": true,
                "startTime": 2.75,
                "instrument": 9,
                "pitch": 50,
                "velocity": 100
            },
            {
                "endTime": 3.125,
                "isDrum": true,
                "startTime": 3,
                "instrument": 9,
                "pitch": 42,
                "velocity": 100
            },
            {
                "endTime": 3.125,
                "isDrum": true,
                "startTime": 3,
                "instrument": 9,
                "pitch": 36,
                "velocity": 100
            },
            {
                "endTime": 3.125,
                "isDrum": true,
                "startTime": 3,
                "instrument": 9,
                "pitch": 50,
                "velocity": 100
            },
            {
                "endTime": 3.375,
                "isDrum": true,
                "startTime": 3.25,
                "instrument": 9,
                "pitch": 42,
                "velocity": 100
            },
            {
                "endTime": 3.375,
                "isDrum": true,
                "startTime": 3.25,
                "instrument": 9,
                "pitch": 50,
                "velocity": 100
            },
            {
                "endTime": 3.625,
                "isDrum": true,
                "startTime": 3.5,
                "instrument": 9,
                "pitch": 42,
                "velocity": 100
            },
            {
                "endTime": 3.875,
                "isDrum": true,
                "startTime": 3.75,
                "instrument": 9,
                "pitch": 42,
                "velocity": 100
            }
        ],
        "totalTime": 3.875,
        "ticksPerQuarter": 220,
        "tempos": [
            {
                "qpm": 120
            }
        ]
    },
    {
        "notes": [
            {
                "endTime": 0.625,
                "isDrum": true,
                "startTime": 0.5,
                "instrument": 9,
                "pitch": 42,
                "velocity": 100
            },
            {
                "endTime": 0.625,
                "isDrum": true,
                "startTime": 0.5,
                "instrument": 9,
                "pitch": 50,
                "velocity": 100
            },
            {
                "endTime": 1.125,
                "isDrum": true,
                "startTime": 1,
                "instrument": 9,
                "pitch": 42,
                "velocity": 100
            },
            {
                "endTime": 1.125,
                "isDrum": true,
                "startTime": 1,
                "instrument": 9,
                "pitch": 36,
                "velocity": 100
            },
            {
                "endTime": 1.125,
                "isDrum": true,
                "startTime": 1,
                "instrument": 9,
                "pitch": 50,
                "velocity": 100
            },
            {
                "endTime": 1.375,
                "isDrum": true,
                "startTime": 1.25,
                "instrument": 9,
                "pitch": 42,
                "velocity": 100
            },
            {
                "endTime": 1.375,
                "isDrum": true,
                "startTime": 1.25,
                "instrument": 9,
                "pitch": 50,
                "velocity": 100
            },
            {
                "endTime": 1.625,
                "isDrum": true,
                "startTime": 1.5,
                "instrument": 9,
                "pitch": 50,
                "velocity": 100
            },
            {
                "endTime": 2.125,
                "isDrum": true,
                "startTime": 2,
                "instrument": 9,
                "pitch": 42,
                "velocity": 100
            },
            {
                "endTime": 2.125,
                "isDrum": true,
                "startTime": 2,
                "instrument": 9,
                "pitch": 36,
                "velocity": 100
            },
            {
                "endTime": 2.125,
                "isDrum": true,
                "startTime": 2,
                "instrument": 9,
                "pitch": 50,
                "velocity": 100
            },
            {
                "endTime": 2.625,
                "isDrum": true,
                "startTime": 2.5,
                "instrument": 9,
                "pitch": 42,
                "velocity": 100
            },
            {
                "endTime": 2.625,
                "isDrum": true,
                "startTime": 2.5,
                "instrument": 9,
                "pitch": 50,
                "velocity": 100
            },
            {
                "endTime": 2.875,
                "isDrum": true,
                "startTime": 2.75,
                "instrument": 9,
                "pitch": 50,
                "velocity": 100
            },
            {
                "endTime": 3.125,
                "isDrum": true,
                "startTime": 3,
                "instrument": 9,
                "pitch": 42,
                "velocity": 100
            },
            {
                "endTime": 3.125,
                "isDrum": true,
                "startTime": 3,
                "instrument": 9,
                "pitch": 50,
                "velocity": 100
            },
            {
                "endTime": 3.375,
                "isDrum": true,
                "startTime": 3.25,
                "instrument": 9,
                "pitch": 42,
                "velocity": 100
            },
            {
                "endTime": 3.375,
                "isDrum": true,
                "startTime": 3.25,
                "instrument": 9,
                "pitch": 50,
                "velocity": 100
            },
            {
                "endTime": 3.625,
                "isDrum": true,
                "startTime": 3.5,
                "instrument": 9,
                "pitch": 42,
                "velocity": 100
            },
            {
                "endTime": 3.875,
                "isDrum": true,
                "startTime": 3.75,
                "instrument": 9,
                "pitch": 42,
                "velocity": 100
            }
        ],
        "totalTime": 3.875,
        "ticksPerQuarter": 220,
        "tempos": [
            {
                "qpm": 120
            }
        ]
    },
    {
        "notes": [
            {
                "endTime": 0.5,
                "isDrum": true,
                "startTime": 0.375,
                "instrument": 9,
                "pitch": 42,
                "velocity": 100
            },
            {
                "endTime": 0.625,
                "isDrum": true,
                "startTime": 0.5,
                "instrument": 9,
                "pitch": 42,
                "velocity": 100
            },
            {
                "endTime": 0.625,
                "isDrum": true,
                "startTime": 0.5,
                "instrument": 9,
                "pitch": 50,
                "velocity": 100
            },
            {
                "endTime": 1.125,
                "isDrum": true,
                "startTime": 1,
                "instrument": 9,
                "pitch": 42,
                "velocity": 100
            },
            {
                "endTime": 1.125,
                "isDrum": true,
                "startTime": 1,
                "instrument": 9,
                "pitch": 36,
                "velocity": 100
            },
            {
                "endTime": 1.125,
                "isDrum": true,
                "startTime": 1,
                "instrument": 9,
                "pitch": 50,
                "velocity": 100
            },
            {
                "endTime": 1.375,
                "isDrum": true,
                "startTime": 1.25,
                "instrument": 9,
                "pitch": 50,
                "velocity": 100
            },
            {
                "endTime": 1.625,
                "isDrum": true,
                "startTime": 1.5,
                "instrument": 9,
                "pitch": 50,
                "velocity": 100
            },
            {
                "endTime": 2.125,
                "isDrum": true,
                "startTime": 2,
                "instrument": 9,
                "pitch": 42,
                "velocity": 100
            },
            {
                "endTime": 2.125,
                "isDrum": true,
                "startTime": 2,
                "instrument": 9,
                "pitch": 36,
                "velocity": 100
            },
            {
                "endTime": 2.125,
                "isDrum": true,
                "startTime": 2,
                "instrument": 9,
                "pitch": 50,
                "velocity": 100
            },
            {
                "endTime": 2.625,
                "isDrum": true,
                "startTime": 2.5,
                "instrument": 9,
                "pitch": 42,
                "velocity": 100
            },
            {
                "endTime": 2.625,
                "isDrum": true,
                "startTime": 2.5,
                "instrument": 9,
                "pitch": 50,
                "velocity": 100
            },
            {
                "endTime": 2.875,
                "isDrum": true,
                "startTime": 2.75,
                "instrument": 9,
                "pitch": 50,
                "velocity": 100
            },
            {
                "endTime": 3.125,
                "isDrum": true,
                "startTime": 3,
                "instrument": 9,
                "pitch": 42,
                "velocity": 100
            },
            {
                "endTime": 3.125,
                "isDrum": true,
                "startTime": 3,
                "instrument": 9,
                "pitch": 36,
                "velocity": 100
            },
            {
                "endTime": 3.125,
                "isDrum": true,
                "startTime": 3,
                "instrument": 9,
                "pitch": 50,
                "velocity": 100
            },
            {
                "endTime": 3.375,
                "isDrum": true,
                "startTime": 3.25,
                "instrument": 9,
                "pitch": 42,
                "velocity": 100
            },
            {
                "endTime": 3.375,
                "isDrum": true,
                "startTime": 3.25,
                "instrument": 9,
                "pitch": 50,
                "velocity": 100
            },
            {
                "endTime": 3.625,
                "isDrum": true,
                "startTime": 3.5,
                "instrument": 9,
                "pitch": 50,
                "velocity": 100
            },
            {
                "endTime": 3.875,
                "isDrum": true,
                "startTime": 3.75,
                "instrument": 9,
                "pitch": 50,
                "velocity": 100
            }
        ],
        "totalTime": 3.875,
        "ticksPerQuarter": 220,
        "tempos": [
            {
                "qpm": 120
            }
        ]
    },
    {
        "notes": [
            {
                "endTime": 0.5,
                "isDrum": true,
                "startTime": 0.375,
                "instrument": 9,
                "pitch": 42,
                "velocity": 100
            },
            {
                "endTime": 0.625,
                "isDrum": true,
                "startTime": 0.5,
                "instrument": 9,
                "pitch": 42,
                "velocity": 100
            },
            {
                "endTime": 0.625,
                "isDrum": true,
                "startTime": 0.5,
                "instrument": 9,
                "pitch": 50,
                "velocity": 100
            },
            {
                "endTime": 1.125,
                "isDrum": true,
                "startTime": 1,
                "instrument": 9,
                "pitch": 42,
                "velocity": 100
            },
            {
                "endTime": 1.125,
                "isDrum": true,
                "startTime": 1,
                "instrument": 9,
                "pitch": 36,
                "velocity": 100
            },
            {
                "endTime": 1.125,
                "isDrum": true,
                "startTime": 1,
                "instrument": 9,
                "pitch": 50,
                "velocity": 100
            },
            {
                "endTime": 1.375,
                "isDrum": true,
                "startTime": 1.25,
                "instrument": 9,
                "pitch": 50,
                "velocity": 100
            },
            {
                "endTime": 1.625,
                "isDrum": true,
                "startTime": 1.5,
                "instrument": 9,
                "pitch": 50,
                "velocity": 100
            },
            {
                "endTime": 2.125,
                "isDrum": true,
                "startTime": 2,
                "instrument": 9,
                "pitch": 42,
                "velocity": 100
            },
            {
                "endTime": 2.125,
                "isDrum": true,
                "startTime": 2,
                "instrument": 9,
                "pitch": 36,
                "velocity": 100
            },
            {
                "endTime": 2.125,
                "isDrum": true,
                "startTime": 2,
                "instrument": 9,
                "pitch": 50,
                "velocity": 100
            },
            {
                "endTime": 2.625,
                "isDrum": true,
                "startTime": 2.5,
                "instrument": 9,
                "pitch": 42,
                "velocity": 100
            },
            {
                "endTime": 2.625,
                "isDrum": true,
                "startTime": 2.5,
                "instrument": 9,
                "pitch": 50,
                "velocity": 100
            },
            {
                "endTime": 2.875,
                "isDrum": true,
                "startTime": 2.75,
                "instrument": 9,
                "pitch": 50,
                "velocity": 100
            },
            {
                "endTime": 3.125,
                "isDrum": true,
                "startTime": 3,
                "instrument": 9,
                "pitch": 42,
                "velocity": 100
            },
            {
                "endTime": 3.125,
                "isDrum": true,
                "startTime": 3,
                "instrument": 9,
                "pitch": 36,
                "velocity": 100
            },
            {
                "endTime": 3.125,
                "isDrum": true,
                "startTime": 3,
                "instrument": 9,
                "pitch": 50,
                "velocity": 100
            },
            {
                "endTime": 3.375,
                "isDrum": true,
                "startTime": 3.25,
                "instrument": 9,
                "pitch": 42,
                "velocity": 100
            },
            {
                "endTime": 3.375,
                "isDrum": true,
                "startTime": 3.25,
                "instrument": 9,
                "pitch": 50,
                "velocity": 100
            },
            {
                "endTime": 3.875,
                "isDrum": true,
                "startTime": 3.75,
                "instrument": 9,
                "pitch": 50,
                "velocity": 100
            }
        ],
        "totalTime": 3.875,
        "ticksPerQuarter": 220,
        "tempos": [
            {
                "qpm": 120
            }
        ]
    },
    {
        "notes": [
            {
                "velocity": 100,
                "isDrum": true,
                "instrument": 9,
                "pitch": 42,
                "endTime": 0.125
            },
            {
                "velocity": 100,
                "isDrum": true,
                "instrument": 9,
                "pitch": 38,
                "endTime": 0.125
            },
            {
                "endTime": 0.375,
                "isDrum": true,
                "startTime": 0.25,
                "instrument": 9,
                "pitch": 42,
                "velocity": 100
            },
            {
                "endTime": 0.625,
                "isDrum": true,
                "startTime": 0.5,
                "instrument": 9,
                "pitch": 42,
                "velocity": 100
            },
            {
                "endTime": 0.875,
                "isDrum": true,
                "startTime": 0.75,
                "instrument": 9,
                "pitch": 42,
                "velocity": 100
            },
            {
                "endTime": 0.875,
                "isDrum": true,
                "startTime": 0.75,
                "instrument": 9,
                "pitch": 36,
                "velocity": 100
            },
            {
                "endTime": 1.125,
                "isDrum": true,
                "startTime": 1,
                "instrument": 9,
                "pitch": 42,
                "velocity": 100
            },
            {
                "endTime": 1.125,
                "isDrum": true,
                "startTime": 1,
                "instrument": 9,
                "pitch": 36,
                "velocity": 100
            },
            {
                "endTime": 1.375,
                "isDrum": true,
                "startTime": 1.25,
                "instrument": 9,
                "pitch": 42,
                "velocity": 100
            },
            {
                "endTime": 1.625,
                "isDrum": true,
                "startTime": 1.5,
                "instrument": 9,
                "pitch": 42,
                "velocity": 100
            },
            {
                "endTime": 1.625,
                "isDrum": true,
                "startTime": 1.5,
                "instrument": 9,
                "pitch": 38,
                "velocity": 100
            },
            {
                "endTime": 1.875,
                "isDrum": true,
                "startTime": 1.75,
                "instrument": 9,
                "pitch": 42,
                "velocity": 100
            },
            {
                "endTime": 1.875,
                "isDrum": true,
                "startTime": 1.75,
                "instrument": 9,
                "pitch": 36,
                "velocity": 100
            },
            {
                "endTime": 2.125,
                "isDrum": true,
                "startTime": 2,
                "instrument": 9,
                "pitch": 42,
                "velocity": 100
            },
            {
                "endTime": 2.125,
                "isDrum": true,
                "startTime": 2,
                "instrument": 9,
                "pitch": 36,
                "velocity": 100
            },
            {
                "endTime": 2.375,
                "isDrum": true,
                "startTime": 2.25,
                "instrument": 9,
                "pitch": 42,
                "velocity": 100
            },
            {
                "endTime": 2.625,
                "isDrum": true,
                "startTime": 2.5,
                "instrument": 9,
                "pitch": 42,
                "velocity": 100
            },
            {
                "endTime": 2.625,
                "isDrum": true,
                "startTime": 2.5,
                "instrument": 9,
                "pitch": 38,
                "velocity": 100
            },
            {
                "endTime": 2.875,
                "isDrum": true,
                "startTime": 2.75,
                "instrument": 9,
                "pitch": 42,
                "velocity": 100
            },
            {
                "endTime": 2.875,
                "isDrum": true,
                "startTime": 2.75,
                "instrument": 9,
                "pitch": 36,
                "velocity": 100
            },
            {
                "endTime": 3.125,
                "isDrum": true,
                "startTime": 3,
                "instrument": 9,
                "pitch": 42,
                "velocity": 100
            },
            {
                "endTime": 3.125,
                "isDrum": true,
                "startTime": 3,
                "instrument": 9,
                "pitch": 36,
                "velocity": 100
            },
            {
                "endTime": 3.375,
                "isDrum": true,
                "startTime": 3.25,
                "instrument": 9,
                "pitch": 42,
                "velocity": 100
            },
            {
                "endTime": 3.375,
                "isDrum": true,
                "startTime": 3.25,
                "instrument": 9,
                "pitch": 45,
                "velocity": 100
            },
            {
                "endTime": 3.625,
                "isDrum": true,
                "startTime": 3.5,
                "instrument": 9,
                "pitch": 42,
                "velocity": 100
            },
            {
                "endTime": 3.625,
                "isDrum": true,
                "startTime": 3.5,
                "instrument": 9,
                "pitch": 36,
                "velocity": 100
            },
            {
                "endTime": 3.625,
                "isDrum": true,
                "startTime": 3.5,
                "instrument": 9,
                "pitch": 45,
                "velocity": 100
            },
            {
                "endTime": 3.875,
                "isDrum": true,
                "startTime": 3.75,
                "instrument": 9,
                "pitch": 42,
                "velocity": 100
            },
            {
                "endTime": 3.875,
                "isDrum": true,
                "startTime": 3.75,
                "instrument": 9,
                "pitch": 36,
                "velocity": 100
            }
        ],
        "totalTime": 3.875,
        "ticksPerQuarter": 220,
        "tempos": [
            {
                "qpm": 120
            }
        ]
    },
    {
        "notes": [
            {
                "velocity": 100,
                "isDrum": true,
                "instrument": 9,
                "pitch": 42,
                "endTime": 0.125
            },
            {
                "velocity": 100,
                "isDrum": true,
                "instrument": 9,
                "pitch": 38,
                "endTime": 0.125
            },
            {
                "endTime": 0.375,
                "isDrum": true,
                "startTime": 0.25,
                "instrument": 9,
                "pitch": 42,
                "velocity": 100
            },
            {
                "endTime": 0.625,
                "isDrum": true,
                "startTime": 0.5,
                "instrument": 9,
                "pitch": 42,
                "velocity": 100
            },
            {
                "endTime": 0.875,
                "isDrum": true,
                "startTime": 0.75,
                "instrument": 9,
                "pitch": 42,
                "velocity": 100
            },
            {
                "endTime": 0.875,
                "isDrum": true,
                "startTime": 0.75,
                "instrument": 9,
                "pitch": 36,
                "velocity": 100
            },
            {
                "endTime": 1.125,
                "isDrum": true,
                "startTime": 1,
                "instrument": 9,
                "pitch": 42,
                "velocity": 100
            },
            {
                "endTime": 1.125,
                "isDrum": true,
                "startTime": 1,
                "instrument": 9,
                "pitch": 36,
                "velocity": 100
            },
            {
                "endTime": 1.375,
                "isDrum": true,
                "startTime": 1.25,
                "instrument": 9,
                "pitch": 42,
                "velocity": 100
            },
            {
                "endTime": 1.625,
                "isDrum": true,
                "startTime": 1.5,
                "instrument": 9,
                "pitch": 42,
                "velocity": 100
            },
            {
                "endTime": 1.625,
                "isDrum": true,
                "startTime": 1.5,
                "instrument": 9,
                "pitch": 38,
                "velocity": 100
            },
            {
                "endTime": 1.875,
                "isDrum": true,
                "startTime": 1.75,
                "instrument": 9,
                "pitch": 42,
                "velocity": 100
            },
            {
                "endTime": 1.875,
                "isDrum": true,
                "startTime": 1.75,
                "instrument": 9,
                "pitch": 36,
                "velocity": 100
            },
            {
                "endTime": 2.125,
                "isDrum": true,
                "startTime": 2,
                "instrument": 9,
                "pitch": 42,
                "velocity": 100
            },
            {
                "endTime": 2.125,
                "isDrum": true,
                "startTime": 2,
                "instrument": 9,
                "pitch": 36,
                "velocity": 100
            },
            {
                "endTime": 2.375,
                "isDrum": true,
                "startTime": 2.25,
                "instrument": 9,
                "pitch": 42,
                "velocity": 100
            },
            {
                "endTime": 2.625,
                "isDrum": true,
                "startTime": 2.5,
                "instrument": 9,
                "pitch": 42,
                "velocity": 100
            },
            {
                "endTime": 2.625,
                "isDrum": true,
                "startTime": 2.5,
                "instrument": 9,
                "pitch": 38,
                "velocity": 100
            },
            {
                "endTime": 2.875,
                "isDrum": true,
                "startTime": 2.75,
                "instrument": 9,
                "pitch": 42,
                "velocity": 100
            },
            {
                "endTime": 2.875,
                "isDrum": true,
                "startTime": 2.75,
                "instrument": 9,
                "pitch": 36,
                "velocity": 100
            },
            {
                "endTime": 3.125,
                "isDrum": true,
                "startTime": 3,
                "instrument": 9,
                "pitch": 42,
                "velocity": 100
            },
            {
                "endTime": 3.125,
                "isDrum": true,
                "startTime": 3,
                "instrument": 9,
                "pitch": 50,
                "velocity": 100
            },
            {
                "endTime": 3.375,
                "isDrum": true,
                "startTime": 3.25,
                "instrument": 9,
                "pitch": 42,
                "velocity": 100
            },
            {
                "endTime": 3.375,
                "isDrum": true,
                "startTime": 3.25,
                "instrument": 9,
                "pitch": 36,
                "velocity": 100
            },
            {
                "endTime": 3.375,
                "isDrum": true,
                "startTime": 3.25,
                "instrument": 9,
                "pitch": 45,
                "velocity": 100
            },
            {
                "endTime": 3.625,
                "isDrum": true,
                "startTime": 3.5,
                "instrument": 9,
                "pitch": 42,
                "velocity": 100
            },
            {
                "endTime": 3.625,
                "isDrum": true,
                "startTime": 3.5,
                "instrument": 9,
                "pitch": 36,
                "velocity": 100
            },
            {
                "endTime": 3.875,
                "isDrum": true,
                "startTime": 3.75,
                "instrument": 9,
                "pitch": 42,
                "velocity": 100
            },
            {
                "endTime": 3.875,
                "isDrum": true,
                "startTime": 3.75,
                "instrument": 9,
                "pitch": 36,
                "velocity": 100
            }
        ],
        "totalTime": 3.875,
        "ticksPerQuarter": 220,
        "tempos": [
            {
                "qpm": 120
            }
        ]
    },
    {
        "notes": [
            {
                "endTime": 0.375,
                "isDrum": true,
                "startTime": 0.25,
                "instrument": 9,
                "pitch": 42,
                "velocity": 100
            },
            {
                "endTime": 0.625,
                "isDrum": true,
                "startTime": 0.5,
                "instrument": 9,
                "pitch": 42,
                "velocity": 100
            },
            {
                "endTime": 0.875,
                "isDrum": true,
                "startTime": 0.75,
                "instrument": 9,
                "pitch": 42,
                "velocity": 100
            },
            {
                "endTime": 0.875,
                "isDrum": true,
                "startTime": 0.75,
                "instrument": 9,
                "pitch": 36,
                "velocity": 100
            },
            {
                "endTime": 1.125,
                "isDrum": true,
                "startTime": 1,
                "instrument": 9,
                "pitch": 42,
                "velocity": 100
            },
            {
                "endTime": 1.125,
                "isDrum": true,
                "startTime": 1,
                "instrument": 9,
                "pitch": 36,
                "velocity": 100
            },
            {
                "endTime": 1.375,
                "isDrum": true,
                "startTime": 1.25,
                "instrument": 9,
                "pitch": 42,
                "velocity": 100
            },
            {
                "endTime": 1.625,
                "isDrum": true,
                "startTime": 1.5,
                "instrument": 9,
                "pitch": 42,
                "velocity": 100
            },
            {
                "endTime": 1.625,
                "isDrum": true,
                "startTime": 1.5,
                "instrument": 9,
                "pitch": 38,
                "velocity": 100
            },
            {
                "endTime": 1.875,
                "isDrum": true,
                "startTime": 1.75,
                "instrument": 9,
                "pitch": 42,
                "velocity": 100
            },
            {
                "endTime": 1.875,
                "isDrum": true,
                "startTime": 1.75,
                "instrument": 9,
                "pitch": 36,
                "velocity": 100
            },
            {
                "endTime": 2.125,
                "isDrum": true,
                "startTime": 2,
                "instrument": 9,
                "pitch": 42,
                "velocity": 100
            },
            {
                "endTime": 2.125,
                "isDrum": true,
                "startTime": 2,
                "instrument": 9,
                "pitch": 36,
                "velocity": 100
            },
            {
                "endTime": 2.375,
                "isDrum": true,
                "startTime": 2.25,
                "instrument": 9,
                "pitch": 42,
                "velocity": 100
            },
            {
                "endTime": 2.625,
                "isDrum": true,
                "startTime": 2.5,
                "instrument": 9,
                "pitch": 42,
                "velocity": 100
            },
            {
                "endTime": 2.625,
                "isDrum": true,
                "startTime": 2.5,
                "instrument": 9,
                "pitch": 38,
                "velocity": 100
            },
            {
                "endTime": 2.875,
                "isDrum": true,
                "startTime": 2.75,
                "instrument": 9,
                "pitch": 42,
                "velocity": 100
            },
            {
                "endTime": 2.875,
                "isDrum": true,
                "startTime": 2.75,
                "instrument": 9,
                "pitch": 36,
                "velocity": 100
            },
            {
                "endTime": 3.125,
                "isDrum": true,
                "startTime": 3,
                "instrument": 9,
                "pitch": 42,
                "velocity": 100
            },
            {
                "endTime": 3.125,
                "isDrum": true,
                "startTime": 3,
                "instrument": 9,
                "pitch": 50,
                "velocity": 100
            },
            {
                "endTime": 3.375,
                "isDrum": true,
                "startTime": 3.25,
                "instrument": 9,
                "pitch": 42,
                "velocity": 100
            },
            {
                "endTime": 3.375,
                "isDrum": true,
                "startTime": 3.25,
                "instrument": 9,
                "pitch": 36,
                "velocity": 100
            },
            {
                "endTime": 3.375,
                "isDrum": true,
                "startTime": 3.25,
                "instrument": 9,
                "pitch": 45,
                "velocity": 100
            },
            {
                "endTime": 3.625,
                "isDrum": true,
                "startTime": 3.5,
                "instrument": 9,
                "pitch": 49,
                "velocity": 100
            },
            {
                "endTime": 3.625,
                "isDrum": true,
                "startTime": 3.5,
                "instrument": 9,
                "pitch": 42,
                "velocity": 100
            },
            {
                "endTime": 3.625,
                "isDrum": true,
                "startTime": 3.5,
                "instrument": 9,
                "pitch": 38,
                "velocity": 100
            },
            {
                "endTime": 3.875,
                "isDrum": true,
                "startTime": 3.75,
                "instrument": 9,
                "pitch": 42,
                "velocity": 100
            },
            {
                "endTime": 3.875,
                "isDrum": true,
                "startTime": 3.75,
                "instrument": 9,
                "pitch": 36,
                "velocity": 100
            }
        ],
        "totalTime": 3.875,
        "ticksPerQuarter": 220,
        "tempos": [
            {
                "qpm": 120
            }
        ]
    },
    {
        "notes": [
            {
                "endTime": 0.375,
                "isDrum": true,
                "startTime": 0.25,
                "instrument": 9,
                "pitch": 42,
                "velocity": 100
            },
            {
                "endTime": 0.625,
                "isDrum": true,
                "startTime": 0.5,
                "instrument": 9,
                "pitch": 42,
                "velocity": 100
            },
            {
                "endTime": 1.125,
                "isDrum": true,
                "startTime": 1,
                "instrument": 9,
                "pitch": 42,
                "velocity": 100
            },
            {
                "endTime": 1.125,
                "isDrum": true,
                "startTime": 1,
                "instrument": 9,
                "pitch": 36,
                "velocity": 100
            },
            {
                "endTime": 1.375,
                "isDrum": true,
                "startTime": 1.25,
                "instrument": 9,
                "pitch": 42,
                "velocity": 100
            },
            {
                "endTime": 1.625,
                "isDrum": true,
                "startTime": 1.5,
                "instrument": 9,
                "pitch": 42,
                "velocity": 100
            },
            {
                "endTime": 1.625,
                "isDrum": true,
                "startTime": 1.5,
                "instrument": 9,
                "pitch": 38,
                "velocity": 100
            },
            {
                "endTime": 1.875,
                "isDrum": true,
                "startTime": 1.75,
                "instrument": 9,
                "pitch": 42,
                "velocity": 100
            },
            {
                "endTime": 1.875,
                "isDrum": true,
                "startTime": 1.75,
                "instrument": 9,
                "pitch": 36,
                "velocity": 100
            },
            {
                "endTime": 2.125,
                "isDrum": true,
                "startTime": 2,
                "instrument": 9,
                "pitch": 42,
                "velocity": 100
            },
            {
                "endTime": 2.125,
                "isDrum": true,
                "startTime": 2,
                "instrument": 9,
                "pitch": 36,
                "velocity": 100
            },
            {
                "endTime": 2.375,
                "isDrum": true,
                "startTime": 2.25,
                "instrument": 9,
                "pitch": 42,
                "velocity": 100
            },
            {
                "endTime": 2.625,
                "isDrum": true,
                "startTime": 2.5,
                "instrument": 9,
                "pitch": 50,
                "velocity": 100
            },
            {
                "endTime": 2.625,
                "isDrum": true,
                "startTime": 2.5,
                "instrument": 9,
                "pitch": 46,
                "velocity": 100
            },
            {
                "endTime": 2.875,
                "isDrum": true,
                "startTime": 2.75,
                "instrument": 9,
                "pitch": 42,
                "velocity": 100
            },
            {
                "endTime": 2.875,
                "isDrum": true,
                "startTime": 2.75,
                "instrument": 9,
                "pitch": 36,
                "velocity": 100
            },
            {
                "endTime": 3.125,
                "isDrum": true,
                "startTime": 3,
                "instrument": 9,
                "pitch": 42,
                "velocity": 100
            },
            {
                "endTime": 3.125,
                "isDrum": true,
                "startTime": 3,
                "instrument": 9,
                "pitch": 50,
                "velocity": 100
            },
            {
                "endTime": 3.375,
                "isDrum": true,
                "startTime": 3.25,
                "instrument": 9,
                "pitch": 42,
                "velocity": 100
            },
            {
                "endTime": 3.375,
                "isDrum": true,
                "startTime": 3.25,
                "instrument": 9,
                "pitch": 36,
                "velocity": 100
            },
            {
                "endTime": 3.625,
                "isDrum": true,
                "startTime": 3.5,
                "instrument": 9,
                "pitch": 42,
                "velocity": 100
            },
            {
                "endTime": 3.625,
                "isDrum": true,
                "startTime": 3.5,
                "instrument": 9,
                "pitch": 50,
                "velocity": 100
            },
            {
                "endTime": 3.875,
                "isDrum": true,
                "startTime": 3.75,
                "instrument": 9,
                "pitch": 42,
                "velocity": 100
            },
            {
                "endTime": 3.875,
                "isDrum": true,
                "startTime": 3.75,
                "instrument": 9,
                "pitch": 36,
                "velocity": 100
            }
        ],
        "totalTime": 3.875,
        "ticksPerQuarter": 220,
        "tempos": [
            {
                "qpm": 120
            }
        ]
    },
    {
        "notes": [
            {
                "endTime": 0.375,
                "isDrum": true,
                "startTime": 0.25,
                "instrument": 9,
                "pitch": 42,
                "velocity": 100
            },
            {
                "endTime": 0.625,
                "isDrum": true,
                "startTime": 0.5,
                "instrument": 9,
                "pitch": 42,
                "velocity": 100
            },
            {
                "endTime": 1.125,
                "isDrum": true,
                "startTime": 1,
                "instrument": 9,
                "pitch": 42,
                "velocity": 100
            },
            {
                "endTime": 1.125,
                "isDrum": true,
                "startTime": 1,
                "instrument": 9,
                "pitch": 36,
                "velocity": 100
            },
            {
                "endTime": 1.375,
                "isDrum": true,
                "startTime": 1.25,
                "instrument": 9,
                "pitch": 42,
                "velocity": 100
            },
            {
                "endTime": 1.625,
                "isDrum": true,
                "startTime": 1.5,
                "instrument": 9,
                "pitch": 42,
                "velocity": 100
            },
            {
                "endTime": 1.625,
                "isDrum": true,
                "startTime": 1.5,
                "instrument": 9,
                "pitch": 50,
                "velocity": 100
            },
            {
                "endTime": 1.875,
                "isDrum": true,
                "startTime": 1.75,
                "instrument": 9,
                "pitch": 42,
                "velocity": 100
            },
            {
                "endTime": 1.875,
                "isDrum": true,
                "startTime": 1.75,
                "instrument": 9,
                "pitch": 36,
                "velocity": 100
            },
            {
                "endTime": 2.125,
                "isDrum": true,
                "startTime": 2,
                "instrument": 9,
                "pitch": 42,
                "velocity": 100
            },
            {
                "endTime": 2.125,
                "isDrum": true,
                "startTime": 2,
                "instrument": 9,
                "pitch": 36,
                "velocity": 100
            },
            {
                "endTime": 2.125,
                "isDrum": true,
                "startTime": 2,
                "instrument": 9,
                "pitch": 50,
                "velocity": 100
            },
            {
                "endTime": 2.375,
                "isDrum": true,
                "startTime": 2.25,
                "instrument": 9,
                "pitch": 42,
                "velocity": 100
            },
            {
                "endTime": 2.625,
                "isDrum": true,
                "startTime": 2.5,
                "instrument": 9,
                "pitch": 42,
                "velocity": 100
            },
            {
                "endTime": 2.625,
                "isDrum": true,
                "startTime": 2.5,
                "instrument": 9,
                "pitch": 50,
                "velocity": 100
            },
            {
                "endTime": 2.875,
                "isDrum": true,
                "startTime": 2.75,
                "instrument": 9,
                "pitch": 42,
                "velocity": 100
            },
            {
                "endTime": 2.875,
                "isDrum": true,
                "startTime": 2.75,
                "instrument": 9,
                "pitch": 50,
                "velocity": 100
            },
            {
                "endTime": 3.125,
                "isDrum": true,
                "startTime": 3,
                "instrument": 9,
                "pitch": 42,
                "velocity": 100
            },
            {
                "endTime": 3.125,
                "isDrum": true,
                "startTime": 3,
                "instrument": 9,
                "pitch": 50,
                "velocity": 100
            },
            {
                "endTime": 3.375,
                "isDrum": true,
                "startTime": 3.25,
                "instrument": 9,
                "pitch": 42,
                "velocity": 100
            },
            {
                "endTime": 3.375,
                "isDrum": true,
                "startTime": 3.25,
                "instrument": 9,
                "pitch": 36,
                "velocity": 100
            },
            {
                "endTime": 3.625,
                "isDrum": true,
                "startTime": 3.5,
                "instrument": 9,
                "pitch": 42,
                "velocity": 100
            },
            {
                "endTime": 3.625,
                "isDrum": true,
                "startTime": 3.5,
                "instrument": 9,
                "pitch": 50,
                "velocity": 100
            },
            {
                "endTime": 3.875,
                "isDrum": true,
                "startTime": 3.75,
                "instrument": 9,
                "pitch": 42,
                "velocity": 100
            }
        ],
        "totalTime": 3.875,
        "ticksPerQuarter": 220,
        "tempos": [
            {
                "qpm": 120
            }
        ]
    },
    {
        "notes": [
            {
                "endTime": 0.375,
                "isDrum": true,
                "startTime": 0.25,
                "instrument": 9,
                "pitch": 42,
                "velocity": 100
            },
            {
                "endTime": 0.625,
                "isDrum": true,
                "startTime": 0.5,
                "instrument": 9,
                "pitch": 42,
                "velocity": 100
            },
            {
                "endTime": 1.375,
                "isDrum": true,
                "startTime": 1.25,
                "instrument": 9,
                "pitch": 42,
                "velocity": 100
            },
            {
                "endTime": 1.625,
                "isDrum": true,
                "startTime": 1.5,
                "instrument": 9,
                "pitch": 42,
                "velocity": 100
            },
            {
                "endTime": 1.625,
                "isDrum": true,
                "startTime": 1.5,
                "instrument": 9,
                "pitch": 50,
                "velocity": 100
            },
            {
                "endTime": 2.125,
                "isDrum": true,
                "startTime": 2,
                "instrument": 9,
                "pitch": 42,
                "velocity": 100
            },
            {
                "endTime": 2.125,
                "isDrum": true,
                "startTime": 2,
                "instrument": 9,
                "pitch": 36,
                "velocity": 100
            },
            {
                "endTime": 2.125,
                "isDrum": true,
                "startTime": 2,
                "instrument": 9,
                "pitch": 50,
                "velocity": 100
            },
            {
                "endTime": 2.375,
                "isDrum": true,
                "startTime": 2.25,
                "instrument": 9,
                "pitch": 42,
                "velocity": 100
            },
            {
                "endTime": 2.625,
                "isDrum": true,
                "startTime": 2.5,
                "instrument": 9,
                "pitch": 42,
                "velocity": 100
            },
            {
                "endTime": 2.625,
                "isDrum": true,
                "startTime": 2.5,
                "instrument": 9,
                "pitch": 50,
                "velocity": 100
            },
            {
                "endTime": 2.875,
                "isDrum": true,
                "startTime": 2.75,
                "instrument": 9,
                "pitch": 50,
                "velocity": 100
            },
            {
                "endTime": 3.125,
                "isDrum": true,
                "startTime": 3,
                "instrument": 9,
                "pitch": 42,
                "velocity": 100
            },
            {
                "endTime": 3.125,
                "isDrum": true,
                "startTime": 3,
                "instrument": 9,
                "pitch": 36,
                "velocity": 100
            },
            {
                "endTime": 3.125,
                "isDrum": true,
                "startTime": 3,
                "instrument": 9,
                "pitch": 50,
                "velocity": 100
            },
            {
                "endTime": 3.375,
                "isDrum": true,
                "startTime": 3.25,
                "instrument": 9,
                "pitch": 42,
                "velocity": 100
            },
            {
                "endTime": 3.375,
                "isDrum": true,
                "startTime": 3.25,
                "instrument": 9,
                "pitch": 50,
                "velocity": 100
            },
            {
                "endTime": 3.625,
                "isDrum": true,
                "startTime": 3.5,
                "instrument": 9,
                "pitch": 42,
                "velocity": 100
            },
            {
                "endTime": 3.625,
                "isDrum": true,
                "startTime": 3.5,
                "instrument": 9,
                "pitch": 50,
                "velocity": 100
            },
            {
                "endTime": 3.875,
                "isDrum": true,
                "startTime": 3.75,
                "instrument": 9,
                "pitch": 42,
                "velocity": 100
            }
        ],
        "totalTime": 3.875,
        "ticksPerQuarter": 220,
        "tempos": [
            {
                "qpm": 120
            }
        ]
    },
    {
        "notes": [
            {
                "endTime": 0.375,
                "isDrum": true,
                "startTime": 0.25,
                "instrument": 9,
                "pitch": 42,
                "velocity": 100
            },
            {
                "endTime": 0.625,
                "isDrum": true,
                "startTime": 0.5,
                "instrument": 9,
                "pitch": 42,
                "velocity": 100
            },
            {
                "endTime": 1.625,
                "isDrum": true,
                "startTime": 1.5,
                "instrument": 9,
                "pitch": 42,
                "velocity": 100
            },
            {
                "endTime": 1.625,
                "isDrum": true,
                "startTime": 1.5,
                "instrument": 9,
                "pitch": 50,
                "velocity": 100
            },
            {
                "endTime": 2.125,
                "isDrum": true,
                "startTime": 2,
                "instrument": 9,
                "pitch": 49,
                "velocity": 100
            },
            {
                "endTime": 2.125,
                "isDrum": true,
                "startTime": 2,
                "instrument": 9,
                "pitch": 42,
                "velocity": 100
            },
            {
                "endTime": 2.125,
                "isDrum": true,
                "startTime": 2,
                "instrument": 9,
                "pitch": 36,
                "velocity": 100
            },
            {
                "endTime": 2.625,
                "isDrum": true,
                "startTime": 2.5,
                "instrument": 9,
                "pitch": 42,
                "velocity": 100
            },
            {
                "endTime": 2.625,
                "isDrum": true,
                "startTime": 2.5,
                "instrument": 9,
                "pitch": 50,
                "velocity": 100
            },
            {
                "endTime": 2.875,
                "isDrum": true,
                "startTime": 2.75,
                "instrument": 9,
                "pitch": 50,
                "velocity": 100
            },
            {
                "endTime": 3.125,
                "isDrum": true,
                "startTime": 3,
                "instrument": 9,
                "pitch": 42,
                "velocity": 100
            },
            {
                "endTime": 3.125,
                "isDrum": true,
                "startTime": 3,
                "instrument": 9,
                "pitch": 36,
                "velocity": 100
            },
            {
                "endTime": 3.125,
                "isDrum": true,
                "startTime": 3,
                "instrument": 9,
                "pitch": 50,
                "velocity": 100
            },
            {
                "endTime": 3.375,
                "isDrum": true,
                "startTime": 3.25,
                "instrument": 9,
                "pitch": 42,
                "velocity": 100
            },
            {
                "endTime": 3.375,
                "isDrum": true,
                "startTime": 3.25,
                "instrument": 9,
                "pitch": 50,
                "velocity": 100
            },
            {
                "endTime": 3.625,
                "isDrum": true,
                "startTime": 3.5,
                "instrument": 9,
                "pitch": 42,
                "velocity": 100
            },
            {
                "endTime": 3.625,
                "isDrum": true,
                "startTime": 3.5,
                "instrument": 9,
                "pitch": 50,
                "velocity": 100
            },
            {
                "endTime": 3.875,
                "isDrum": true,
                "startTime": 3.75,
                "instrument": 9,
                "pitch": 42,
                "velocity": 100
            }
        ],
        "totalTime": 3.875,
        "ticksPerQuarter": 220,
        "tempos": [
            {
                "qpm": 120
            }
        ]
    },
    {
        "notes": [
            {
                "endTime": 0.625,
                "isDrum": true,
                "startTime": 0.5,
                "instrument": 9,
                "pitch": 42,
                "velocity": 100
            },
            {
                "endTime": 0.625,
                "isDrum": true,
                "startTime": 0.5,
                "instrument": 9,
                "pitch": 50,
                "velocity": 100
            },
            {
                "endTime": 1.625,
                "isDrum": true,
                "startTime": 1.5,
                "instrument": 9,
                "pitch": 42,
                "velocity": 100
            },
            {
                "endTime": 1.625,
                "isDrum": true,
                "startTime": 1.5,
                "instrument": 9,
                "pitch": 50,
                "velocity": 100
            },
            {
                "endTime": 2.125,
                "isDrum": true,
                "startTime": 2,
                "instrument": 9,
                "pitch": 42,
                "velocity": 100
            },
            {
                "endTime": 2.125,
                "isDrum": true,
                "startTime": 2,
                "instrument": 9,
                "pitch": 36,
                "velocity": 100
            },
            {
                "endTime": 2.125,
                "isDrum": true,
                "startTime": 2,
                "instrument": 9,
                "pitch": 50,
                "velocity": 100
            },
            {
                "endTime": 2.625,
                "isDrum": true,
                "startTime": 2.5,
                "instrument": 9,
                "pitch": 42,
                "velocity": 100
            },
            {
                "endTime": 2.625,
                "isDrum": true,
                "startTime": 2.5,
                "instrument": 9,
                "pitch": 50,
                "velocity": 100
            },
            {
                "endTime": 2.875,
                "isDrum": true,
                "startTime": 2.75,
                "instrument": 9,
                "pitch": 50,
                "velocity": 100
            },
            {
                "endTime": 3.125,
                "isDrum": true,
                "startTime": 3,
                "instrument": 9,
                "pitch": 42,
                "velocity": 100
            },
            {
                "endTime": 3.125,
                "isDrum": true,
                "startTime": 3,
                "instrument": 9,
                "pitch": 36,
                "velocity": 100
            },
            {
                "endTime": 3.125,
                "isDrum": true,
                "startTime": 3,
                "instrument": 9,
                "pitch": 50,
                "velocity": 100
            },
            {
                "endTime": 3.375,
                "isDrum": true,
                "startTime": 3.25,
                "instrument": 9,
                "pitch": 42,
                "velocity": 100
            },
            {
                "endTime": 3.375,
                "isDrum": true,
                "startTime": 3.25,
                "instrument": 9,
                "pitch": 50,
                "velocity": 100
            },
            {
                "endTime": 3.625,
                "isDrum": true,
                "startTime": 3.5,
                "instrument": 9,
                "pitch": 42,
                "velocity": 100
            },
            {
                "endTime": 3.875,
                "isDrum": true,
                "startTime": 3.75,
                "instrument": 9,
                "pitch": 50,
                "velocity": 100
            }
        ],
        "totalTime": 3.875,
        "ticksPerQuarter": 220,
        "tempos": [
            {
                "qpm": 120
            }
        ]
    },
    {
        "notes": [
            {
                "endTime": 0.625,
                "isDrum": true,
                "startTime": 0.5,
                "instrument": 9,
                "pitch": 42,
                "velocity": 100
            },
            {
                "endTime": 0.625,
                "isDrum": true,
                "startTime": 0.5,
                "instrument": 9,
                "pitch": 50,
                "velocity": 100
            },
            {
                "endTime": 1.625,
                "isDrum": true,
                "startTime": 1.5,
                "instrument": 9,
                "pitch": 50,
                "velocity": 100
            },
            {
                "endTime": 2.125,
                "isDrum": true,
                "startTime": 2,
                "instrument": 9,
                "pitch": 42,
                "velocity": 100
            },
            {
                "endTime": 2.125,
                "isDrum": true,
                "startTime": 2,
                "instrument": 9,
                "pitch": 36,
                "velocity": 100
            },
            {
                "endTime": 2.125,
                "isDrum": true,
                "startTime": 2,
                "instrument": 9,
                "pitch": 50,
                "velocity": 100
            },
            {
                "endTime": 2.625,
                "isDrum": true,
                "startTime": 2.5,
                "instrument": 9,
                "pitch": 42,
                "velocity": 100
            },
            {
                "endTime": 2.625,
                "isDrum": true,
                "startTime": 2.5,
                "instrument": 9,
                "pitch": 50,
                "velocity": 100
            },
            {
                "endTime": 2.875,
                "isDrum": true,
                "startTime": 2.75,
                "instrument": 9,
                "pitch": 50,
                "velocity": 100
            },
            {
                "endTime": 3.125,
                "isDrum": true,
                "startTime": 3,
                "instrument": 9,
                "pitch": 42,
                "velocity": 100
            },
            {
                "endTime": 3.125,
                "isDrum": true,
                "startTime": 3,
                "instrument": 9,
                "pitch": 36,
                "velocity": 100
            },
            {
                "endTime": 3.125,
                "isDrum": true,
                "startTime": 3,
                "instrument": 9,
                "pitch": 50,
                "velocity": 100
            },
            {
                "endTime": 3.375,
                "isDrum": true,
                "startTime": 3.25,
                "instrument": 9,
                "pitch": 42,
                "velocity": 100
            },
            {
                "endTime": 3.375,
                "isDrum": true,
                "startTime": 3.25,
                "instrument": 9,
                "pitch": 50,
                "velocity": 100
            },
            {
                "endTime": 3.625,
                "isDrum": true,
                "startTime": 3.5,
                "instrument": 9,
                "pitch": 50,
                "velocity": 100
            },
            {
                "endTime": 3.875,
                "isDrum": true,
                "startTime": 3.75,
                "instrument": 9,
                "pitch": 50,
                "velocity": 100
            }
        ],
        "totalTime": 3.875,
        "ticksPerQuarter": 220,
        "tempos": [
            {
                "qpm": 120
            }
        ]
    },
    {
        "notes": [
            {
                "endTime": 0.625,
                "isDrum": true,
                "startTime": 0.5,
                "instrument": 9,
                "pitch": 42,
                "velocity": 100
            },
            {
                "endTime": 0.625,
                "isDrum": true,
                "startTime": 0.5,
                "instrument": 9,
                "pitch": 50,
                "velocity": 100
            },
            {
                "endTime": 1.625,
                "isDrum": true,
                "startTime": 1.5,
                "instrument": 9,
                "pitch": 50,
                "velocity": 100
            },
            {
                "endTime": 2.125,
                "isDrum": true,
                "startTime": 2,
                "instrument": 9,
                "pitch": 42,
                "velocity": 100
            },
            {
                "endTime": 2.125,
                "isDrum": true,
                "startTime": 2,
                "instrument": 9,
                "pitch": 36,
                "velocity": 100
            },
            {
                "endTime": 2.125,
                "isDrum": true,
                "startTime": 2,
                "instrument": 9,
                "pitch": 50,
                "velocity": 100
            },
            {
                "endTime": 2.625,
                "isDrum": true,
                "startTime": 2.5,
                "instrument": 9,
                "pitch": 42,
                "velocity": 100
            },
            {
                "endTime": 2.625,
                "isDrum": true,
                "startTime": 2.5,
                "instrument": 9,
                "pitch": 50,
                "velocity": 100
            },
            {
                "endTime": 2.875,
                "isDrum": true,
                "startTime": 2.75,
                "instrument": 9,
                "pitch": 50,
                "velocity": 100
            },
            {
                "endTime": 3.125,
                "isDrum": true,
                "startTime": 3,
                "instrument": 9,
                "pitch": 42,
                "velocity": 100
            },
            {
                "endTime": 3.125,
                "isDrum": true,
                "startTime": 3,
                "instrument": 9,
                "pitch": 36,
                "velocity": 100
            },
            {
                "endTime": 3.125,
                "isDrum": true,
                "startTime": 3,
                "instrument": 9,
                "pitch": 50,
                "velocity": 100
            },
            {
                "endTime": 3.375,
                "isDrum": true,
                "startTime": 3.25,
                "instrument": 9,
                "pitch": 42,
                "velocity": 100
            },
            {
                "endTime": 3.375,
                "isDrum": true,
                "startTime": 3.25,
                "instrument": 9,
                "pitch": 50,
                "velocity": 100
            },
            {
                "endTime": 3.875,
                "isDrum": true,
                "startTime": 3.75,
                "instrument": 9,
                "pitch": 50,
                "velocity": 100
            }
        ],
        "totalTime": 3.875,
        "ticksPerQuarter": 220,
        "tempos": [
            {
                "qpm": 120
            }
        ]
    },
    {
        "notes": [
            {
                "endTime": 0.625,
                "isDrum": true,
                "startTime": 0.5,
                "instrument": 9,
                "pitch": 42,
                "velocity": 100
            },
            {
                "endTime": 0.625,
                "isDrum": true,
                "startTime": 0.5,
                "instrument": 9,
                "pitch": 50,
                "velocity": 100
            },
            {
                "endTime": 1.625,
                "isDrum": true,
                "startTime": 1.5,
                "instrument": 9,
                "pitch": 50,
                "velocity": 100
            },
            {
                "endTime": 2.125,
                "isDrum": true,
                "startTime": 2,
                "instrument": 9,
                "pitch": 42,
                "velocity": 100
            },
            {
                "endTime": 2.125,
                "isDrum": true,
                "startTime": 2,
                "instrument": 9,
                "pitch": 36,
                "velocity": 100
            },
            {
                "endTime": 2.125,
                "isDrum": true,
                "startTime": 2,
                "instrument": 9,
                "pitch": 50,
                "velocity": 100
            },
            {
                "endTime": 2.625,
                "isDrum": true,
                "startTime": 2.5,
                "instrument": 9,
                "pitch": 42,
                "velocity": 100
            },
            {
                "endTime": 2.625,
                "isDrum": true,
                "startTime": 2.5,
                "instrument": 9,
                "pitch": 50,
                "velocity": 100
            },
            {
                "endTime": 2.875,
                "isDrum": true,
                "startTime": 2.75,
                "instrument": 9,
                "pitch": 50,
                "velocity": 100
            },
            {
                "endTime": 3.125,
                "isDrum": true,
                "startTime": 3,
                "instrument": 9,
                "pitch": 42,
                "velocity": 100
            },
            {
                "endTime": 3.125,
                "isDrum": true,
                "startTime": 3,
                "instrument": 9,
                "pitch": 36,
                "velocity": 100
            },
            {
                "endTime": 3.125,
                "isDrum": true,
                "startTime": 3,
                "instrument": 9,
                "pitch": 50,
                "velocity": 100
            },
            {
                "endTime": 3.375,
                "isDrum": true,
                "startTime": 3.25,
                "instrument": 9,
                "pitch": 42,
                "velocity": 100
            },
            {
                "endTime": 3.375,
                "isDrum": true,
                "startTime": 3.25,
                "instrument": 9,
                "pitch": 50,
                "velocity": 100
            }
        ],
        "totalTime": 3.375,
        "ticksPerQuarter": 220,
        "tempos": [
            {
                "qpm": 120
            }
        ]
    },
    {
        "notes": [
            {
                "velocity": 100,
                "isDrum": true,
                "instrument": 9,
                "pitch": 42,
                "endTime": 0.125
            },
            {
                "velocity": 100,
                "isDrum": true,
                "instrument": 9,
                "pitch": 36,
                "endTime": 0.125
            },
            {
                "velocity": 100,
                "isDrum": true,
                "instrument": 9,
                "pitch": 45,
                "endTime": 0.125
            },
            {
                "velocity": 100,
                "isDrum": true,
                "instrument": 9,
                "pitch": 46,
                "endTime": 0.125
            },
            {
                "endTime": 0.375,
                "isDrum": true,
                "startTime": 0.25,
                "instrument": 9,
                "pitch": 42,
                "velocity": 100
            },
            {
                "endTime": 0.625,
                "isDrum": true,
                "startTime": 0.5,
                "instrument": 9,
                "pitch": 42,
                "velocity": 100
            },
            {
                "endTime": 0.875,
                "isDrum": true,
                "startTime": 0.75,
                "instrument": 9,
                "pitch": 42,
                "velocity": 100
            },
            {
                "endTime": 0.875,
                "isDrum": true,
                "startTime": 0.75,
                "instrument": 9,
                "pitch": 36,
                "velocity": 100
            },
            {
                "endTime": 1.125,
                "isDrum": true,
                "startTime": 1,
                "instrument": 9,
                "pitch": 42,
                "velocity": 100
            },
            {
                "endTime": 1.125,
                "isDrum": true,
                "startTime": 1,
                "instrument": 9,
                "pitch": 36,
                "velocity": 100
            },
            {
                "endTime": 1.375,
                "isDrum": true,
                "startTime": 1.25,
                "instrument": 9,
                "pitch": 42,
                "velocity": 100
            },
            {
                "endTime": 1.625,
                "isDrum": true,
                "startTime": 1.5,
                "instrument": 9,
                "pitch": 42,
                "velocity": 100
            },
            {
                "endTime": 1.625,
                "isDrum": true,
                "startTime": 1.5,
                "instrument": 9,
                "pitch": 38,
                "velocity": 100
            },
            {
                "endTime": 1.875,
                "isDrum": true,
                "startTime": 1.75,
                "instrument": 9,
                "pitch": 42,
                "velocity": 100
            },
            {
                "endTime": 1.875,
                "isDrum": true,
                "startTime": 1.75,
                "instrument": 9,
                "pitch": 36,
                "velocity": 100
            },
            {
                "endTime": 2.125,
                "isDrum": true,
                "startTime": 2,
                "instrument": 9,
                "pitch": 42,
                "velocity": 100
            },
            {
                "endTime": 2.125,
                "isDrum": true,
                "startTime": 2,
                "instrument": 9,
                "pitch": 36,
                "velocity": 100
            },
            {
                "endTime": 2.375,
                "isDrum": true,
                "startTime": 2.25,
                "instrument": 9,
                "pitch": 42,
                "velocity": 100
            },
            {
                "endTime": 2.625,
                "isDrum": true,
                "startTime": 2.5,
                "instrument": 9,
                "pitch": 42,
                "velocity": 100
            },
            {
                "endTime": 2.625,
                "isDrum": true,
                "startTime": 2.5,
                "instrument": 9,
                "pitch": 38,
                "velocity": 100
            },
            {
                "endTime": 2.875,
                "isDrum": true,
                "startTime": 2.75,
                "instrument": 9,
                "pitch": 42,
                "velocity": 100
            },
            {
                "endTime": 2.875,
                "isDrum": true,
                "startTime": 2.75,
                "instrument": 9,
                "pitch": 36,
                "velocity": 100
            },
            {
                "endTime": 3.125,
                "isDrum": true,
                "startTime": 3,
                "instrument": 9,
                "pitch": 42,
                "velocity": 100
            },
            {
                "endTime": 3.125,
                "isDrum": true,
                "startTime": 3,
                "instrument": 9,
                "pitch": 36,
                "velocity": 100
            },
            {
                "endTime": 3.375,
                "isDrum": true,
                "startTime": 3.25,
                "instrument": 9,
                "pitch": 42,
                "velocity": 100
            },
            {
                "endTime": 3.375,
                "isDrum": true,
                "startTime": 3.25,
                "instrument": 9,
                "pitch": 45,
                "velocity": 100
            },
            {
                "endTime": 3.625,
                "isDrum": true,
                "startTime": 3.5,
                "instrument": 9,
                "pitch": 42,
                "velocity": 100
            },
            {
                "endTime": 3.625,
                "isDrum": true,
                "startTime": 3.5,
                "instrument": 9,
                "pitch": 45,
                "velocity": 100
            },
            {
                "endTime": 3.875,
                "isDrum": true,
                "startTime": 3.75,
                "instrument": 9,
                "pitch": 42,
                "velocity": 100
            },
            {
                "endTime": 3.875,
                "isDrum": true,
                "startTime": 3.75,
                "instrument": 9,
                "pitch": 36,
                "velocity": 100
            }
        ],
        "totalTime": 3.875,
        "ticksPerQuarter": 220,
        "tempos": [
            {
                "qpm": 120
            }
        ]
    },
    {
        "notes": [
            {
                "velocity": 100,
                "isDrum": true,
                "instrument": 9,
                "pitch": 42,
                "endTime": 0.125
            },
            {
                "velocity": 100,
                "isDrum": true,
                "instrument": 9,
                "pitch": 36,
                "endTime": 0.125
            },
            {
                "velocity": 100,
                "isDrum": true,
                "instrument": 9,
                "pitch": 45,
                "endTime": 0.125
            },
            {
                "velocity": 100,
                "isDrum": true,
                "instrument": 9,
                "pitch": 46,
                "endTime": 0.125
            },
            {
                "endTime": 0.375,
                "isDrum": true,
                "startTime": 0.25,
                "instrument": 9,
                "pitch": 42,
                "velocity": 100
            },
            {
                "endTime": 0.625,
                "isDrum": true,
                "startTime": 0.5,
                "instrument": 9,
                "pitch": 42,
                "velocity": 100
            },
            {
                "endTime": 0.875,
                "isDrum": true,
                "startTime": 0.75,
                "instrument": 9,
                "pitch": 36,
                "velocity": 100
            },
            {
                "endTime": 0.875,
                "isDrum": true,
                "startTime": 0.75,
                "instrument": 9,
                "pitch": 46,
                "velocity": 100
            },
            {
                "endTime": 1.125,
                "isDrum": true,
                "startTime": 1,
                "instrument": 9,
                "pitch": 42,
                "velocity": 100
            },
            {
                "endTime": 1.125,
                "isDrum": true,
                "startTime": 1,
                "instrument": 9,
                "pitch": 36,
                "velocity": 100
            },
            {
                "endTime": 1.375,
                "isDrum": true,
                "startTime": 1.25,
                "instrument": 9,
                "pitch": 42,
                "velocity": 100
            },
            {
                "endTime": 1.625,
                "isDrum": true,
                "startTime": 1.5,
                "instrument": 9,
                "pitch": 42,
                "velocity": 100
            },
            {
                "endTime": 1.625,
                "isDrum": true,
                "startTime": 1.5,
                "instrument": 9,
                "pitch": 38,
                "velocity": 100
            },
            {
                "endTime": 1.875,
                "isDrum": true,
                "startTime": 1.75,
                "instrument": 9,
                "pitch": 42,
                "velocity": 100
            },
            {
                "endTime": 1.875,
                "isDrum": true,
                "startTime": 1.75,
                "instrument": 9,
                "pitch": 36,
                "velocity": 100
            },
            {
                "endTime": 2.125,
                "isDrum": true,
                "startTime": 2,
                "instrument": 9,
                "pitch": 42,
                "velocity": 100
            },
            {
                "endTime": 2.125,
                "isDrum": true,
                "startTime": 2,
                "instrument": 9,
                "pitch": 36,
                "velocity": 100
            },
            {
                "endTime": 2.375,
                "isDrum": true,
                "startTime": 2.25,
                "instrument": 9,
                "pitch": 42,
                "velocity": 100
            },
            {
                "endTime": 2.625,
                "isDrum": true,
                "startTime": 2.5,
                "instrument": 9,
                "pitch": 42,
                "velocity": 100
            },
            {
                "endTime": 2.625,
                "isDrum": true,
                "startTime": 2.5,
                "instrument": 9,
                "pitch": 38,
                "velocity": 100
            },
            {
                "endTime": 2.875,
                "isDrum": true,
                "startTime": 2.75,
                "instrument": 9,
                "pitch": 42,
                "velocity": 100
            },
            {
                "endTime": 2.875,
                "isDrum": true,
                "startTime": 2.75,
                "instrument": 9,
                "pitch": 36,
                "velocity": 100
            },
            {
                "endTime": 3.125,
                "isDrum": true,
                "startTime": 3,
                "instrument": 9,
                "pitch": 42,
                "velocity": 100
            },
            {
                "endTime": 3.125,
                "isDrum": true,
                "startTime": 3,
                "instrument": 9,
                "pitch": 36,
                "velocity": 100
            },
            {
                "endTime": 3.375,
                "isDrum": true,
                "startTime": 3.25,
                "instrument": 9,
                "pitch": 42,
                "velocity": 100
            },
            {
                "endTime": 3.375,
                "isDrum": true,
                "startTime": 3.25,
                "instrument": 9,
                "pitch": 45,
                "velocity": 100
            },
            {
                "endTime": 3.625,
                "isDrum": true,
                "startTime": 3.5,
                "instrument": 9,
                "pitch": 49,
                "velocity": 100
            },
            {
                "endTime": 3.625,
                "isDrum": true,
                "startTime": 3.5,
                "instrument": 9,
                "pitch": 42,
                "velocity": 100
            },
            {
                "endTime": 3.625,
                "isDrum": true,
                "startTime": 3.5,
                "instrument": 9,
                "pitch": 50,
                "velocity": 100
            },
            {
                "endTime": 3.875,
                "isDrum": true,
                "startTime": 3.75,
                "instrument": 9,
                "pitch": 42,
                "velocity": 100
            },
            {
                "endTime": 3.875,
                "isDrum": true,
                "startTime": 3.75,
                "instrument": 9,
                "pitch": 36,
                "velocity": 100
            }
        ],
        "totalTime": 3.875,
        "ticksPerQuarter": 220,
        "tempos": [
            {
                "qpm": 120
            }
        ]
    },
    {
        "notes": [
            {
                "endTime": 0.375,
                "isDrum": true,
                "startTime": 0.25,
                "instrument": 9,
                "pitch": 42,
                "velocity": 100
            },
            {
                "endTime": 0.625,
                "isDrum": true,
                "startTime": 0.5,
                "instrument": 9,
                "pitch": 42,
                "velocity": 100
            },
            {
                "endTime": 0.875,
                "isDrum": true,
                "startTime": 0.75,
                "instrument": 9,
                "pitch": 36,
                "velocity": 100
            },
            {
                "endTime": 0.875,
                "isDrum": true,
                "startTime": 0.75,
                "instrument": 9,
                "pitch": 46,
                "velocity": 100
            },
            {
                "endTime": 1.125,
                "isDrum": true,
                "startTime": 1,
                "instrument": 9,
                "pitch": 42,
                "velocity": 100
            },
            {
                "endTime": 1.125,
                "isDrum": true,
                "startTime": 1,
                "instrument": 9,
                "pitch": 36,
                "velocity": 100
            },
            {
                "endTime": 1.375,
                "isDrum": true,
                "startTime": 1.25,
                "instrument": 9,
                "pitch": 42,
                "velocity": 100
            },
            {
                "endTime": 1.625,
                "isDrum": true,
                "startTime": 1.5,
                "instrument": 9,
                "pitch": 42,
                "velocity": 100
            },
            {
                "endTime": 1.625,
                "isDrum": true,
                "startTime": 1.5,
                "instrument": 9,
                "pitch": 38,
                "velocity": 100
            },
            {
                "endTime": 1.875,
                "isDrum": true,
                "startTime": 1.75,
                "instrument": 9,
                "pitch": 42,
                "velocity": 100
            },
            {
                "endTime": 1.875,
                "isDrum": true,
                "startTime": 1.75,
                "instrument": 9,
                "pitch": 36,
                "velocity": 100
            },
            {
                "endTime": 2.125,
                "isDrum": true,
                "startTime": 2,
                "instrument": 9,
                "pitch": 42,
                "velocity": 100
            },
            {
                "endTime": 2.125,
                "isDrum": true,
                "startTime": 2,
                "instrument": 9,
                "pitch": 36,
                "velocity": 100
            },
            {
                "endTime": 2.375,
                "isDrum": true,
                "startTime": 2.25,
                "instrument": 9,
                "pitch": 42,
                "velocity": 100
            },
            {
                "endTime": 2.625,
                "isDrum": true,
                "startTime": 2.5,
                "instrument": 9,
                "pitch": 42,
                "velocity": 100
            },
            {
                "endTime": 2.625,
                "isDrum": true,
                "startTime": 2.5,
                "instrument": 9,
                "pitch": 38,
                "velocity": 100
            },
            {
                "endTime": 2.875,
                "isDrum": true,
                "startTime": 2.75,
                "instrument": 9,
                "pitch": 42,
                "velocity": 100
            },
            {
                "endTime": 2.875,
                "isDrum": true,
                "startTime": 2.75,
                "instrument": 9,
                "pitch": 36,
                "velocity": 100
            },
            {
                "endTime": 3.125,
                "isDrum": true,
                "startTime": 3,
                "instrument": 9,
                "pitch": 42,
                "velocity": 100
            },
            {
                "endTime": 3.125,
                "isDrum": true,
                "startTime": 3,
                "instrument": 9,
                "pitch": 50,
                "velocity": 100
            },
            {
                "endTime": 3.375,
                "isDrum": true,
                "startTime": 3.25,
                "instrument": 9,
                "pitch": 42,
                "velocity": 100
            },
            {
                "endTime": 3.375,
                "isDrum": true,
                "startTime": 3.25,
                "instrument": 9,
                "pitch": 38,
                "velocity": 100
            },
            {
                "endTime": 3.625,
                "isDrum": true,
                "startTime": 3.5,
                "instrument": 9,
                "pitch": 42,
                "velocity": 100
            },
            {
                "endTime": 3.625,
                "isDrum": true,
                "startTime": 3.5,
                "instrument": 9,
                "pitch": 36,
                "velocity": 100
            },
            {
                "endTime": 3.875,
                "isDrum": true,
                "startTime": 3.75,
                "instrument": 9,
                "pitch": 42,
                "velocity": 100
            },
            {
                "endTime": 3.875,
                "isDrum": true,
                "startTime": 3.75,
                "instrument": 9,
                "pitch": 36,
                "velocity": 100
            }
        ],
        "totalTime": 3.875,
        "ticksPerQuarter": 220,
        "tempos": [
            {
                "qpm": 120
            }
        ]
    },
    {
        "notes": [
            {
                "endTime": 0.375,
                "isDrum": true,
                "startTime": 0.25,
                "instrument": 9,
                "pitch": 42,
                "velocity": 100
            },
            {
                "endTime": 0.625,
                "isDrum": true,
                "startTime": 0.5,
                "instrument": 9,
                "pitch": 42,
                "velocity": 100
            },
            {
                "endTime": 0.875,
                "isDrum": true,
                "startTime": 0.75,
                "instrument": 9,
                "pitch": 42,
                "velocity": 100
            },
            {
                "endTime": 0.875,
                "isDrum": true,
                "startTime": 0.75,
                "instrument": 9,
                "pitch": 36,
                "velocity": 100
            },
            {
                "endTime": 0.875,
                "isDrum": true,
                "startTime": 0.75,
                "instrument": 9,
                "pitch": 50,
                "velocity": 100
            },
            {
                "endTime": 1.125,
                "isDrum": true,
                "startTime": 1,
                "instrument": 9,
                "pitch": 42,
                "velocity": 100
            },
            {
                "endTime": 1.125,
                "isDrum": true,
                "startTime": 1,
                "instrument": 9,
                "pitch": 36,
                "velocity": 100
            },
            {
                "endTime": 1.375,
                "isDrum": true,
                "startTime": 1.25,
                "instrument": 9,
                "pitch": 42,
                "velocity": 100
            },
            {
                "endTime": 1.625,
                "isDrum": true,
                "startTime": 1.5,
                "instrument": 9,
                "pitch": 42,
                "velocity": 100
            },
            {
                "endTime": 1.625,
                "isDrum": true,
                "startTime": 1.5,
                "instrument": 9,
                "pitch": 38,
                "velocity": 100
            },
            {
                "endTime": 1.875,
                "isDrum": true,
                "startTime": 1.75,
                "instrument": 9,
                "pitch": 42,
                "velocity": 100
            },
            {
                "endTime": 1.875,
                "isDrum": true,
                "startTime": 1.75,
                "instrument": 9,
                "pitch": 36,
                "velocity": 100
            },
            {
                "endTime": 2.125,
                "isDrum": true,
                "startTime": 2,
                "instrument": 9,
                "pitch": 42,
                "velocity": 100
            },
            {
                "endTime": 2.125,
                "isDrum": true,
                "startTime": 2,
                "instrument": 9,
                "pitch": 36,
                "velocity": 100
            },
            {
                "endTime": 2.375,
                "isDrum": true,
                "startTime": 2.25,
                "instrument": 9,
                "pitch": 42,
                "velocity": 100
            },
            {
                "endTime": 2.625,
                "isDrum": true,
                "startTime": 2.5,
                "instrument": 9,
                "pitch": 42,
                "velocity": 100
            },
            {
                "endTime": 2.625,
                "isDrum": true,
                "startTime": 2.5,
                "instrument": 9,
                "pitch": 38,
                "velocity": 100
            },
            {
                "endTime": 2.875,
                "isDrum": true,
                "startTime": 2.75,
                "instrument": 9,
                "pitch": 42,
                "velocity": 100
            },
            {
                "endTime": 2.875,
                "isDrum": true,
                "startTime": 2.75,
                "instrument": 9,
                "pitch": 36,
                "velocity": 100
            },
            {
                "endTime": 3.125,
                "isDrum": true,
                "startTime": 3,
                "instrument": 9,
                "pitch": 42,
                "velocity": 100
            },
            {
                "endTime": 3.125,
                "isDrum": true,
                "startTime": 3,
                "instrument": 9,
                "pitch": 50,
                "velocity": 100
            },
            {
                "endTime": 3.375,
                "isDrum": true,
                "startTime": 3.25,
                "instrument": 9,
                "pitch": 42,
                "velocity": 100
            },
            {
                "endTime": 3.375,
                "isDrum": true,
                "startTime": 3.25,
                "instrument": 9,
                "pitch": 38,
                "velocity": 100
            },
            {
                "endTime": 3.625,
                "isDrum": true,
                "startTime": 3.5,
                "instrument": 9,
                "pitch": 42,
                "velocity": 100
            },
            {
                "endTime": 3.625,
                "isDrum": true,
                "startTime": 3.5,
                "instrument": 9,
                "pitch": 50,
                "velocity": 100
            },
            {
                "endTime": 3.875,
                "isDrum": true,
                "startTime": 3.75,
                "instrument": 9,
                "pitch": 49,
                "velocity": 100
            },
            {
                "endTime": 3.875,
                "isDrum": true,
                "startTime": 3.75,
                "instrument": 9,
                "pitch": 42,
                "velocity": 100
            },
            {
                "endTime": 3.875,
                "isDrum": true,
                "startTime": 3.75,
                "instrument": 9,
                "pitch": 36,
                "velocity": 100
            }
        ],
        "totalTime": 3.875,
        "ticksPerQuarter": 220,
        "tempos": [
            {
                "qpm": 120
            }
        ]
    },
    {
        "notes": [
            {
                "endTime": 0.375,
                "isDrum": true,
                "startTime": 0.25,
                "instrument": 9,
                "pitch": 42,
                "velocity": 100
            },
            {
                "endTime": 0.625,
                "isDrum": true,
                "startTime": 0.5,
                "instrument": 9,
                "pitch": 42,
                "velocity": 100
            },
            {
                "endTime": 1.375,
                "isDrum": true,
                "startTime": 1.25,
                "instrument": 9,
                "pitch": 42,
                "velocity": 100
            },
            {
                "endTime": 1.625,
                "isDrum": true,
                "startTime": 1.5,
                "instrument": 9,
                "pitch": 42,
                "velocity": 100
            },
            {
                "endTime": 1.625,
                "isDrum": true,
                "startTime": 1.5,
                "instrument": 9,
                "pitch": 50,
                "velocity": 100
            },
            {
                "endTime": 1.875,
                "isDrum": true,
                "startTime": 1.75,
                "instrument": 9,
                "pitch": 42,
                "velocity": 100
            },
            {
                "endTime": 1.875,
                "isDrum": true,
                "startTime": 1.75,
                "instrument": 9,
                "pitch": 36,
                "velocity": 100
            },
            {
                "endTime": 2.125,
                "isDrum": true,
                "startTime": 2,
                "instrument": 9,
                "pitch": 49,
                "velocity": 100
            },
            {
                "endTime": 2.125,
                "isDrum": true,
                "startTime": 2,
                "instrument": 9,
                "pitch": 42,
                "velocity": 100
            },
            {
                "endTime": 2.125,
                "isDrum": true,
                "startTime": 2,
                "instrument": 9,
                "pitch": 36,
                "velocity": 100
            },
            {
                "endTime": 2.375,
                "isDrum": true,
                "startTime": 2.25,
                "instrument": 9,
                "pitch": 42,
                "velocity": 100
            },
            {
                "endTime": 2.625,
                "isDrum": true,
                "startTime": 2.5,
                "instrument": 9,
                "pitch": 50,
                "velocity": 100
            },
            {
                "endTime": 2.625,
                "isDrum": true,
                "startTime": 2.5,
                "instrument": 9,
                "pitch": 46,
                "velocity": 100
            },
            {
                "endTime": 2.875,
                "isDrum": true,
                "startTime": 2.75,
                "instrument": 9,
                "pitch": 42,
                "velocity": 100
            },
            {
                "endTime": 2.875,
                "isDrum": true,
                "startTime": 2.75,
                "instrument": 9,
                "pitch": 36,
                "velocity": 100
            },
            {
                "endTime": 2.875,
                "isDrum": true,
                "startTime": 2.75,
                "instrument": 9,
                "pitch": 50,
                "velocity": 100
            },
            {
                "endTime": 3.125,
                "isDrum": true,
                "startTime": 3,
                "instrument": 9,
                "pitch": 42,
                "velocity": 100
            },
            {
                "endTime": 3.125,
                "isDrum": true,
                "startTime": 3,
                "instrument": 9,
                "pitch": 36,
                "velocity": 100
            },
            {
                "endTime": 3.125,
                "isDrum": true,
                "startTime": 3,
                "instrument": 9,
                "pitch": 50,
                "velocity": 100
            },
            {
                "endTime": 3.375,
                "isDrum": true,
                "startTime": 3.25,
                "instrument": 9,
                "pitch": 50,
                "velocity": 100
            },
            {
                "endTime": 3.375,
                "isDrum": true,
                "startTime": 3.25,
                "instrument": 9,
                "pitch": 46,
                "velocity": 100
            },
            {
                "endTime": 3.625,
                "isDrum": true,
                "startTime": 3.5,
                "instrument": 9,
                "pitch": 42,
                "velocity": 100
            },
            {
                "endTime": 3.625,
                "isDrum": true,
                "startTime": 3.5,
                "instrument": 9,
                "pitch": 50,
                "velocity": 100
            },
            {
                "endTime": 3.875,
                "isDrum": true,
                "startTime": 3.75,
                "instrument": 9,
                "pitch": 42,
                "velocity": 100
            },
            {
                "endTime": 3.875,
                "isDrum": true,
                "startTime": 3.75,
                "instrument": 9,
                "pitch": 36,
                "velocity": 100
            },
            {
                "endTime": 3.875,
                "isDrum": true,
                "startTime": 3.75,
                "instrument": 9,
                "pitch": 50,
                "velocity": 100
            }
        ],
        "totalTime": 3.875,
        "ticksPerQuarter": 220,
        "tempos": [
            {
                "qpm": 120
            }
        ]
    },
    {
        "notes": [
            {
                "endTime": 0.375,
                "isDrum": true,
                "startTime": 0.25,
                "instrument": 9,
                "pitch": 42,
                "velocity": 100
            },
            {
                "endTime": 0.625,
                "isDrum": true,
                "startTime": 0.5,
                "instrument": 9,
                "pitch": 42,
                "velocity": 100
            },
            {
                "endTime": 1.375,
                "isDrum": true,
                "startTime": 1.25,
                "instrument": 9,
                "pitch": 42,
                "velocity": 100
            },
            {
                "endTime": 1.375,
                "isDrum": true,
                "startTime": 1.25,
                "instrument": 9,
                "pitch": 36,
                "velocity": 100
            },
            {
                "endTime": 1.625,
                "isDrum": true,
                "startTime": 1.5,
                "instrument": 9,
                "pitch": 42,
                "velocity": 100
            },
            {
                "endTime": 1.625,
                "isDrum": true,
                "startTime": 1.5,
                "instrument": 9,
                "pitch": 50,
                "velocity": 100
            },
            {
                "endTime": 2.125,
                "isDrum": true,
                "startTime": 2,
                "instrument": 9,
                "pitch": 42,
                "velocity": 100
            },
            {
                "endTime": 2.125,
                "isDrum": true,
                "startTime": 2,
                "instrument": 9,
                "pitch": 36,
                "velocity": 100
            },
            {
                "endTime": 2.125,
                "isDrum": true,
                "startTime": 2,
                "instrument": 9,
                "pitch": 50,
                "velocity": 100
            },
            {
                "endTime": 2.625,
                "isDrum": true,
                "startTime": 2.5,
                "instrument": 9,
                "pitch": 42,
                "velocity": 100
            },
            {
                "endTime": 2.625,
                "isDrum": true,
                "startTime": 2.5,
                "instrument": 9,
                "pitch": 50,
                "velocity": 100
            },
            {
                "endTime": 2.875,
                "isDrum": true,
                "startTime": 2.75,
                "instrument": 9,
                "pitch": 45,
                "velocity": 100
            },
            {
                "endTime": 3.125,
                "isDrum": true,
                "startTime": 3,
                "instrument": 9,
                "pitch": 45,
                "velocity": 100
            },
            {
                "endTime": 3.375,
                "isDrum": true,
                "startTime": 3.25,
                "instrument": 9,
                "pitch": 42,
                "velocity": 100
            },
            {
                "endTime": 3.375,
                "isDrum": true,
                "startTime": 3.25,
                "instrument": 9,
                "pitch": 50,
                "velocity": 100
            },
            {
                "endTime": 3.625,
                "isDrum": true,
                "startTime": 3.5,
                "instrument": 9,
                "pitch": 42,
                "velocity": 100
            },
            {
                "endTime": 3.625,
                "isDrum": true,
                "startTime": 3.5,
                "instrument": 9,
                "pitch": 50,
                "velocity": 100
            },
            {
                "endTime": 3.875,
                "isDrum": true,
                "startTime": 3.75,
                "instrument": 9,
                "pitch": 42,
                "velocity": 100
            }
        ],
        "totalTime": 3.875,
        "ticksPerQuarter": 220,
        "tempos": [
            {
                "qpm": 120
            }
        ]
    },
    {
        "notes": [
            {
                "endTime": 0.625,
                "isDrum": true,
                "startTime": 0.5,
                "instrument": 9,
                "pitch": 46,
                "velocity": 100
            },
            {
                "endTime": 1.625,
                "isDrum": true,
                "startTime": 1.5,
                "instrument": 9,
                "pitch": 42,
                "velocity": 100
            },
            {
                "endTime": 1.625,
                "isDrum": true,
                "startTime": 1.5,
                "instrument": 9,
                "pitch": 50,
                "velocity": 100
            },
            {
                "endTime": 2.125,
                "isDrum": true,
                "startTime": 2,
                "instrument": 9,
                "pitch": 42,
                "velocity": 100
            },
            {
                "endTime": 2.125,
                "isDrum": true,
                "startTime": 2,
                "instrument": 9,
                "pitch": 36,
                "velocity": 100
            },
            {
                "endTime": 2.125,
                "isDrum": true,
                "startTime": 2,
                "instrument": 9,
                "pitch": 50,
                "velocity": 100
            },
            {
                "endTime": 2.625,
                "isDrum": true,
                "startTime": 2.5,
                "instrument": 9,
                "pitch": 42,
                "velocity": 100
            },
            {
                "endTime": 2.625,
                "isDrum": true,
                "startTime": 2.5,
                "instrument": 9,
                "pitch": 50,
                "velocity": 100
            },
            {
                "endTime": 2.875,
                "isDrum": true,
                "startTime": 2.75,
                "instrument": 9,
                "pitch": 50,
                "velocity": 100
            },
            {
                "endTime": 3.125,
                "isDrum": true,
                "startTime": 3,
                "instrument": 9,
                "pitch": 42,
                "velocity": 100
            },
            {
                "endTime": 3.125,
                "isDrum": true,
                "startTime": 3,
                "instrument": 9,
                "pitch": 36,
                "velocity": 100
            },
            {
                "endTime": 3.125,
                "isDrum": true,
                "startTime": 3,
                "instrument": 9,
                "pitch": 50,
                "velocity": 100
            },
            {
                "endTime": 3.375,
                "isDrum": true,
                "startTime": 3.25,
                "instrument": 9,
                "pitch": 42,
                "velocity": 100
            },
            {
                "endTime": 3.375,
                "isDrum": true,
                "startTime": 3.25,
                "instrument": 9,
                "pitch": 50,
                "velocity": 100
            },
            {
                "endTime": 3.625,
                "isDrum": true,
                "startTime": 3.5,
                "instrument": 9,
                "pitch": 42,
                "velocity": 100
            },
            {
                "endTime": 3.625,
                "isDrum": true,
                "startTime": 3.5,
                "instrument": 9,
                "pitch": 50,
                "velocity": 100
            },
            {
                "endTime": 3.875,
                "isDrum": true,
                "startTime": 3.75,
                "instrument": 9,
                "pitch": 42,
                "velocity": 100
            }
        ],
        "totalTime": 3.875,
        "ticksPerQuarter": 220,
        "tempos": [
            {
                "qpm": 120
            }
        ]
    },
    {
        "notes": [
            {
                "endTime": 0.625,
                "isDrum": true,
                "startTime": 0.5,
                "instrument": 9,
                "pitch": 42,
                "velocity": 100
            },
            {
                "endTime": 0.625,
                "isDrum": true,
                "startTime": 0.5,
                "instrument": 9,
                "pitch": 50,
                "velocity": 100
            },
            {
                "endTime": 1.625,
                "isDrum": true,
                "startTime": 1.5,
                "instrument": 9,
                "pitch": 50,
                "velocity": 100
            },
            {
                "endTime": 2.125,
                "isDrum": true,
                "startTime": 2,
                "instrument": 9,
                "pitch": 42,
                "velocity": 100
            },
            {
                "endTime": 2.125,
                "isDrum": true,
                "startTime": 2,
                "instrument": 9,
                "pitch": 36,
                "velocity": 100
            },
            {
                "endTime": 2.125,
                "isDrum": true,
                "startTime": 2,
                "instrument": 9,
                "pitch": 50,
                "velocity": 100
            },
            {
                "endTime": 2.625,
                "isDrum": true,
                "startTime": 2.5,
                "instrument": 9,
                "pitch": 42,
                "velocity": 100
            },
            {
                "endTime": 2.625,
                "isDrum": true,
                "startTime": 2.5,
                "instrument": 9,
                "pitch": 50,
                "velocity": 100
            },
            {
                "endTime": 2.875,
                "isDrum": true,
                "startTime": 2.75,
                "instrument": 9,
                "pitch": 50,
                "velocity": 100
            },
            {
                "endTime": 3.125,
                "isDrum": true,
                "startTime": 3,
                "instrument": 9,
                "pitch": 42,
                "velocity": 100
            },
            {
                "endTime": 3.125,
                "isDrum": true,
                "startTime": 3,
                "instrument": 9,
                "pitch": 36,
                "velocity": 100
            },
            {
                "endTime": 3.125,
                "isDrum": true,
                "startTime": 3,
                "instrument": 9,
                "pitch": 50,
                "velocity": 100
            },
            {
                "endTime": 3.375,
                "isDrum": true,
                "startTime": 3.25,
                "instrument": 9,
                "pitch": 45,
                "velocity": 100
            },
            {
                "endTime": 3.625,
                "isDrum": true,
                "startTime": 3.5,
                "instrument": 9,
                "pitch": 42,
                "velocity": 100
            },
            {
                "endTime": 3.875,
                "isDrum": true,
                "startTime": 3.75,
                "instrument": 9,
                "pitch": 50,
                "velocity": 100
            }
        ],
        "totalTime": 3.875,
        "ticksPerQuarter": 220,
        "tempos": [
            {
                "qpm": 120
            }
        ]
    },
    {
        "notes": [
            {
                "endTime": 0.625,
                "isDrum": true,
                "startTime": 0.5,
                "instrument": 9,
                "pitch": 42,
                "velocity": 100
            },
            {
                "endTime": 0.625,
                "isDrum": true,
                "startTime": 0.5,
                "instrument": 9,
                "pitch": 50,
                "velocity": 100
            },
            {
                "endTime": 1.625,
                "isDrum": true,
                "startTime": 1.5,
                "instrument": 9,
                "pitch": 50,
                "velocity": 100
            },
            {
                "endTime": 2.125,
                "isDrum": true,
                "startTime": 2,
                "instrument": 9,
                "pitch": 50,
                "velocity": 100
            },
            {
                "endTime": 2.625,
                "isDrum": true,
                "startTime": 2.5,
                "instrument": 9,
                "pitch": 42,
                "velocity": 100
            },
            {
                "endTime": 2.625,
                "isDrum": true,
                "startTime": 2.5,
                "instrument": 9,
                "pitch": 50,
                "velocity": 100
            },
            {
                "endTime": 2.875,
                "isDrum": true,
                "startTime": 2.75,
                "instrument": 9,
                "pitch": 50,
                "velocity": 100
            },
            {
                "endTime": 3.125,
                "isDrum": true,
                "startTime": 3,
                "instrument": 9,
                "pitch": 50,
                "velocity": 100
            },
            {
                "endTime": 3.375,
                "isDrum": true,
                "startTime": 3.25,
                "instrument": 9,
                "pitch": 42,
                "velocity": 100
            },
            {
                "endTime": 3.375,
                "isDrum": true,
                "startTime": 3.25,
                "instrument": 9,
                "pitch": 50,
                "velocity": 100
            },
            {
                "endTime": 3.625,
                "isDrum": true,
                "startTime": 3.5,
                "instrument": 9,
                "pitch": 50,
                "velocity": 100
            }
        ],
        "totalTime": 3.625,
        "ticksPerQuarter": 220,
        "tempos": [
            {
                "qpm": 120
            }
        ]
    },
    {
        "notes": [
            {
                "endTime": 0.625,
                "isDrum": true,
                "startTime": 0.5,
                "instrument": 9,
                "pitch": 42,
                "velocity": 100
            },
            {
                "endTime": 0.625,
                "isDrum": true,
                "startTime": 0.5,
                "instrument": 9,
                "pitch": 50,
                "velocity": 100
            },
            {
                "endTime": 2.125,
                "isDrum": true,
                "startTime": 2,
                "instrument": 9,
                "pitch": 50,
                "velocity": 100
            },
            {
                "endTime": 2.625,
                "isDrum": true,
                "startTime": 2.5,
                "instrument": 9,
                "pitch": 50,
                "velocity": 100
            },
            {
                "endTime": 2.625,
                "isDrum": true,
                "startTime": 2.5,
                "instrument": 9,
                "pitch": 46,
                "velocity": 100
            },
            {
                "endTime": 2.875,
                "isDrum": true,
                "startTime": 2.75,
                "instrument": 9,
                "pitch": 50,
                "velocity": 100
            },
            {
                "endTime": 3.125,
                "isDrum": true,
                "startTime": 3,
                "instrument": 9,
                "pitch": 50,
                "velocity": 100
            },
            {
                "endTime": 3.375,
                "isDrum": true,
                "startTime": 3.25,
                "instrument": 9,
                "pitch": 50,
                "velocity": 100
            }
        ],
        "totalTime": 3.375,
        "ticksPerQuarter": 220,
        "tempos": [
            {
                "qpm": 120
            }
        ]
    },
    {
        "notes": [
            {
                "endTime": 0.625,
                "isDrum": true,
                "startTime": 0.5,
                "instrument": 9,
                "pitch": 50,
                "velocity": 100
            },
            {
                "endTime": 1.625,
                "isDrum": true,
                "startTime": 1.5,
                "instrument": 9,
                "pitch": 50,
                "velocity": 100
            },
            {
                "endTime": 2.125,
                "isDrum": true,
                "startTime": 2,
                "instrument": 9,
                "pitch": 50,
                "velocity": 100
            },
            {
                "endTime": 2.625,
                "isDrum": true,
                "startTime": 2.5,
                "instrument": 9,
                "pitch": 42,
                "velocity": 100
            },
            {
                "endTime": 2.625,
                "isDrum": true,
                "startTime": 2.5,
                "instrument": 9,
                "pitch": 50,
                "velocity": 100
            },
            {
                "endTime": 2.875,
                "isDrum": true,
                "startTime": 2.75,
                "instrument": 9,
                "pitch": 50,
                "velocity": 100
            },
            {
                "endTime": 3.125,
                "isDrum": true,
                "startTime": 3,
                "instrument": 9,
                "pitch": 50,
                "velocity": 100
            }
        ],
        "totalTime": 3.125,
        "ticksPerQuarter": 220,
        "tempos": [
            {
                "qpm": 120
            }
        ]
    },
    {
        "notes": [
            {
                "velocity": 100,
                "isDrum": true,
                "instrument": 9,
                "pitch": 42,
                "endTime": 0.125
            },
            {
                "velocity": 100,
                "isDrum": true,
                "instrument": 9,
                "pitch": 36,
                "endTime": 0.125
            },
            {
                "velocity": 100,
                "isDrum": true,
                "instrument": 9,
                "pitch": 45,
                "endTime": 0.125
            },
            {
                "velocity": 100,
                "isDrum": true,
                "instrument": 9,
                "pitch": 46,
                "endTime": 0.125
            },
            {
                "endTime": 0.375,
                "isDrum": true,
                "startTime": 0.25,
                "instrument": 9,
                "pitch": 42,
                "velocity": 100
            },
            {
                "endTime": 0.625,
                "isDrum": true,
                "startTime": 0.5,
                "instrument": 9,
                "pitch": 42,
                "velocity": 100
            },
            {
                "endTime": 0.875,
                "isDrum": true,
                "startTime": 0.75,
                "instrument": 9,
                "pitch": 36,
                "velocity": 100
            },
            {
                "endTime": 0.875,
                "isDrum": true,
                "startTime": 0.75,
                "instrument": 9,
                "pitch": 46,
                "velocity": 100
            },
            {
                "endTime": 1.125,
                "isDrum": true,
                "startTime": 1,
                "instrument": 9,
                "pitch": 42,
                "velocity": 100
            },
            {
                "endTime": 1.125,
                "isDrum": true,
                "startTime": 1,
                "instrument": 9,
                "pitch": 36,
                "velocity": 100
            },
            {
                "endTime": 1.375,
                "isDrum": true,
                "startTime": 1.25,
                "instrument": 9,
                "pitch": 42,
                "velocity": 100
            },
            {
                "endTime": 1.625,
                "isDrum": true,
                "startTime": 1.5,
                "instrument": 9,
                "pitch": 42,
                "velocity": 100
            },
            {
                "endTime": 1.625,
                "isDrum": true,
                "startTime": 1.5,
                "instrument": 9,
                "pitch": 38,
                "velocity": 100
            },
            {
                "endTime": 1.875,
                "isDrum": true,
                "startTime": 1.75,
                "instrument": 9,
                "pitch": 42,
                "velocity": 100
            },
            {
                "endTime": 1.875,
                "isDrum": true,
                "startTime": 1.75,
                "instrument": 9,
                "pitch": 36,
                "velocity": 100
            },
            {
                "endTime": 1.875,
                "isDrum": true,
                "startTime": 1.75,
                "instrument": 9,
                "pitch": 45,
                "velocity": 100
            },
            {
                "endTime": 2.125,
                "isDrum": true,
                "startTime": 2,
                "instrument": 9,
                "pitch": 42,
                "velocity": 100
            },
            {
                "endTime": 2.125,
                "isDrum": true,
                "startTime": 2,
                "instrument": 9,
                "pitch": 36,
                "velocity": 100
            },
            {
                "endTime": 2.375,
                "isDrum": true,
                "startTime": 2.25,
                "instrument": 9,
                "pitch": 42,
                "velocity": 100
            },
            {
                "endTime": 2.625,
                "isDrum": true,
                "startTime": 2.5,
                "instrument": 9,
                "pitch": 42,
                "velocity": 100
            },
            {
                "endTime": 2.625,
                "isDrum": true,
                "startTime": 2.5,
                "instrument": 9,
                "pitch": 38,
                "velocity": 100
            },
            {
                "endTime": 2.875,
                "isDrum": true,
                "startTime": 2.75,
                "instrument": 9,
                "pitch": 42,
                "velocity": 100
            },
            {
                "endTime": 2.875,
                "isDrum": true,
                "startTime": 2.75,
                "instrument": 9,
                "pitch": 36,
                "velocity": 100
            },
            {
                "endTime": 3.125,
                "isDrum": true,
                "startTime": 3,
                "instrument": 9,
                "pitch": 42,
                "velocity": 100
            },
            {
                "endTime": 3.125,
                "isDrum": true,
                "startTime": 3,
                "instrument": 9,
                "pitch": 36,
                "velocity": 100
            },
            {
                "endTime": 3.375,
                "isDrum": true,
                "startTime": 3.25,
                "instrument": 9,
                "pitch": 42,
                "velocity": 100
            },
            {
                "endTime": 3.375,
                "isDrum": true,
                "startTime": 3.25,
                "instrument": 9,
                "pitch": 45,
                "velocity": 100
            },
            {
                "endTime": 3.375,
                "isDrum": true,
                "startTime": 3.25,
                "instrument": 9,
                "pitch": 38,
                "velocity": 100
            },
            {
                "endTime": 3.625,
                "isDrum": true,
                "startTime": 3.5,
                "instrument": 9,
                "pitch": 42,
                "velocity": 100
            },
            {
                "endTime": 3.625,
                "isDrum": true,
                "startTime": 3.5,
                "instrument": 9,
                "pitch": 45,
                "velocity": 100
            },
            {
                "endTime": 3.875,
                "isDrum": true,
                "startTime": 3.75,
                "instrument": 9,
                "pitch": 42,
                "velocity": 100
            },
            {
                "endTime": 3.875,
                "isDrum": true,
                "startTime": 3.75,
                "instrument": 9,
                "pitch": 36,
                "velocity": 100
            },
            {
                "endTime": 3.875,
                "isDrum": true,
                "startTime": 3.75,
                "instrument": 9,
                "pitch": 45,
                "velocity": 100
            }
        ],
        "totalTime": 3.875,
        "ticksPerQuarter": 220,
        "tempos": [
            {
                "qpm": 120
            }
        ]
    },
    {
        "notes": [
            {
                "velocity": 100,
                "isDrum": true,
                "instrument": 9,
                "pitch": 42,
                "endTime": 0.125
            },
            {
                "velocity": 100,
                "isDrum": true,
                "instrument": 9,
                "pitch": 36,
                "endTime": 0.125
            },
            {
                "velocity": 100,
                "isDrum": true,
                "instrument": 9,
                "pitch": 45,
                "endTime": 0.125
            },
            {
                "velocity": 100,
                "isDrum": true,
                "instrument": 9,
                "pitch": 46,
                "endTime": 0.125
            },
            {
                "endTime": 0.375,
                "isDrum": true,
                "startTime": 0.25,
                "instrument": 9,
                "pitch": 42,
                "velocity": 100
            },
            {
                "endTime": 0.625,
                "isDrum": true,
                "startTime": 0.5,
                "instrument": 9,
                "pitch": 42,
                "velocity": 100
            },
            {
                "endTime": 0.875,
                "isDrum": true,
                "startTime": 0.75,
                "instrument": 9,
                "pitch": 48,
                "velocity": 100
            },
            {
                "endTime": 0.875,
                "isDrum": true,
                "startTime": 0.75,
                "instrument": 9,
                "pitch": 42,
                "velocity": 100
            },
            {
                "endTime": 0.875,
                "isDrum": true,
                "startTime": 0.75,
                "instrument": 9,
                "pitch": 36,
                "velocity": 100
            },
            {
                "endTime": 1.125,
                "isDrum": true,
                "startTime": 1,
                "instrument": 9,
                "pitch": 42,
                "velocity": 100
            },
            {
                "endTime": 1.125,
                "isDrum": true,
                "startTime": 1,
                "instrument": 9,
                "pitch": 36,
                "velocity": 100
            },
            {
                "endTime": 1.375,
                "isDrum": true,
                "startTime": 1.25,
                "instrument": 9,
                "pitch": 42,
                "velocity": 100
            },
            {
                "endTime": 1.625,
                "isDrum": true,
                "startTime": 1.5,
                "instrument": 9,
                "pitch": 42,
                "velocity": 100
            },
            {
                "endTime": 1.625,
                "isDrum": true,
                "startTime": 1.5,
                "instrument": 9,
                "pitch": 38,
                "velocity": 100
            },
            {
                "endTime": 1.875,
                "isDrum": true,
                "startTime": 1.75,
                "instrument": 9,
                "pitch": 42,
                "velocity": 100
            },
            {
                "endTime": 1.875,
                "isDrum": true,
                "startTime": 1.75,
                "instrument": 9,
                "pitch": 36,
                "velocity": 100
            },
            {
                "endTime": 2.125,
                "isDrum": true,
                "startTime": 2,
                "instrument": 9,
                "pitch": 42,
                "velocity": 100
            },
            {
                "endTime": 2.125,
                "isDrum": true,
                "startTime": 2,
                "instrument": 9,
                "pitch": 36,
                "velocity": 100
            },
            {
                "endTime": 2.375,
                "isDrum": true,
                "startTime": 2.25,
                "instrument": 9,
                "pitch": 42,
                "velocity": 100
            },
            {
                "endTime": 2.625,
                "isDrum": true,
                "startTime": 2.5,
                "instrument": 9,
                "pitch": 42,
                "velocity": 100
            },
            {
                "endTime": 2.625,
                "isDrum": true,
                "startTime": 2.5,
                "instrument": 9,
                "pitch": 38,
                "velocity": 100
            },
            {
                "endTime": 2.875,
                "isDrum": true,
                "startTime": 2.75,
                "instrument": 9,
                "pitch": 42,
                "velocity": 100
            },
            {
                "endTime": 2.875,
                "isDrum": true,
                "startTime": 2.75,
                "instrument": 9,
                "pitch": 36,
                "velocity": 100
            },
            {
                "endTime": 3.125,
                "isDrum": true,
                "startTime": 3,
                "instrument": 9,
                "pitch": 42,
                "velocity": 100
            },
            {
                "endTime": 3.125,
                "isDrum": true,
                "startTime": 3,
                "instrument": 9,
                "pitch": 36,
                "velocity": 100
            },
            {
                "endTime": 3.375,
                "isDrum": true,
                "startTime": 3.25,
                "instrument": 9,
                "pitch": 42,
                "velocity": 100
            },
            {
                "endTime": 3.375,
                "isDrum": true,
                "startTime": 3.25,
                "instrument": 9,
                "pitch": 45,
                "velocity": 100
            },
            {
                "endTime": 3.625,
                "isDrum": true,
                "startTime": 3.5,
                "instrument": 9,
                "pitch": 42,
                "velocity": 100
            },
            {
                "endTime": 3.625,
                "isDrum": true,
                "startTime": 3.5,
                "instrument": 9,
                "pitch": 45,
                "velocity": 100
            },
            {
                "endTime": 3.875,
                "isDrum": true,
                "startTime": 3.75,
                "instrument": 9,
                "pitch": 42,
                "velocity": 100
            },
            {
                "endTime": 3.875,
                "isDrum": true,
                "startTime": 3.75,
                "instrument": 9,
                "pitch": 36,
                "velocity": 100
            }
        ],
        "totalTime": 3.875,
        "ticksPerQuarter": 220,
        "tempos": [
            {
                "qpm": 120
            }
        ]
    },
    {
        "notes": [
            {
                "velocity": 100,
                "isDrum": true,
                "instrument": 9,
                "pitch": 42,
                "endTime": 0.125
            },
            {
                "velocity": 100,
                "isDrum": true,
                "instrument": 9,
                "pitch": 36,
                "endTime": 0.125
            },
            {
                "velocity": 100,
                "isDrum": true,
                "instrument": 9,
                "pitch": 45,
                "endTime": 0.125
            },
            {
                "velocity": 100,
                "isDrum": true,
                "instrument": 9,
                "pitch": 46,
                "endTime": 0.125
            },
            {
                "endTime": 0.375,
                "isDrum": true,
                "startTime": 0.25,
                "instrument": 9,
                "pitch": 42,
                "velocity": 100
            },
            {
                "endTime": 0.625,
                "isDrum": true,
                "startTime": 0.5,
                "instrument": 9,
                "pitch": 42,
                "velocity": 100
            },
            {
                "endTime": 0.875,
                "isDrum": true,
                "startTime": 0.75,
                "instrument": 9,
                "pitch": 42,
                "velocity": 100
            },
            {
                "endTime": 0.875,
                "isDrum": true,
                "startTime": 0.75,
                "instrument": 9,
                "pitch": 36,
                "velocity": 100
            },
            {
                "endTime": 0.875,
                "isDrum": true,
                "startTime": 0.75,
                "instrument": 9,
                "pitch": 38,
                "velocity": 100
            },
            {
                "endTime": 1.125,
                "isDrum": true,
                "startTime": 1,
                "instrument": 9,
                "pitch": 42,
                "velocity": 100
            },
            {
                "endTime": 1.125,
                "isDrum": true,
                "startTime": 1,
                "instrument": 9,
                "pitch": 36,
                "velocity": 100
            },
            {
                "endTime": 1.375,
                "isDrum": true,
                "startTime": 1.25,
                "instrument": 9,
                "pitch": 42,
                "velocity": 100
            },
            {
                "endTime": 1.625,
                "isDrum": true,
                "startTime": 1.5,
                "instrument": 9,
                "pitch": 42,
                "velocity": 100
            },
            {
                "endTime": 1.625,
                "isDrum": true,
                "startTime": 1.5,
                "instrument": 9,
                "pitch": 38,
                "velocity": 100
            },
            {
                "endTime": 1.875,
                "isDrum": true,
                "startTime": 1.75,
                "instrument": 9,
                "pitch": 42,
                "velocity": 100
            },
            {
                "endTime": 1.875,
                "isDrum": true,
                "startTime": 1.75,
                "instrument": 9,
                "pitch": 36,
                "velocity": 100
            },
            {
                "endTime": 2.125,
                "isDrum": true,
                "startTime": 2,
                "instrument": 9,
                "pitch": 42,
                "velocity": 100
            },
            {
                "endTime": 2.125,
                "isDrum": true,
                "startTime": 2,
                "instrument": 9,
                "pitch": 36,
                "velocity": 100
            },
            {
                "endTime": 2.375,
                "isDrum": true,
                "startTime": 2.25,
                "instrument": 9,
                "pitch": 42,
                "velocity": 100
            },
            {
                "endTime": 2.625,
                "isDrum": true,
                "startTime": 2.5,
                "instrument": 9,
                "pitch": 42,
                "velocity": 100
            },
            {
                "endTime": 2.625,
                "isDrum": true,
                "startTime": 2.5,
                "instrument": 9,
                "pitch": 38,
                "velocity": 100
            },
            {
                "endTime": 2.875,
                "isDrum": true,
                "startTime": 2.75,
                "instrument": 9,
                "pitch": 42,
                "velocity": 100
            },
            {
                "endTime": 2.875,
                "isDrum": true,
                "startTime": 2.75,
                "instrument": 9,
                "pitch": 36,
                "velocity": 100
            },
            {
                "endTime": 3.125,
                "isDrum": true,
                "startTime": 3,
                "instrument": 9,
                "pitch": 42,
                "velocity": 100
            },
            {
                "endTime": 3.125,
                "isDrum": true,
                "startTime": 3,
                "instrument": 9,
                "pitch": 50,
                "velocity": 100
            },
            {
                "endTime": 3.375,
                "isDrum": true,
                "startTime": 3.25,
                "instrument": 9,
                "pitch": 42,
                "velocity": 100
            },
            {
                "endTime": 3.375,
                "isDrum": true,
                "startTime": 3.25,
                "instrument": 9,
                "pitch": 38,
                "velocity": 100
            },
            {
                "endTime": 3.625,
                "isDrum": true,
                "startTime": 3.5,
                "instrument": 9,
                "pitch": 48,
                "velocity": 100
            },
            {
                "endTime": 3.625,
                "isDrum": true,
                "startTime": 3.5,
                "instrument": 9,
                "pitch": 49,
                "velocity": 100
            },
            {
                "endTime": 3.625,
                "isDrum": true,
                "startTime": 3.5,
                "instrument": 9,
                "pitch": 42,
                "velocity": 100
            },
            {
                "endTime": 3.625,
                "isDrum": true,
                "startTime": 3.5,
                "instrument": 9,
                "pitch": 38,
                "velocity": 100
            },
            {
                "endTime": 3.875,
                "isDrum": true,
                "startTime": 3.75,
                "instrument": 9,
                "pitch": 49,
                "velocity": 100
            },
            {
                "endTime": 3.875,
                "isDrum": true,
                "startTime": 3.75,
                "instrument": 9,
                "pitch": 42,
                "velocity": 100
            },
            {
                "endTime": 3.875,
                "isDrum": true,
                "startTime": 3.75,
                "instrument": 9,
                "pitch": 36,
                "velocity": 100
            }
        ],
        "totalTime": 3.875,
        "ticksPerQuarter": 220,
        "tempos": [
            {
                "qpm": 120
            }
        ]
    },
    {
        "notes": [
            {
                "endTime": 0.375,
                "isDrum": true,
                "startTime": 0.25,
                "instrument": 9,
                "pitch": 42,
                "velocity": 100
            },
            {
                "endTime": 0.625,
                "isDrum": true,
                "startTime": 0.5,
                "instrument": 9,
                "pitch": 42,
                "velocity": 100
            },
            {
                "endTime": 0.875,
                "isDrum": true,
                "startTime": 0.75,
                "instrument": 9,
                "pitch": 42,
                "velocity": 100
            },
            {
                "endTime": 0.875,
                "isDrum": true,
                "startTime": 0.75,
                "instrument": 9,
                "pitch": 36,
                "velocity": 100
            },
            {
                "endTime": 0.875,
                "isDrum": true,
                "startTime": 0.75,
                "instrument": 9,
                "pitch": 38,
                "velocity": 100
            },
            {
                "endTime": 1.375,
                "isDrum": true,
                "startTime": 1.25,
                "instrument": 9,
                "pitch": 42,
                "velocity": 100
            },
            {
                "endTime": 1.625,
                "isDrum": true,
                "startTime": 1.5,
                "instrument": 9,
                "pitch": 42,
                "velocity": 100
            },
            {
                "endTime": 1.625,
                "isDrum": true,
                "startTime": 1.5,
                "instrument": 9,
                "pitch": 38,
                "velocity": 100
            },
            {
                "endTime": 1.875,
                "isDrum": true,
                "startTime": 1.75,
                "instrument": 9,
                "pitch": 42,
                "velocity": 100
            },
            {
                "endTime": 1.875,
                "isDrum": true,
                "startTime": 1.75,
                "instrument": 9,
                "pitch": 36,
                "velocity": 100
            },
            {
                "endTime": 2.125,
                "isDrum": true,
                "startTime": 2,
                "instrument": 9,
                "pitch": 42,
                "velocity": 100
            },
            {
                "endTime": 2.125,
                "isDrum": true,
                "startTime": 2,
                "instrument": 9,
                "pitch": 36,
                "velocity": 100
            },
            {
                "endTime": 2.375,
                "isDrum": true,
                "startTime": 2.25,
                "instrument": 9,
                "pitch": 42,
                "velocity": 100
            },
            {
                "endTime": 2.625,
                "isDrum": true,
                "startTime": 2.5,
                "instrument": 9,
                "pitch": 42,
                "velocity": 100
            },
            {
                "endTime": 2.625,
                "isDrum": true,
                "startTime": 2.5,
                "instrument": 9,
                "pitch": 38,
                "velocity": 100
            },
            {
                "endTime": 2.875,
                "isDrum": true,
                "startTime": 2.75,
                "instrument": 9,
                "pitch": 42,
                "velocity": 100
            },
            {
                "endTime": 2.875,
                "isDrum": true,
                "startTime": 2.75,
                "instrument": 9,
                "pitch": 36,
                "velocity": 100
            },
            {
                "endTime": 3.125,
                "isDrum": true,
                "startTime": 3,
                "instrument": 9,
                "pitch": 42,
                "velocity": 100
            },
            {
                "endTime": 3.125,
                "isDrum": true,
                "startTime": 3,
                "instrument": 9,
                "pitch": 36,
                "velocity": 100
            },
            {
                "endTime": 3.125,
                "isDrum": true,
                "startTime": 3,
                "instrument": 9,
                "pitch": 50,
                "velocity": 100
            },
            {
                "endTime": 3.375,
                "isDrum": true,
                "startTime": 3.25,
                "instrument": 9,
                "pitch": 42,
                "velocity": 100
            },
            {
                "endTime": 3.375,
                "isDrum": true,
                "startTime": 3.25,
                "instrument": 9,
                "pitch": 38,
                "velocity": 100
            },
            {
                "endTime": 3.625,
                "isDrum": true,
                "startTime": 3.5,
                "instrument": 9,
                "pitch": 42,
                "velocity": 100
            },
            {
                "endTime": 3.625,
                "isDrum": true,
                "startTime": 3.5,
                "instrument": 9,
                "pitch": 36,
                "velocity": 100
            },
            {
                "endTime": 3.875,
                "isDrum": true,
                "startTime": 3.75,
                "instrument": 9,
                "pitch": 49,
                "velocity": 100
            },
            {
                "endTime": 3.875,
                "isDrum": true,
                "startTime": 3.75,
                "instrument": 9,
                "pitch": 42,
                "velocity": 100
            },
            {
                "endTime": 3.875,
                "isDrum": true,
                "startTime": 3.75,
                "instrument": 9,
                "pitch": 36,
                "velocity": 100
            }
        ],
        "totalTime": 3.875,
        "ticksPerQuarter": 220,
        "tempos": [
            {
                "qpm": 120
            }
        ]
    },
    {
        "notes": [
            {
                "endTime": 0.375,
                "isDrum": true,
                "startTime": 0.25,
                "instrument": 9,
                "pitch": 42,
                "velocity": 100
            },
            {
                "endTime": 0.625,
                "isDrum": true,
                "startTime": 0.5,
                "instrument": 9,
                "pitch": 42,
                "velocity": 100
            },
            {
                "endTime": 1.375,
                "isDrum": true,
                "startTime": 1.25,
                "instrument": 9,
                "pitch": 42,
                "velocity": 100
            },
            {
                "endTime": 1.625,
                "isDrum": true,
                "startTime": 1.5,
                "instrument": 9,
                "pitch": 42,
                "velocity": 100
            },
            {
                "endTime": 1.625,
                "isDrum": true,
                "startTime": 1.5,
                "instrument": 9,
                "pitch": 50,
                "velocity": 100
            },
            {
                "endTime": 2.125,
                "isDrum": true,
                "startTime": 2,
                "instrument": 9,
                "pitch": 42,
                "velocity": 100
            },
            {
                "endTime": 2.125,
                "isDrum": true,
                "startTime": 2,
                "instrument": 9,
                "pitch": 36,
                "velocity": 100
            },
            {
                "endTime": 2.125,
                "isDrum": true,
                "startTime": 2,
                "instrument": 9,
                "pitch": 50,
                "velocity": 100
            },
            {
                "endTime": 2.375,
                "isDrum": true,
                "startTime": 2.25,
                "instrument": 9,
                "pitch": 42,
                "velocity": 100
            },
            {
                "endTime": 2.625,
                "isDrum": true,
                "startTime": 2.5,
                "instrument": 9,
                "pitch": 50,
                "velocity": 100
            },
            {
                "endTime": 2.625,
                "isDrum": true,
                "startTime": 2.5,
                "instrument": 9,
                "pitch": 46,
                "velocity": 100
            },
            {
                "endTime": 2.875,
                "isDrum": true,
                "startTime": 2.75,
                "instrument": 9,
                "pitch": 42,
                "velocity": 100
            },
            {
                "endTime": 2.875,
                "isDrum": true,
                "startTime": 2.75,
                "instrument": 9,
                "pitch": 36,
                "velocity": 100
            },
            {
                "endTime": 2.875,
                "isDrum": true,
                "startTime": 2.75,
                "instrument": 9,
                "pitch": 50,
                "velocity": 100
            },
            {
                "endTime": 3.125,
                "isDrum": true,
                "startTime": 3,
                "instrument": 9,
                "pitch": 45,
                "velocity": 100
            },
            {
                "endTime": 3.375,
                "isDrum": true,
                "startTime": 3.25,
                "instrument": 9,
                "pitch": 42,
                "velocity": 100
            },
            {
                "endTime": 3.375,
                "isDrum": true,
                "startTime": 3.25,
                "instrument": 9,
                "pitch": 36,
                "velocity": 100
            },
            {
                "endTime": 3.375,
                "isDrum": true,
                "startTime": 3.25,
                "instrument": 9,
                "pitch": 45,
                "velocity": 100
            },
            {
                "endTime": 3.625,
                "isDrum": true,
                "startTime": 3.5,
                "instrument": 9,
                "pitch": 42,
                "velocity": 100
            },
            {
                "endTime": 3.625,
                "isDrum": true,
                "startTime": 3.5,
                "instrument": 9,
                "pitch": 50,
                "velocity": 100
            },
            {
                "endTime": 3.875,
                "isDrum": true,
                "startTime": 3.75,
                "instrument": 9,
                "pitch": 49,
                "velocity": 100
            },
            {
                "endTime": 3.875,
                "isDrum": true,
                "startTime": 3.75,
                "instrument": 9,
                "pitch": 42,
                "velocity": 100
            },
            {
                "endTime": 3.875,
                "isDrum": true,
                "startTime": 3.75,
                "instrument": 9,
                "pitch": 36,
                "velocity": 100
            }
        ],
        "totalTime": 3.875,
        "ticksPerQuarter": 220,
        "tempos": [
            {
                "qpm": 120
            }
        ]
    },
    {
        "notes": [
            {
                "endTime": 0.625,
                "isDrum": true,
                "startTime": 0.5,
                "instrument": 9,
                "pitch": 46,
                "velocity": 100
            },
            {
                "endTime": 1.625,
                "isDrum": true,
                "startTime": 1.5,
                "instrument": 9,
                "pitch": 42,
                "velocity": 100
            },
            {
                "endTime": 1.625,
                "isDrum": true,
                "startTime": 1.5,
                "instrument": 9,
                "pitch": 50,
                "velocity": 100
            },
            {
                "endTime": 2.125,
                "isDrum": true,
                "startTime": 2,
                "instrument": 9,
                "pitch": 42,
                "velocity": 100
            },
            {
                "endTime": 2.125,
                "isDrum": true,
                "startTime": 2,
                "instrument": 9,
                "pitch": 36,
                "velocity": 100
            },
            {
                "endTime": 2.125,
                "isDrum": true,
                "startTime": 2,
                "instrument": 9,
                "pitch": 50,
                "velocity": 100
            },
            {
                "endTime": 2.625,
                "isDrum": true,
                "startTime": 2.5,
                "instrument": 9,
                "pitch": 42,
                "velocity": 100
            },
            {
                "endTime": 2.625,
                "isDrum": true,
                "startTime": 2.5,
                "instrument": 9,
                "pitch": 50,
                "velocity": 100
            },
            {
                "endTime": 2.875,
                "isDrum": true,
                "startTime": 2.75,
                "instrument": 9,
                "pitch": 50,
                "velocity": 100
            },
            {
                "endTime": 3.125,
                "isDrum": true,
                "startTime": 3,
                "instrument": 9,
                "pitch": 42,
                "velocity": 100
            },
            {
                "endTime": 3.125,
                "isDrum": true,
                "startTime": 3,
                "instrument": 9,
                "pitch": 36,
                "velocity": 100
            },
            {
                "endTime": 3.125,
                "isDrum": true,
                "startTime": 3,
                "instrument": 9,
                "pitch": 50,
                "velocity": 100
            },
            {
                "endTime": 3.375,
                "isDrum": true,
                "startTime": 3.25,
                "instrument": 9,
                "pitch": 42,
                "velocity": 100
            },
            {
                "endTime": 3.375,
                "isDrum": true,
                "startTime": 3.25,
                "instrument": 9,
                "pitch": 50,
                "velocity": 100
            },
            {
                "endTime": 3.625,
                "isDrum": true,
                "startTime": 3.5,
                "instrument": 9,
                "pitch": 42,
                "velocity": 100
            },
            {
                "endTime": 3.625,
                "isDrum": true,
                "startTime": 3.5,
                "instrument": 9,
                "pitch": 50,
                "velocity": 100
            },
            {
                "endTime": 3.875,
                "isDrum": true,
                "startTime": 3.75,
                "instrument": 9,
                "pitch": 42,
                "velocity": 100
            }
        ],
        "totalTime": 3.875,
        "ticksPerQuarter": 220,
        "tempos": [
            {
                "qpm": 120
            }
        ]
    },
    {
        "notes": [
            {
                "endTime": 0.625,
                "isDrum": true,
                "startTime": 0.5,
                "instrument": 9,
                "pitch": 42,
                "velocity": 100
            },
            {
                "endTime": 0.625,
                "isDrum": true,
                "startTime": 0.5,
                "instrument": 9,
                "pitch": 50,
                "velocity": 100
            },
            {
                "endTime": 1.625,
                "isDrum": true,
                "startTime": 1.5,
                "instrument": 9,
                "pitch": 42,
                "velocity": 100
            },
            {
                "endTime": 1.625,
                "isDrum": true,
                "startTime": 1.5,
                "instrument": 9,
                "pitch": 50,
                "velocity": 100
            },
            {
                "endTime": 2.125,
                "isDrum": true,
                "startTime": 2,
                "instrument": 9,
                "pitch": 42,
                "velocity": 100
            },
            {
                "endTime": 2.125,
                "isDrum": true,
                "startTime": 2,
                "instrument": 9,
                "pitch": 36,
                "velocity": 100
            },
            {
                "endTime": 2.125,
                "isDrum": true,
                "startTime": 2,
                "instrument": 9,
                "pitch": 50,
                "velocity": 100
            },
            {
                "endTime": 2.625,
                "isDrum": true,
                "startTime": 2.5,
                "instrument": 9,
                "pitch": 48,
                "velocity": 100
            },
            {
                "endTime": 2.625,
                "isDrum": true,
                "startTime": 2.5,
                "instrument": 9,
                "pitch": 42,
                "velocity": 100
            },
            {
                "endTime": 2.875,
                "isDrum": true,
                "startTime": 2.75,
                "instrument": 9,
                "pitch": 50,
                "velocity": 100
            },
            {
                "endTime": 3.125,
                "isDrum": true,
                "startTime": 3,
                "instrument": 9,
                "pitch": 42,
                "velocity": 100
            },
            {
                "endTime": 3.125,
                "isDrum": true,
                "startTime": 3,
                "instrument": 9,
                "pitch": 36,
                "velocity": 100
            },
            {
                "endTime": 3.125,
                "isDrum": true,
                "startTime": 3,
                "instrument": 9,
                "pitch": 50,
                "velocity": 100
            },
            {
                "endTime": 3.375,
                "isDrum": true,
                "startTime": 3.25,
                "instrument": 9,
                "pitch": 45,
                "velocity": 100
            },
            {
                "endTime": 3.625,
                "isDrum": true,
                "startTime": 3.5,
                "instrument": 9,
                "pitch": 42,
                "velocity": 100
            },
            {
                "endTime": 3.625,
                "isDrum": true,
                "startTime": 3.5,
                "instrument": 9,
                "pitch": 36,
                "velocity": 100
            },
            {
                "endTime": 3.625,
                "isDrum": true,
                "startTime": 3.5,
                "instrument": 9,
                "pitch": 50,
                "velocity": 100
            },
            {
                "endTime": 3.875,
                "isDrum": true,
                "startTime": 3.75,
                "instrument": 9,
                "pitch": 42,
                "velocity": 100
            }
        ],
        "totalTime": 3.875,
        "ticksPerQuarter": 220,
        "tempos": [
            {
                "qpm": 120
            }
        ]
    },
    {
        "notes": [
            {
                "endTime": 0.625,
                "isDrum": true,
                "startTime": 0.5,
                "instrument": 9,
                "pitch": 42,
                "velocity": 100
            },
            {
                "endTime": 0.625,
                "isDrum": true,
                "startTime": 0.5,
                "instrument": 9,
                "pitch": 50,
                "velocity": 100
            },
            {
                "endTime": 1.625,
                "isDrum": true,
                "startTime": 1.5,
                "instrument": 9,
                "pitch": 42,
                "velocity": 100
            },
            {
                "endTime": 1.625,
                "isDrum": true,
                "startTime": 1.5,
                "instrument": 9,
                "pitch": 50,
                "velocity": 100
            },
            {
                "endTime": 2.625,
                "isDrum": true,
                "startTime": 2.5,
                "instrument": 9,
                "pitch": 42,
                "velocity": 100
            },
            {
                "endTime": 2.625,
                "isDrum": true,
                "startTime": 2.5,
                "instrument": 9,
                "pitch": 50,
                "velocity": 100
            },
            {
                "endTime": 2.875,
                "isDrum": true,
                "startTime": 2.75,
                "instrument": 9,
                "pitch": 50,
                "velocity": 100
            },
            {
                "endTime": 3.125,
                "isDrum": true,
                "startTime": 3,
                "instrument": 9,
                "pitch": 50,
                "velocity": 100
            },
            {
                "endTime": 3.375,
                "isDrum": true,
                "startTime": 3.25,
                "instrument": 9,
                "pitch": 45,
                "velocity": 100
            },
            {
                "endTime": 3.625,
                "isDrum": true,
                "startTime": 3.5,
                "instrument": 9,
                "pitch": 42,
                "velocity": 100
            },
            {
                "endTime": 3.625,
                "isDrum": true,
                "startTime": 3.5,
                "instrument": 9,
                "pitch": 36,
                "velocity": 100
            },
            {
                "endTime": 3.625,
                "isDrum": true,
                "startTime": 3.5,
                "instrument": 9,
                "pitch": 50,
                "velocity": 100
            }
        ],
        "totalTime": 3.625,
        "ticksPerQuarter": 220,
        "tempos": [
            {
                "qpm": 120
            }
        ]
    },
    {
        "notes": [
            {
                "endTime": 0.625,
                "isDrum": true,
                "startTime": 0.5,
                "instrument": 9,
                "pitch": 50,
                "velocity": 100
            },
            {
                "endTime": 2.625,
                "isDrum": true,
                "startTime": 2.5,
                "instrument": 9,
                "pitch": 42,
                "velocity": 100
            },
            {
                "endTime": 2.625,
                "isDrum": true,
                "startTime": 2.5,
                "instrument": 9,
                "pitch": 50,
                "velocity": 100
            },
            {
                "endTime": 2.875,
                "isDrum": true,
                "startTime": 2.75,
                "instrument": 9,
                "pitch": 50,
                "velocity": 100
            },
            {
                "endTime": 3.375,
                "isDrum": true,
                "startTime": 3.25,
                "instrument": 9,
                "pitch": 50,
                "velocity": 100
            }
        ],
        "totalTime": 3.375,
        "ticksPerQuarter": 220,
        "tempos": [
            {
                "qpm": 120
            }
        ]
    },
    {
        "notes": [
            {
                "endTime": 0.625,
                "isDrum": true,
                "startTime": 0.5,
                "instrument": 9,
                "pitch": 50,
                "velocity": 100
            },
            {
                "endTime": 2.625,
                "isDrum": true,
                "startTime": 2.5,
                "instrument": 9,
                "pitch": 50,
                "velocity": 100
            }
        ],
        "totalTime": 2.625,
        "ticksPerQuarter": 220,
        "tempos": [
            {
                "qpm": 120
            }
        ]
    },
    {
        "notes": [
            {
                "endTime": 0.625,
                "isDrum": true,
                "startTime": 0.5,
                "instrument": 9,
                "pitch": 50,
                "velocity": 100
            },
            {
                "endTime": 2.625,
                "isDrum": true,
                "startTime": 2.5,
                "instrument": 9,
                "pitch": 50,
                "velocity": 100
            }
        ],
        "totalTime": 2.625,
        "ticksPerQuarter": 220,
        "tempos": [
            {
                "qpm": 120
            }
        ]
    },
    {
        "notes": [
            {
                "velocity": 100,
                "isDrum": true,
                "instrument": 9,
                "pitch": 42,
                "endTime": 0.125
            },
            {
                "velocity": 100,
                "isDrum": true,
                "instrument": 9,
                "pitch": 36,
                "endTime": 0.125
            },
            {
                "velocity": 100,
                "isDrum": true,
                "instrument": 9,
                "pitch": 45,
                "endTime": 0.125
            },
            {
                "velocity": 100,
                "isDrum": true,
                "instrument": 9,
                "pitch": 46,
                "endTime": 0.125
            },
            {
                "endTime": 0.375,
                "isDrum": true,
                "startTime": 0.25,
                "instrument": 9,
                "pitch": 42,
                "velocity": 100
            },
            {
                "endTime": 0.625,
                "isDrum": true,
                "startTime": 0.5,
                "instrument": 9,
                "pitch": 42,
                "velocity": 100
            },
            {
                "endTime": 0.875,
                "isDrum": true,
                "startTime": 0.75,
                "instrument": 9,
                "pitch": 42,
                "velocity": 100
            },
            {
                "endTime": 0.875,
                "isDrum": true,
                "startTime": 0.75,
                "instrument": 9,
                "pitch": 36,
                "velocity": 100
            },
            {
                "endTime": 0.875,
                "isDrum": true,
                "startTime": 0.75,
                "instrument": 9,
                "pitch": 38,
                "velocity": 100
            },
            {
                "endTime": 1.125,
                "isDrum": true,
                "startTime": 1,
                "instrument": 9,
                "pitch": 42,
                "velocity": 100
            },
            {
                "endTime": 1.125,
                "isDrum": true,
                "startTime": 1,
                "instrument": 9,
                "pitch": 36,
                "velocity": 100
            },
            {
                "endTime": 1.375,
                "isDrum": true,
                "startTime": 1.25,
                "instrument": 9,
                "pitch": 42,
                "velocity": 100
            },
            {
                "endTime": 1.625,
                "isDrum": true,
                "startTime": 1.5,
                "instrument": 9,
                "pitch": 42,
                "velocity": 100
            },
            {
                "endTime": 1.625,
                "isDrum": true,
                "startTime": 1.5,
                "instrument": 9,
                "pitch": 38,
                "velocity": 100
            },
            {
                "endTime": 1.875,
                "isDrum": true,
                "startTime": 1.75,
                "instrument": 9,
                "pitch": 42,
                "velocity": 100
            },
            {
                "endTime": 1.875,
                "isDrum": true,
                "startTime": 1.75,
                "instrument": 9,
                "pitch": 36,
                "velocity": 100
            },
            {
                "endTime": 1.875,
                "isDrum": true,
                "startTime": 1.75,
                "instrument": 9,
                "pitch": 45,
                "velocity": 100
            },
            {
                "endTime": 1.875,
                "isDrum": true,
                "startTime": 1.75,
                "instrument": 9,
                "pitch": 46,
                "velocity": 100
            },
            {
                "endTime": 2.125,
                "isDrum": true,
                "startTime": 2,
                "instrument": 9,
                "pitch": 42,
                "velocity": 100
            },
            {
                "endTime": 2.125,
                "isDrum": true,
                "startTime": 2,
                "instrument": 9,
                "pitch": 36,
                "velocity": 100
            },
            {
                "endTime": 2.375,
                "isDrum": true,
                "startTime": 2.25,
                "instrument": 9,
                "pitch": 42,
                "velocity": 100
            },
            {
                "endTime": 2.625,
                "isDrum": true,
                "startTime": 2.5,
                "instrument": 9,
                "pitch": 42,
                "velocity": 100
            },
            {
                "endTime": 2.625,
                "isDrum": true,
                "startTime": 2.5,
                "instrument": 9,
                "pitch": 45,
                "velocity": 100
            },
            {
                "endTime": 2.625,
                "isDrum": true,
                "startTime": 2.5,
                "instrument": 9,
                "pitch": 38,
                "velocity": 100
            },
            {
                "endTime": 2.875,
                "isDrum": true,
                "startTime": 2.75,
                "instrument": 9,
                "pitch": 42,
                "velocity": 100
            },
            {
                "endTime": 2.875,
                "isDrum": true,
                "startTime": 2.75,
                "instrument": 9,
                "pitch": 36,
                "velocity": 100
            },
            {
                "endTime": 3.125,
                "isDrum": true,
                "startTime": 3,
                "instrument": 9,
                "pitch": 42,
                "velocity": 100
            },
            {
                "endTime": 3.125,
                "isDrum": true,
                "startTime": 3,
                "instrument": 9,
                "pitch": 36,
                "velocity": 100
            },
            {
                "endTime": 3.375,
                "isDrum": true,
                "startTime": 3.25,
                "instrument": 9,
                "pitch": 42,
                "velocity": 100
            },
            {
                "endTime": 3.375,
                "isDrum": true,
                "startTime": 3.25,
                "instrument": 9,
                "pitch": 45,
                "velocity": 100
            },
            {
                "endTime": 3.375,
                "isDrum": true,
                "startTime": 3.25,
                "instrument": 9,
                "pitch": 38,
                "velocity": 100
            },
            {
                "endTime": 3.625,
                "isDrum": true,
                "startTime": 3.5,
                "instrument": 9,
                "pitch": 42,
                "velocity": 100
            },
            {
                "endTime": 3.625,
                "isDrum": true,
                "startTime": 3.5,
                "instrument": 9,
                "pitch": 45,
                "velocity": 100
            },
            {
                "endTime": 3.875,
                "isDrum": true,
                "startTime": 3.75,
                "instrument": 9,
                "pitch": 42,
                "velocity": 100
            },
            {
                "endTime": 3.875,
                "isDrum": true,
                "startTime": 3.75,
                "instrument": 9,
                "pitch": 36,
                "velocity": 100
            },
            {
                "endTime": 3.875,
                "isDrum": true,
                "startTime": 3.75,
                "instrument": 9,
                "pitch": 45,
                "velocity": 100
            }
        ],
        "totalTime": 3.875,
        "ticksPerQuarter": 220,
        "tempos": [
            {
                "qpm": 120
            }
        ]
    },
    {
        "notes": [
            {
                "velocity": 100,
                "isDrum": true,
                "instrument": 9,
                "pitch": 42,
                "endTime": 0.125
            },
            {
                "velocity": 100,
                "isDrum": true,
                "instrument": 9,
                "pitch": 36,
                "endTime": 0.125
            },
            {
                "velocity": 100,
                "isDrum": true,
                "instrument": 9,
                "pitch": 45,
                "endTime": 0.125
            },
            {
                "velocity": 100,
                "isDrum": true,
                "instrument": 9,
                "pitch": 46,
                "endTime": 0.125
            },
            {
                "endTime": 0.375,
                "isDrum": true,
                "startTime": 0.25,
                "instrument": 9,
                "pitch": 42,
                "velocity": 100
            },
            {
                "endTime": 0.625,
                "isDrum": true,
                "startTime": 0.5,
                "instrument": 9,
                "pitch": 42,
                "velocity": 100
            },
            {
                "endTime": 0.875,
                "isDrum": true,
                "startTime": 0.75,
                "instrument": 9,
                "pitch": 42,
                "velocity": 100
            },
            {
                "endTime": 0.875,
                "isDrum": true,
                "startTime": 0.75,
                "instrument": 9,
                "pitch": 36,
                "velocity": 100
            },
            {
                "endTime": 0.875,
                "isDrum": true,
                "startTime": 0.75,
                "instrument": 9,
                "pitch": 38,
                "velocity": 100
            },
            {
                "endTime": 1.125,
                "isDrum": true,
                "startTime": 1,
                "instrument": 9,
                "pitch": 42,
                "velocity": 100
            },
            {
                "endTime": 1.125,
                "isDrum": true,
                "startTime": 1,
                "instrument": 9,
                "pitch": 36,
                "velocity": 100
            },
            {
                "endTime": 1.375,
                "isDrum": true,
                "startTime": 1.25,
                "instrument": 9,
                "pitch": 42,
                "velocity": 100
            },
            {
                "endTime": 1.625,
                "isDrum": true,
                "startTime": 1.5,
                "instrument": 9,
                "pitch": 42,
                "velocity": 100
            },
            {
                "endTime": 1.625,
                "isDrum": true,
                "startTime": 1.5,
                "instrument": 9,
                "pitch": 38,
                "velocity": 100
            },
            {
                "endTime": 1.875,
                "isDrum": true,
                "startTime": 1.75,
                "instrument": 9,
                "pitch": 42,
                "velocity": 100
            },
            {
                "endTime": 1.875,
                "isDrum": true,
                "startTime": 1.75,
                "instrument": 9,
                "pitch": 36,
                "velocity": 100
            },
            {
                "endTime": 1.875,
                "isDrum": true,
                "startTime": 1.75,
                "instrument": 9,
                "pitch": 45,
                "velocity": 100
            },
            {
                "endTime": 2.125,
                "isDrum": true,
                "startTime": 2,
                "instrument": 9,
                "pitch": 42,
                "velocity": 100
            },
            {
                "endTime": 2.125,
                "isDrum": true,
                "startTime": 2,
                "instrument": 9,
                "pitch": 36,
                "velocity": 100
            },
            {
                "endTime": 2.375,
                "isDrum": true,
                "startTime": 2.25,
                "instrument": 9,
                "pitch": 42,
                "velocity": 100
            },
            {
                "endTime": 2.625,
                "isDrum": true,
                "startTime": 2.5,
                "instrument": 9,
                "pitch": 42,
                "velocity": 100
            },
            {
                "endTime": 2.625,
                "isDrum": true,
                "startTime": 2.5,
                "instrument": 9,
                "pitch": 45,
                "velocity": 100
            },
            {
                "endTime": 2.625,
                "isDrum": true,
                "startTime": 2.5,
                "instrument": 9,
                "pitch": 38,
                "velocity": 100
            },
            {
                "endTime": 2.875,
                "isDrum": true,
                "startTime": 2.75,
                "instrument": 9,
                "pitch": 42,
                "velocity": 100
            },
            {
                "endTime": 2.875,
                "isDrum": true,
                "startTime": 2.75,
                "instrument": 9,
                "pitch": 36,
                "velocity": 100
            },
            {
                "endTime": 3.125,
                "isDrum": true,
                "startTime": 3,
                "instrument": 9,
                "pitch": 42,
                "velocity": 100
            },
            {
                "endTime": 3.125,
                "isDrum": true,
                "startTime": 3,
                "instrument": 9,
                "pitch": 36,
                "velocity": 100
            },
            {
                "endTime": 3.375,
                "isDrum": true,
                "startTime": 3.25,
                "instrument": 9,
                "pitch": 42,
                "velocity": 100
            },
            {
                "endTime": 3.375,
                "isDrum": true,
                "startTime": 3.25,
                "instrument": 9,
                "pitch": 45,
                "velocity": 100
            },
            {
                "endTime": 3.375,
                "isDrum": true,
                "startTime": 3.25,
                "instrument": 9,
                "pitch": 38,
                "velocity": 100
            },
            {
                "endTime": 3.625,
                "isDrum": true,
                "startTime": 3.5,
                "instrument": 9,
                "pitch": 42,
                "velocity": 100
            },
            {
                "endTime": 3.625,
                "isDrum": true,
                "startTime": 3.5,
                "instrument": 9,
                "pitch": 45,
                "velocity": 100
            },
            {
                "endTime": 3.875,
                "isDrum": true,
                "startTime": 3.75,
                "instrument": 9,
                "pitch": 42,
                "velocity": 100
            },
            {
                "endTime": 3.875,
                "isDrum": true,
                "startTime": 3.75,
                "instrument": 9,
                "pitch": 36,
                "velocity": 100
            },
            {
                "endTime": 3.875,
                "isDrum": true,
                "startTime": 3.75,
                "instrument": 9,
                "pitch": 45,
                "velocity": 100
            }
        ],
        "totalTime": 3.875,
        "ticksPerQuarter": 220,
        "tempos": [
            {
                "qpm": 120
            }
        ]
    },
    {
        "notes": [
            {
                "endTime": 0.375,
                "isDrum": true,
                "startTime": 0.25,
                "instrument": 9,
                "pitch": 42,
                "velocity": 100
            },
            {
                "endTime": 0.625,
                "isDrum": true,
                "startTime": 0.5,
                "instrument": 9,
                "pitch": 42,
                "velocity": 100
            },
            {
                "endTime": 0.875,
                "isDrum": true,
                "startTime": 0.75,
                "instrument": 9,
                "pitch": 42,
                "velocity": 100
            },
            {
                "endTime": 0.875,
                "isDrum": true,
                "startTime": 0.75,
                "instrument": 9,
                "pitch": 36,
                "velocity": 100
            },
            {
                "endTime": 0.875,
                "isDrum": true,
                "startTime": 0.75,
                "instrument": 9,
                "pitch": 38,
                "velocity": 100
            },
            {
                "endTime": 1.125,
                "isDrum": true,
                "startTime": 1,
                "instrument": 9,
                "pitch": 42,
                "velocity": 100
            },
            {
                "endTime": 1.125,
                "isDrum": true,
                "startTime": 1,
                "instrument": 9,
                "pitch": 36,
                "velocity": 100
            },
            {
                "endTime": 1.375,
                "isDrum": true,
                "startTime": 1.25,
                "instrument": 9,
                "pitch": 42,
                "velocity": 100
            },
            {
                "endTime": 1.625,
                "isDrum": true,
                "startTime": 1.5,
                "instrument": 9,
                "pitch": 42,
                "velocity": 100
            },
            {
                "endTime": 1.625,
                "isDrum": true,
                "startTime": 1.5,
                "instrument": 9,
                "pitch": 38,
                "velocity": 100
            },
            {
                "endTime": 1.875,
                "isDrum": true,
                "startTime": 1.75,
                "instrument": 9,
                "pitch": 42,
                "velocity": 100
            },
            {
                "endTime": 1.875,
                "isDrum": true,
                "startTime": 1.75,
                "instrument": 9,
                "pitch": 36,
                "velocity": 100
            },
            {
                "endTime": 1.875,
                "isDrum": true,
                "startTime": 1.75,
                "instrument": 9,
                "pitch": 45,
                "velocity": 100
            },
            {
                "endTime": 2.125,
                "isDrum": true,
                "startTime": 2,
                "instrument": 9,
                "pitch": 42,
                "velocity": 100
            },
            {
                "endTime": 2.125,
                "isDrum": true,
                "startTime": 2,
                "instrument": 9,
                "pitch": 36,
                "velocity": 100
            },
            {
                "endTime": 2.125,
                "isDrum": true,
                "startTime": 2,
                "instrument": 9,
                "pitch": 50,
                "velocity": 100
            },
            {
                "endTime": 2.375,
                "isDrum": true,
                "startTime": 2.25,
                "instrument": 9,
                "pitch": 42,
                "velocity": 100
            },
            {
                "endTime": 2.625,
                "isDrum": true,
                "startTime": 2.5,
                "instrument": 9,
                "pitch": 42,
                "velocity": 100
            },
            {
                "endTime": 2.625,
                "isDrum": true,
                "startTime": 2.5,
                "instrument": 9,
                "pitch": 38,
                "velocity": 100
            },
            {
                "endTime": 2.875,
                "isDrum": true,
                "startTime": 2.75,
                "instrument": 9,
                "pitch": 42,
                "velocity": 100
            },
            {
                "endTime": 2.875,
                "isDrum": true,
                "startTime": 2.75,
                "instrument": 9,
                "pitch": 36,
                "velocity": 100
            },
            {
                "endTime": 3.125,
                "isDrum": true,
                "startTime": 3,
                "instrument": 9,
                "pitch": 42,
                "velocity": 100
            },
            {
                "endTime": 3.125,
                "isDrum": true,
                "startTime": 3,
                "instrument": 9,
                "pitch": 36,
                "velocity": 100
            },
            {
                "endTime": 3.125,
                "isDrum": true,
                "startTime": 3,
                "instrument": 9,
                "pitch": 50,
                "velocity": 100
            },
            {
                "endTime": 3.375,
                "isDrum": true,
                "startTime": 3.25,
                "instrument": 9,
                "pitch": 45,
                "velocity": 100
            },
            {
                "endTime": 3.375,
                "isDrum": true,
                "startTime": 3.25,
                "instrument": 9,
                "pitch": 46,
                "velocity": 100
            },
            {
                "endTime": 3.625,
                "isDrum": true,
                "startTime": 3.5,
                "instrument": 9,
                "pitch": 42,
                "velocity": 100
            },
            {
                "endTime": 3.625,
                "isDrum": true,
                "startTime": 3.5,
                "instrument": 9,
                "pitch": 36,
                "velocity": 100
            },
            {
                "endTime": 3.625,
                "isDrum": true,
                "startTime": 3.5,
                "instrument": 9,
                "pitch": 45,
                "velocity": 100
            },
            {
                "endTime": 3.875,
                "isDrum": true,
                "startTime": 3.75,
                "instrument": 9,
                "pitch": 49,
                "velocity": 100
            },
            {
                "endTime": 3.875,
                "isDrum": true,
                "startTime": 3.75,
                "instrument": 9,
                "pitch": 42,
                "velocity": 100
            },
            {
                "endTime": 3.875,
                "isDrum": true,
                "startTime": 3.75,
                "instrument": 9,
                "pitch": 36,
                "velocity": 100
            }
        ],
        "totalTime": 3.875,
        "ticksPerQuarter": 220,
        "tempos": [
            {
                "qpm": 120
            }
        ]
    },
    {
        "notes": [
            {
                "endTime": 0.375,
                "isDrum": true,
                "startTime": 0.25,
                "instrument": 9,
                "pitch": 42,
                "velocity": 100
            },
            {
                "endTime": 0.625,
                "isDrum": true,
                "startTime": 0.5,
                "instrument": 9,
                "pitch": 42,
                "velocity": 100
            },
            {
                "endTime": 0.875,
                "isDrum": true,
                "startTime": 0.75,
                "instrument": 9,
                "pitch": 42,
                "velocity": 100
            },
            {
                "endTime": 0.875,
                "isDrum": true,
                "startTime": 0.75,
                "instrument": 9,
                "pitch": 36,
                "velocity": 100
            },
            {
                "endTime": 0.875,
                "isDrum": true,
                "startTime": 0.75,
                "instrument": 9,
                "pitch": 38,
                "velocity": 100
            },
            {
                "endTime": 1.125,
                "isDrum": true,
                "startTime": 1,
                "instrument": 9,
                "pitch": 42,
                "velocity": 100
            },
            {
                "endTime": 1.125,
                "isDrum": true,
                "startTime": 1,
                "instrument": 9,
                "pitch": 36,
                "velocity": 100
            },
            {
                "endTime": 1.375,
                "isDrum": true,
                "startTime": 1.25,
                "instrument": 9,
                "pitch": 42,
                "velocity": 100
            },
            {
                "endTime": 1.625,
                "isDrum": true,
                "startTime": 1.5,
                "instrument": 9,
                "pitch": 42,
                "velocity": 100
            },
            {
                "endTime": 1.625,
                "isDrum": true,
                "startTime": 1.5,
                "instrument": 9,
                "pitch": 38,
                "velocity": 100
            },
            {
                "endTime": 1.875,
                "isDrum": true,
                "startTime": 1.75,
                "instrument": 9,
                "pitch": 42,
                "velocity": 100
            },
            {
                "endTime": 1.875,
                "isDrum": true,
                "startTime": 1.75,
                "instrument": 9,
                "pitch": 36,
                "velocity": 100
            },
            {
                "endTime": 2.125,
                "isDrum": true,
                "startTime": 2,
                "instrument": 9,
                "pitch": 42,
                "velocity": 100
            },
            {
                "endTime": 2.125,
                "isDrum": true,
                "startTime": 2,
                "instrument": 9,
                "pitch": 36,
                "velocity": 100
            },
            {
                "endTime": 2.125,
                "isDrum": true,
                "startTime": 2,
                "instrument": 9,
                "pitch": 50,
                "velocity": 100
            },
            {
                "endTime": 2.375,
                "isDrum": true,
                "startTime": 2.25,
                "instrument": 9,
                "pitch": 42,
                "velocity": 100
            },
            {
                "endTime": 2.625,
                "isDrum": true,
                "startTime": 2.5,
                "instrument": 9,
                "pitch": 42,
                "velocity": 100
            },
            {
                "endTime": 2.625,
                "isDrum": true,
                "startTime": 2.5,
                "instrument": 9,
                "pitch": 38,
                "velocity": 100
            },
            {
                "endTime": 2.875,
                "isDrum": true,
                "startTime": 2.75,
                "instrument": 9,
                "pitch": 42,
                "velocity": 100
            },
            {
                "endTime": 2.875,
                "isDrum": true,
                "startTime": 2.75,
                "instrument": 9,
                "pitch": 36,
                "velocity": 100
            },
            {
                "endTime": 3.125,
                "isDrum": true,
                "startTime": 3,
                "instrument": 9,
                "pitch": 42,
                "velocity": 100
            },
            {
                "endTime": 3.125,
                "isDrum": true,
                "startTime": 3,
                "instrument": 9,
                "pitch": 36,
                "velocity": 100
            },
            {
                "endTime": 3.125,
                "isDrum": true,
                "startTime": 3,
                "instrument": 9,
                "pitch": 50,
                "velocity": 100
            },
            {
                "endTime": 3.375,
                "isDrum": true,
                "startTime": 3.25,
                "instrument": 9,
                "pitch": 42,
                "velocity": 100
            },
            {
                "endTime": 3.375,
                "isDrum": true,
                "startTime": 3.25,
                "instrument": 9,
                "pitch": 38,
                "velocity": 100
            },
            {
                "endTime": 3.625,
                "isDrum": true,
                "startTime": 3.5,
                "instrument": 9,
                "pitch": 49,
                "velocity": 100
            },
            {
                "endTime": 3.625,
                "isDrum": true,
                "startTime": 3.5,
                "instrument": 9,
                "pitch": 42,
                "velocity": 100
            },
            {
                "endTime": 3.625,
                "isDrum": true,
                "startTime": 3.5,
                "instrument": 9,
                "pitch": 50,
                "velocity": 100
            },
            {
                "endTime": 3.875,
                "isDrum": true,
                "startTime": 3.75,
                "instrument": 9,
                "pitch": 42,
                "velocity": 100
            },
            {
                "endTime": 3.875,
                "isDrum": true,
                "startTime": 3.75,
                "instrument": 9,
                "pitch": 36,
                "velocity": 100
            }
        ],
        "totalTime": 3.875,
        "ticksPerQuarter": 220,
        "tempos": [
            {
                "qpm": 120
            }
        ]
    },
    {
        "notes": [
            {
                "endTime": 0.375,
                "isDrum": true,
                "startTime": 0.25,
                "instrument": 9,
                "pitch": 45,
                "velocity": 100
            },
            {
                "endTime": 0.625,
                "isDrum": true,
                "startTime": 0.5,
                "instrument": 9,
                "pitch": 42,
                "velocity": 100
            },
            {
                "endTime": 1.375,
                "isDrum": true,
                "startTime": 1.25,
                "instrument": 9,
                "pitch": 42,
                "velocity": 100
            },
            {
                "endTime": 1.625,
                "isDrum": true,
                "startTime": 1.5,
                "instrument": 9,
                "pitch": 42,
                "velocity": 100
            },
            {
                "endTime": 1.625,
                "isDrum": true,
                "startTime": 1.5,
                "instrument": 9,
                "pitch": 50,
                "velocity": 100
            },
            {
                "endTime": 2.125,
                "isDrum": true,
                "startTime": 2,
                "instrument": 9,
                "pitch": 42,
                "velocity": 100
            },
            {
                "endTime": 2.125,
                "isDrum": true,
                "startTime": 2,
                "instrument": 9,
                "pitch": 36,
                "velocity": 100
            },
            {
                "endTime": 2.125,
                "isDrum": true,
                "startTime": 2,
                "instrument": 9,
                "pitch": 50,
                "velocity": 100
            },
            {
                "endTime": 2.375,
                "isDrum": true,
                "startTime": 2.25,
                "instrument": 9,
                "pitch": 42,
                "velocity": 100
            },
            {
                "endTime": 2.625,
                "isDrum": true,
                "startTime": 2.5,
                "instrument": 9,
                "pitch": 42,
                "velocity": 100
            },
            {
                "endTime": 2.625,
                "isDrum": true,
                "startTime": 2.5,
                "instrument": 9,
                "pitch": 38,
                "velocity": 100
            },
            {
                "endTime": 2.875,
                "isDrum": true,
                "startTime": 2.75,
                "instrument": 9,
                "pitch": 42,
                "velocity": 100
            },
            {
                "endTime": 2.875,
                "isDrum": true,
                "startTime": 2.75,
                "instrument": 9,
                "pitch": 36,
                "velocity": 100
            },
            {
                "endTime": 2.875,
                "isDrum": true,
                "startTime": 2.75,
                "instrument": 9,
                "pitch": 50,
                "velocity": 100
            },
            {
                "endTime": 3.125,
                "isDrum": true,
                "startTime": 3,
                "instrument": 9,
                "pitch": 42,
                "velocity": 100
            },
            {
                "endTime": 3.125,
                "isDrum": true,
                "startTime": 3,
                "instrument": 9,
                "pitch": 36,
                "velocity": 100
            },
            {
                "endTime": 3.125,
                "isDrum": true,
                "startTime": 3,
                "instrument": 9,
                "pitch": 50,
                "velocity": 100
            },
            {
                "endTime": 3.375,
                "isDrum": true,
                "startTime": 3.25,
                "instrument": 9,
                "pitch": 42,
                "velocity": 100
            },
            {
                "endTime": 3.375,
                "isDrum": true,
                "startTime": 3.25,
                "instrument": 9,
                "pitch": 38,
                "velocity": 100
            },
            {
                "endTime": 3.625,
                "isDrum": true,
                "startTime": 3.5,
                "instrument": 9,
                "pitch": 42,
                "velocity": 100
            },
            {
                "endTime": 3.625,
                "isDrum": true,
                "startTime": 3.5,
                "instrument": 9,
                "pitch": 50,
                "velocity": 100
            },
            {
                "endTime": 3.875,
                "isDrum": true,
                "startTime": 3.75,
                "instrument": 9,
                "pitch": 49,
                "velocity": 100
            },
            {
                "endTime": 3.875,
                "isDrum": true,
                "startTime": 3.75,
                "instrument": 9,
                "pitch": 42,
                "velocity": 100
            },
            {
                "endTime": 3.875,
                "isDrum": true,
                "startTime": 3.75,
                "instrument": 9,
                "pitch": 36,
                "velocity": 100
            }
        ],
        "totalTime": 3.875,
        "ticksPerQuarter": 220,
        "tempos": [
            {
                "qpm": 120
            }
        ]
    },
    {
        "notes": [
            {
                "endTime": 0.625,
                "isDrum": true,
                "startTime": 0.5,
                "instrument": 9,
                "pitch": 48,
                "velocity": 100
            },
            {
                "endTime": 0.625,
                "isDrum": true,
                "startTime": 0.5,
                "instrument": 9,
                "pitch": 42,
                "velocity": 100
            },
            {
                "endTime": 1.625,
                "isDrum": true,
                "startTime": 1.5,
                "instrument": 9,
                "pitch": 42,
                "velocity": 100
            },
            {
                "endTime": 1.625,
                "isDrum": true,
                "startTime": 1.5,
                "instrument": 9,
                "pitch": 50,
                "velocity": 100
            },
            {
                "endTime": 2.125,
                "isDrum": true,
                "startTime": 2,
                "instrument": 9,
                "pitch": 42,
                "velocity": 100
            },
            {
                "endTime": 2.125,
                "isDrum": true,
                "startTime": 2,
                "instrument": 9,
                "pitch": 36,
                "velocity": 100
            },
            {
                "endTime": 2.125,
                "isDrum": true,
                "startTime": 2,
                "instrument": 9,
                "pitch": 50,
                "velocity": 100
            },
            {
                "endTime": 2.625,
                "isDrum": true,
                "startTime": 2.5,
                "instrument": 9,
                "pitch": 48,
                "velocity": 100
            },
            {
                "endTime": 2.625,
                "isDrum": true,
                "startTime": 2.5,
                "instrument": 9,
                "pitch": 42,
                "velocity": 100
            },
            {
                "endTime": 2.875,
                "isDrum": true,
                "startTime": 2.75,
                "instrument": 9,
                "pitch": 50,
                "velocity": 100
            },
            {
                "endTime": 3.125,
                "isDrum": true,
                "startTime": 3,
                "instrument": 9,
                "pitch": 42,
                "velocity": 100
            },
            {
                "endTime": 3.125,
                "isDrum": true,
                "startTime": 3,
                "instrument": 9,
                "pitch": 36,
                "velocity": 100
            },
            {
                "endTime": 3.125,
                "isDrum": true,
                "startTime": 3,
                "instrument": 9,
                "pitch": 50,
                "velocity": 100
            },
            {
                "endTime": 3.375,
                "isDrum": true,
                "startTime": 3.25,
                "instrument": 9,
                "pitch": 50,
                "velocity": 100
            },
            {
                "endTime": 3.375,
                "isDrum": true,
                "startTime": 3.25,
                "instrument": 9,
                "pitch": 45,
                "velocity": 100
            },
            {
                "endTime": 3.625,
                "isDrum": true,
                "startTime": 3.5,
                "instrument": 9,
                "pitch": 49,
                "velocity": 100
            },
            {
                "endTime": 3.625,
                "isDrum": true,
                "startTime": 3.5,
                "instrument": 9,
                "pitch": 42,
                "velocity": 100
            },
            {
                "endTime": 3.625,
                "isDrum": true,
                "startTime": 3.5,
                "instrument": 9,
                "pitch": 36,
                "velocity": 100
            },
            {
                "endTime": 3.875,
                "isDrum": true,
                "startTime": 3.75,
                "instrument": 9,
                "pitch": 42,
                "velocity": 100
            }
        ],
        "totalTime": 3.875,
        "ticksPerQuarter": 220,
        "tempos": [
            {
                "qpm": 120
            }
        ]
    },
    {
        "notes": [
            {
                "endTime": 0.625,
                "isDrum": true,
                "startTime": 0.5,
                "instrument": 9,
                "pitch": 42,
                "velocity": 100
            },
            {
                "endTime": 0.625,
                "isDrum": true,
                "startTime": 0.5,
                "instrument": 9,
                "pitch": 45,
                "velocity": 100
            },
            {
                "endTime": 1.625,
                "isDrum": true,
                "startTime": 1.5,
                "instrument": 9,
                "pitch": 42,
                "velocity": 100
            },
            {
                "endTime": 1.625,
                "isDrum": true,
                "startTime": 1.5,
                "instrument": 9,
                "pitch": 50,
                "velocity": 100
            },
            {
                "endTime": 2.625,
                "isDrum": true,
                "startTime": 2.5,
                "instrument": 9,
                "pitch": 48,
                "velocity": 100
            },
            {
                "endTime": 2.625,
                "isDrum": true,
                "startTime": 2.5,
                "instrument": 9,
                "pitch": 42,
                "velocity": 100
            },
            {
                "endTime": 2.875,
                "isDrum": true,
                "startTime": 2.75,
                "instrument": 9,
                "pitch": 50,
                "velocity": 100
            },
            {
                "endTime": 3.125,
                "isDrum": true,
                "startTime": 3,
                "instrument": 9,
                "pitch": 50,
                "velocity": 100
            },
            {
                "endTime": 3.375,
                "isDrum": true,
                "startTime": 3.25,
                "instrument": 9,
                "pitch": 45,
                "velocity": 100
            },
            {
                "endTime": 3.625,
                "isDrum": true,
                "startTime": 3.5,
                "instrument": 9,
                "pitch": 42,
                "velocity": 100
            },
            {
                "endTime": 3.625,
                "isDrum": true,
                "startTime": 3.5,
                "instrument": 9,
                "pitch": 50,
                "velocity": 100
            },
            {
                "endTime": 3.875,
                "isDrum": true,
                "startTime": 3.75,
                "instrument": 9,
                "pitch": 50,
                "velocity": 100
            }
        ],
        "totalTime": 3.875,
        "ticksPerQuarter": 220,
        "tempos": [
            {
                "qpm": 120
            }
        ]
    },
    {
        "notes": [
            {
                "endTime": 0.625,
                "isDrum": true,
                "startTime": 0.5,
                "instrument": 9,
                "pitch": 42,
                "velocity": 100
            },
            {
                "endTime": 0.625,
                "isDrum": true,
                "startTime": 0.5,
                "instrument": 9,
                "pitch": 50,
                "velocity": 100
            },
            {
                "endTime": 1.625,
                "isDrum": true,
                "startTime": 1.5,
                "instrument": 9,
                "pitch": 50,
                "velocity": 100
            },
            {
                "endTime": 2.625,
                "isDrum": true,
                "startTime": 2.5,
                "instrument": 9,
                "pitch": 42,
                "velocity": 100
            },
            {
                "endTime": 2.625,
                "isDrum": true,
                "startTime": 2.5,
                "instrument": 9,
                "pitch": 50,
                "velocity": 100
            },
            {
                "endTime": 2.875,
                "isDrum": true,
                "startTime": 2.75,
                "instrument": 9,
                "pitch": 50,
                "velocity": 100
            },
            {
                "endTime": 3.375,
                "isDrum": true,
                "startTime": 3.25,
                "instrument": 9,
                "pitch": 50,
                "velocity": 100
            },
            {
                "endTime": 3.625,
                "isDrum": true,
                "startTime": 3.5,
                "instrument": 9,
                "pitch": 50,
                "velocity": 100
            }
        ],
        "totalTime": 3.625,
        "ticksPerQuarter": 220,
        "tempos": [
            {
                "qpm": 120
            }
        ]
    },
    {
        "notes": [
            {
                "endTime": 0.625,
                "isDrum": true,
                "startTime": 0.5,
                "instrument": 9,
                "pitch": 50,
                "velocity": 100
            },
            {
                "endTime": 2.625,
                "isDrum": true,
                "startTime": 2.5,
                "instrument": 9,
                "pitch": 50,
                "velocity": 100
            },
            {
                "endTime": 3.375,
                "isDrum": true,
                "startTime": 3.25,
                "instrument": 9,
                "pitch": 50,
                "velocity": 100
            }
        ],
        "totalTime": 3.375,
        "ticksPerQuarter": 220,
        "tempos": [
            {
                "qpm": 120
            }
        ]
    },
    {
        "notes": [
            {
                "endTime": 0.625,
                "isDrum": true,
                "startTime": 0.5,
                "instrument": 9,
                "pitch": 50,
                "velocity": 100
            },
            {
                "endTime": 2.625,
                "isDrum": true,
                "startTime": 2.5,
                "instrument": 9,
                "pitch": 50,
                "velocity": 100
            }
        ],
        "totalTime": 2.625,
        "ticksPerQuarter": 220,
        "tempos": [
            {
                "qpm": 120
            }
        ]
    },
    {
        "notes": [
            {
                "endTime": 0.625,
                "isDrum": true,
                "startTime": 0.5,
                "instrument": 9,
                "pitch": 50,
                "velocity": 100
            },
            {
                "endTime": 2.625,
                "isDrum": true,
                "startTime": 2.5,
                "instrument": 9,
                "pitch": 50,
                "velocity": 100
            }
        ],
        "totalTime": 2.625,
        "ticksPerQuarter": 220,
        "tempos": [
            {
                "qpm": 120
            }
        ]
    },
    {
        "notes": [
            {
                "velocity": 100,
                "isDrum": true,
                "instrument": 9,
                "pitch": 42,
                "endTime": 0.125
            },
            {
                "velocity": 100,
                "isDrum": true,
                "instrument": 9,
                "pitch": 38,
                "endTime": 0.125
            },
            {
                "endTime": 0.375,
                "isDrum": true,
                "startTime": 0.25,
                "instrument": 9,
                "pitch": 42,
                "velocity": 100
            },
            {
                "endTime": 0.625,
                "isDrum": true,
                "startTime": 0.5,
                "instrument": 9,
                "pitch": 42,
                "velocity": 100
            },
            {
                "endTime": 0.875,
                "isDrum": true,
                "startTime": 0.75,
                "instrument": 9,
                "pitch": 42,
                "velocity": 100
            },
            {
                "endTime": 0.875,
                "isDrum": true,
                "startTime": 0.75,
                "instrument": 9,
                "pitch": 36,
                "velocity": 100
            },
            {
                "endTime": 0.875,
                "isDrum": true,
                "startTime": 0.75,
                "instrument": 9,
                "pitch": 45,
                "velocity": 100
            },
            {
                "endTime": 0.875,
                "isDrum": true,
                "startTime": 0.75,
                "instrument": 9,
                "pitch": 38,
                "velocity": 100
            },
            {
                "endTime": 1.125,
                "isDrum": true,
                "startTime": 1,
                "instrument": 9,
                "pitch": 42,
                "velocity": 100
            },
            {
                "endTime": 1.125,
                "isDrum": true,
                "startTime": 1,
                "instrument": 9,
                "pitch": 36,
                "velocity": 100
            },
            {
                "endTime": 1.375,
                "isDrum": true,
                "startTime": 1.25,
                "instrument": 9,
                "pitch": 42,
                "velocity": 100
            },
            {
                "endTime": 1.625,
                "isDrum": true,
                "startTime": 1.5,
                "instrument": 9,
                "pitch": 42,
                "velocity": 100
            },
            {
                "endTime": 1.625,
                "isDrum": true,
                "startTime": 1.5,
                "instrument": 9,
                "pitch": 45,
                "velocity": 100
            },
            {
                "endTime": 1.625,
                "isDrum": true,
                "startTime": 1.5,
                "instrument": 9,
                "pitch": 38,
                "velocity": 100
            },
            {
                "endTime": 1.875,
                "isDrum": true,
                "startTime": 1.75,
                "instrument": 9,
                "pitch": 42,
                "velocity": 100
            },
            {
                "endTime": 1.875,
                "isDrum": true,
                "startTime": 1.75,
                "instrument": 9,
                "pitch": 36,
                "velocity": 100
            },
            {
                "endTime": 1.875,
                "isDrum": true,
                "startTime": 1.75,
                "instrument": 9,
                "pitch": 46,
                "velocity": 100
            },
            {
                "endTime": 2.125,
                "isDrum": true,
                "startTime": 2,
                "instrument": 9,
                "pitch": 42,
                "velocity": 100
            },
            {
                "endTime": 2.125,
                "isDrum": true,
                "startTime": 2,
                "instrument": 9,
                "pitch": 36,
                "velocity": 100
            },
            {
                "endTime": 2.375,
                "isDrum": true,
                "startTime": 2.25,
                "instrument": 9,
                "pitch": 42,
                "velocity": 100
            },
            {
                "endTime": 2.625,
                "isDrum": true,
                "startTime": 2.5,
                "instrument": 9,
                "pitch": 42,
                "velocity": 100
            },
            {
                "endTime": 2.625,
                "isDrum": true,
                "startTime": 2.5,
                "instrument": 9,
                "pitch": 45,
                "velocity": 100
            },
            {
                "endTime": 2.625,
                "isDrum": true,
                "startTime": 2.5,
                "instrument": 9,
                "pitch": 38,
                "velocity": 100
            },
            {
                "endTime": 2.875,
                "isDrum": true,
                "startTime": 2.75,
                "instrument": 9,
                "pitch": 42,
                "velocity": 100
            },
            {
                "endTime": 2.875,
                "isDrum": true,
                "startTime": 2.75,
                "instrument": 9,
                "pitch": 36,
                "velocity": 100
            },
            {
                "endTime": 3.125,
                "isDrum": true,
                "startTime": 3,
                "instrument": 9,
                "pitch": 42,
                "velocity": 100
            },
            {
                "endTime": 3.125,
                "isDrum": true,
                "startTime": 3,
                "instrument": 9,
                "pitch": 36,
                "velocity": 100
            },
            {
                "endTime": 3.375,
                "isDrum": true,
                "startTime": 3.25,
                "instrument": 9,
                "pitch": 42,
                "velocity": 100
            },
            {
                "endTime": 3.375,
                "isDrum": true,
                "startTime": 3.25,
                "instrument": 9,
                "pitch": 45,
                "velocity": 100
            },
            {
                "endTime": 3.375,
                "isDrum": true,
                "startTime": 3.25,
                "instrument": 9,
                "pitch": 38,
                "velocity": 100
            },
            {
                "endTime": 3.625,
                "isDrum": true,
                "startTime": 3.5,
                "instrument": 9,
                "pitch": 42,
                "velocity": 100
            },
            {
                "endTime": 3.625,
                "isDrum": true,
                "startTime": 3.5,
                "instrument": 9,
                "pitch": 45,
                "velocity": 100
            },
            {
                "endTime": 3.875,
                "isDrum": true,
                "startTime": 3.75,
                "instrument": 9,
                "pitch": 42,
                "velocity": 100
            },
            {
                "endTime": 3.875,
                "isDrum": true,
                "startTime": 3.75,
                "instrument": 9,
                "pitch": 36,
                "velocity": 100
            },
            {
                "endTime": 3.875,
                "isDrum": true,
                "startTime": 3.75,
                "instrument": 9,
                "pitch": 45,
                "velocity": 100
            }
        ],
        "totalTime": 3.875,
        "ticksPerQuarter": 220,
        "tempos": [
            {
                "qpm": 120
            }
        ]
    },
    {
        "notes": [
            {
                "velocity": 100,
                "isDrum": true,
                "instrument": 9,
                "pitch": 49,
                "endTime": 0.125
            },
            {
                "velocity": 100,
                "isDrum": true,
                "instrument": 9,
                "pitch": 36,
                "endTime": 0.125
            },
            {
                "velocity": 100,
                "isDrum": true,
                "instrument": 9,
                "pitch": 45,
                "endTime": 0.125
            },
            {
                "velocity": 100,
                "isDrum": true,
                "instrument": 9,
                "pitch": 46,
                "endTime": 0.125
            },
            {
                "endTime": 0.375,
                "isDrum": true,
                "startTime": 0.25,
                "instrument": 9,
                "pitch": 42,
                "velocity": 100
            },
            {
                "endTime": 0.625,
                "isDrum": true,
                "startTime": 0.5,
                "instrument": 9,
                "pitch": 42,
                "velocity": 100
            },
            {
                "endTime": 0.875,
                "isDrum": true,
                "startTime": 0.75,
                "instrument": 9,
                "pitch": 42,
                "velocity": 100
            },
            {
                "endTime": 0.875,
                "isDrum": true,
                "startTime": 0.75,
                "instrument": 9,
                "pitch": 36,
                "velocity": 100
            },
            {
                "endTime": 0.875,
                "isDrum": true,
                "startTime": 0.75,
                "instrument": 9,
                "pitch": 38,
                "velocity": 100
            },
            {
                "endTime": 1.125,
                "isDrum": true,
                "startTime": 1,
                "instrument": 9,
                "pitch": 42,
                "velocity": 100
            },
            {
                "endTime": 1.125,
                "isDrum": true,
                "startTime": 1,
                "instrument": 9,
                "pitch": 36,
                "velocity": 100
            },
            {
                "endTime": 1.375,
                "isDrum": true,
                "startTime": 1.25,
                "instrument": 9,
                "pitch": 42,
                "velocity": 100
            },
            {
                "endTime": 1.625,
                "isDrum": true,
                "startTime": 1.5,
                "instrument": 9,
                "pitch": 42,
                "velocity": 100
            },
            {
                "endTime": 1.625,
                "isDrum": true,
                "startTime": 1.5,
                "instrument": 9,
                "pitch": 45,
                "velocity": 100
            },
            {
                "endTime": 1.625,
                "isDrum": true,
                "startTime": 1.5,
                "instrument": 9,
                "pitch": 38,
                "velocity": 100
            },
            {
                "endTime": 1.875,
                "isDrum": true,
                "startTime": 1.75,
                "instrument": 9,
                "pitch": 42,
                "velocity": 100
            },
            {
                "endTime": 1.875,
                "isDrum": true,
                "startTime": 1.75,
                "instrument": 9,
                "pitch": 36,
                "velocity": 100
            },
            {
                "endTime": 1.875,
                "isDrum": true,
                "startTime": 1.75,
                "instrument": 9,
                "pitch": 45,
                "velocity": 100
            },
            {
                "endTime": 2.125,
                "isDrum": true,
                "startTime": 2,
                "instrument": 9,
                "pitch": 42,
                "velocity": 100
            },
            {
                "endTime": 2.125,
                "isDrum": true,
                "startTime": 2,
                "instrument": 9,
                "pitch": 36,
                "velocity": 100
            },
            {
                "endTime": 2.375,
                "isDrum": true,
                "startTime": 2.25,
                "instrument": 9,
                "pitch": 42,
                "velocity": 100
            },
            {
                "endTime": 2.625,
                "isDrum": true,
                "startTime": 2.5,
                "instrument": 9,
                "pitch": 42,
                "velocity": 100
            },
            {
                "endTime": 2.625,
                "isDrum": true,
                "startTime": 2.5,
                "instrument": 9,
                "pitch": 45,
                "velocity": 100
            },
            {
                "endTime": 2.625,
                "isDrum": true,
                "startTime": 2.5,
                "instrument": 9,
                "pitch": 38,
                "velocity": 100
            },
            {
                "endTime": 2.875,
                "isDrum": true,
                "startTime": 2.75,
                "instrument": 9,
                "pitch": 42,
                "velocity": 100
            },
            {
                "endTime": 2.875,
                "isDrum": true,
                "startTime": 2.75,
                "instrument": 9,
                "pitch": 36,
                "velocity": 100
            },
            {
                "endTime": 3.125,
                "isDrum": true,
                "startTime": 3,
                "instrument": 9,
                "pitch": 42,
                "velocity": 100
            },
            {
                "endTime": 3.125,
                "isDrum": true,
                "startTime": 3,
                "instrument": 9,
                "pitch": 36,
                "velocity": 100
            },
            {
                "endTime": 3.375,
                "isDrum": true,
                "startTime": 3.25,
                "instrument": 9,
                "pitch": 42,
                "velocity": 100
            },
            {
                "endTime": 3.375,
                "isDrum": true,
                "startTime": 3.25,
                "instrument": 9,
                "pitch": 45,
                "velocity": 100
            },
            {
                "endTime": 3.375,
                "isDrum": true,
                "startTime": 3.25,
                "instrument": 9,
                "pitch": 38,
                "velocity": 100
            },
            {
                "endTime": 3.625,
                "isDrum": true,
                "startTime": 3.5,
                "instrument": 9,
                "pitch": 42,
                "velocity": 100
            },
            {
                "endTime": 3.625,
                "isDrum": true,
                "startTime": 3.5,
                "instrument": 9,
                "pitch": 45,
                "velocity": 100
            },
            {
                "endTime": 3.875,
                "isDrum": true,
                "startTime": 3.75,
                "instrument": 9,
                "pitch": 42,
                "velocity": 100
            },
            {
                "endTime": 3.875,
                "isDrum": true,
                "startTime": 3.75,
                "instrument": 9,
                "pitch": 36,
                "velocity": 100
            },
            {
                "endTime": 3.875,
                "isDrum": true,
                "startTime": 3.75,
                "instrument": 9,
                "pitch": 45,
                "velocity": 100
            }
        ],
        "totalTime": 3.875,
        "ticksPerQuarter": 220,
        "tempos": [
            {
                "qpm": 120
            }
        ]
    },
    {
        "notes": [
            {
                "velocity": 100,
                "isDrum": true,
                "instrument": 9,
                "pitch": 42,
                "endTime": 0.125
            },
            {
                "velocity": 100,
                "isDrum": true,
                "instrument": 9,
                "pitch": 36,
                "endTime": 0.125
            },
            {
                "velocity": 100,
                "isDrum": true,
                "instrument": 9,
                "pitch": 45,
                "endTime": 0.125
            },
            {
                "velocity": 100,
                "isDrum": true,
                "instrument": 9,
                "pitch": 46,
                "endTime": 0.125
            },
            {
                "endTime": 0.375,
                "isDrum": true,
                "startTime": 0.25,
                "instrument": 9,
                "pitch": 42,
                "velocity": 100
            },
            {
                "endTime": 0.625,
                "isDrum": true,
                "startTime": 0.5,
                "instrument": 9,
                "pitch": 42,
                "velocity": 100
            },
            {
                "endTime": 0.875,
                "isDrum": true,
                "startTime": 0.75,
                "instrument": 9,
                "pitch": 42,
                "velocity": 100
            },
            {
                "endTime": 0.875,
                "isDrum": true,
                "startTime": 0.75,
                "instrument": 9,
                "pitch": 36,
                "velocity": 100
            },
            {
                "endTime": 0.875,
                "isDrum": true,
                "startTime": 0.75,
                "instrument": 9,
                "pitch": 38,
                "velocity": 100
            },
            {
                "endTime": 1.125,
                "isDrum": true,
                "startTime": 1,
                "instrument": 9,
                "pitch": 42,
                "velocity": 100
            },
            {
                "endTime": 1.125,
                "isDrum": true,
                "startTime": 1,
                "instrument": 9,
                "pitch": 36,
                "velocity": 100
            },
            {
                "endTime": 1.375,
                "isDrum": true,
                "startTime": 1.25,
                "instrument": 9,
                "pitch": 42,
                "velocity": 100
            },
            {
                "endTime": 1.625,
                "isDrum": true,
                "startTime": 1.5,
                "instrument": 9,
                "pitch": 42,
                "velocity": 100
            },
            {
                "endTime": 1.625,
                "isDrum": true,
                "startTime": 1.5,
                "instrument": 9,
                "pitch": 38,
                "velocity": 100
            },
            {
                "endTime": 1.875,
                "isDrum": true,
                "startTime": 1.75,
                "instrument": 9,
                "pitch": 42,
                "velocity": 100
            },
            {
                "endTime": 1.875,
                "isDrum": true,
                "startTime": 1.75,
                "instrument": 9,
                "pitch": 36,
                "velocity": 100
            },
            {
                "endTime": 1.875,
                "isDrum": true,
                "startTime": 1.75,
                "instrument": 9,
                "pitch": 45,
                "velocity": 100
            },
            {
                "endTime": 2.125,
                "isDrum": true,
                "startTime": 2,
                "instrument": 9,
                "pitch": 42,
                "velocity": 100
            },
            {
                "endTime": 2.125,
                "isDrum": true,
                "startTime": 2,
                "instrument": 9,
                "pitch": 36,
                "velocity": 100
            },
            {
                "endTime": 2.375,
                "isDrum": true,
                "startTime": 2.25,
                "instrument": 9,
                "pitch": 42,
                "velocity": 100
            },
            {
                "endTime": 2.625,
                "isDrum": true,
                "startTime": 2.5,
                "instrument": 9,
                "pitch": 42,
                "velocity": 100
            },
            {
                "endTime": 2.625,
                "isDrum": true,
                "startTime": 2.5,
                "instrument": 9,
                "pitch": 45,
                "velocity": 100
            },
            {
                "endTime": 2.625,
                "isDrum": true,
                "startTime": 2.5,
                "instrument": 9,
                "pitch": 38,
                "velocity": 100
            },
            {
                "endTime": 2.875,
                "isDrum": true,
                "startTime": 2.75,
                "instrument": 9,
                "pitch": 42,
                "velocity": 100
            },
            {
                "endTime": 2.875,
                "isDrum": true,
                "startTime": 2.75,
                "instrument": 9,
                "pitch": 36,
                "velocity": 100
            },
            {
                "endTime": 3.125,
                "isDrum": true,
                "startTime": 3,
                "instrument": 9,
                "pitch": 42,
                "velocity": 100
            },
            {
                "endTime": 3.125,
                "isDrum": true,
                "startTime": 3,
                "instrument": 9,
                "pitch": 36,
                "velocity": 100
            },
            {
                "endTime": 3.125,
                "isDrum": true,
                "startTime": 3,
                "instrument": 9,
                "pitch": 50,
                "velocity": 100
            },
            {
                "endTime": 3.375,
                "isDrum": true,
                "startTime": 3.25,
                "instrument": 9,
                "pitch": 42,
                "velocity": 100
            },
            {
                "endTime": 3.375,
                "isDrum": true,
                "startTime": 3.25,
                "instrument": 9,
                "pitch": 45,
                "velocity": 100
            },
            {
                "endTime": 3.375,
                "isDrum": true,
                "startTime": 3.25,
                "instrument": 9,
                "pitch": 38,
                "velocity": 100
            },
            {
                "endTime": 3.625,
                "isDrum": true,
                "startTime": 3.5,
                "instrument": 9,
                "pitch": 42,
                "velocity": 100
            },
            {
                "endTime": 3.625,
                "isDrum": true,
                "startTime": 3.5,
                "instrument": 9,
                "pitch": 45,
                "velocity": 100
            },
            {
                "endTime": 3.875,
                "isDrum": true,
                "startTime": 3.75,
                "instrument": 9,
                "pitch": 42,
                "velocity": 100
            },
            {
                "endTime": 3.875,
                "isDrum": true,
                "startTime": 3.75,
                "instrument": 9,
                "pitch": 36,
                "velocity": 100
            },
            {
                "endTime": 3.875,
                "isDrum": true,
                "startTime": 3.75,
                "instrument": 9,
                "pitch": 45,
                "velocity": 100
            }
        ],
        "totalTime": 3.875,
        "ticksPerQuarter": 220,
        "tempos": [
            {
                "qpm": 120
            }
        ]
    },
    {
        "notes": [
            {
                "endTime": 0.375,
                "isDrum": true,
                "startTime": 0.25,
                "instrument": 9,
                "pitch": 42,
                "velocity": 100
            },
            {
                "endTime": 0.625,
                "isDrum": true,
                "startTime": 0.5,
                "instrument": 9,
                "pitch": 42,
                "velocity": 100
            },
            {
                "endTime": 0.875,
                "isDrum": true,
                "startTime": 0.75,
                "instrument": 9,
                "pitch": 42,
                "velocity": 100
            },
            {
                "endTime": 0.875,
                "isDrum": true,
                "startTime": 0.75,
                "instrument": 9,
                "pitch": 36,
                "velocity": 100
            },
            {
                "endTime": 0.875,
                "isDrum": true,
                "startTime": 0.75,
                "instrument": 9,
                "pitch": 38,
                "velocity": 100
            },
            {
                "endTime": 1.375,
                "isDrum": true,
                "startTime": 1.25,
                "instrument": 9,
                "pitch": 42,
                "velocity": 100
            },
            {
                "endTime": 1.625,
                "isDrum": true,
                "startTime": 1.5,
                "instrument": 9,
                "pitch": 42,
                "velocity": 100
            },
            {
                "endTime": 1.625,
                "isDrum": true,
                "startTime": 1.5,
                "instrument": 9,
                "pitch": 38,
                "velocity": 100
            },
            {
                "endTime": 1.875,
                "isDrum": true,
                "startTime": 1.75,
                "instrument": 9,
                "pitch": 42,
                "velocity": 100
            },
            {
                "endTime": 1.875,
                "isDrum": true,
                "startTime": 1.75,
                "instrument": 9,
                "pitch": 36,
                "velocity": 100
            },
            {
                "endTime": 2.125,
                "isDrum": true,
                "startTime": 2,
                "instrument": 9,
                "pitch": 42,
                "velocity": 100
            },
            {
                "endTime": 2.125,
                "isDrum": true,
                "startTime": 2,
                "instrument": 9,
                "pitch": 36,
                "velocity": 100
            },
            {
                "endTime": 2.125,
                "isDrum": true,
                "startTime": 2,
                "instrument": 9,
                "pitch": 50,
                "velocity": 100
            },
            {
                "endTime": 2.375,
                "isDrum": true,
                "startTime": 2.25,
                "instrument": 9,
                "pitch": 42,
                "velocity": 100
            },
            {
                "endTime": 2.625,
                "isDrum": true,
                "startTime": 2.5,
                "instrument": 9,
                "pitch": 42,
                "velocity": 100
            },
            {
                "endTime": 2.625,
                "isDrum": true,
                "startTime": 2.5,
                "instrument": 9,
                "pitch": 45,
                "velocity": 100
            },
            {
                "endTime": 2.875,
                "isDrum": true,
                "startTime": 2.75,
                "instrument": 9,
                "pitch": 42,
                "velocity": 100
            },
            {
                "endTime": 2.875,
                "isDrum": true,
                "startTime": 2.75,
                "instrument": 9,
                "pitch": 36,
                "velocity": 100
            },
            {
                "endTime": 3.125,
                "isDrum": true,
                "startTime": 3,
                "instrument": 9,
                "pitch": 42,
                "velocity": 100
            },
            {
                "endTime": 3.125,
                "isDrum": true,
                "startTime": 3,
                "instrument": 9,
                "pitch": 36,
                "velocity": 100
            },
            {
                "endTime": 3.125,
                "isDrum": true,
                "startTime": 3,
                "instrument": 9,
                "pitch": 50,
                "velocity": 100
            },
            {
                "endTime": 3.375,
                "isDrum": true,
                "startTime": 3.25,
                "instrument": 9,
                "pitch": 45,
                "velocity": 100
            },
            {
                "endTime": 3.375,
                "isDrum": true,
                "startTime": 3.25,
                "instrument": 9,
                "pitch": 46,
                "velocity": 100
            },
            {
                "endTime": 3.625,
                "isDrum": true,
                "startTime": 3.5,
                "instrument": 9,
                "pitch": 42,
                "velocity": 100
            },
            {
                "endTime": 3.625,
                "isDrum": true,
                "startTime": 3.5,
                "instrument": 9,
                "pitch": 36,
                "velocity": 100
            },
            {
                "endTime": 3.625,
                "isDrum": true,
                "startTime": 3.5,
                "instrument": 9,
                "pitch": 45,
                "velocity": 100
            },
            {
                "endTime": 3.875,
                "isDrum": true,
                "startTime": 3.75,
                "instrument": 9,
                "pitch": 49,
                "velocity": 100
            },
            {
                "endTime": 3.875,
                "isDrum": true,
                "startTime": 3.75,
                "instrument": 9,
                "pitch": 42,
                "velocity": 100
            },
            {
                "endTime": 3.875,
                "isDrum": true,
                "startTime": 3.75,
                "instrument": 9,
                "pitch": 36,
                "velocity": 100
            }
        ],
        "totalTime": 3.875,
        "ticksPerQuarter": 220,
        "tempos": [
            {
                "qpm": 120
            }
        ]
    },
    {
        "notes": [
            {
                "endTime": 0.625,
                "isDrum": true,
                "startTime": 0.5,
                "instrument": 9,
                "pitch": 48,
                "velocity": 100
            },
            {
                "endTime": 0.625,
                "isDrum": true,
                "startTime": 0.5,
                "instrument": 9,
                "pitch": 42,
                "velocity": 100
            },
            {
                "endTime": 1.375,
                "isDrum": true,
                "startTime": 1.25,
                "instrument": 9,
                "pitch": 42,
                "velocity": 100
            },
            {
                "endTime": 1.375,
                "isDrum": true,
                "startTime": 1.25,
                "instrument": 9,
                "pitch": 36,
                "velocity": 100
            },
            {
                "endTime": 1.625,
                "isDrum": true,
                "startTime": 1.5,
                "instrument": 9,
                "pitch": 42,
                "velocity": 100
            },
            {
                "endTime": 1.625,
                "isDrum": true,
                "startTime": 1.5,
                "instrument": 9,
                "pitch": 50,
                "velocity": 100
            },
            {
                "endTime": 2.125,
                "isDrum": true,
                "startTime": 2,
                "instrument": 9,
                "pitch": 42,
                "velocity": 100
            },
            {
                "endTime": 2.125,
                "isDrum": true,
                "startTime": 2,
                "instrument": 9,
                "pitch": 36,
                "velocity": 100
            },
            {
                "endTime": 2.125,
                "isDrum": true,
                "startTime": 2,
                "instrument": 9,
                "pitch": 50,
                "velocity": 100
            },
            {
                "endTime": 2.375,
                "isDrum": true,
                "startTime": 2.25,
                "instrument": 9,
                "pitch": 42,
                "velocity": 100
            },
            {
                "endTime": 2.625,
                "isDrum": true,
                "startTime": 2.5,
                "instrument": 9,
                "pitch": 45,
                "velocity": 100
            },
            {
                "endTime": 2.625,
                "isDrum": true,
                "startTime": 2.5,
                "instrument": 9,
                "pitch": 46,
                "velocity": 100
            },
            {
                "endTime": 2.875,
                "isDrum": true,
                "startTime": 2.75,
                "instrument": 9,
                "pitch": 42,
                "velocity": 100
            },
            {
                "endTime": 2.875,
                "isDrum": true,
                "startTime": 2.75,
                "instrument": 9,
                "pitch": 36,
                "velocity": 100
            },
            {
                "endTime": 2.875,
                "isDrum": true,
                "startTime": 2.75,
                "instrument": 9,
                "pitch": 50,
                "velocity": 100
            },
            {
                "endTime": 3.125,
                "isDrum": true,
                "startTime": 3,
                "instrument": 9,
                "pitch": 42,
                "velocity": 100
            },
            {
                "endTime": 3.125,
                "isDrum": true,
                "startTime": 3,
                "instrument": 9,
                "pitch": 36,
                "velocity": 100
            },
            {
                "endTime": 3.125,
                "isDrum": true,
                "startTime": 3,
                "instrument": 9,
                "pitch": 50,
                "velocity": 100
            },
            {
                "endTime": 3.375,
                "isDrum": true,
                "startTime": 3.25,
                "instrument": 9,
                "pitch": 42,
                "velocity": 100
            },
            {
                "endTime": 3.375,
                "isDrum": true,
                "startTime": 3.25,
                "instrument": 9,
                "pitch": 38,
                "velocity": 100
            },
            {
                "endTime": 3.625,
                "isDrum": true,
                "startTime": 3.5,
                "instrument": 9,
                "pitch": 50,
                "velocity": 100
            },
            {
                "endTime": 3.625,
                "isDrum": true,
                "startTime": 3.5,
                "instrument": 9,
                "pitch": 46,
                "velocity": 100
            },
            {
                "endTime": 3.875,
                "isDrum": true,
                "startTime": 3.75,
                "instrument": 9,
                "pitch": 49,
                "velocity": 100
            },
            {
                "endTime": 3.875,
                "isDrum": true,
                "startTime": 3.75,
                "instrument": 9,
                "pitch": 42,
                "velocity": 100
            },
            {
                "endTime": 3.875,
                "isDrum": true,
                "startTime": 3.75,
                "instrument": 9,
                "pitch": 36,
                "velocity": 100
            }
        ],
        "totalTime": 3.875,
        "ticksPerQuarter": 220,
        "tempos": [
            {
                "qpm": 120
            }
        ]
    },
    {
        "notes": [
            {
                "endTime": 0.625,
                "isDrum": true,
                "startTime": 0.5,
                "instrument": 9,
                "pitch": 42,
                "velocity": 100
            },
            {
                "endTime": 0.625,
                "isDrum": true,
                "startTime": 0.5,
                "instrument": 9,
                "pitch": 45,
                "velocity": 100
            },
            {
                "endTime": 1.625,
                "isDrum": true,
                "startTime": 1.5,
                "instrument": 9,
                "pitch": 42,
                "velocity": 100
            },
            {
                "endTime": 1.625,
                "isDrum": true,
                "startTime": 1.5,
                "instrument": 9,
                "pitch": 50,
                "velocity": 100
            },
            {
                "endTime": 2.125,
                "isDrum": true,
                "startTime": 2,
                "instrument": 9,
                "pitch": 42,
                "velocity": 100
            },
            {
                "endTime": 2.125,
                "isDrum": true,
                "startTime": 2,
                "instrument": 9,
                "pitch": 36,
                "velocity": 100
            },
            {
                "endTime": 2.125,
                "isDrum": true,
                "startTime": 2,
                "instrument": 9,
                "pitch": 50,
                "velocity": 100
            },
            {
                "endTime": 2.625,
                "isDrum": true,
                "startTime": 2.5,
                "instrument": 9,
                "pitch": 48,
                "velocity": 100
            },
            {
                "endTime": 2.625,
                "isDrum": true,
                "startTime": 2.5,
                "instrument": 9,
                "pitch": 42,
                "velocity": 100
            },
            {
                "endTime": 2.875,
                "isDrum": true,
                "startTime": 2.75,
                "instrument": 9,
                "pitch": 50,
                "velocity": 100
            },
            {
                "endTime": 3.125,
                "isDrum": true,
                "startTime": 3,
                "instrument": 9,
                "pitch": 42,
                "velocity": 100
            },
            {
                "endTime": 3.125,
                "isDrum": true,
                "startTime": 3,
                "instrument": 9,
                "pitch": 36,
                "velocity": 100
            },
            {
                "endTime": 3.125,
                "isDrum": true,
                "startTime": 3,
                "instrument": 9,
                "pitch": 50,
                "velocity": 100
            },
            {
                "endTime": 3.375,
                "isDrum": true,
                "startTime": 3.25,
                "instrument": 9,
                "pitch": 48,
                "velocity": 100
            },
            {
                "endTime": 3.625,
                "isDrum": true,
                "startTime": 3.5,
                "instrument": 9,
                "pitch": 42,
                "velocity": 100
            },
            {
                "endTime": 3.625,
                "isDrum": true,
                "startTime": 3.5,
                "instrument": 9,
                "pitch": 50,
                "velocity": 100
            },
            {
                "endTime": 3.875,
                "isDrum": true,
                "startTime": 3.75,
                "instrument": 9,
                "pitch": 36,
                "velocity": 100
            }
        ],
        "totalTime": 3.875,
        "ticksPerQuarter": 220,
        "tempos": [
            {
                "qpm": 120
            }
        ]
    },
    {
        "notes": [
            {
                "endTime": 0.625,
                "isDrum": true,
                "startTime": 0.5,
                "instrument": 9,
                "pitch": 42,
                "velocity": 100
            },
            {
                "endTime": 0.625,
                "isDrum": true,
                "startTime": 0.5,
                "instrument": 9,
                "pitch": 50,
                "velocity": 100
            },
            {
                "endTime": 1.625,
                "isDrum": true,
                "startTime": 1.5,
                "instrument": 9,
                "pitch": 42,
                "velocity": 100
            },
            {
                "endTime": 1.625,
                "isDrum": true,
                "startTime": 1.5,
                "instrument": 9,
                "pitch": 36,
                "velocity": 100
            },
            {
                "endTime": 2.625,
                "isDrum": true,
                "startTime": 2.5,
                "instrument": 9,
                "pitch": 50,
                "velocity": 100
            },
            {
                "endTime": 2.625,
                "isDrum": true,
                "startTime": 2.5,
                "instrument": 9,
                "pitch": 46,
                "velocity": 100
            },
            {
                "endTime": 2.875,
                "isDrum": true,
                "startTime": 2.75,
                "instrument": 9,
                "pitch": 50,
                "velocity": 100
            },
            {
                "endTime": 3.375,
                "isDrum": true,
                "startTime": 3.25,
                "instrument": 9,
                "pitch": 45,
                "velocity": 100
            },
            {
                "endTime": 3.625,
                "isDrum": true,
                "startTime": 3.5,
                "instrument": 9,
                "pitch": 42,
                "velocity": 100
            },
            {
                "endTime": 3.625,
                "isDrum": true,
                "startTime": 3.5,
                "instrument": 9,
                "pitch": 36,
                "velocity": 100
            },
            {
                "endTime": 3.625,
                "isDrum": true,
                "startTime": 3.5,
                "instrument": 9,
                "pitch": 50,
                "velocity": 100
            }
        ],
        "totalTime": 3.625,
        "ticksPerQuarter": 220,
        "tempos": [
            {
                "qpm": 120
            }
        ]
    },
    {
        "notes": [
            {
                "endTime": 0.625,
                "isDrum": true,
                "startTime": 0.5,
                "instrument": 9,
                "pitch": 50,
                "velocity": 100
            },
            {
                "endTime": 2.625,
                "isDrum": true,
                "startTime": 2.5,
                "instrument": 9,
                "pitch": 50,
                "velocity": 100
            },
            {
                "endTime": 2.625,
                "isDrum": true,
                "startTime": 2.5,
                "instrument": 9,
                "pitch": 46,
                "velocity": 100
            },
            {
                "endTime": 3.375,
                "isDrum": true,
                "startTime": 3.25,
                "instrument": 9,
                "pitch": 50,
                "velocity": 100
            },
            {
                "endTime": 3.625,
                "isDrum": true,
                "startTime": 3.5,
                "instrument": 9,
                "pitch": 50,
                "velocity": 100
            }
        ],
        "totalTime": 3.625,
        "ticksPerQuarter": 220,
        "tempos": [
            {
                "qpm": 120
            }
        ]
    },
    {
        "notes": [
            {
                "endTime": 0.625,
                "isDrum": true,
                "startTime": 0.5,
                "instrument": 9,
                "pitch": 50,
                "velocity": 100
            },
            {
                "endTime": 2.625,
                "isDrum": true,
                "startTime": 2.5,
                "instrument": 9,
                "pitch": 50,
                "velocity": 100
            }
        ],
        "totalTime": 2.625,
        "ticksPerQuarter": 220,
        "tempos": [
            {
                "qpm": 120
            }
        ]
    },
    {
        "notes": [
            {
                "endTime": 0.625,
                "isDrum": true,
                "startTime": 0.5,
                "instrument": 9,
                "pitch": 50,
                "velocity": 100
            },
            {
                "endTime": 2.625,
                "isDrum": true,
                "startTime": 2.5,
                "instrument": 9,
                "pitch": 50,
                "velocity": 100
            }
        ],
        "totalTime": 2.625,
        "ticksPerQuarter": 220,
        "tempos": [
            {
                "qpm": 120
            }
        ]
    },
    {
        "notes": [
            {
                "endTime": 0.625,
                "isDrum": true,
                "startTime": 0.5,
                "instrument": 9,
                "pitch": 50,
                "velocity": 100
            },
            {
                "endTime": 2.625,
                "isDrum": true,
                "startTime": 2.5,
                "instrument": 9,
                "pitch": 50,
                "velocity": 100
            }
        ],
        "totalTime": 2.625,
        "ticksPerQuarter": 220,
        "tempos": [
            {
                "qpm": 120
            }
        ]
    }
]
